<?xml version="1.0" encoding="UTF-8"?>
<svg id="Camada_1" xmlns="http://www.w3.org/2000/svg" version="1.1" viewBox="0 0 1900.8 1419.26">
  <!-- Generator: Adobe Illustrator 30.3.0, SVG Export Plug-In . SVG Version: 2.1.3 Build 182)  -->
  <defs>
    <style>
      .st0 {
        stroke: #f6f6f6;
        stroke-miterlimit: 10;
        stroke-width: .1px;
      }

      .st1 {
        fill: #fff;
      }
    </style>
  </defs>
  <path class="st0" d="M1718.55,490.9l-33.05,18.27c-40.44,17.95-83,27.5-126.78,35.46l-67.57,12.28-17.33,81.25-24.45,132.03c-1.68,9.08-6.07,15.79-16.16,18.12l-30.55,7.04c-10.53,2.43-19.62,1.88-30.23,5.81-13.37-19.82-39-30.21-66.26-26.01l39.81,10.46c7.32,1.92,19.99,9.59,19.28,18.05-1.4,16.57-5.12,34.06-13.23,48.98-18.07,33.23-46.78,59.85-79.44,80.74-17.8,11.39-31.37,24.02-43.96,40.14l-26.49,27.18,5.51,12.31c-11.5,23.08-25.18,47.23-48.02,62.66-34.96,23.62-104.49,37.26-150.59,46.32l3.47,23.79c3.45,23.65,1.74,47.81-6.81,70.32-7.79,27.17-22.24,50.99-44.58,69.66l-8.41,2.63c-1.91.6-4.52-4.25-4.94-6.25l-5.78-27.17c-10.46-49.18-66.9-87.94-120.8-98.21l-14.94,8.03-12.64,8.09c-3.02-7.27-3.55-12.06-1.31-16.82l18.85,3.95-1.54-5.26c-.57-1.94-5.57-3.05-8.17-3.28l-43.87-3.79-28.75-1.01-17.24,42.94c-1.01,2.53-5.04,6.51-7.29,7.25-2.57.85-8.85-2.39-10.33-4.55l-24.11-35.28c-29.57,2.74-54.62,16.29-68.07,39.97-6.44,11.34-10.72,26.15-8.1,38.45l5.84,27.42,5.89,19.7c-13.82-2.24-24.2-5.11-35.46-11.44-32.99-18.53-72.13-48.63-81.88-82.78-4.07-14.25-2.66-28-4-42.43l-7.11,33.77c-13.22-11.73-15.87-26.15-17.45-41.06-3.75-35.24,6.1-68.08,30.5-95.73,11.09-12.57,24.92-21.88,39.24-33.76-28.66,7.48-48.96,27.8-64.02,51.4-6.86,10.76-11.85,20.88-13.23,33.81-2.33,21.78-1.67,44.01,5.42,64.65,3.9,11.33,11.43,18.22,17.75,28.14l20.07,31.48c.46.72.84,4.55.15,4.37l-2.88-.76c-8.28,3.3-14.92,5-23.89,6.43-11.09,1.77-21.13,8.06-31.79,12.39l3.78-7.68-21.82,8.7-3.47-6.05,23.4-21.28c-21.17,7.37-36.7,17.92-56.39,28.42,3.46-5.23,7.88-9.03,11.82-13.09l21.99-28.53c-14.68,8.22-24.98,17.83-37.8,26.86-9.76,6.88-21.39,10.18-32.5,14.24-14.68,5.37-28.05,13.19-41.84,20.46-5.15,2.71-10.56,5.08-15.97,2.27,19.87-13,37.31-23.28,53.7-38.23l-35.83,16.68-53.17,26.95-2.73-3.82,67.41-54.61,32.51-27.23,26.64-23.6-32.27,8.8-19.44,7.24-19.05,7.09c-8.35,3.11-16.12,4.83-25.13,1.75,9.59-9.1,18.57-13,28.17-18.95l11.06-10.2c3.93-3.62,7.23-5.67,11.25-8.88l21.18-16.86c-6.66-.1-12.08.88-17.23,3.01l-33.24,13.77c-3.22,1.33-5.57,7.94-11.36,1.64,11.08-9.54,23.47-14.35,35.1-22.25l41.46-28.18-17.8,3.16,11.27-8.35c-20.51.49-35.57,10.45-55.52,13.03l35.35-23.13c15.33-10.03,30.92-17.69,45.1-29.2l-27.41,9.22,16.19-13.93c2.55-2.19,9.36-5.04,12.23-6.56l-3-.93-24.76,10.28.35,4.65c.09,1.17-3.85,2.38-4.94,2.37l1.68-4.58c.35-.96-3.73-2.9-4.56-2.27l-9.28,7.07-2.05-6.39c-.43-1.35,3.87-3.19,5.72-4.01l-3.49-2.75c-1.08-.85,1.48-3.66,2.28-4.79l2.4-3.41c.35-.5.37-1.33-.26-1.22l-4.96.88-14.97,4.69c-3.56,1.12-8.14,1.3-11.28.33,11.81-12.05,25.13-12.28,41.84-14.32l-5.75,8.65c3.76.27,7.58-.26,11.18-1.62l33.26-12.54-29.89,3.67-15.27-.8-52.66,8.76c28.91-13.56,57.21-24.75,87.1-36.11-14.22-.7-28.1,1.46-40.19,6.43l-27.25,11.19c5.79-6.65,12.52-8.46,19.89-11.36l-5.16-1.57c-.69-.21-.97-.53-.62-1.06.38-.57,2.59-3.23,3.25-3.56l33.28-16.98-30.9,11.4c-15.21,5.61-14.35.75-27.83-.59-.78-.08-1.57-2.15-1.03-2.66.82-.78,3.23-2.47,4.52-2.9l28.34-9.42,26.46-5.82c-41.13,2.45-76.17,16.01-112.36,28.77-5,1.76-12.24,2.31-18.28,1.76,66.95-44.45,149.4-47.5,228.62-32.94-23.95-13.1-51.52-13.85-79.09-13.84-42.2,0-82.52,7.09-119.84,25.06-8.9,4.28-17.69,11.84-26.18,15.31l-32.07,13.1c-4.76,1.95-8.14,3.28-14.4,2.25,11.18-11.09,22.1-18.56,34.75-27.62l10.89-17.17-8.89-.83,8.03-9.61c-5.99-2.66-12.07-5.54-17.16-9.19l-32.74-23.43c-6.51-4.66-8.5-11.87-5.1-19.52l48.28-108.72c27.18-61.2,62.61-116.93,95.41-176.35-12.65,10.53-17.92,31.82-33.62,34.31l5.73-9.56c16.27-27.13,33.03-52.61,52.55-77.79-8.36,1.34-11.97,6.48-15.86,12.29l-41.11,61.4-9.51,15.09c-2.9,4.61-15.16,7.39-21.26,5.42-4.31-1.39-8.64-7.84-8.47-11.28.48-10.3,12.13-19.15,19.56-17.41,2.96.7,7.13,5.87,7.98,8.61l1.13,3.66c1.06,3.41.25-6.16,8.52-17.33,12.35-16.67,20.15-34.33,29.31-54.29-8.83,6.44-13.6,12.75-23.1,20.73-1.13-8.15,3.61-12.73,9.22-17.31-18.98-8.58-35.43-17.34-50.77-29.97-6.67-7.04-2.22-19.51,1.94-26.49l20.04-33.6c-25.03,5.76-66.54-20.22-80.68-36.67-9.36-10.88-7.72-30.93-.41-42.56,57.08-26.11,113.99-48.48,173.1-68.22,35.86-49.6,75.3-94.23,119.85-136.1,31.15-29.28,71.75-42.79,115.34-48.38l56.17-7.2c4.42-.57,14.21,2.92,17.33,6.31l23.73,25.74c102.44-8.59,203.48-14.84,305.62-18.44l11.46,5.08c6.73-4.44,13.86-6.13,21.14-4.93.67,3.91,1.06,4.64.05,4.91l-7.43,2.01,35.71,1.67,16.73-.35c17.53,9.7,40.53-4.3,49.2-.62,1.07.45,2.02,2.2,1.29,3.06l-3.65,4.29,17.03-5.95c20.01-7,42.86-9.78,63.27-1.66l29.17,15.27,11.41-28.46c1.53-3.81,8.22-7.89,13.01-8.13l37.76-1.89,40.16-3.24,16.56,7.71,24.46,15.84,39.06-30.82c6.49-5.12,15.45-4,22.05.32l30.38,19.87c15.57,10.18,33.91,17.66,47.19,30.83,7.48,7.42-.67,22.53-7.25,29.16-17.18,17.32-36.39,31.16-57.06,44.58l-44.22,28.71,1.38,3.31,33.92-21.23c29.48-18.45,57.47-36.95,81.61-63.91,4.9,5.56,2.07,12.38-2.23,17.23l-20.65,23.27c-5.46,6.15-16.04,11.18-23.84,15.68l-53.54,30.95c13.31,5.44,22.85,9.97,35.21,12.2l85.77,15.45c10.48,1.89,12.26,14.04,18.2,19.27l24.67,21.72c2.31,2.04,5.38,5.99,5.77,8.4.45,2.76-1.89,9.54-4.56,11.09l-28.03,16.22-47.17,19.1c13.06-.58,25.23-4.4,36.48-9.96l29.75-14.7c10.06-4.97,17.75-12.96,24.18-21.63,8.5,10.62-10.38,31.37-23.47,36.07l-24.96,8.97c-.65-.49,1.44,1.09,2.66,2.01l4.23,1.07c1.01.25-1.03,4.16-2.08,3.98l-11.8-1.96-33.75,5.63-48.29,3.56-16.84,4.02,51.66-1.44c44.4-3.79,87.2-5.32,131.93-5.34,7.99,0,20.04.77,26.76,3.05l43.24,34.8c8,6.44,10.47,15.39,6.02,25.12l1.34,1.56,2.5-3.25c.64-.83,5.35.82,4.94,1.77l-7.03,16.53c-13.52,11.17-28.87,20.86-46.52,25.8l-64.73,18.11-102.13,19.83-25.84,133.12-14.04,78.81c-.97,5.46-4.44,11.47-7.16,16.15l10.21,2.87c-9.94,5.38-17.21,8.36-27.98,11.66l37.53,2.98,85.03.22c3.56,0,10.3-8.54,14.2.88l-17.4,3.92-89.11,26.06-29.94,8.19c10.72,1.28,20.32-1.37,30.56-4.02l49.96-12.93c5.2-1.35,10.61-4.38,15.75,1.15l-70.02,19.9c-17.34,4.93-34.1,7.2-52.96,5.88-2.52,3.82-.36,5.16,3.38,2.36l46.37,3.29c7.37.52,17.3-.76,20.58,4.73l41.18-.3-52.3,14.22-52.93,14.3-37.47,10.68c21.36,3.23,40.57-12.7,71.01-8.6-11.45,5.62-22.3,7.61-35.79,9.41l4.52,3.16-56.09,7.25c26.13,4.94,49.9-4.41,80.17,6.09-11.83,3.24-18.64,4.21-26.97,9.64l17.38-3.09c-6.29,8.72-17.38,3.61-24.65,6.43-3.44,1.33-7.99,4.44-11.18,5.07l-58.1,11.44,26.56,2.13c.75.06,4.63,2.29,3.93,2.57-1.04.41-5.09,2.33-6.22,2.37l-25.6.99c16.47,4.17,32.39,8.32,47.89,16.42,11.89,6.21,23.44,9.85,37.29,11.25l4.48.45c.68.07,1.08,1.69.45,1.96-.96.41-3.3.87-4.35.72l-19.86-2.71c-9.23-1.26-21.06-.43-30.27.26l-25.08,1.88c-13.93,1.04-26.79-.01-39.45,2.55l39.71,3.61c19.81,1.8,37.95-.7,58.17,4.29,2.64.65,10.09-3.32,8.76,4.67l-30.2-5.45c-9.33-1.68-21.07.28-29.81,2.07-14.16,2.9-25.99.8-43.11,1.06l26.45,14.86c.5-.49,4.78-3.88,5.99-2.78,1.63,1.5,5.39,4.94,5.38,4.93-4.65.88-7.56,1.07-7.84,2.2l-1.8,7.09,31.81,11.18c-9.94,5.42-18.4,4.13-28.34,2.99-28.86-3.33-56.54-7.05-84.6-5.02,13.45,4.15,26.06,3.97,39.19,5.89l50.52,7.37-70.87.79-27.08-2.86c17.43,14.23,33.27,5.11,44.09,12.95l-5.51,3.65c.84-.56-3.38-7.82-26.13-2.87-10.46,2.28-20.52.07-30.78-2.93l1.68,6.73c.44,1.76-4.61,2.8-8.68,4.63l31.99,9.64c-8.45,2.62-12.76,2.73-15.45,10.97l-41.2-4.4c13.33,8.13,29.26,4.94,40.66,16.9l-6.21,4.78c-3.3,2.54-31.47-18.43-55.4-15.87,30.37,19.89,61.62,34.99,96.71,47.88-8.76,4.39-16.18-4.01-24.27-5.41l-106.87-18.61c3.67,4.27,7.78,6.49,12.54,8.69l27.65,12.81c-6.55,3.4-16,1.76-24.17-.5l-30.39-8.39-23.34-5.83,15.31,11.81c-2.09,1.84-4.03,3.03-3.05,3.16l8.05,1.1,35.48,11.69c-4.01,3.49-9.46-.16-13.64-.84l-47.06-7.69,15.74,11.18c-19.93-.77-33.01-6.61-51.62-9.97l17.18,8.48,1.75.58,24.06,10.51c1.34.58-1.06,5.94-2.42,5.4-7.93-3.12-7.08-5.56-16.38-9.99l-7.15-3.41-1.08-.8c-9.15,1.84-18.92-5.84-24.56-13.74l-12.31,4.32,15.81,13.88,14.61,12.82c-7.27.21-9.54.81-16.83,4.79l-7.01-6.95-4.91-4.87c-1.35-1.34-5.68,1.94-7.95,3.87l-6.13-7.22-12.42,10.69-3.11,17.01-3.73-.98.75-43.01-2.84-28.78c34.16-5.92,64.68-13.04,96.66-22.67l41.04,10.49c9.15,2.34,17,4.72,28.55,5.22-20.23-14.66-41.15-8.54-64.38-18.36,21.27-8.71,42.49-13.88,55.46-30.18l18.55-23.33,9.16-14.96c7.18-11.73,2.13-23.27,10.12-27.08l26.56,6.23,26.64,6.74c1.68.43,6.67-2.91,7.82-1.94l4.64,3.9-18.11,2.09,74.32,13.64c-5.42-4.44-10.79-7.69-16.82-10.23-16.81-7.09-28.59-16.84-42.21-28.54l4.6,9.77-20.13-7.67c-1.86-.71-6.49-3.97-5.19-5.09l5.97-5.1,3.35-12.25,41.81,4.99-7.03,2.91c15.86,1.25,31.14,2.24,48.37-.07-17.4-5.31-34.55-6-52.89-8.25l-31.49-3.86c9-3.19,18.23-4.55,28.59-5.66l-21.82-3.54,8.93-7.94c4.61-2.99,17.33,1.86,22.96.81l66.42-12.33-37.52,1.49-24.73.95c2.94-2.23,6.17-3.09,9.91-3.52l4.51-.52c.84-.1-.35-3.43-1.15-3.15l-4.86,1.73c-5.38-7.11-12.32-9.56-24.43-9.68l19.8-16.13c10.2,2.4,19.45,1.89,29.59-2.7l15.3-3.2,55.43-16.7,25.96-7.82c-14.1-4.44-28.11-2.69-43.61-3.59-12.07-.7-22.57-.72-35.11.33-5.23.44-11.21-2.06-15.56,3.06l37.01,3.71c-1.97,5.96-5.35,8.99-9.64,9.79l-20.32,3.79-28.81,4.48c17.22-19.36,31.08-37.16,41.75-59.28l22.38-3.1,18.17-1.13c-6.05,3.57-10.72,3.71-11.75,10.76l42.55-10.37,69.49-17.77-50.05-.44c-10.32-.09-19.43.19-29.55.24l-53.21.27,3.12-22.82,47.18-6.85c9.15-1.33,26.71-5.46,30.55-14.29,5.38-12.38,6.84-25.17,9.37-38.36l35.07-182.52,42.96-7.22,103.79-22.28c23.9-5.13,77.75-28.75,77.25-33.53l-.58-5.52-1.73-1.51ZM1483.99,376.31l24.47,2.16c1.52.13,6.95-3.81,5.95-4.8-.99-.98-4.5-4.36-6.36-4.73l-56.23-11.11,76.92,4.6,5.58-4.1c1.16-.86-3.33-3.85-4.86-4.1l-32.47-5.33,50.46-4.5c-3.69-8.6-10.57-7.94-17.63-9.33l-42.41-8.39c-46.97-9.29-104.8-29.04-149.61-50.36l95.31-59.14,47.38-37.74-15.78-5.12-10.97,11.71,6.09-14.82c-.93-.87-4.89-5.2-6.64-4.39l-9.3,4.28,5.37-10.26-10.6-11.05c-42.36,32.13-85.34,62.46-131.51,93.25,7.54-29.32,18.31-55.69,30.03-83.49l-22.22,1.72-21.92,27.89c1.74-9.44,5.3-18.47,9.04-27.3l-26.44,1.76-23.37,65.2-28.72,98.11c-5.68,19.42-10.48,36.11-12.44,57.06l11.58-4.15,4.92,2.68,15.32-29.45c-.64,13.52-3.35,27.57,2.28,38.91,1.18,2.37,9.07,2.28,10.1.19l4.24-8.57c1.19,6.07,4.25,12.62,9.61,12.14l8.68-43.08,11.67-41.33,38.2,18.22c49.39,23.56,99.73,41.78,156.29,46.78ZM406.27,426.29l30.36-43.98,42.49-14.03,43.42-12.7c-9.88,36.85-19.11,70.15-22.94,107.59-.5,4.93,12.2,9.15,15.33,6.28l8.33-27.44c1.06-3.5,4.46-7.89,7.2-10.32-2.52,15.98-3.98,28.35-3.43,44.68,10.04-.02,18.29-1.73,26.91-6.25,4.37-27.44,10.88-52.68,19.16-79.18l17.5-55.98,49.76-13.47c.08-2.23-1.53-5.8-3.08-6.3l-6.49-2.1c9.28-4.02,15.58-6.36,19.57-13.03-15.1-1.23-25.54-.27-37.24,2.74l6.52-10.09-18.83,7.83,32.63-89.57c1.14-3.12,6.11-8.66,7.48-11.71l15.55-34.65-44.93,6.12c-47.17,6.43-76.66,19.34-111.53,50.57-28.05,25.12-51.92,52.34-74.71,81.65l-37.42,48.11c-39.89,13.34-78.75,26.78-117.03,43.88l-49.77,22.23c11.29,6.25,23.56,8.47,34.28,5.47l13.88-3.89-26.11,15.62c4.43,6.82,13.5,10.03,23.01,6.33l86.9-33.74c-24.08,38.48-46.16,75.01-67.21,113.79,8.47.9,18.13.26,23.77-3.22,15.53-17.41,22.46-38.15,41.59-54.35l-29.02,49.11c-1.2,2.03.63,8.19,3.23,8.18l20.24-19.28c-1.52,4.87-2.63,10.62,1.35,13.51l59.28-88.4ZM722.03,321.24l29.52-65.41,6.6-19.22,66.32-6.48c-10.96,22.82-21.93,42.34-31.06,64.66-13.49,32.95-24.43,66.08-33.91,99.81,4.28,6.82,15.46,5.67,20.15.59.21,3.48.13,10.03,2.52,10.79,7.12,2.26,18.6.12,23.28-10.32l56.24-125.52,20.71-45.44,88.94-14.98c6.94-1.17,13.12-5.49,15.56-10.53l-39.96.86,61.04-15.76-12.14-4.46c-58.1.79-114.23,3.55-172.43,8.22-59.83,3.56-117.29,9.72-176.1,18.07l-11.47,12.95c-1.32,1.49-2.46,7.07-.57,7.69l10.27,3.35c-11.84,3.38-18.29,10.49-17.9,21.56l69.82-7.88c-29.26,60.48-52.54,120.28-70.27,183.75l12.18-2.47,8.01,10.87c10.31-13.85,17.41-25.91,23.54-40.89l12.3-30.1c1.77,20.98-9.24,35.77-11.61,55.97,2.09.68,6.83-.04,8.24-1.47l9.09-9.24c11.21-29.67,19.72-59.33,33.1-88.98ZM992.12,330.14c-2.32,21.54-4.92,36.49-2.87,55.66,6.64-5.89,7.53-9.14,11.34-15.6l-.2,13.17,13.44-.02,6.83-15.09,3.54,8.74c.68,1.68,6.65,1.45,7.44-.19s1.63-5.18,2.12-7.91l9.05-51.22,13.65-6.11c-1.53,12.31-1.74,26.37,4.79,37.39,11.44,19.31,33.73,27.07,57.49,23.98,27.87-3.62,52.36-17.86,73.71-34.67,12.11-9.53,22.34-17.86,28.18-33.48l-16.88,2.62-.11-11.26c-30.59,10.96-41.96,34.7-81.46,40.69-8.61,1.31-18.73-7.44-17.36-16.63,6.37-43.02,36.07-81.97,79.64-102.04,7.21,12.9-3.95,29.21,1.35,34.57,6.35,6.42,32.74-5.22,38.74-11.73,10.67-11.57,10.57-26.45,3.86-37.1-11.44-18.14-29.53-25.94-51.47-21.88-52.98,9.79-99.21,60.57-114.18,107.61l-16.47-1.29,15.09-75.74,6.36-25.11-17.74,2.61-6.37,7.66-1.25-8.16c-12.45-.06-31.15-2.31-40.69,7.54l-48.87,50.46-68.05,74.91c-10.78,2.12-22.68,4.77-32.34,10.2-2.04,1.14,2.9,7,6.16,8.11l-8.47,7.06,20.28.13-27.61,36.38c10.39,1.65,13.56-4.43,20.05-9.88l-4.66,15.01c10.51-1.2,12.52-6.95,18.9-13.72l-3.32,13.39c4.8-1.12,10.15-2.83,11.79-5.02l26.28-35.24,80.32-18.79ZM1339.84,388.51l10.11-3.43-22.12-9.28c-4.69,15.68-9.65,28.99-11.83,45.1l10.81-27.05c1.56-3.91,9.79-4.25,13.02-5.34ZM1022.17,466.69l51.88-8.67c5.55-.93,11.22-6.19,13.21-10.25l11.78-7.33c-5.68-1.31-11.65-3.4-14.83-3.13l-51.04,4.34,7.67-12.49c32.45-7.97,70.1-6.8,83.14-32.38-.63-2.17-6.43-5-9.9-4.73-36.83,2.85-72.69,8.11-108.31,15.59-2.16,2.02-6.37,6.56-7.37,8.91-12.97,30.48-23.99,60.9-34.43,92.08,2.99,4.26,7.3,7.83,12.15,10.46l112.71-23.59,3.76-4.2c.66-.74-.3-2.41-1.27-2.67l-5.77-1.57,9.33-7.92-14.49-1.45c-21.74-2.17-42.68,3.61-65.43,6.11l7.2-17.11ZM1406.87,403.95l-28.74-8.97c-1.78-.55-4.91-1.49-5.07-.23-.13,1.05-.39,3.7.46,3.91l4.17,1.04c4.85,1.2,8.75,2.75,10.12,7.27l17.87-1.94,1.2-1.07ZM743.6,549.74c7.74-4.6,12.36-9.23,15.02-15.52,10.43-24.63,19.01-48.52,27.66-74.28l36.67-7.87,13.26-4.75-26.69,90.55,8.58-1.15c1.02-.14,2.26,1.33,4.15,2.93l11.37-10.14c-.12,1.29-1.43,6.6-.04,6.7l7.31.52c8.85-12.67,14.39-27.02,18.45-42.97l56.07-11.72-8.49,36.38.56,15.12c1.8,2.78,9.37-2.09,12.46-4.65,7.56.03,16.77-1.57,19.95-10.03l9.68-25.71,27.24-72.16c1.88-4.97,1.69-9.49,2.19-16.83l-22.18,1.37-16.31,1.15-18.39,47.85-51.12,8.44,18.62-47.29c-11.5-1.65-22.66-1.4-31.63,1.67l-12.92,14.14,3.27-9.66-45.75,4.01c-47.59,6.97-92.92,17.7-139.84,29.25-2.76,10.62.31,21.61,7.56,28.52l71.21-15.95-14.08,43.36-10.01,36.95,10.72-3.96c-1.02-.04,4.15,6.67,5.25,5.4l11.92-13.86-1.74,14.2ZM1408.5,404.84l-.81,1.72c11.61,7.76,33.72,11.24,49.72,13.51l21.6,3.07c5.49.78,14.71,1.72,19.12.46l16.26-4.63-37.59-.83c-23.07-.51-47.65-8.63-68.29-13.29ZM1363.44,425.36l33.12-4.29h-47.44c-6.82.01-16.36,4.47-22.18,10.17l36.49-5.89ZM1194.77,426.91c3.97.22,6.05.13,5.61-.75l-2.07-4.05c-15.43,6.55-30.39,13.56-40.63,25.02l37.09-20.22ZM1134.89,486.54l34.61-26.09,42.97-30.36c-15.43-.39-24.88,7.97-37.6,12.32-22.21,7.58-21.86,26.57-33.28,27.88l-6.7,16.25ZM1253.28,447.31l22.58,2.66c10.61,1.25,33.77-3.96,34.12-14.18-12.66,10.61-28.96,14.41-45.08,9.37-14.42-4.51-30.78-4.14-42.24,6.11,10.73-1.99,19.49-5.27,30.62-3.96ZM416.86,516.6l17.1-21.59c11.98-15.12,22.94-30.17,31.89-48.97-12.83,11.42-21.79,26.8-31.62,41.78-6.44,9.83-13.8,18.46-17.37,28.77ZM1277.03,711.04c10.52-62.93,21.62-122.44,37.22-183.48l67.83-9.06c-21.98,75.28-35.12,148.9-39.11,224.93,9.31-4.82,19.53-23.29,21.44-30.98l15.86-63.72c2.11-8.46,2.35-16.81,8.08-23.65-6.94,35.23-10.11,68.2-8.22,103.26,6.77,7.14,11.75,12.8,22.03,19.88l20.44-113.99,29.38-124.6,140.16-21.75c16.37-2.54,30.69-6.32,44.1-15.6-27.65-1.53-52.51,1.12-79.09,3.84l-49.67,5.09c14.79-5.85,29.46-5.94,44.47-8.05l107.25-15.08,4.48-6.1-39.81-.88-.15-4.97c-54.06.25-106.99.88-161.35,8.67l-155.35,22.26c-21.09,3.02-41,8.17-59.83,14.53,24.82,22.22,21.71,29.82,15.54,51.86-7.79,27.83-13.59,54.6-17.98,82.6l-19.91-55.45-19.9-60.31c-15.38,5.68-28.8,8.86-46.04,7.89-8.26,21.18-15.8,42.38-20.39,64.91l-25,122.66c-1.08,5.29-1.03,14.13,5.14,15.64,4.81-.48,12.21-9.41,13.09-13.99l6.23-32.25c.63,8.83,1.52,16.36,3.6,23.89l4.31,15.59,12.05-.28,24.33-112.75,40.57,93.35,13.73,28.55,21.93-8.42c5.16-1.98,11.83-3.09,18.52-4.05ZM1264.34,453.94l-22.64-.76c-10.1-.34-20.29,6.53-26.34,13.44,18.03-7.51,32.44-11.74,48.97-12.68ZM294.16,868.37l17.1-29.45c21.83-37.6,38.24-75.75,56.83-115.42-5.54.84-7.78,2.26-12.41,4.73l29.3-50.77,18.87-32.48c-3.36,35.47-5.08,67.9-5.74,102.74-.17,8.88.69,18.09,7.97,24.51l16.62,14.65,74.15-89.69,47.29-59.32c-20.54,65.23-39.17,126.37-49.03,193.5,28.66,2.14,22.57-29.19,35.06-51.63l-1.56,42.38c2.75,1.32,9,1.04,9.47-.99l1.95-8.47,4.22,6.44c.82,1.25,4.88,1.26,7.32,1.24l21.07-96.85c16.61-76.35,46.95-147.92,86.5-215.27-8.41-7.24-15.51-8.26-25.92-8.34l-24.69-11.53-81.1,97.37-75.04,91.93,17.44-103.34,7.23-31.61,2.68-21.42-38.58,11.26-48.77,13.9-10.57,24.58-32.32,56.5c-31.49,55.04-64.18,107.92-91.88,164.91l-39.26,90.25-9.01,19.79c21.1-5.05,28.01,6.78,32.28-6.78-.28-.8,1.74,1.88,1.37,2.64l-2.23,4.55c1.72.48,5.85,1.43,7.94,1.2,1.74-.19,5.28-3.48,6.13-4.96l28.58-49.72c19.23-33.46,34.11-67.74,55.61-99.91-11.94,30.34-28.73,57.19-36.84,88.23l-8.01,30.65ZM1027.28,647.74l58.12-14.24c9.08-2.22,16.95-4.38,20.66-14.48l-8.64-1.66c3.11-1.46,7.64-3.67,8.74-6,1.28-2.71,1.69-8.26.77-11.14l-66.39,8.68,10.94-36.89,74-17.55,3.25-11.59-31.3-.3,35.62-6.97,2.2-14.02-31.44.8c-32.07,3.75-62.7,9.83-93.55,17.27l-10.32,35.43c-14.39,49.41-27.59,97.73-38.39,148.25-.8,3.73,1.55,10.21,4.78,11.52,2.52,1.02,7.93.46,11.7-.59,35.14-9.7,68.8-19.13,105.15-24.91,2.74-.44,9.96.18,10.5-2.12l2.11-8.89-16.85-.79c8.93-2.31,18.54-3.55,24.58-9.16,2.63-2.44,3.45-10.01,3.86-14.3l-17,.46-73.44,10.59,10.33-37.4ZM788.84,733.71l35.91-93.88c-.02,28.41-.25,76.47,21.15,78.82,6.06.67,14.87-1.93,18.47-7.28l22.25-33.1,32.09-49.69c-7.31,32.09-14.18,61.58-18.18,93.11-1.14,9,2.19,16.8,9.3,23.12l5.25-13.8,7.94,1.17c1.47.22,4.21-2.81,5.12-3.65l-.3,14.97c10.72-8.57,15.13-16.6,17.7-28.12l37.85-169.62c-2.99-1.63-8.06-3.89-10.64-3.8l-39.23,1.47-69.97,103.91-.45-77.57c-.02-3.47-3.11-9.53-5.86-10.82-2.41-1.13-8.25-1.48-11.01-.94l-35.17,6.8-28.25,70.68-24.27,59.7c-5.63,13.86-6.67,28.4-7.69,43.07l-.96,11.89,9.98-8.7c.68,1.71,1.82,5.82,3.24,5.68l5.8-.56c-1.39,2.06-5.13,5.57-3.67,6.79l6.9,5.78c1.52,1.27,6.01-2.49,6.9-4.39l9.8-21.05ZM737.8,712.32c27.09-34.1,44.1-82.98,25.76-122.64-5.03-10.87-13.62-18.3-26.82-19.4-15.58-1.29-33.17-2.07-47.54,5.19-30.05,15.2-54.39,37.47-72.73,64.19-24.27,35.36-37.14,94.03-7.7,122.19,36.47,34.88,98.56-11.17,129.03-49.54ZM1055.79,776.98c19.73-4.29,35.24,3.16,52.72,4.86l49.79,4.86-1.86,1.89-11.5.46c1.32,3.11,3.99,7.34,6.65,8.02s9.41.26,12.14-.25l7.77-1.44c1.13-.21-.62-4.18-.92-4.92,11-3.13,23.95,2.31,34.89-7.25-46.4-4.81-89.55-11.04-134.44-12.31-46.34-1.32-90.24.72-136.14,5.94-46.9,5.33-92.14,10.67-137.52,21.55l-65.59,15.73c-20.09,4.82-38.31,13.15-56.39,22.05-12.58,6.2-24.59,10.72-35.83,19.82,28.67-8.26,53.65-18.08,80.88-27.56,35.82-12.46,71.87-19.42,109.33-26.84,52.53-10.42,103.87-14.79,157.47-12.38,35.14,1.58,68.08,1.13,103.82-.15l-35.28-12.1ZM1307.01,781.99c-34.36-9.75-67.61-1.5-98.78,5.58l98.78-5.58ZM1118.11,1040.04l-.98-6.43c14.39-.84,23.15,4.92,26.69,17.79,4.09-3.83,7.91-8.64,10.42-13.66-6.17-11.37-13.88-19.71-25.15-25.93-29.2-16.1-61.07-24.64-95.45-27.81-23.54-2.17-45.87-.15-69.96,0,1.64-19.76,35.2-35.79,57.04-45.14,25.17-10.77,48.73-23.11,75.27-31.33,44.17-13.68,91.13-10.52,135.09,1.61,7.82,2.16,12.1,5.63,17.17,12.54l31.24-34.91,21.23-19.86c-2.21,8.18-6.19,15.27-11.2,24.44,20.44-15.96,33.84-37.77,44.81-61.35,3.13-6.72,6.64-14.74,6.53-21.97-3.06-2.62-10.59-6.71-14.71-6.84-52.89-1.67-104.88.59-155.25,16.22l21.82,5.96,29.76-8.97c16-4.82,31.56-5.34,48.87-.29l-18.8,3.32-41.65,11.61c-3.12-3.68-6.71-6.43-9.52-5.39-5.21,1.94-6.69,4.81-8.38,9.63-4.07,11.63-16.39,23.05-30.03,24.89-20.29,2.75-50.37-6.52-50.9-19.28-.24-5.8,2.8-10.36,7.68-16.92-.43-1.32-7.96-1.75-10.6-.67l-22.2,9.03c-8.39,3.41-19.01,8.87-21.67,15.5,6.44,23.73,28.08,11.43,52.68,19.03l-57.94,8.99-46.68,8.67c-53.99,10.03-149.01,53.34-108.85,106.22-30.31-10.77-40.41-42.13-30.45-69.28,6.52-17.76,19.56-30.07,32.44-45.51-37.39,20.75-61.41,56.03-60.06,96.53.31,9.3,4.98,17.56,8.31,28.31-22.47-11.35-35.29-34.32-36.27-57.47-.64-14.98,7.44-28.05,13.98-42.25-19.35,9.76-27.36,28.52-30.47,47.51-4.31,26.29,3.44,50.94,19.94,74.04-34.73-12.35-51.75-44.3-48.99-78.77-20.4,22.42-10.05,61.07,6.75,82.99,6.88,8.97,21.22,11.98,30.83,17.93-28.85,3.24-53.46,9.02-80.21,15.09-24.15,5.48-71.75-6.1-127.66,9.76-13.8,3.91-27.4,10.86-37.55,20.48-43.32,41.03-62.67,90.67-17.12,135.77-20.05-40.1-10.21-81.73,27.3-107.6,50.44-34.79,119.24-44.35,182.45-45.01l58.78-.61c-19.57,9.67-38.89,11.01-59.42,11.82-55.7,2.21-110.44,13.63-158,40.92-20.74,11.9-35.78,31.21-39.55,53.34-4.36,25.57,1.34,53.81,18.65,73.82-15.02-32.32-8.4-66.67,20.25-89.66,40.65-32.6,97.13-40.66,151.07-40.02,63.92.76,119.69-8.65,181.35-27.54l-30.03-10.88,8-4.7-9.4,1.47c-17.49-1.84-35.23-8.66-46.54-22.47,3.01-2.35,8.09-2.55,10.96-1.33l41.48,17.63c6.16,2.62,11.45,5.75,19.35,6.5,44.03,4.17,86.87-1.86,128.95-14.28,12.26-3.62,27.28-5.79,36.87-13.44,8.35-6.66,14.52-14.44,26.85-10.32l.76-1.45ZM903.55,824.5l56.54-10.63c-60.93-4.87-119.68,3.85-176.81,21.07-29.7,8.96-56.9,20.14-82.38,37.31,74.15-.31,141.64-36.27,202.64-47.74ZM1161.04,829.08c1.02-2.15-2.96-8.3-5.13-7.72l-8.42,2.23c-3.78,1-6.57,8.87-3.27,10.96,5.59,3.56,14.43-.44,16.83-5.48ZM415.87,851.29c12.52-3.3,22.89-12.18,28.07-23.23l-28.07,23.23ZM449.31,867.15l16.71-6.42c-7.89-6.42-26.38,2.65-38.37,9.41,7.75.76,14.83-.37,21.66-2.99ZM519.65,866.44l27.98-2.69c-35.14-1.7-69.62-1.15-103.95,9.91l75.97-7.22ZM359.61,914.61c19.24-4.27,33.99-9.8,51.91-15.13l25.21-7.49c7.7-2.29,13.86-4.32,21.59-5.57l33.68-5.46-23.72-1.24c-61.61-3.23-129.2,17.98-177.56,52.74-13.71,9.85-24.45,21.57-32.09,36.27,33.16-27.41,70.42-54.43,113.58-66.14l-12.6,12.02ZM718.18,919.05l27.75,8.03c-1.33-12.78,2.65-19.85,10.86-29.86-44.85-4.14-87-7.9-130.51-6.86l-13.06.31c-46.75,1.12-92.28,5.69-138.64,12.12l-31.65,5.94-48.33,13.21,75.55-12.11c77-6.33,173.85-7.39,248.04,9.22ZM1173.49,947.67l9.54,2.07,17.92-11.42-1.7,24.61c12.13-4.08,19.97-16.19,19.27-28.14-.45-7.68-5.7-8.65-11.41-11.11-20.71-8.91-40.89-12.83-64.3-11.14l-21.79,1.57,9.73,25.59,11.57-14.25,3.38-4.11c.75-.91,4.85,3.11,5.1,4.23l3.64,16.65,18.05-13.91c3.2,6.84,2.4,12.29,1,19.36ZM709.42,988.33c9.7,8.35,19.7,16.18,31.84,20.23-21.25-18.92-35-40.26-28.71-67.27-55.54-22.58-95.72-24.68-154.08-25.33l-29.71-.33c-32.17-.35-62.67,3.58-94.55,9.95l26.78.06,66-1.82c48.87-1.35,94.29,11.5,136.29,34.63,16.46,9.07,32.02,17.72,46.13,29.87ZM1102.82,933.68c5.88-.95,13.35-9.68,13.76-16.87-9.73-1.11-19.45,1.49-24.94,5.97,5.42,2.35,7.23,4.84,11.18,10.9ZM585.18,991.89c-17.62-5.53-33.79,2.48-48.61,4.82l-22.02-18.94c-11.03-9.49-23.14-18.36-39.98-18.75,20.53,11.66,39.38,24.36,56.18,38.06,2.18,1.78,1.63,7.21.5,9.53,17.25-7.17,35.35-11.01,53.93-14.72ZM1057.67,976.49c-.78-6.54-1.92-11.76-4.61-17.1-7.87,4.04-9.33,9.22-10.75,16.26l15.36.83ZM1088.23,980.21c3.37-5.83-1.24-14.14-6.29-18.24l-11.75,16.29c3.9,3.79,15.48,6.36,18.03,1.95ZM1122.04,992.56l-2.6-19.81c-9.73.35-15.24,5.65-15.33,14.94l17.93,4.87ZM1145.9,1005.34c5.01-8.26,1.92-17.28-3.22-23.45l-16.06,14.53,19.28,8.92ZM1165.76,1025.37l9.29-24.43-5.33,3.45c-.92.59-2.83-.51-3.19-1.48l-2.23-5.86-11.24,17.48,10.29,14.62c-1.02,1.66,2.01-2.74,2.41-3.79ZM553.42,1083.4c9.54-18,19.13-33.48,31.64-50.25-19.11,5.38-29.18,19.83-35.81,36.56l-9.3,23.44c3.56-1.67,11.65-6.31,13.47-9.75ZM1119.43,1041.34l-.66,1.14c-.06,4.3-3.34,11.28-7.71,14.56l-14,10.51c6.16-1.39,12.07-3.45,16.88-3.21,8.66.42,17.08-5.98,14.83-13.31-1.02-3.31-6.75-7.76-9.33-9.7ZM1092.57,1058.82l-24.54,9.97-27,12.11c24.78-1.49,52.55-4.93,51.54-22.08ZM337.22,1155.93l2.13,3.21,25-8.65,25.64-11.63c2.36,2.35,5.74,6.25,7.71,5.37l9.41-4.23-9.74-2.36,12.52-11.83c8.54-8.07,14.37-17.66,16.83-29.99l-39.89,23.75c-12.72,7.57-25.61,13.38-35.37,25.36l27.51-13.38c5.56-2.7,13.19-4.43,20.49-5.96-4.88,4.98-10.29,8.57-16.83,11.31l-45.43,19.03ZM965.03,1196.11l4.85,38.79c20.07-31,26.62-74.28,13.78-108.24-18.89,6.79-38.49,10.95-58.88,12.81,5.26,4.85,11.38,11.32,14.7,18.17l22.7,46.87,2.86-8.39ZM421.59,1174.33l19.67-12.06-17.18,2.78,10.06-6.85c-13.23-.65-25.19,5.02-37.11,13.58,5.45-7.48,10.73-12.51,14.01-20.83-15.85,8.28-25.86,17.53-37.51,27.3l-23.77,19.95-17.37,14.54-13.95,12.41c26.64-9.03,48.17-22.26,72.17-34.73l30.98-16.1ZM351.47,1232.21c14.04-6.28,25.81-14.15,34.75-24.35-14.77,5.77-25.36,14.24-34.75,24.35Z"/>
  <path d="M914.71,1219.05c-8.82,12.28-24.35-9.28-48.04-18.03l6.09-13.94c2.61-1.1,8.73,1.77,11.56,4.35l30.38,27.63Z"/>
  <path d="M221.11,559.08c-5.74,2.24-14.71.38-17.6-3.54-3.93-5.33-2.45-12.99,2.43-17.49,7.03-6.49,17.02-5.65,22.02.6,5.43,6.79,3.65,16.32-6.85,20.43Z"/>
  <path d="M869.29,1223.02c-5.18,7.79-12.57,8.58-21.5,7.3-6.28-.9-13.41-6.12-17.29-13.37,12.4-10.21,28.85-4.6,38.79,6.06Z"/>
  <path d="M1485.48,301.06l-7.38-10.95c-1.85-2.74-1.07-7.08,1.8-10.45l-7.69-1.63c5.56-6.3,14.31-6.11,22.13-2.28l6.44,3.16c1.91.93,1.57,7.61.3,9.38-3.08,4.31-10.39,6.24-16.16,7.1l3.38,3.09c.44.4.1.31-2.82,2.58Z"/>
  <path d="M1518.68,607.64c-1.76.96-9.72-1.03-9.18-2.86l2.35-7.93c2.32-7.85,11.68-14.02,21-9.47,4.17,2.04,2.41,11.19-1.89,13.54l-12.29,6.72Z"/>
  <path d="M263.65,1028.76c-6.58,11.7-24.2,8.7-35.92,4.36,13.7-11.93,33.02-16.99,35.92-4.36Z"/>
  <path d="M1306.39,945.05c-.72,5.65-7.47,6.42-12.73,5.83l-28.12-3.13c4.11-4.45,13.03-9.92,19.47-11.47,4.71,9.21,13.17,2.46,21.38,8.78Z"/>
  <path d="M283.1,571.91c-7.68,5.36-14.67,9.49-19.87,8.14-4.93-1.28-8.92-6.31-8.71-9.37.3-4.48,7.97-8.95,12.12-6.9l16.47,8.14Z"/>
  <path d="M334.31,1184.85l-21.26,7.59c12.25-13.28,28.95-19.64,46.87-22.7-7.19,6.75-15.51,11.51-25.61,15.11Z"/>
  <path d="M1403.49,837.25l-35.83,6.04-.08-5.89c-.04-2.9,24.05-5.81,35.92-.15Z"/>
  <path d="M784.09,1176c-2.37.52-7.28-1.52-8.83-2.92-1.8-1.63-2.64-7.24-1.04-9.04,2.84-3.2,10.9-3.31,12.62-.1,1.79,3.35,1.19,11.19-2.75,12.05Z"/>
  <path d="M1278.98,1129.66l-19.17-4.9c12.6-.41,11.23-10.44,17.58-9.08,2.22.48,6.2,3.07,7.24,4.96,1.04,1.89-2.94,6.48-5.65,9.02Z"/>
  <path d="M1561.02,295.56l-11.33,1.65c-2.02.29-5.96-.84-7.36-2.21-1.4-1.37,2.64-6.67,4.63-6.68l16.13-.07c1.23,0,4.02,4.26,2.99,4.92-1.02.65-3.82,2.21-5.07,2.4Z"/>
  <path d="M1562.79,702.92c.49,7.7-17.87,8.96-19.09,2.52-1.37-7.25,18.57-10.61,19.09-2.52Z"/>
  <path d="M1484.76,797.18l2.09,5.22c.52,1.31-4.68,3.73-5.72,2.73-1.88-1.8-5.4-6.65-6.17-8.28l8.1-10.87c.91-1.22,3.27-2.71,4.73-2.98,1.47-.27,4.69,3.56,3.67,4.57-4.5,4.51-8.53,5.08-8.22,5.83l1.53,3.76Z"/>
  <path d="M849.33,1204.03l-2.81-2.43c-.89-.77-4.53,1.57-13.01.12-1.72-.29-2.22-5.21-1.5-4.79l11.46-1.32c3.74,1.12,6.36,3.95,6.92,7.37l.93.91c12.61-1.17,23.68,4.21,30.68,15.23l-10.94-3.77c-6.55-2.26-15.91-6.48-20.75-9.46-.35-.21-.54-.54-.97-1.86Z"/>
  <path d="M1601.55,323.68c-2.7,7.27-15.18,5.7-19.59-.49,2.88-2.66,6.4-4.99,9.17-5.73,3.16-.85,11.56,3.15,10.42,6.22Z"/>
  <path d="M921.2,1234.46c-3.49,2.77-13.21,3.3-14.11.08-.81-2.91-.04-8.6,2.22-9.27,2.25-.67,8.11-.01,10.02,1.29,1.91,1.3,3.66,6.48,1.87,7.9Z"/>
  <path d="M1543.17,881.65c-10.48,11.04-8.53,17.73-16.32,15.68-.44-2.04,3.95-6.56,7.09-9.19l-1.46-7.05c-.37-1.8,3.34-3.95,5.29-4.17,1.96-.22,6.77,3.28,5.39,4.74Z"/>
  <path d="M608.35,1225.55c1.75,2.25,5.16,6.67,4.96,8.98-.25,2.91-3.41,6.99-9.51,7.18l-.64-22.85,5.19,6.68Z"/>
  <path d="M1027.43,1208.57l-10.85,17.71c-.39-8.83,1.16-16.75,5.27-24.5,1.2-1.62,6.62,5.08,5.58,6.79Z"/>
  <path d="M1453.08,1024.84c-3.33.45-9.31-5.24-7.85-6.92,1.44-1.65,5.01-4.07,7.5-4.88,2.13-.7,5.54,3.03,6.91,4.95,1.26,1.77-2.51,6.3-6.56,6.85Z"/>
  <path d="M246.06,510.48c.59,3.11-6.89,6.19-9.29,4.66-2.91-1.86-5.34-8.28-2.92-9.82,4.38-2.79,11.4.87,12.22,5.16Z"/>
  <path d="M1521.9,665.44c-4.75,3.92-7.15,4.98-14.37,7.55l6.53-15.11c2.83-1.45,9.94,5.82,7.83,7.56Z"/>
  <path d="M511.88,1239.9l-8.47-3.85c-1.93-.88-5.15.26-12.48,1.34l8.05-13.17,12.9,15.69Z"/>
  <path d="M1623.59,383.69c-1.55-1.11-5.19-3.77-4.49-4.44l3.57-3.45c1.51-1.46,7.42-1.94,8.88-.43,1.46,1.51,1.77,5.39,1.07,7.31-.7,1.92-7.25,2.28-9.03,1.01Z"/>
  <path d="M1726.66,453.09c.34,2.84-6.22,5.03-8.89,3.35-2.44-1.53-5.09-7.68-2.88-9.42,3.35-2.63,11.03-.02,11.76,6.07Z"/>
  <path d="M1089.17,1198.64c1.78-1.04,7.74.79,8.8,2.22,1.28,1.72-1.63,6.34-4,7.61-1.57.84-3.75-.21-6.9-1.65-2.08-.95-1.11-6.31,2.1-8.19Z"/>
  <path d="M933.03,1265.4c-4.91-4.26-7.96-11.24-8.99-18.05,8.69,1.19,14.13,8.4,8.99,18.05Z"/>
  <path d="M185.51,1023.86c-2.57,2.81-10.93,5.75-13.32,1.63.17-3.09,8.96-8.38,12.55-7.65,1.2.24,1.8,4.89.77,6.01Z"/>
  <path class="st1" d="M1117.35,1041.48c-12.33-4.12-18.5,3.66-26.85,10.32-9.59,7.65-24.61,9.82-36.87,13.44-42.08,12.42-84.93,18.45-128.95,14.28-7.9-.75-13.18-3.88-19.35-6.5l-41.48-17.63c-2.87-1.22-7.95-1.02-10.96,1.33,11.31,13.81,29.05,20.64,46.54,22.47l9.4-1.47-8,4.7,30.03,10.88c-61.66,18.89-117.43,28.3-181.35,27.54-53.94-.64-110.43,7.42-151.07,40.02-28.66,22.99-35.27,57.34-20.25,89.66-17.31-20.01-23-48.25-18.65-73.82,3.77-22.14,18.82-41.44,39.55-53.34,47.56-27.29,102.3-38.71,158-40.92,20.53-.81,39.85-2.15,59.42-11.82l-58.78.61c-63.21.66-132,10.21-182.45,45.01-37.51,25.87-47.35,67.5-27.3,107.6-45.54-45.1-26.2-94.75,17.12-135.77,10.15-9.62,23.76-16.56,37.55-20.48,55.91-15.86,103.5-4.28,127.66-9.76,26.75-6.07,51.36-11.85,80.21-15.09-9.62-5.95-23.95-8.96-30.83-17.93-16.8-21.92-27.15-60.57-6.75-82.99-2.76,34.47,14.25,66.42,48.99,78.77-16.49-23.1-24.25-47.76-19.94-74.04,3.12-18.99,11.12-37.75,30.47-47.51-6.53,14.2-14.62,27.27-13.98,42.25.99,23.16,13.8,46.12,36.27,57.47-3.33-10.75-8-19.01-8.31-28.31-1.36-40.51,22.67-75.78,60.06-96.53-12.89,15.44-25.93,27.75-32.44,45.51-9.96,27.15.13,58.51,30.45,69.28-40.16-52.88,54.86-96.18,108.85-106.22l46.68-8.67,57.94-8.99c-24.61-7.59-46.24,4.7-52.68-19.03,2.66-6.63,13.28-12.09,21.67-15.5l22.2-9.03c2.64-1.07,10.17-.65,10.6.67-4.88,6.56-7.92,11.12-7.68,16.92.53,12.76,30.6,22.03,50.9,19.28,13.64-1.85,25.97-13.26,30.03-24.89,1.68-4.82,3.17-7.68,8.38-9.63,2.8-1.05,6.39,1.71,9.52,5.39l41.65-11.61,18.8-3.32c-17.32-5.05-32.87-4.53-48.87.29l-29.76,8.97-21.82-5.96c50.37-15.63,102.37-17.89,155.25-16.22,4.11.13,11.64,4.22,14.71,6.84.11,7.23-3.4,15.24-6.53,21.97-10.97,23.58-24.37,45.38-44.81,61.35,5-9.17,8.99-16.26,11.2-24.44l-21.23,19.86-31.24,34.91c-5.07-6.91-9.34-10.38-17.17-12.54-43.96-12.13-90.92-15.28-135.09-1.61-26.54,8.22-50.09,20.56-75.27,31.33-21.84,9.34-55.4,25.38-57.04,45.14,24.09-.14,46.42-2.17,69.96,0,34.38,3.17,66.25,11.7,95.45,27.81,11.27,6.22,18.98,14.56,25.15,25.93-2.51,5.02-6.33,9.84-10.42,13.66-3.54-12.87-12.3-18.63-26.69-17.79l.98,6.43c.06.38.84.93,1.32,1.3,2.58,1.94,8.31,6.39,9.33,9.7,2.25,7.33-6.17,13.72-14.83,13.31-4.81-.23-10.72,1.83-16.88,3.21l14-10.51c4.37-3.28,7.65-10.27,7.71-14.56l-1.42-1Z"/>
  <path class="st1" d="M294.16,868.37l8.01-30.65c8.12-31.04,24.9-57.89,36.84-88.23-21.5,32.17-36.37,66.44-55.61,99.91l-28.58,49.72c-.85,1.48-4.39,4.77-6.13,4.96-2.09.23-6.23-.72-7.94-1.2l2.23-4.55c.37-.76-1.64-3.45-1.37-2.64-4.27,13.57-11.18,1.73-32.28,6.78l9.01-19.79,39.26-90.25c27.7-56.99,60.39-109.87,91.88-164.91l32.32-56.5,10.57-24.58,48.77-13.9,38.58-11.26-2.68,21.42-7.23,31.61-17.44,103.34,75.04-91.93,81.1-97.37,24.69,11.53c10.41.08,17.51,1.1,25.92,8.34-39.56,67.34-69.9,138.91-86.5,215.27l-21.07,96.85c-2.44.02-6.5,0-7.32-1.24l-4.22-6.44-1.95,8.47c-.47,2.03-6.72,2.31-9.47.99l1.56-42.38c-12.5,22.44-6.4,53.77-35.06,51.63,9.87-67.14,28.49-128.27,49.03-193.5l-47.29,59.32-74.15,89.69-16.62-14.65c-7.28-6.42-8.14-15.63-7.97-24.51.66-34.84,2.38-67.27,5.74-102.74l-18.87,32.48-29.3,50.77c4.63-2.48,6.87-3.9,12.41-4.73-18.59,39.67-35,77.82-56.83,115.42l-17.1,29.45Z"/>
  <path class="st1" d="M1277.03,711.04c-6.69.96-13.36,2.07-18.52,4.05l-21.93,8.42-13.73-28.55-40.57-93.35-24.33,112.75-12.05.28-4.31-15.59c-2.08-7.53-2.97-15.06-3.6-23.89l-6.23,32.25c-.88,4.58-8.28,13.51-13.09,13.99-6.17-1.51-6.22-10.35-5.14-15.64l25-122.66c4.59-22.53,12.13-43.73,20.39-64.91,17.24.97,30.66-2.21,46.04-7.89l19.9,60.31,19.91,55.45c4.4-28,10.19-54.77,17.98-82.6,6.17-22.04,9.28-29.64-15.54-51.86,18.83-6.36,38.73-11.51,59.83-14.53l155.35-22.26c54.36-7.79,107.29-8.42,161.35-8.67l.15,4.97,39.81.88-4.48,6.1-107.25,15.08c-15.01,2.11-29.68,2.2-44.47,8.05l49.67-5.09c26.57-2.73,51.44-5.37,79.09-3.84-13.4,9.28-27.73,13.06-44.1,15.6l-140.16,21.75-29.38,124.6-20.44,113.99c-10.28-7.08-15.26-12.75-22.03-19.88-1.88-35.06,1.28-68.03,8.22-103.26-5.73,6.84-5.98,15.19-8.08,23.65l-15.86,63.72c-1.91,7.69-12.13,26.17-21.44,30.98,3.99-76.03,17.13-149.65,39.11-224.93l-67.83,9.06c-15.6,61.04-26.7,120.55-37.22,183.48Z"/>
  <path class="st1" d="M406.27,426.29l-59.28,88.4c-3.98-2.89-2.88-8.64-1.35-13.51l-20.24,19.28c-2.6.01-4.43-6.15-3.23-8.18l29.02-49.11c-19.13,16.2-26.06,36.94-41.59,54.35-5.64,3.48-15.3,4.12-23.77,3.22,21.05-38.78,43.13-75.31,67.21-113.79l-86.9,33.74c-9.51,3.69-18.59.48-23.01-6.33l26.11-15.62-13.88,3.89c-10.72,3-22.99.78-34.28-5.47l49.77-22.23c38.28-17.1,77.14-30.54,117.03-43.88l37.42-48.11c22.8-29.31,46.67-56.53,74.71-81.65,34.87-31.23,64.35-44.14,111.53-50.57l44.93-6.12-15.55,34.65c-1.37,3.05-6.34,8.59-7.48,11.71l-32.63,89.57,18.83-7.83-6.52,10.09c11.7-3.01,22.15-3.97,37.24-2.74-4,6.67-10.29,9.01-19.57,13.03l6.49,2.1c1.55.5,3.16,4.07,3.08,6.3l-49.76,13.47-17.5,55.98c-8.29,26.5-14.79,51.74-19.16,79.18-8.62,4.52-16.87,6.23-26.91,6.25-.55-16.33.92-28.7,3.43-44.68-2.73,2.44-6.14,6.82-7.2,10.32l-8.33,27.44c-3.13,2.88-15.83-1.35-15.33-6.28,3.83-37.44,13.06-70.74,22.94-107.59l-43.42,12.7-42.49,14.03-30.36,43.98ZM470.63,326.77l66.42-17.5,24.41-65.23,12.76-30.91c-24.79,23.07-45.49,47.07-67.24,71.99l-36.35,41.65Z"/>
  <path class="st1" d="M992.12,330.14l-80.32,18.79-26.28,35.24c-1.63,2.19-6.98,3.9-11.79,5.02l3.32-13.39c-6.38,6.77-8.38,12.52-18.9,13.72l4.66-15.01c-6.5,5.45-9.66,11.53-20.05,9.88l27.61-36.38-20.28-.13,8.47-7.06c-3.26-1.11-8.2-6.96-6.16-8.11,9.66-5.42,21.56-8.08,32.34-10.2l68.05-74.91,48.87-50.46c9.54-9.85,28.24-7.6,40.69-7.54l1.25,8.16,6.37-7.66,17.74-2.61-6.36,25.11-15.09,75.74,16.47,1.29c14.97-47.04,61.21-97.81,114.18-107.61,21.94-4.06,40.03,3.74,51.47,21.88,6.71,10.65,6.81,25.52-3.86,37.1-6,6.51-32.39,18.15-38.74,11.73-5.3-5.36,5.86-21.67-1.35-34.57-43.57,20.07-73.27,59.02-79.64,102.04-1.36,9.19,8.75,17.94,17.36,16.63,39.51-5.99,50.87-29.74,81.46-40.69l.11,11.26,16.88-2.62c-5.84,15.61-16.07,23.94-28.18,33.48-21.35,16.81-45.84,31.05-73.71,34.67-23.76,3.09-46.04-4.67-57.49-23.98-6.53-11.02-6.32-25.08-4.79-37.39l-13.65,6.11-9.05,51.22c-.48,2.73-1.33,6.27-2.12,7.91s-6.76,1.88-7.44.19l-3.54-8.74-6.83,15.09-13.44.02.2-13.17c-3.81,6.47-4.7,9.71-11.34,15.6-2.04-19.17.55-34.12,2.87-55.66ZM948.43,305.77l47.79-9.16,12.6-60.35-12.89,16.85-47.51,52.67Z"/>
  <path class="st1" d="M722.03,321.24c-13.38,29.64-21.89,59.31-33.1,88.98l-9.09,9.24c-1.4,1.43-6.15,2.15-8.24,1.47,2.37-20.2,13.38-34.99,11.61-55.97l-12.3,30.1c-6.12,14.98-13.23,27.04-23.54,40.89l-8.01-10.87-12.18,2.47c17.73-63.47,41.01-123.27,70.27-183.75l-69.82,7.88c-.39-11.06,6.06-18.18,17.9-21.56l-10.27-3.35c-1.89-.62-.75-6.2.57-7.69l11.47-12.95c58.81-8.36,116.27-14.51,176.1-18.07,58.2-4.66,114.33-7.43,172.43-8.22l12.14,4.46-61.04,15.76,39.96-.86c-2.44,5.04-8.62,9.36-15.56,10.53l-88.94,14.98-20.71,45.44-56.24,125.52c-4.68,10.44-16.16,12.58-23.28,10.32-2.39-.76-2.31-7.31-2.52-10.79-4.69,5.08-15.87,6.22-20.15-.59,9.48-33.74,20.43-66.86,33.91-99.81,9.13-22.32,20.11-41.83,31.06-64.66l-66.32,6.48-6.6,19.22-29.52,65.41Z"/>
  <path class="st1" d="M1483.99,376.31c-56.56-5-106.9-23.22-156.29-46.78l-38.2-18.22-11.67,41.33-8.68,43.08c-5.36.48-8.42-6.07-9.61-12.14l-4.24,8.57c-1.03,2.09-8.92,2.18-10.1-.19-5.63-11.34-2.92-25.39-2.28-38.91l-15.32,29.45-4.92-2.68-11.58,4.15c1.96-20.95,6.76-37.65,12.44-57.06l28.72-98.11,23.37-65.2,26.44-1.76c-3.75,8.82-7.3,17.86-9.04,27.3l21.92-27.89,22.22-1.72c-11.72,27.8-22.49,54.17-30.03,83.49,46.17-30.79,89.15-61.12,131.51-93.25l10.6,11.05-5.37,10.26,9.3-4.28c1.75-.8,5.71,3.52,6.64,4.39l-6.09,14.82,10.97-11.71,15.78,5.12-47.38,37.74-95.31,59.14c44.81,21.32,102.64,41.07,149.61,50.36l42.41,8.39c7.06,1.4,13.94.73,17.63,9.33l-50.46,4.5,32.47,5.33c1.53.25,6.02,3.24,4.86,4.1l-5.58,4.1-76.92-4.6,56.23,11.11c1.87.37,5.37,3.75,6.36,4.73,1,.99-4.43,4.93-5.95,4.8l-24.47-2.16ZM1427.24,350.96l-55.32-18.46c17.77,12.99,40.49,18.49,63.79,23.28-1.53-1.39-5.84-3.94-8.47-4.82Z"/>
  <path class="st1" d="M788.84,733.71l-9.8,21.05c-.88,1.9-5.38,5.66-6.9,4.39l-6.9-5.78c-1.46-1.22,2.28-4.74,3.67-6.79l-5.8.56c-1.42.14-2.56-3.97-3.24-5.68l-9.98,8.7.96-11.89c1.02-14.67,2.05-29.21,7.69-43.07l24.27-59.7,28.25-70.68,35.17-6.8c2.75-.53,8.6-.18,11.01.94,2.76,1.29,5.84,7.35,5.86,10.82l.45,77.57,69.97-103.91,39.23-1.47c2.58-.1,7.65,2.17,10.64,3.8l-37.85,169.62c-2.57,11.52-6.98,19.55-17.7,28.12l.3-14.97c-.91.84-3.66,3.86-5.12,3.65l-7.94-1.17-5.25,13.8c-7.11-6.32-10.44-14.11-9.3-23.12,4-31.52,10.87-61.02,18.18-93.11l-32.09,49.69-22.25,33.1c-3.6,5.35-12.41,7.95-18.47,7.28-21.4-2.35-21.17-50.41-21.15-78.82l-35.91,93.88Z"/>
  <path class="st1" d="M743.6,549.74l1.74-14.2-11.92,13.86c-1.09,1.27-6.26-5.44-5.25-5.4l-10.72,3.96,10.01-36.95,14.08-43.36-71.21,15.95c-7.25-6.9-10.32-17.9-7.56-28.52,46.92-11.55,92.25-22.28,139.84-29.25l45.75-4.01-3.27,9.66,12.92-14.14c8.96-3.07,20.13-3.31,31.63-1.67l-18.62,47.29,51.12-8.44,18.39-47.85,16.31-1.15,22.18-1.37c-.5,7.34-.32,11.86-2.19,16.83l-27.24,72.16-9.68,25.71c-3.18,8.46-12.39,10.06-19.95,10.03-3.09,2.56-10.67,7.43-12.46,4.65l-.56-15.12,8.49-36.38-56.07,11.72c-4.06,15.95-9.6,30.31-18.45,42.97l-7.31-.52c-1.38-.1-.07-5.41.04-6.7l-11.37,10.14c-1.88-1.6-3.12-3.07-4.15-2.93l-8.58,1.15,26.69-90.55-13.26,4.75-36.67,7.87c-8.66,25.76-17.23,49.65-27.66,74.28-2.66,6.29-7.29,10.92-15.02,15.52Z"/>
  <path class="st1" d="M737.8,712.32c-30.47,38.36-92.56,84.42-129.03,49.54-29.44-28.16-16.57-86.82,7.7-122.19,18.34-26.72,42.68-48.99,72.73-64.19,14.37-7.27,31.96-6.49,47.54-5.19,13.2,1.1,21.79,8.53,26.82,19.4,18.34,39.66,1.33,88.54-25.76,122.64ZM652.16,733.05c7.57,1.25,17.31-3.83,22.52-8.61,23.86-21.86,41.22-47.97,52.1-77.63,4.33-11.81,3.62-25.45.61-37.13-1.92-7.45-9.85-8.77-16.34-6.98-9.45,2.61-13.67,7.11-18.54,14.14l-13.99,20.18-3.85-5.26c-25.39,24.97-50.47,96.67-22.51,101.29Z"/>
  <path class="st1" d="M1027.28,647.74l-10.33,37.4,73.44-10.59,17-.46c-.41,4.29-1.23,11.86-3.86,14.3-6.04,5.61-15.65,6.85-24.58,9.16l16.85.79-2.11,8.89c-.54,2.3-7.76,1.68-10.5,2.12-36.35,5.78-70.01,15.21-105.15,24.91-3.77,1.04-9.19,1.61-11.7.59-3.23-1.31-5.58-7.8-4.78-11.52,10.8-50.52,23.99-98.84,38.39-148.25l10.32-35.43c30.84-7.44,61.48-13.52,93.55-17.27l31.44-.8-2.2,14.02-35.62,6.97,31.3.3-3.25,11.59-74,17.55-10.94,36.89,66.39-8.68c.92,2.88.51,8.44-.77,11.14-1.1,2.33-5.63,4.54-8.74,6l8.64,1.66c-3.72,10.1-11.59,12.25-20.66,14.48l-58.12,14.24Z"/>
  <path class="st1" d="M1022.17,466.69l-7.2,17.11c22.76-2.5,43.7-8.28,65.43-6.11l14.49,1.45-9.33,7.92,5.77,1.57c.97.26,1.93,1.94,1.27,2.67l-3.76,4.2-112.71,23.59c-4.85-2.63-9.16-6.2-12.15-10.46,10.43-31.18,21.45-61.61,34.43-92.08,1-2.35,5.21-6.89,7.37-8.91,35.62-7.48,71.48-12.74,108.31-15.59,3.47-.27,9.27,2.56,9.9,4.73-13.04,25.58-50.69,24.42-83.14,32.38l-7.67,12.49,51.04-4.34c3.18-.27,9.15,1.82,14.83,3.13l-11.78,7.33c-1.99,4.07-7.66,9.33-13.21,10.25l-51.88,8.67Z"/>
  <path class="st1" d="M709.42,988.33c-14.11-12.15-29.67-20.8-46.13-29.87-42-23.13-87.42-35.97-136.29-34.63l-66,1.82-26.78-.06c31.88-6.37,62.38-10.31,94.55-9.95l29.71.33c58.36.64,98.54,2.75,154.08,25.33-6.29,27.01,7.46,48.35,28.71,67.27-12.14-4.05-22.14-11.88-31.84-20.23Z"/>
  <path class="st1" d="M718.18,919.05c-74.2-16.61-171.05-15.55-248.04-9.22l-75.55,12.11,48.33-13.21,31.65-5.94c46.36-6.43,91.9-11,138.64-12.12l13.06-.31c43.51-1.04,85.67,2.71,130.51,6.86-8.21,10.01-12.19,17.09-10.86,29.86l-27.75-8.03Z"/>
  <path class="st1" d="M965.03,1196.11l-2.86,8.39-22.7-46.87c-3.32-6.85-9.44-13.32-14.7-18.17,20.39-1.86,39.99-6.02,58.88-12.81,12.84,33.96,6.29,77.25-13.78,108.24l-4.85-38.79Z"/>
  <path class="st1" d="M1173.49,947.67c1.4-7.08,2.2-12.53-1-19.36l-18.05,13.91-3.64-16.65c-.25-1.13-4.35-5.15-5.1-4.23l-3.38,4.11-11.57,14.25-9.73-25.59,21.79-1.57c23.41-1.69,43.59,2.23,64.3,11.14,5.71,2.46,10.96,3.43,11.41,11.11.7,11.96-7.15,24.06-19.27,28.14l1.7-24.61-17.92,11.42-9.54-2.07Z"/>
  <path class="st1" d="M421.59,1174.33l-30.98,16.1c-24.01,12.47-45.53,25.7-72.17,34.73l13.95-12.41,17.37-14.54,23.77-19.95c11.65-9.78,21.67-19.02,37.51-27.3-3.28,8.32-8.56,13.35-14.01,20.83,11.92-8.55,23.88-14.23,37.11-13.58l-10.06,6.85,17.18-2.78-19.67,12.06Z"/>
  <path class="st1" d="M337.22,1155.93l45.43-19.03c6.54-2.74,11.95-6.33,16.83-11.31-7.31,1.52-14.94,3.25-20.49,5.96l-27.51,13.38c9.76-11.98,22.65-17.79,35.37-25.36l39.89-23.75c-2.47,12.33-8.29,21.92-16.83,29.99l-12.52,11.83,9.74,2.36-9.41,4.23c-1.97.88-5.35-3.01-7.71-5.37l-25.64,11.63-25,8.65-2.13-3.21Z"/>
  <path class="st1" d="M585.18,991.89c-18.58,3.72-36.69,7.56-53.93,14.72,1.12-2.32,1.67-7.75-.5-9.53-16.79-13.7-35.64-26.4-56.18-38.06,16.84.39,28.95,9.26,39.98,18.75l22.02,18.94c14.83-2.34,31-10.35,48.61-4.82Z"/>
  <path class="st1" d="M553.42,1083.4c-1.82,3.44-9.91,8.08-13.47,9.75l9.3-23.44c6.64-16.73,16.7-31.18,35.81-36.56-12.51,16.78-22.1,32.26-31.64,50.25Z"/>
  <path class="st1" d="M1307.01,781.99l-98.78,5.58c31.16-7.08,64.42-15.33,98.78-5.58Z"/>
  <path class="st1" d="M1092.57,1058.82c1.01,17.15-26.76,20.59-51.54,22.08l27-12.11,24.54-9.97Z"/>
  <path class="st1" d="M1165.76,1025.37c-.4,1.05-3.43,5.45-2.41,3.79l-10.29-14.62,11.24-17.48,2.23,5.86c.37.96,2.28,2.07,3.19,1.48l5.33-3.45-9.29,24.43Z"/>
  <path class="st1" d="M1145.9,1005.34l-19.28-8.92,16.06-14.53c5.14,6.17,8.23,15.19,3.22,23.45Z"/>
  <path class="st1" d="M1122.04,992.56l-17.93-4.87c.09-9.29,5.6-14.58,15.33-14.94l2.6,19.81Z"/>
  <path class="st1" d="M1102.82,933.68c-3.95-6.06-5.76-8.55-11.18-10.9,5.49-4.48,15.21-7.08,24.94-5.97-.41,7.2-7.88,15.92-13.76,16.87Z"/>
  <path class="st1" d="M1088.23,980.21c-2.55,4.41-14.13,1.85-18.03-1.95l11.75-16.29c5.04,4.1,9.66,12.41,6.29,18.24Z"/>
  <path class="st1" d="M1161.04,829.08c-2.4,5.04-11.24,9.04-16.83,5.48-3.29-2.1-.51-9.96,3.27-10.96l8.42-2.23c2.18-.58,6.16,5.57,5.13,7.72Z"/>
  <path class="st1" d="M1057.67,976.49l-15.36-.83c1.42-7.05,2.88-12.22,10.75-16.26,2.69,5.34,3.83,10.56,4.61,17.1Z"/>
  <path class="st1" d="M351.47,1232.21c9.38-10.11,19.98-18.58,34.75-24.35-8.94,10.2-20.71,18.07-34.75,24.35Z"/>
  <path d="M470.63,326.77l36.35-41.65c21.75-24.91,42.45-48.92,67.24-71.99l-12.76,30.91-24.41,65.23-66.42,17.5Z"/>
  <polygon points="948.43 305.77 995.94 253.1 1008.83 236.25 996.23 296.6 948.43 305.77"/>
  <path d="M1427.24,350.96c2.63.88,6.95,3.42,8.47,4.82-23.3-4.79-46.03-10.3-63.79-23.28l55.32,18.46Z"/>
  <path d="M652.16,733.05c-27.96-4.62-2.87-76.32,22.51-101.29l3.85,5.26,13.99-20.18c4.88-7.03,9.09-11.53,18.54-14.14,6.49-1.79,14.42-.48,16.34,6.98,3.01,11.68,3.72,25.31-.61,37.13-10.88,29.65-28.24,55.77-52.1,77.63-5.22,4.78-14.96,9.86-22.52,8.61Z"/>
</svg>