<?xml version="1.0" encoding="UTF-8"?>
<svg id="Camada_1" xmlns="http://www.w3.org/2000/svg" version="1.1" viewBox="0 0 1900.8 1419.26">
  <!-- Generator: Adobe Illustrator 30.3.0, SVG Export Plug-In . SVG Version: 2.1.3 Build 182)  -->
  <defs>
    <style>
      .st0, .st1 {
        fill: #aac424;
      }

      .st1, .st2, .st3 {
        stroke: #fff;
        stroke-miterlimit: 10;
        stroke-width: .1px;
      }

      .st2 {
        fill: #f8f7f7;
      }

      .st4, .st3 {
        fill: #111310;
      }
    </style>
  </defs>
  <path class="st4" d="M1568.04,565.8c11.29,8.89,35.14,4.04,30.77-2.78-5.83-9.09-20.52-3.84-28.07-1.2,1.09-1.49.65-3.88-.83-3.94-1.9-.07-4.34.92-6.54-1.43,10.88-6.21,29.4-7.76,39.51,2.12,6.17,6.03-2.14,14.51-7.28,16.87-14.42,6.64-25.76,0-27.4-3.42-.99-2.08-.93-4.2-.17-6.22Z"/>
  <path class="st0" d="M1156.01,1256.59l-1.64.56c.64-1.95.22-5.16-1.25-6.34-1.28-1.02-4.92-1.77-7.68-2.55l-.45-21.02,13.7-2.63,9.79,13.33c2.1,2.85-3.29,4.81-4.89,4.31l-7.91-2.49c.65,6.79,1.35,11.65.33,16.82Z"/>
  <path class="st0" d="M1568.04,565.8c.46-1.21,1.03-3.39,2.7-3.98,7.55-2.64,22.24-7.89,28.07,1.2,4.37,6.82-19.48,11.67-30.77,2.78Z"/>
  <path class="st0" d="M1199.29,1229.6c-5.81,1.21-10.33.6-16.16-.57,2.41-13.18-6.33-16.7-2.55-24.58,1.38-2.87,6.9-4.85,11.54-3.27-3.79,3.72-6.91,3.48-7.52,5.46-3.16,10.28,13.39,6.94,14.68,22.96Z"/>
  <path class="st4" d="M1626.83,329.47c-7.76-2.06-8.23-12.43-3.06-18.4,2.8-3.23,12.24,1,13.17,5.71,1.06,5.32-2.9,14.6-10.11,12.69Z"/>
  <path class="st4" d="M435.23,1358.53c-4.04-.37-7.59-3.08-7.55-5.96.04-3.13,2.87-6.09,6.43-6.97,3.48-.85,6.55-.68,9.03,1.68,1.49,1.42,1.43,5.47-.29,7.79-1.22,1.64-3.31,3.85-7.62,3.45Z"/>
  <path class="st4" d="M345.13,1338.7c4.64.09,5.9,8.97,6.71,12.15-7.84-1.17-15.12-3.43-16.73-12.35l10.03.2Z"/>
  <path class="st4" d="M195.84,945.43c.27,5.89-13.34,8.62-16.99,5.11-.92-7.39,15.28-12,16.99-5.11Z"/>
  <path class="st4" d="M242.46,1351.76l-26.47,18.06c-.44-.52-.85-1.08.3-2.01l21.88-17.78,2.4-2.53c.62-.65,3.25,1.87,1.89,4.26Z"/>
  <path class="st4" d="M1586.69,167.08c-3.09,3.98-8.18,2.85-12.42,3.23-.63-1.82-.36-4.93.62-7.01,1.35-2.88,4.71-3.3,7.38-3.34,3.25-.05,7.21,3.53,4.42,7.11Z"/>
  <path class="st4" d="M608.92,1368.52c.6,5.69-3.72,6.56-6.39,7.17-3.49.79-10.33,1.21-10.07-2.86,2.22-5.17,10.37-5.99,16.46-4.31Z"/>
  <path class="st4" d="M1125.92,81.57c-3.89,5.41-12.29,7.38-19.79,6.3,3.91-6.23,9.92-10.5,19.79-6.3Z"/>
  <path class="st4" d="M339.29,237.69c3.58-2,5.83.33,6.89,1.95,2.31,3.55.13,6.29-3.25,7.42-1.7.57-4.48,1.16-6.59-1.55-1.33-1.71-.62-5.83,2.95-7.83Z"/>
  <path class="st4" d="M1614.87,348.54l-12.66-4.38c4.05-3.33,5.81-4.76,8.54-5.36,1.74-.38,4.9,1.2,6.03,4.06.65,1.65-.41,3.48-1.92,5.68Z"/>
  <path class="st4" d="M271.48,1204.24c-3.14,1.24-5.34.41-6.79-.17-1.25-.5-2.57-3.65-1.8-4.77,1.55-2.24,10.89-3.99,11.8-1.49.83,2.28.3,5.04-3.21,6.43Z"/>
  <path class="st4" d="M1411.62,45.16c2.51,3.13-1.51,6.47-3.57,6.67-3.3.31-8.99-1.04-7.74-5.61.81-2.97,8.27-4.83,11.31-1.05Z"/>
  <path class="st4" d="M1787.35,491.43c-2.85,1.84-5.38,1.42-7.01.61-1.27-.63-2.08-3.61-1.5-5.18.66-1.76,8.05-4.4,10.18-1.81,1.5,1.84,1.34,4.44-1.67,6.38Z"/>
  <path class="st4" d="M1629.89,377.67c.49,3.1-5.02,4.92-7.31,5-2.74.1-5.99-.78-7.46-5.62,4.39-.87,11.22-2.96,14.77.62Z"/>
  <path class="st4" d="M1154.37,1257.16l1.64-.56c-.65,3.31-3.73,6.57-6.79,7.67-2.71.97-7.17-4-5.54-5.87,3-2.43,8.22-.49,10.69-1.24Z"/>
  <circle class="st4" cx="115.38" cy="389.22" r="4.53"/>
  <path class="st4" d="M208.48,1057.01c1.77,6.74-9.21,9.82-10.85,4.98.36-2.87,8.98-7.08,10.85-4.98Z"/>
  <path class="st4" d="M177.55,1065.93c-10.4,1.1-16.57,6.97-25.36,9.99,4.33-5.73,18.88-13.11,23.49-14.26,1.3-.32,2.99,4.07,1.87,4.27Z"/>
  <path class="st4" d="M190.76,804.46c-3.31.29-2.45-10.61,2.41-11.84,3.71,1.8,5.18,10.79-2.41,11.84Z"/>
  <path class="st4" d="M211.25,1007.29c.45.53.21,3.54-.82,3.85-.83.26-2.51-1.49-3.25-1.96,1.04-.41,2.07-2.33,4.07-1.9Z"/>
  <g>
    <path class="st3" d="M172.44,563.12c-8.15,10.82-27,13.33-35.39,2.65-4.54-5.79-1.26-14.44,1.8-18.45,8.42-11.03,28.74-10.42,34.44-1.08,2.57,4.22,4.1,10.32-.85,16.88ZM160.83,548.75c-3.9-2.22-8.26-1.48-11.41-.21-4.01,1.62-4.87,5.44-4.01,7.64,1.5,3.83,5.05,4.87,9.17,4.25,3.73-.57,6.66-1.88,7.9-3.99,1.22-2.08,1.3-6.01-1.64-7.69Z"/>
    <path class="st3" d="M1505.89,677.38l-12.93,32.66c-.09-8.57-2.37-18.37.41-26.04,2.49-6.88,4.37-13.6,4.59-20.36l10.05-12.91-2.53,15.41c3.59,1.82,8.13.6,11.38-.09.41,8.03-7.54,8.33-10.96,11.33Z"/>
    <path class="st3" d="M1474.3,772.55l9.31-18.59.35-27.09c.06-4.68,4.54-8.24,8.09-11.04,1.47,20.8-6.01,38.58-12.89,57.8l-1.31,3.67c-.26.74-1.82.88-2.61.63-1.54-.49-1.97-3.31-.94-5.38Z"/>
    <path class="st3" d="M177.68,425.29c4.21,6.43-1.72,12.94-8.37,14.22-5.3,1.01-14.04-4.88-11.24-12.32,2.6-6.89,15.54-8.11,19.6-1.9Z"/>
    <path class="st3" d="M1519.37,601.84c3.75,13.7-3.86,32.25-12.25,47.8-.89-16.36,4.03-32.42,12.25-47.8Z"/>
    <path class="st3" d="M1504.83,774.19c-2.74.4-3.1-5.25-1.01-7.45,1.57-1.65,2.48-3.97,5.79-3.71.77,3.4,1.18,10.28-4.78,11.15Z"/>
    <path class="st1" d="M160.83,548.75c2.94,1.67,2.86,5.61,1.64,7.69-1.24,2.11-4.17,3.42-7.9,3.99-4.11.63-7.67-.42-9.17-4.25-.86-2.2,0-6.02,4.01-7.64,3.16-1.27,7.52-2.01,11.41.21Z"/>
    <g>
      <path class="st1" d="M451.46,1140.92c1.38,2.02,2.86,3.54,5.38,4.68l-6.38,46.59c-.8,5.86-3.37,9.27-.73,16.37.88,2.37.18,8.02,3.42,9.29,1.87.73,5.98,1.18,8.4,3.21,1.75,1.47,4.96,7.75,8.52,4.09,2.38-2.46,3.4-9.83,3.79-13.33,2.1-.8,3.69-1.17,6.22-.61-.51-4.25,1.16-7.06,1.76-10.11.52,37.4,27.79,67.9,57.07,91.88l26.85,18.04c12.4,8.33,26.46,12.69,42.39,10.26,1.51-10.36-1.29-19.06-3.57-29.04-4.97-21.8-3.44-46.51,11.59-64.24,14.06-16.59,36.61-25.27,57.62-26.56l22.01,31.89c4.18,6.05,10.56,1.93,15.16-1.31,5.62-3.95,11.74-5.33,12.72-12.09.31-2.14,5.02-2.65,7.05-2.96,5.11-.79,12.11-1.76,18.03,3.99l-24.72,10.14-9.55,10.32c-12.95,7.1-26.09,10.74-40.82,14.24-7.52-2.54-13.22-.04-19.38,8.14-2.12-5.04-.46-8.09,2.28-12.65-8.4-.95-11.17-8.59-12.2-16.09-1.17-8.51,4.13-12.64,13.19-18.36-23.96-2.38-44.35,13.32-48.09,37.22-7.12,45.46,18.04,72.5-11.44,72-32.7-.56-72.54-31.21-92.71-55.92l-24.04-29.44c-4.01,9.87-11.66,5.37-16.15,6.54-13.47,3.49-18.73,17.69-30.2,26.39-.6-10.03,7.48-18.46,9.96-26.07-2.74-5.57-10.74-7.01-16.37-4.73-20.72,8.39-40.11,17.73-56.94,32.6,1.79,2.55,3.36,5.49,5.84,7.35.99-.53,2.12.37,1.79,1.39-3.93,1.58-5.14,4.23-5.84,6.99l-2.21-2.76c.56-3.44-.56-7.84-5.02-9.84,7.44-14.98,22.22-24.87,34.38-37.16l15.67-15.83c-12.56,3.85-26.04,9.7-33.99,19.61-6.04,7.52-10.03,14.15-18.26,20.52l-23.85,18.49-39.55,27.79c8.31-11.72,19.13-18.85,29.64-27.69l30.79-25.91,14.33-14.07c10-12.45,19.15-24.47,32.26-34.42,2.06-1.56,3.15-5.26,1.77-6.76-4.83-5.28-25.94,6.07-39.49,13.34l-27.73,14.88c-4.69,2.52-10.32,5.71-16.64,6.17l46.77-32.47c6-4.17,9.73-10.16,16.36-14.15,6.46-3.9,10.15-10.19,9.23-16.99l-.29-3.39c6.55-2.04,12.36-10.4,16.13-17.3-18.6,2.91-33.45,12.94-49.87,20.61l-25.71,12.02c-.71.33-2.24.11-2.99-.81l14.88-8.49,36.56-24.27,20.1-18.59c3.39-3.14,13.23.36,16.72-6.07l13.72,11.67-9.84,6.74c-3.53,5.23,4.72,7.29,7.66,8.54l5.62,24.89c2.86-1.97,6.69-6.09,7.22-10.15l3.76-28.29Z"/>
      <path class="st1" d="M311.27,925.38c.96-.07,2.44-.45,3.11.2,1.46,1.44,3.43-.33,2.18-2.15-.51-.74-1.31-1.65-2.1-2.5l43.02-14.16,61.59-17.52c3.3-.94,9.28-5.61,5.91-8.57-11.42-10-29.55-10.37-41.81-20.73l14.35-2.12c2.54-7.72,9.27-7.74,16.14-6.63,12.72,2.05,25.07,2.55,34.8,12.22l-30.81,8.65c5.79,4.75,13.44.5,19.4-1.3,13.88-4.19,26.22-6.98,40.98-7.9,2.8-.17,8.31-4.96,11.81-2.14,12.78,10.28,16.55-1.16,34.76,11.43,5.19,3.59,12.1,4.9,15.16,12.71l-60.39,14.4-31.48,12.83c-22.61,5.75-41.75,16.91-60.14,30.88-2.74,2.08-6.94,2.89-7.93,5.66-1.45,4.07-.14,7.34,2.28,12.98-25.02-2.29-45.52,18.77-74,21.54,4.46-3.52,8.04-4.81,11.85-8.95l13.32-14.44c-12.24-.53-24.04,1.61-35.34,6.73l-51.02,23.13c15.79-17.01,36.13-25.35,55.04-37.34l43.44-27.53c-18.08-4.22-29.54,5.98-34.11.63ZM515.93,877.34c-5.25-5.09-9.94-4.82-14.81-8.35-3.3-2.4-9.24,2.15-8.48,6.43l23.29,1.93Z"/>
      <path class="st1" d="M343.35,1124.4c2.4-2.05,4.89-4.29,8-5.57l37.03-15.25c4.82-1.99,8.89-4.56,11.73-8.94-6.86-6.76-3.27-23.58-2.87-23.92,1.77-1.48,5.87-1.15,6.83.93l10.29,22.32c7,.06,13.21-2.28,18.03-6.92-3.85-5.51-12.03,2.69-15.51-2.72-.37-.57-.56-1.42.12-1.51,8.89-1.19,14.56-9.38,23.61.15l-8.3,4.64c6.59,9.37,16.4,7.84,15.44,13.76-.33,2.07-21.66-8.57-35.4,2.2-2.28,1.79-.02,8.19,1.87,9.97,1.97,1.85,6.24,1.16,10.15,1.39,2.95.17,2.21,9.96-.6,10.68l-16.06,4.1c-5.34,1.36-11.57-2.96-18.28-4.36,5.33-8.54,20.78-7.71,17.77-15.47-4.3-11.1-26.29,4.22-40.03,10.83-9.23,4.44-17.96,7.58-25.6,14.76-2.18-4.98-.08-7.92,1.79-11.07Z"/>
      <path class="st1" d="M1122.79,1171.56l8.2,2.11-11.44,4.1c2.46,3.59,3.85,6.61,4.51,9.79-2.77.42-7.87,1.86-8.29,4.46l-1.24,7.63c-3.79,4.52-6.91,6.87-7.26,12.18-5.44-5.69-5.87-10.41-2.46-15.45-5.61-3.61,5.31-9.28,4.18-12.94-.78-2.51-2.96-4.76-4.72-6.47.6-.88,1.43-2.93,3.89-3.28l14.64-2.12Z"/>
      <path class="st1" d="M1522.13,807.8l-30.72,6.75c-5.6,10.25-18.07,5.72-32.84,14.08l-.1-7.93c-.03-2.11,4.06-2.24,5.67-3.15,10.69-6.07,20.1-6.57,31.75-7.49l22.73-8.72c-.13,2.45,1.21,4.88,3.51,6.45Z"/>
      <path class="st1" d="M233.79,1007.74l-8.52,4.03c-6.97,5.44-18.46,13.05-27.7,9.57-4.14-1.56-.61-8.1,1.66-9l7.97-3.16c.73.47,2.41,2.21,3.25,1.96,1.03-.32,1.27-3.33.82-3.85l1.64.35c9.01,1.93,15.89-8.97,20.89.11Z"/>
      <path class="st3" d="M901.07,1282.84l-12.84,3.14c-1.32-9.28,2.41-13.54,9.37-17.64l6-6.68c1.41-1.58,7.71.12,8.04,2.35,1.48,10.14-19.02,4.69-10.56,18.81Z"/>
      <path class="st1" d="M1061.3,1201.55c-3.44-.6-6.44,3.02-8.77,3.99-2.62-.93-6.39-2.56-9.18-.04-.64-.77-1.4-1.6-2.27-2.06-2.35-1.24-2.41-4.05-1.54-6.49,1.22-3.43,16.22-5.48,26.27-.15l-3.89,1.94c-.54.27-.69,2.09-.61,2.81Z"/>
      <path class="st3" d="M1059.4,1227.22c-8.99,15.26-5.64,29.89-11.96,39.59-3.01-15.15,2.09-40.58,11.96-39.59Z"/>
      <path class="st1" d="M359.32,1140.89c-4.61,6.36-15.1,8.43-22.52,6.12.35-2.23,1.52-5.65,5.33-6.73l13.6-3.84.29,3.47c.14,1.69,2.56.7,3.3.98Z"/>
      <path class="st1" d="M1223.14,1162.42c-1.37.42-3.12.29-4.15,2.39,3.08.84,4.57.49,6.23,1.17l-43.43-2.87c-.83-.05-1.28-1.08-1.03-1.57,13.91,0,28.88-1.66,42.39.88Z"/>
      <path class="st3" d="M1163.96,1206.81c-6.99-1.76-9.81,7.16-17.26,3.61-2.48-1.18-1.6-6.44.57-10.56l7.46,4.63c2.37,1.47,6.44-.75,9.01-2.52,1.37,1.95.85,3.66.22,4.84Z"/>
      <path class="st1" d="M304.41,1013.46l-.13-2.19c4.17-6.22,11.94-7.95,19.68-7.48-3.08,9.25-10.88,11.6-19.55,9.67Z"/>
      <path class="st1" d="M1093.61,1183.38c1.72,11.12-2.87,10.76-5.58,13.01l-1.27-3.41-3.16-7.44c1.58.46,3.23.2,4.08-1.02.47-.68-.06-2.96-.98-3.57-.65-.43-1.82.07-2.69.33l.35-1.66c2.98-.33,5.61-.55,8.95-2.46l.3,6.23Z"/>
      <path class="st3" d="M808.44,1272.77c-3.59,3.85-13.06-.66-15.1-6.71l10.75-1.29c2.87-.34,7.57,4.54,4.35,8Z"/>
      <path class="st3" d="M1375.16,1084.11c-1.98,6.46-12.41,5.15-15.41,1.36,2.2-2.48,4.69-4.97,6.91-5.79,2.25-.83,9.46,1.3,8.5,4.42Z"/>
      <path class="st3" d="M833.88,1229.72c-9.73,2.46-17.14,5.35-26.14,2.02,7.85-6.46,18.84-.73,28.41-5.45,3.98,1.93,1.41,5.86-2.27,3.43Z"/>
      <path class="st3" d="M709.96,1290.93c2.9-1.49,5.39,2.41,6.38,4.08,1.95,3.29-.86,6.18-2.94,7.31-4.03,2.2-7.22.51-8.1-2.66-.84-3.03,1.09-6.9,4.66-8.73Z"/>
      <path class="st3" d="M1135.91,1198.97l3.19-4.44c1.68,5.39,4.4,3.58,5.62-1.22,1.14,2.83.16,5.98-1.23,9.09-4.23.9-6.73,2.56-10.36,5.23-.75-4.1.61-6.19,1.41-8.77l-2.26-2.01c1.11,1.63,2.72.01,1.1-1.09l2.52,3.22Z"/>
      <path class="st3" d="M1413.3,991.47c-2.22,4.56-4.88,7.87-10.14,10.32-2.07-3.04-2.04-6.76.47-9.23,1.83-1.8,6.26-3.45,9.68-1.09Z"/>
      <path class="st3" d="M1092.79,1216.67c-8.59-1.71-14.11,1.52-22.74,5.35,1.6-4.77,6.72-5.89,11.57-8.5,3.39-1.82,7.77-6.12,11.17,3.15Z"/>
      <path class="st3" d="M1052.52,1205.54c.8,5.27-3.58,9.31-9.18,10.41v-10.45c2.78-2.52,6.56-.89,9.18.04Z"/>
      <path class="st3" d="M661.11,1308.21l17.06-9.29c-2.11,7.86-9.05,14.14-17.06,9.29Z"/>
      <path class="st3" d="M1478.22,905.51c-5.9,2.98-12.37,3.5-19.66,3.81,5.23-6.16,11.29-6.55,19.66-3.81Z"/>
      <path class="st3" d="M326.79,1330.93c-2.08,3.18-9.21,3.69-9.99.73-1.29-4.93,2.26-6.86,6.14-5.74,2.12.61,6,1.71,3.85,5.01Z"/>
      <path class="st3" d="M1395.47,1065.35c-4.48,1.37-8.98.7-13.32.67-.69-.45-1.04-1.05-1.06-1.16,5.14-1.3,11.83-1.62,14.38.5Z"/>
      <path class="st1" d="M1231.4,1163.37l-6.12-.11c.07-1.82,1.49-2.21,3.04-2.21,1.55,0,2.97.39,3.08,2.32Z"/>
      <path class="st1" d="M1346.86,1021.07c1.55,1.98,3.8,3.24,6.01,4.36-14.59.03-25.5,4.37-22.45-.81,2.78-4.72,13.58-6.12,9.44-15.96-22.3-7.14-36.22,15.97-51.94,16.8l-38.36,2.02c-5.95.31-11.83,2.95-13.92,9.36l42.21-.93c3.35,1.83,7.36,7.71,12.27,7.18l16.53-1.77c-2.4-2.21-4.93-1.55-9.89-2.35,23.18-5.53,49.57,2.32,75.47-6.28l5.15,5.17c-26.82,4.58-52.42,5.76-79.25,6.09-10.77.13-16.7,21.5-24.42,16.84-9.48-5.71-19.88-7.78-29.42.48-3.01,2.61-11.64.84-14.81-.39,2.26-7.24,2.53-12.67-1.61-17.69-4.13,1.67-6.62,3.27-11.33,2.38,1.97-8.19,7.15-15.54,13.15-21.6l39.43-39.87,74.69-64.46c16.84-14.54,30.34-30.58,41.96-49.25,8.06-12.95,10.65-27,13.04-41.69,1.93-11.84-1.17-20.36-13.2-24.65-42.75-15.23-87.48-21.55-131.91-24.75,3.07-2.42-.1-3.77-1.6-3.55-6.48,3.87-10.07-3.79-13.19-3.97l-40.22-2.36,48.72-.84,8.13-8.09c10.8-4.74,22.93-4.06,33.59,1.27-2.31,3.55-4.39,4.97-5.07,9.31l32.59,5.12c30.91,4.86,58.34,17.87,87.52,31.77-.9,3.19-2.75,6.52-2.66,10.77,5.69,2.15,9.74-3.1,14.53-2.75l16.13,1.19c1.45-2.19,2.94-8.61,5.9-9.44,4.74-1.33,4.04,4.11,4,6.19-.11,5.07-4.28,3.91-7.73,5.3l-24.86,9.99c-2.59,1.04-4.19,2.9-5.4,3.92-1.33,1.12-1.42,6.95.7,6.9l22.74-.51c8.98-.2,15.06,4.96,22.88,5.01l40.01.25c14.48.09,27.95-3.49,42.88-.52l-77.09,17.86c-11.12,2.58-23.79,4.24-33.11,11.69-6.44,5.15-5.55,21.83-.24,26.38l10.99,9.41c-7.7.18-13.84,3.3-21.33,5.44-8.39,2.4-17.59,1.63-23.89,8.88,17.81,3.42,31.26-4.78,39.23,1.46-5.76,4.65-11.75,7.64-18.06,6.98-6.46-.68-8.06,5.99-11.78,6.78l-40.8,8.6c-2.8.59-2.88,6.99-3.33,9.92l-29.76,11.12c-5.31,1.98-12.26,1.73-14.71,8.19l20.79-2.56c-1.8,17.18-25.72,10.22-42.15,23.4,15.02,4.2,29.64.9,42.97-4.12,12.24-4.61,42.47-9.8,51.37-2.27-8.33,4.52-12.57,9.53-18.63,14.97-2.5,2.24-7.8,2.5-7.28,8.69l-11.89,2.8c.62,1.56,1.59,2.37,2.26,3.23Z"/>
      <path class="st2" d="M724.19,1266.31c-2.55,6.49-6.41,6.74-13.41,6.51l-22.09,8c7.62-13.98,22.98-17.87,37.66-18.11,8.79-.15,17.2-6.59,25.84-7.64l27.49-3.33c9.93-1.2,18.7-3.36,27.25,1.72l-32.09,5.68c-14.28,8.67-30.06,9.33-46.5,8.66-.49,2.4-1.4,3.7-1.99,4.69-.41.69-2.34.04-2.31-.84.02-.65,1.96-2.24.15-5.34Z"/>
      <path class="st2" d="M1084.37,1179.61l-.35,1.66-.41,4.26,3.16,7.44c-6.02.64-10.01,4.28-14.61,9.09-1.33-6.99,2.72-11.35-.36-15.77-1.07-1.53-2.26-.65-2.45.37l-1.03,5.5c-8.3-5.96-25.54-7.19-30.77-.12-.95-5.08-.78-7.96-.22-12.67,15.33.59,26.42-7.41,36.64,1.39l10.4-1.14Z"/>
      <path class="st1" d="M1173.14,1149.53c.51-1.74.51-3.8-.18-4.41,1.31-1.11.3-3.95-.35-5.87,3.46-3.43,5.29-1.14,4.79,3.65,1.49-2.32,1.82-4.52,3.84-6.4,2.51-2.33,9.65,5.55,10.46,4.52l3.21-4.08c1.53-1.94,6.11-1.37,8.28-4.7,1.47.93,1.1,2.92,1.21,3.65.16,1.04,4.79-.9,4.79-.62.03,6.16-5.65,10.17-11.23,11l-15.46,2.31c-5.02.75-6.86.79-9.38.94Z"/>
      <path class="st2" d="M1130.99,1173.67l-8.2-2.11c-2.44-1.22-5.53-1.72-7.44-4.78-1.22-1.96.45-4.38,2.35-6.87,1.82-2.39,23.58-3.4,37.32-1.87-9.18,6.23-18.16,4.17-27.3,3.95l-2.85-.44c-1.27-.2-2.13,2.59-1.51,2.9l4.02,2.01c4.63,2.31,9.31,5.26,15.48,3.64-3.16,5.86-8.91,2.51-11.87,3.57Z"/>
      <path class="st2" d="M1245.62,1118.17c.04,1.97-.74,5.44-1.56,5.56l-4.84.7c-1.66,2.17-6.02,2.45-5.89.96,1.62-5.02,2.84-10.87-1.32-11.83l-2.58-.59c-.68-.16-1.47-1.84-1.39-5.14l17.69-.52c-2.46,1.72-5.94,1.47-7.26,6.6l23.51-.64c-5.14,2.68-11.15,3.49-16.36,4.9Z"/>
      <path class="st1" d="M370.74,975.74c3.87-7.48,10.04-6.45,16.61-7.06,15.79-1.45,31.62-6.41,47.64,1.21-22,2.24-41.96.88-64.25,5.85Z"/>
      <path class="st2" d="M397.51,1170.4l.29,3.39c-5.71,1.42-8.99,6.09-13.66,10.3-1.28,1.16-5.33.21-7.57,4.81-1.32-4.66-1.13-6.07-4.12-10.69l25.05-7.81Z"/>
      <path class="st1" d="M757.49,1241.24c-9.16,3.94-18.72,5.15-30.4,4.88l5.08-7.06,25.33,2.18Z"/>
      <path class="st2" d="M1159.39,1141.68c-3.38,5.31-10.92,6.36-18.97,6.27,3.52-6.94,9.91-12.57,18.97-6.27Z"/>
      <path class="st2" d="M382.44,1128.29c-8.92,5.29-16.16,7.1-25.85,8.44,7.35-6.22,14.79-12.52,25.85-8.44Z"/>
      <path class="st2" d="M1172.96,1145.12c.69.6.68,2.67.18,4.41-3.2.18-8.16,3.5-11.62-.73-2.5-3.05-1.69-8.22,2.51-9.82-.24,1.67-.85,3.43-.33,4.05,1.18,1.41,2.11-.54,4.14-3.22,2.95.8,1.22,3.2,1.75,4.15.43.78,2.74.96,3.38,1.15Z"/>
      <path class="st1" d="M401.29,1030.76c.3,2.18-5.28,6.1-10.29,4.82-1.46-.37-3.91-2-3.1-4.44.7-2.11,6.99-5.22,10.21-4.66,1.35.23,2.99,2.91,3.18,4.28Z"/>
      <path class="st1" d="M1294.51,1079.54l-29.06-1.6c5.27-5.52,20.16-4.38,29.06,1.6Z"/>
      <path class="st2" d="M373.36,1291.04c.7-2.77,1.91-5.41,5.84-6.99.33-1.02-.8-1.92-1.79-1.39.48-1.32,2.01-2.61,2.95-2.24,1.4.54,2.41,2.73,3.08,4.43,1.67,4.21,1.9,7.49-2.99,8.65-2.26.54-5.05.11-7.1-2.45Z"/>
      <path class="st2" d="M1352.87,1025.43c-2.21-1.12-4.47-2.37-6.01-4.36l24.66,1.39c-5.84,5.4-12.94,2.96-18.65,2.97Z"/>
      <path class="st1" d="M1225.46,1117.73l-15.44,4.28c2.62-7.11,8.56-8,14.1-8.21,3.22-2.47,5.22,2.85,1.34,3.93Z"/>
      <path class="st1" d="M1192.54,1129.77c-3.36.27-4.73.8-5.75.06-1.47-1.06-2.39-2.73-1.84-3.96.88-1.99,7.9-4.67,10.62-.75.95,1.37,1.32,4.29-3.02,4.64Z"/>
      <path class="st2" d="M1350.97,970.99l-21,3.74c6.37-4.45,12.54-5.84,20.63-6.12l3.41-1.47c.69-.3,1.47,2.16.8,2.84-1.12,1.15-2.34.74-3.85,1.01Z"/>
      <path class="st1" d="M448.5,988.05l-51.06-1.26c-21.26-.52-41.25,2.23-61,7.27,30.06-15.46,62.7-15.22,95.45-13.18,6.71.42,13.44-1.42,16.62,7.17Z"/>
      <path class="st3" d="M515.93,877.34l-23.29-1.93c-.76-4.28,5.18-8.82,8.48-6.43,4.87,3.54,9.56,3.26,14.81,8.35Z"/>
      <path class="st3" d="M1083.61,1185.53l.41-4.26c.87-.26,2.03-.77,2.69-.33.91.61,1.45,2.89.98,3.57-.85,1.23-2.5,1.48-4.08,1.02Z"/>
      <g>
        <path class="st1" d="M852.76,1231.7c-.18-.87-.33-1.56-.27-2.14.73-7.01,11.39-4.35,12.48-6.54.37-.75-.1-2.83-1.73-3.46l-23.46-9.01c-9.29-5.58-19.99-8.25-29.77-.5-3.75,2.97-11,7.88-14.32.15,5.15-.27,9.33.8,12.89-3.29l-8.51-2.25c6.11-2.24,14.07-1.03,19.25-6.09,2.72-2.66,4.35-5.3,8.25-4.82,2.18.27,4.37,2.96,7.01,4.14l62.85,28c12.72,5.67,23.71,13.3,32.54,24.3,20.11,25.32,33.66,53.53,42.58,84.66.8,2.35,4.75,10.34,7.38,8.71,31.64-22.24,47.01-110.01,42.03-147.03l-5.01-37.22c26.33-3.39,50.53-9.3,75.09-17.83,34.06-11.83,80.07-27.06,99.76-56.26,4.64-6.89,8.71-17.47,17.02-18.08,2.94,6.17,2.19,12.96-3.21,15.59-11.79,5.74,13.03,16.8,35.07-9.33,2.21,2.68,4.36,4.81,5.87,4.55l6.92-1.22c-4.17,6.09-12.07,9.88-18.67,14.9l-17.26,13.12c-6.89,5.24-19,1.83-26.92,5.62l-46.41,22.18-34.16,12.73c-27.88,10.39-56.77,16.29-85.83,22.95,2.58,10.55,5.38,18.98,5.48,28.41.55,50.01-10.07,99.07-35.42,142.04-3.55,6.01-11.18,11.49-17.6,10.37-12.24-2.14-16.62-57.35-51.69-91.94l-14.05-13.85c-8.88-3.07-18.3-.15-28.66-.72-.61-5.4,2.3-9.16,8.83-12.34-8.99-6.29-15.71-1.6-24.12-.58l-14.23,2.07Z"/>
        <path class="st1" d="M684.91,1266.79c-.56-1.03-1.24-1.65-2.16-2.37,6.87-3.02,13.28-8.42,23.98-7.46l-21.82,9.83Z"/>
        <path class="st2" d="M734.52,1110.68c27.48-4.57,84.79-2.83,96.15-20.45-31.72,4.87-61.73,1.02-93.24,2.44-36.74,1.66-72.83,9.85-106.87,22.13-51.12,18.45-93.01,60.67-90.66,116.99,1.07,25.68,15.65,44.45,26.87,66.87-30.68-24.21-43.67-65-40.29-101.73,2.63-28.59,33.13-71.94,53.89-91.81,17.68-16.93,44.11-22.23,67.61-23.59l30.92-1.79c23.08-1.34,46.02.64,68.76-3.44l35.28-15.12,45.73-3.04-28.31-12.46c-21.32-13.27-36.63-52.2-26.38-76.93,2.66-6.41,2.48-14.9,11.32-18.96l.15,30.18c5.69,23.02,20.63,45.36,43.75,55.01-15.6-30.88-20.01-64.36-10.31-95.78,4.58-14.83,11.13-28.89,25.17-38.11-16.92,47.72-24.48,79.43,17.13,113.96,9.44-4.77-1.91-14.65-3.27-26.69-2.49-22.11.94-44.21,11.4-63.64,13.26-24.64,31.39-47,58.71-56.05-13.9,12.9-26.62,24.2-36.56,39.61-19.51,30.25-17.85,75.68,18.59,89.49-13.84-21.07-6.55-44.17,11.44-59.55,49.51-42.32,126.82-57.6,192.07-65.48-13.35-5.82-28.98,4.65-39.34-6.35-4.11-4.36,6.59-10.9,11.87-10.41,15.4,1.43,29.04,2.12,44.42-2.83-5.65-4.84-7.47-16.42-2.1-21.66,13.84-13.5,95-18.17,127.14-12.94-26.65,9.79-52.64,9.79-79.16,9.49-32.52-.37-29.9,22.14-46.49,25.87,6.45,7.2,15.69,6.51,24.47,9.81,7.36,2.76,14.49,7.81,22.75,4.06,20.29-9.21,19.54-26.15,21.83-27.57,2.16-1.35,5.48-.13,8.55-.02,16.07.54,30.33-6.18,45.68-9.2l21.12-7.15c24.07-8.15,84.14-6.68,79.71,10.73-12.17,47.84-69.35,75.84-100.35,116.6-9.65-12.9-22.84-20.62-37.74-25.57-15.64-5.19-31.03-11.32-47.8-12.32-21.9-1.31-44.02.5-65.42,6.05-39.85,10.35-101.43,32.04-128.09,60.07-2.24,2.35-7.05,10.3-3.45,12.74,14.18,9.63,66.15-3.67,127.58,26.23,18.59,9.05,49.8,28.11,46.74,39.69-.46,1.73-4.51,4.67-5.87,3.15-5.52-6.17-9.85-4.87-16.56-2.17l-37.64,15.13c-43.13,22.08-89.47,33.39-138.36,33.42-20.69.01-40.41-7.8-57.52-19.35l-13.7-12.96c-6.66-2.7-15.69,4.47-18.97,10.49,11.64,10.96,25.33,16.68,39.6,21.9l31.01,11.36c-25.21,11.47-49.23,18.68-75.55,23.05l-98.22,7.39c-61.7,4.64-126.18,8.31-168.86,57.1-19.93,22.78-17.7,49.53-11.24,79.7-32.54-48.08-13.68-112.3,35.43-140.41,25.33-14.5,52.32-23.01,81.26-27.82l44.24-7.36ZM1284.85,894.08l-4.95,7.97c-1.4,2.25-2.4,3.83-1.13,6.01,2.61,4.5,8.45-6.69,6.08-13.98Z"/>
        <path class="st2" d="M1198.72,769.39l40.22,2.36c3.12.18,6.71,7.85,13.19,3.97,1.5-.22,4.67,1.14,1.6,3.55-43.67-3.15-86.97-4.18-131.59,1.23l-42.87,5.2-47.98,7.2c-31.31,4.7-60.61,12.27-91.66,19.45-37.46,8.65-72.99,18.32-108.32,33.62-38.25,16.57-88.68,26.41-129.74,30.87,40.9-28.13,82.42-49.54,127.77-62.81,25.47-7.45,51.61-7.16,76.68-18.97-14.49-5.31-27.67-.61-40.89,2.45l-44.28,10.25-63.83,24.09c-2.86.17-3.07-2.74-.47-3.12,4.16-1.23,5.79-4.17,5.09-7.48l23.33-7.45c41.29-16.3,83.38-26.12,127.44-32.23,13.86-1.92,27.06-8.89,40.91-6.24,5.27,2.38,7.86,10.24,11.74,16.24,9.95-5.85,19.9-6.26,30.69-8,60.96-9.83,144.42-17.63,202.98-14.2Z"/>
        <path class="st2" d="M753.77,1023.41c-11.62-2.61-20.76-10.94-29.09-19.46-23.83-24.35-51.45-40.71-83.25-52.56-23.06-8.59-44.83-16.12-69.83-17.48l-48.42-2.63c-23.31-1.26-46.5-3.38-68.12,4.48,23.23-.26,44.13-.58,64.04,8.49l3.11,2.28c1.63,1.2,1,5.93-1.16,5.23-36.96-11.88-73.04-13.09-111.96-9.4l84.76-20.95c24.76-6.12,48.62-12.25,74.27-14.28l54.07-4.28,127.54-1.61c7.09-.09,13.84.25,21.13,3.4-6.85,10.53-15.19,17.76-19.98,31.29-9.45-6.09-20.7-9.14-33.37-10.13l-69.01-5.39c-30.45-2.38-59.7-1.11-89.91,1.06l-50.77,3.65c16.51,2.96,33.08,1.32,50.53.07,28.11-2.01,55.64-.15,83.99,3.56,28.91,3.78,55.93,12.9,82.11,24.69,5.29,2.38-6.24,41.51,29.32,69.96Z"/>
        <path class="st2" d="M985.36,1291.77c-2.4-15.7-5.44-29.99-12.54-44.13l-26.35-52.47c-3.79-7.54-10.59-11.77-17.6-18.35l15.62-2.84c13.35-5.39,26.46-7.5,40.34-10.22,1.86-.36,4.93-3.48,6.52-3.13,2.46.54,4.85,3.59,4.49,6.93-.97,9.14,2.05,17.03,3.03,25.89,3.01,27.26.73,54.02-4.52,80.74-2.46,5.95-.68,11.93-9,17.6Z"/>
        <path class="st2" d="M456.84,1145.59c-2.52-1.14-4-2.66-5.38-4.68l7.74-33.54,20.35-40.43c15.02-24.65,37.48-42.95,64.75-56.02l-24.05-19.03c-18.46-14.6-37.1-25.27-58.59-35.19,30.67,3.68,55.06,21.25,77.1,40.92,3.19,2.85,8.32,8.18,12.63,7.23l31.31-6.93c7.25-1.6,14.95-1.48,21.26,3.29-64.24,5.52-111.22,48.26-135.74,107.04l-11.37,37.33Z"/>
        <path class="st2" d="M1191.96,979.9c-1.31-10.85-2.16-20.58-10.11-29.15-3.87,3.3-7.53,10.84-13.26,11.98-8.44,1.68-.55-15.82-6.62-21.91-1.96-1.97-7.32-5.1-9.67-2.86l-12.61,12.06c-8.64-3.08-13.58-9.47-13.88-21.01l46.44.08c19.34,3.73,59.37,24.19,56.09,39.45-2.03,9.45-11.9,16.21-19.91,20.7-2.13-8.06.35-13.97-3.77-21.93l-12.7,12.57Z"/>
        <path class="st2" d="M589.25,1065.61c-12.83,15.08-6.17,32.62-21.95,40.93-7.58,2.08-11.69,7.47-18.76,12.47l23.13-52.81c5.06-11.56,17.62-18.85,30.66-18.74l-13.09,18.14Z"/>
        <path class="st2" d="M1146.95,1063.23c1.94-1.9,9.93-2.36,9.95-4.79-2.22-9.92-9.75-16.49-14.61-25.95,7.9,2.79,13.47,9.28,19.57,15.79,3.19-4.87-.02-9.07-.14-12.93-.19-6.03,8.23-16.42,13.35-13.61,7.83,4.29-3.5,15.47-8.83,25.73-6.22,11.98-10.57,24.82-21.12,34.51-2.39-4.9-3.74-13.29,1.83-18.75Z"/>
        <path class="st1" d="M740.62,1185.06c2.42-.64,4.26-1.85,4.76-4.38l30.62,2.43c13.91,1.1,27.21,2.71,39.09,10.41l-41.13-4.59c-8.73-.97-16.97-2.57-24.8.56-.69-5.3-5.28-4.77-8.54-4.43Z"/>
        <path class="st2" d="M1121.32,1017.61c-10.91-7.1-22.17-10.63-25.4-18.51-1.8-4.38,2.8-8.52,5.48-9.43,11.78-3.99,19.31,11.3,19.92,27.93Z"/>
        <path class="st2" d="M745.38,1180.68c-.49,2.53-2.33,3.74-4.76,4.38-1.99.53-4.39,1.27-5.37,4.94,5.16-.29,8.58-1.54,12.85.71-7.77,2.8-10.41,6.44-12.87,13.33-1.93,2.84-9.52,5.2-10.02,9.77-.24,2.24,4.2,3.62,5.52,3.16-2.02.31-6.74.82-7.05,2.96-2.74-.63-4.92-.9-7.78-4.26,17.18-14.46,6.6-36.8,29.47-34.99Z"/>
        <path class="st2" d="M1140.96,1027.87c-1.07-4.46-4.4-7.66-10.89-7.43-1.95-7.96,6.2-19.62,14.87-17.8,5.36,1.12,5.77,9.59,5,13.03-1.09,4.86-2.86,8.6-8.97,12.2Z"/>
        <path class="st2" d="M1081.58,996.27c-5.89,1.84-16.09,1.46-18.56-3.97-3.16-6.93,6.91-16.1,13.42-13.8,6.46,2.29,8.61,11.69,5.15,17.77Z"/>
        <path class="st2" d="M481.84,1201.09c-.6,3.05-2.27,5.85-1.76,10.11-2.52-.56-4.12-.19-6.22.61,1.85-16.55,6.22-33.54,13.85-48.53,1.21,3.71,2.53,5.74,6.27,6.99-6.58,9.12-10.01,19.95-12.14,30.82Z"/>
        <path class="st2" d="M1114.02,931.73c3.41,5.55-.76,19.68-6.26,20.63-7.63,1.32-8.5-9.85-7.85-14.47.85-6.09,11.05-11.13,14.11-6.15Z"/>
        <path class="st2" d="M1036.38,990.15c-3.4-5.25-1.22-13.5,4.87-15.13,4.81-1.29,8.17,2.24,9.34,5.61,1.31,3.78.95,7.5-2.79,10.15-2.78,1.97-8.66,3.63-11.42-.63Z"/>
        <path class="st1" d="M461.83,1028.67l-9.2,11.95c-4.62-6.87-2.78-12.35-4.06-20.56,4.38.85,7.76,3.05,13.27,8.62Z"/>
        <path class="st1" d="M777.79,1213.23c.81-2.26-.1-4.24-1.28-6.22,7.12-4.12,16.02-9.59,22.63-1.3-1.53,2.81-6.31,2.18-9.08-.86-2.41,6.95-5.9,8.42-12.27,8.38Z"/>
        <path class="st2" d="M776.51,1207.01c1.18,1.98,2.09,3.96,1.28,6.22-6.82-.04-13.77,3-20.88,1.01-1.88-.53.43-5.64,4.02-5.65,4.5-.02,11.27.9,15.57-1.58Z"/>
        <path class="st2" d="M1020.71,983.97c-1.63,4.51-11.74,4.88-13.56,1.92-1.1-1.79.05-4.52,1.85-6.5,2.5-2.73,5.48-3.09,8.16-1.89,1.88.85,4.49,3.83,3.54,6.46Z"/>
        <path class="st1" d="M448.28,1046.88c-2.04,2.23-6.23,4.93-9.54,5.67-1.85.41-4.61-1.94-5.57-2.94-1.19-1.25-.19-5.97,2.03-7.28,3.03.12,6.73,1.56,13.08,4.55Z"/>
        <path class="st2" d="M1109.31,1092.39c-5.63,3.25-9.69,6.12-15.11,5.51,3.55-5.64,9.78-10.76,16.4-10.41,2.57.99,1.97,4.93-1.29,4.9Z"/>
        <path class="st1" d="M428.23,1023.69l-4.64-12.18c4.75-1.3,6.87.75,8.8,4.27,1.32,2.41,2.53,5.92-4.16,7.91Z"/>
        <path class="st2" d="M1172.15,796.93c-7.07,3.41-13.01,2.18-20.09,1.1,4.65-4.75,13.11-4.98,20.09-1.1Z"/>
        <path class="st3" d="M1284.85,894.08c2.37,7.29-3.46,18.48-6.08,13.98-1.27-2.18-.27-3.76,1.13-6.01l4.95-7.97Z"/>
      </g>
    </g>
    <g>
      <path class="st3" d="M1596.14,387.02l2.66-2c10.51-1.76,17.72,4.45,16.07,7.36-.35.63-1.32,1.8-3.7,2.49l34.14,2.75c14.98,1.21,28.26,4.33,43.6,4.87,13.33.47,25.44,9.14,36.78,15.1,12.76,6.71,24.09,15.14,30.67,28.3,9.79,19.57-20.24,34.63-42.61,43.74l-41.79,17.01c-7.15,2.91-16.91,1.56-22.3,8.48,9.47,1.67,17.61-2.99,25.79-4.5l72.61-13.36-53.71,19.34-63.52,17.39-54.99,8.56-60.66,9.05c-19.67,78.44-35.59,152.49-48.83,230.94-.94,5.56-4.47,9.09-8.85,11.65,8.11,3.4,9.8-8.23,26.83-10.7,1.59,3.51,2.9,4.42,6.25,6.24l-10.54,4.28c-.65-3.54-4.11-4.75-4,0-3.07,1.77-7.28,6.89-10.61,6.22-3.96-1.55-4.54-.97-5.78,1.38-.9,1.72-2.43,3.55-.43,5.08-1.62-1.25,32.67.07,49.02-8.12,2.53-1.27,4.4-2.29,7.33-1.75,1.85.34,3.17,1.91,3.03,4.52l-22.73,8.72c-11.65.91-21.06,1.42-31.75,7.49-1.6.91-5.69,1.04-5.67,3.15l.1,7.93c14.77-8.37,27.23-3.83,32.84-14.08l30.72-6.75,14.23-3.4c3.69-.88,8.56.14,8.84,4.82l-55.13,22.76c-6.51,2.69-16.03-2.05-22.09,5.41l71.9,1.12,44.28-2.21-100.46,30.45c16.62,1.31,30.72-1.84,46.72-3.83,2.92-.36,7.03-5.46,10.85.23-5.34-1.68-8.96,5.01-11.92,7.25l-42.57,9.28c-14.94,3.26-29.51.7-46.08,1.58,2.33,4.14,7,3.3,11.42,3.24-6.47,4.16-14.48,3.64-20.99,9.95,30.16-3.26,57.89-6.81,87.47-6.27-4.57,4.91-10.89,5.27-17.24,6.49l-59.51,11.43c-2.53.49-4.53,6.68-2.31,8.01,3.41,2.04,5,2.31,6.33,5.36,1.96,4.52,1.69,5.22-2.44,10.18,15.6-3.16,27.66,2.02,39.91,10.6-4.06,5.94-10.51-.05-13.42.79l-34.88,7.27c-11.81,2.46-21.05,6.71-33.27,7.41-12.92.75-24.98,5.7-38.14,9.04,9.86,2.27,18.06-1.94,27.52-1.82l47.06.61c1.85.02,4.76-2.83,5.36-1.68.49.94,1.68,3.14,1.73,4.08.19,4.06-42.94,15.02-62.37,18.01,4.01,1.15,9.91,3.62,8.75,5.8l-3.85,7.2,8.03,2.62c1.01.33.47,5.03-.03,6.05-5.88,2.28-12.41,3.99-18.02,4.18-1.51,1.67-1.26,6.43.04,7.73,3.72,3.73,11.33-.07,16.04,4.2-4.74,5.69-11.39,5.04-17.63,7.21-2.3.8-.11,4.39,1.69,5.01,1.93.67,3.54-.46,6.26.69l8.78,3.74c6.35.54,12.09,1.03,17.55,6.5l-39.51,2.86c-3.02.22-5.6,1.37-6.38,3.7l49.93,7.16-58.45,2.64-25.67,2.44c-8.75.83-17.93.2-24.95,5.1,21.33,10.42,23.13-8.18,27.87-.38-5.76.75-5.63,4.75-1.46,5.42,3.2-2.01,7.18-1.17,7.6.38l2.02,7.35c2.64-2.88,4.24-4.85,10.42-7.8-3.8-2.43-6.21-3.35-8.22-7.98,5.07.1,6.92,2.09,9.5,1.45,4.48-6.36,15.52-6.86,20.65-1.87l-19.36,6.07c.83,4,.64,8.36-.93,10.46-1.01,1.35-4.42,2.17-7.06,1.9l-49.94-5.17c-8.22,12.62-27.56,7.93-29.84,15.81,17.96-1.72,33.3-10.11,50.13-6.47l26.51,5.73c1.68.36,3.58,1.96,4.55,2.47.85.45.93,3.28-.09,3.46-22.46,3.89-47.57-2.06-70.83,10.19-3.31,3.89-6.18,8.46-13.03,10.55l-14.19,4.32c-6.54,1.99-8.45,7.01-9.24,12.27-1.01-2.63-.29-4.73-3.13-6.44l-.64,7.99c-3.19-1.99-6.28-.27-8.41,1.68-3.52-4.84-1.87-12.19,3.89-16.86-7.03-1.65-9.6,2.82-13.9,5.24-5.66-1.67-9.88-3.05-15.15-.15,7.31,3.21,9.5,6.38,12.48,11.87,4.24-1.47,4.38,4.4.09,2.94-3.39,4.37-6.93,7.08-11.34,9.83,12.21,4.8,22.09,1.21,33.89,1.27,2.28.01,8.21,2.89,8.88-.47l2.1-10.51c3.47,5.67,3.85,9.34,8.63,10.67,6.66,1.85,14.27-5.73,19.88-1.8,2.36,1.65,3.1,5.3,2.03,10.34l-31.95-2.75c-5.86-.5-11.23,3.71-16.55,3.61-.1-1.93-1.53-2.32-3.08-2.32-1.55,0-2.97.39-3.04,2.21-.71.36-1.92.18-2.14-.84-13.5-2.55-28.47-.88-42.39-.88-.24.49.2,1.52,1.03,1.57l43.43,2.87c7.72.51,16.56.75,22.66,6.68-14.92,4.88-29.62,3.92-43.89.08-8.24-2.21-16.01-2.18-24.51-2.59-3.63-.17-4.58-.45-5.86,3.4-.68,2.05-.06,4.39,4.2,4.38-.48,3.55-1.68,5.14-.67,10.45,8.68-6.31,18.26-4.16,27.97-5.1,17.55-1.69,33.68-3.04,51.48-.34-3.67,5.59-9.24,2.76-13.59,3.3l-45.74,5.71c-13.93,1.74-28.05,2.11-38.86,9.52-.21-2.73,1.56-4.23,1.84-4.89.61-1.46-2.37.19-6.45.06,1.67-5.58,9.85-6.09,14.14-7.85-1.45-3.92-1.54-8.17.36-13.11-9.41,4.6-12.33-2.77-23.27-4.15,1.55,4.52,2.37,8.5.34,12.05-5.38-10.26-11.53,2.5-21.29,3.96-.67-3.18-2.05-6.2-4.51-9.79l11.44-4.1c2.96-1.06,8.71,2.29,11.87-3.57-6.17,1.62-10.85-1.32-15.48-3.64l-4.02-2.01c-.62-.31.24-3.1,1.51-2.9l2.85.44c9.15.22,18.12,2.27,27.3-3.95-13.75-1.53-35.51-.52-37.32,1.87-1.89,2.49-3.57,4.91-2.35,6.87,1.91,3.06,5,3.56,7.44,4.78l-14.64,2.12c-2.46.36-3.28,2.4-3.89,3.28-8.11.62-5.13,10.1-10.66,6.41l-.3-6.23c-3.34,1.91-5.97,2.14-8.95,2.46l-10.4,1.14c-10.22-8.8-21.31-.8-36.64-1.39-.57,4.71-.73,7.59.22,12.67,5.23-7.07,22.47-5.84,30.77.12l1.03-5.5c.19-1.01,1.38-1.9,2.45-.37,3.08,4.41-.97,8.78.36,15.77,4.6-4.8,8.59-8.44,14.61-9.09l1.27,3.41c-6.35,5.25-10.5,13.26-20.61,13.57,2.55-4.26,2.43-8.25-1.62-10.49l-.94,10.71-3.57-8.62c-.08-.72.07-2.55.61-2.81l3.89-1.94c-10.04-5.33-25.05-3.29-26.27.15-.87,2.44-.81,5.26,1.54,6.49-3.94,5.07-4.94,10.23-3.24,17.82,1.07,4.78-1.7,12.97,3.97,16.51l-9.3,50.71c-3.99,21.77-15.22,40.08-25.52,59.04-3.97,7.31-5.42,13.24-13.72,17.46-4.94,2.51-8.69,6.6-15.53,4.59-15.63-4.58-21.42-37.28-25.15-45.17l-18.21-38.47-10.68-17.55-14.19-16.53c-3.52-4.1-16.58-2.75-21.08.03-.55,5.25.79,13.14-2.97,20.04-6.19-.94-10.1-6.21-13.16-11.1-1.69,1.2-2.54,2.3-2.77,2.98-.45,1.31-3.9.94-2.61-1.97.92-2.07,6.48-3.44,6.32-9.29l-20.69,7.63c-2.2.81-7.99-2.2-9.79.46l-4.38,6.48c-1.18,1.74-5.53-1.99-5.17-3.85,1.78-9.43,15.72-5.33,27.61-16.13-2.36-3.21-7.62-3.11-11.01-5.6-3.38-2.48.39-8.93,2.98-9.85l14.23-2.07c8.4-1.02,15.13-5.71,24.12.58-6.53,3.18-9.44,6.95-8.83,12.34,10.37.57,19.78-2.35,28.66.72l14.05,13.85c35.07,34.59,39.45,89.8,51.69,91.94,6.42,1.12,14.06-4.36,17.6-10.37,25.36-42.97,35.97-92.04,35.42-142.04-.1-9.43-2.91-17.86-5.48-28.41,29.06-6.66,57.96-12.57,85.83-22.95l34.16-12.73,46.41-22.18c7.93-3.79,20.03-.38,26.92-5.62l17.26-13.12c6.61-5.02,14.51-8.82,18.67-14.9l-6.92,1.22c-1.51.27-3.66-1.87-5.87-4.55-22.04,26.12-46.86,15.07-35.07,9.33,5.4-2.63,6.15-9.42,3.21-15.59-8.32.61-12.38,11.2-17.02,18.08-19.69,29.2-65.71,44.44-99.76,56.26-24.56,8.53-48.76,14.44-75.09,17.83l5.01,37.22c4.98,37.01-10.4,124.78-42.03,147.03-2.63,1.63-6.59-6.36-7.38-8.71-8.92-31.14-22.47-59.34-42.58-84.66-8.83-11.01-19.82-18.64-32.54-24.3l-62.85-28c-2.64-1.18-4.83-3.87-7.01-4.14-3.9-.48-5.53,2.16-8.25,4.82-5.18,5.05-13.14,3.84-19.25,6.09l8.51,2.25c-3.56,4.09-7.74,3.01-12.89,3.29,3.31,7.73,10.57,2.82,14.32-.15,9.78-7.75,20.48-5.08,29.77.5l23.46,9.01c1.63.63,2.1,2.71,1.73,3.46-1.09,2.19-11.75-.47-12.48,6.54-1.34.9-3.05.48-3.6-.64l-1.62-3.32c-2.72-5.57-20.59-6.73-32.55-5.4l-47.85,5.31-19.96,6.22c16.23,2.02,28.74,3.65,43.3,7.44,1.63-6.99.64,7.81,4.65,0,26.93,12.74,47.61-7.98,52.52,3.71l-50.84,17.6c-11.73,4.06-22.46,6.04-34.54,8.59l-16.94,8.27c-3.8,1.86-9.26.82-11.89,5.29l14.03-2.56c9.2-3.53,18.31-2.85,25.28,6.29l-14.6,4.81c-16.18,2.59-32.01-1.59-46.11-7.5l-.63,3.73c-.3,1.8-2.06,1.26-2.37.25-2.21-7.18-17.32-2.58-29.22,6.61-1.15-2.77,1.05-6.22,5.66-8.53-5.21-2.41-9.18-5.69-12.61-10.06l12.31-8.88,21.82-9.83c-10.7-.95-17.11,4.45-23.98,7.46l-17.12,7.52-1.09,1.7c.08,2.86.7,6.21-.7,9.11-.12-.02-.8-.38-1.24-1.06,0-2.18.69-3.55-.76-7.89-4.68,5.15-10.78,4.24-16.32,6.6-4.19,1.79-8.13,7.66-13.75,3.09,6.25-1.75,8.72-5.1,8.8-10.99,2.05,1.28,2.36,2.69,3.15,3.92,9.17-21.57-7.1-25.99-7.63-43.04-15.31-6.07-17.42,18.06-18.43,41.18-.32,7.37,3.92,9.42,6.5,13.41,2.47,3.81-2.66,13.84,4.14,16.7l15.64-3.89c2.21,4.66-3.18,8.31-6.91,11.9-3.05,2.93-7.9,1.64-12.96,1.1-2.61,7.08-5.25,10.18-11.14,16.66l14.89-.37c1.01,2.42-2.5,8.77-5.29,8.08-17.85-4.43-35.13-4.03-53-4.89-11.37-.55-19.27-10.89-27.28-17-15.71-12-28.91-24.63-41.28-39.92-6.42-7.93-14.59-13.9-18.83-24.09l-15.72,4.12c-12.07,3.16-22.59,26.64-44.8,34.76-4.15,1.52-8.74-3.75-8.67-6.2-5.22,5.77-10.44,9.05-18.57,12.02-1.8-4.36,2.19-11.11,8.34-10.88.56-4.58,1.36-11.27,6.31-13.76,1.42.62,4.89,2.16,5.63,1.47.8-.74,1.33-2.6,2.02-5.31.07,1.55,1.85,3.81,3.12,3.26,4.63-5.97,9.71-10.45,11.95-18.32-16.39,5.93-31.63,12.05-46.51,22.29,1.5,8.61,5.23,21.17-1.24,27.69-6.07,6.11-16.96,7.17-24.38,8.94,2.33-3.83,5.88-6.58,4.93-10.56-.4-1.66-3.48-4.45-4.24-3.69l-2.92,2.94c-.28-2.04-.52-5.32-1.28-6.71-.42-.78-1.8-.19-3.28-1.03-.58-4.34,1.71-5.07,3.99-5.73,5.85-1.69,10.34,6.48,14.32.74l2.21,2.76c2.04,2.55,4.84,2.98,7.1,2.45,4.89-1.16,4.66-4.43,2.99-8.65-.67-1.7-1.68-3.89-3.08-4.43-.95-.36-2.47.92-2.95,2.24-2.48-1.86-4.05-4.8-5.84-7.35,16.83-14.87,36.23-24.21,56.94-32.6,5.64-2.28,13.64-.84,16.37,4.73-2.48,7.61-10.56,16.04-9.96,26.07,11.47-8.71,16.73-22.9,30.2-26.39,4.49-1.16,12.14,3.33,16.15-6.54l24.04,29.44c20.17,24.7,60,55.36,92.71,55.92,29.49.5,4.32-26.54,11.44-72,3.74-23.9,24.13-39.6,48.09-37.22-9.06,5.72-14.36,9.85-13.19,18.36,1.03,7.5,3.79,15.13,12.2,16.09-2.74,4.55-4.4,7.61-2.28,12.65,6.17-8.17,11.86-10.68,19.38-8.14,14.74-3.5,27.88-7.15,40.82-14.24l9.55-10.32,24.72-10.14c-5.92-5.74-12.92-4.78-18.03-3.99-1.32.46-5.76-.92-5.52-3.16.5-4.57,8.09-6.93,10.02-9.77,2.46-6.9,5.1-10.53,12.87-13.33-4.27-2.25-7.69-1-12.85-.71.98-3.67,3.38-4.41,5.37-4.94,3.26-.34,7.85-.87,8.54,4.43,7.83-3.14,16.07-1.54,24.8-.56l41.13,4.59c-11.89-7.69-25.19-9.3-39.09-10.41l-30.62-2.43c-22.87-1.81-12.29,20.53-29.47,34.99,2.86,3.36,5.03,3.64,7.78,4.26-.98,6.75-7.1,8.14-12.72,12.09-4.6,3.24-10.98,7.36-15.16,1.31l-22.01-31.89c-21.01,1.28-43.56,9.97-57.62,26.56-15.03,17.73-16.56,42.44-11.59,64.24,2.27,9.97,5.07,18.67,3.57,29.04-15.93,2.43-29.99-1.93-42.39-10.26l-26.85-18.04c-29.28-23.98-56.55-54.48-57.07-91.88,2.13-10.88,5.57-21.71,12.14-30.82-3.74-1.25-5.06-3.28-6.27-6.99-7.63,14.99-12.01,31.98-13.85,48.53-.39,3.5-1.41,10.87-3.79,13.33-3.55,3.66-6.77-2.62-8.52-4.09-2.42-2.02-6.53-2.47-8.4-3.21-3.23-1.27-2.54-6.92-3.42-9.29-2.64-7.1-.07-10.51.73-16.37l6.38-46.59,11.37-37.33c24.52-58.78,71.51-101.51,135.74-107.04-6.31-4.77-14.01-4.89-21.26-3.29l-31.31,6.93c-4.31.95-9.44-4.38-12.63-7.23-22.04-19.67-46.43-37.24-77.1-40.92,21.49,9.92,40.13,20.59,58.59,35.19l24.05,19.03c-27.27,13.07-49.73,31.37-64.75,56.02l-20.35,40.43-7.74,33.54-3.76,28.29c-.54,4.06-4.36,8.18-7.22,10.15l-5.62-24.89c-2.94-1.25-11.19-3.31-7.66-8.54l9.84-6.74-13.72-11.67c-3.49,6.43-13.33,2.93-16.72,6.07l-20.1,18.59-36.56,24.27-14.88,8.49c.75.92,2.28,1.14,2.99.81l25.71-12.02c16.42-7.68,31.27-17.7,49.87-20.61-3.77,6.9-9.57,15.26-16.13,17.3l-25.05,7.81c2.98,4.62,2.8,6.03,4.12,10.69,2.24-4.59,6.29-3.65,7.57-4.81,4.67-4.22,7.95-8.89,13.66-10.3.92,6.8-2.77,13.1-9.23,16.99-6.63,4-10.36,9.99-16.36,14.15l-46.77,32.47c6.32-.45,11.94-3.65,16.64-6.17l27.73-14.88c13.55-7.27,34.66-18.62,39.49-13.34,1.38,1.51.29,5.2-1.77,6.76-13.11,9.94-22.26,21.97-32.26,34.42l-14.33,14.07-30.79,25.91c-10.51,8.85-21.33,15.98-29.64,27.69l39.55-27.79,23.85-18.49c8.23-6.38,12.22-13,18.26-20.52,7.96-9.9,21.43-15.76,33.99-19.61l-15.67,15.83c-12.16,12.29-26.94,22.18-34.38,37.16-2.09-1.07-3.96.47-6.9,2.39l-52.62,34.36-38.83,23.76,8.3-12.36c-17.04,5.52-21.44,19.71-23.81,20.01-2.41.31-2.72-.49-2.63-2.24.05-1.05-.04-3.2,1.14-4.1l35.41-27.17c11.79-9.05,24.68-16.96,34.84-27.91l13.74-14.81c20.7-15.87,40.12-32.25,55-54.81-16.23,6.85-24.72,17.74-45.4,21.7-3.94.76-6.61,4-8.46,6.55-1.35-1.93-3.12-3.28-4.15-3.76,3.57,1.67-23.17,4.02-36.18,13.54-9.72,7.11-20.46,12.07-32.31,17.34,5.48-9.46,16.04-11.56,23.74-17.65l15.92-12.6,25.02-15.16c10.94-6.63,20.68-12.27,30.32-20.58,5.23-4.51,14.01-5.18,17.48-14.53-2.36-.07-5.39.08-9.88,1.49,1.19-2.53,1.14-6.26-.61-7.66-3.11-2.49-7.16,1.2-9.45,2.08l-53.13,20.23c10.25-17.79,27.91-26.38,44.71-36.78l45.7-28.31c-6.04-7.83-22.22,3.84-33.77-.58-.74-.28-3.16.71-3.3-.98l-.29-3.47-13.6,3.84c-3.8,1.08-4.98,4.5-5.33,6.73-4.86-1.65-7.55,2.85-10.91,4.95l-20.26,12.7c-5.39,3.38-13.63,4.41-16.86,12.14-3.74-.03-4.15-4.19-5.09-5.96-1.15-2.17-.57-7.38,2.15-7.47,6.95-.24,8.18-1.97,12.73-6.15,3.34-3.06,10.67-2.98,13.07-7.49.53,2.42,2.1,3.31,2.93,2.56,1.13-1.02,1.6-1.78,1.5-2.32l-.61-3.36,11.53-9.25c4.34-6.97,9.04-10.9,16.36-12.95-1.87,3.15-3.98,6.09-1.79,11.07,7.64-7.18,16.38-10.32,25.6-14.76,13.74-6.61,35.73-21.93,40.03-10.83,3.01,7.76-12.44,6.93-17.77,15.47,6.71,1.4,12.94,5.72,18.28,4.36l16.06-4.1c2.81-.72,3.55-10.52.6-10.68-3.91-.22-8.18.47-10.15-1.39-1.89-1.78-4.15-8.19-1.87-9.97,13.74-10.77,35.06-.13,35.4-2.2.96-5.92-8.85-4.39-15.44-13.76l8.3-4.64c-9.05-9.52-14.72-1.34-23.61-.15-.68.09-.48.94-.12,1.51,3.48,5.41,11.66-2.79,15.51,2.72-4.82,4.63-11.02,6.98-18.03,6.92l-10.29-22.32c-.96-2.08-5.07-2.41-6.83-.93-.4.34-4,17.16,2.87,23.92-2.84,4.37-6.9,6.95-11.73,8.94l-37.03,15.25c1.08-3.92,4.76-6.38,8.84-9.12l21.76-14.64,2.63-13.44c3.09-4.32,5-7.72,2.08-11.41l-12.54,4.83c-1.51.58-3.65,1.35-3.77.39l-.45-3.71-28.08,5.46c-8.28,1.61-14.2,5.81-23.23,2.03,2.56-3.06,6.01-4.71,8.74-10.23-17.41-3.38-36.19,9.16-49.83,3.41-8.64-3.64-15.67-1.4-22.32,4.91-2.79,1.22-8.6-2.69-10.5-4.57-1.71,2.3-4.27,3.05-5.17,2.25-1.38-3.51-2.94-5.62-2.56-9.92l20.38,1.82c6.16.55,12.18,3.34,18.83,1.2,36.83-11.87,70.58-28.62,102.71-45.29-4.75-4.28-1.11-9.15.9-13.33,2.32,1.13,4.01,3.49,5.93,5.51,2.83-2.09,6.11-1.95,8.69-6.55-7.06.08-12.09-3.73-14.14-9.05-2.13.2-4.61.48-5.1,1.05-1.19,1.37,1.59,3.25,5.99,5.36-2.68,2.42-7,4.17-12.05,4.34l1.45,9.78c-6.33.21-5.29-5.59-5.34-7.97-4.17-.36-6.76,4.47-6.95,7.57l-3.5-5.43-16.89.3c.25,3.47-3.51,5.97-4.96,4.1-.82-1.05-2.88-2.82-3.19-4.12-.54-2.3,17.49-8.8,27.42-8.7,5.8.06,12.12-.04,14.44-7.05-18.77-.76-37.91,3.75-51.71,16.09-6.74,6.03-13.52,9.93-23.2,8.17l7.74-9.41c8.66,1.93,16.46-.42,19.55-9.67-7.74-.48-15.51,1.25-19.68,7.48-17-2.81-27.22,15.06-44.67,12.5-12.21-1.79-20.81,11.22-32.62,6.11,6.94-7.21,14.85-9.7,22.75-12.56l32.73-11.85-1.41,8.43c18.07-10.34,1.21-28.91,20.67-24.98l-2.59-5.39c-6.33,4.1-11.72,4.32-19.52,2.67,4.4,4.25,6.87,5.22,6.32,12.42-4.61-.38-10.64-3.37-12.46-8.67-6.54-1.29-8.86,7.77-13.09,9.14l-26.6,8.65c-5-9.07-11.88,1.82-20.89-.11,4.42-7.04,13.91-9.1,20.64-14.49,15.1-12.1,30.65-21.25,48.44-32.79-11.56-1.57-20.76,5.84-31.5,9.06l-23.73,7.09c-2.74-.69-5.72-5.51-8.06-5.29-4.15.54-5.63,1.04-10.61-1.01,15.13-10.96,36.42-11.18,39.56-12.46l57.72-23.56c.25-4.97,2.27-8.53,5.92-8.81,4.56,5.35,16.03-4.84,34.11-.63l-43.44,27.53c-18.92,11.99-39.26,20.33-55.04,37.34l51.02-23.13c11.3-5.12,23.1-7.26,35.34-6.73l-13.32,14.44c-3.81,4.13-7.4,5.43-11.85,8.95,28.49-2.76,48.98-23.82,74-21.54-2.42-5.64-3.73-8.91-2.28-12.98.98-2.77,5.18-3.57,7.93-5.66,18.39-13.97,37.54-25.13,60.14-30.88l31.48-12.83,60.39-14.4c-3.06-7.81-9.97-9.12-15.16-12.71-18.21-12.59-21.98-1.15-34.76-11.43-3.51-2.82-9.02,1.96-11.81,2.14-14.76.92-27.09,3.71-40.98,7.9-5.96,1.8-13.61,6.05-19.4,1.3l30.81-8.65c-9.73-9.67-22.08-10.17-34.8-12.22-6.87-1.11-13.6-1.09-16.14,6.63l-14.35,2.12c12.26,10.36,30.39,10.74,41.81,20.73,3.38,2.96-2.61,7.63-5.91,8.57l-61.59,17.52-43.02,14.16c-9.88,3.25-16.41,8.21-25.19,14.98-10.48,8.07-27.45,13.39-40.57,11.77-24.22-3.01-46.1-8.5-66.82-20.39-9.57-5.5-15.14-18.31-15.49-28.7-.29-8.71,9.31-13.93,12.17-20.84l32.06-77.34,27.65-59.6,27.43-59.49,3.91,2.16,8.66-22.05c1.52-3.86,5.58-7.57,4.79-13.54l-7.7,5.72c-6.95-9.19-15.98-17.08-14.15-28.16l10.47-18.53c-4.6-6.45-4.64-14.17-.38-20.1-1.54-1.9-2.05-6.47.84-6.91l3.06,4.04,2.04-1.81c5.54-4.92-7.47-4.69-9.11-9.48-.95-2.78,1.5-5.07.4-10.13-4.11,6.29-6,10.32-11.25,13.47l-35.09,21.08c-4.97,2.99-8.13,8.99-15.23,8.9,5.64-14.72,16.94-26.43,27-37.76,2.12-2.38,9.68-3.92,9.12-8.51l-1.7-14c-1.48-.08-2.55.72-3.92.88,2.63-1.8,6.39-4.44,10.8-4.54,3.35-6.64-2.26-15.44-10-17.1-7.85-1.68-13.42-7.03-20.36-9.94-14.79-6.19-22.01-21.18-15.25-37.06l18.51-27.4c3.76-5.57,6.29-10.55,12.58-14.49l-8.25-9.78c-11.76-.07-24.63,1.42-34.7-4.19l-24.39-13.58c-10.18-5.67-16.22-17.72-16.21-27.79.01-10.99,3.64-21.93,12.36-29.79,45.3-40.86,116.42-59.84,174.26-77.31l36.96-49.4c27.39-36.61,56.37-70.98,87.74-104.08,19.77-20.86,41.93-34.07,68.86-43.02,32.15-10.69,63.94-20.59,97.38-25.82,21.54-3.37,40.61,4.02,50.85,23.27,12.56,5.32,7.41,15.61,1.92,32.61,24.63-3.31,49.22-4.82,73.14-6.78l24.45-2.01,101.24-10.77c45.14-4.8,89-9.51,134.12-6.72l21.43,4.16,32.69,2.72,17.73.86c11,.53,20.56,5.71,25.42,18.1,35.38-30.75,73.57-47.84,118.28-26.47l17.35,8.29,1.84-1.43,6.31-10.37c4.91-2.52,10.86,2.23,14.26,8.29,5.69-19.11,20.7-32.47,41.11-31.46,20.31,1.01,49.95-14.95,85.23,6.58,5.73,3.49,14.94,9.43,21.79,4.93,9.83-15.14,28.05-24.4,45.78-18.51,11.3,3.75,19.5,9.72,28.78,16.31,7.69,5.47,18.5,7.25,24.38,16.48,1.63,2.57,1.9,6.79,4.74,8.31,3.45,1.85,8.03-1.43,12.44-.24,7.18,1.92,19.64,10.18,22.45,17.78,6.49,17.54-1.12,35.21-10.35,49.85l-18.56,23.05c6.91-1.63,9.3-8.11,18.38-6.88-9.16,14.16-24.65,21.96-38.47,32.26l-13.99,10.43-22.84,13.21-27.23,3.33c-1.88.23-2.71,1.72-2.76,2.6-.27,5.12,15.57-3.31,23.13,6.31-7.21,2.82-13.6,4.75-16.8,10.44-.26.61,2.67,2.57,3.2,2.18.83-.6,2.3-1.51,3.49-3.08,10.88,10.55,19.56-1.15,24.8-1.89,1.59-.23,4.2,2.81,2.73,4.81-2.42,3.3-5.91,3.86-8.8,6.06,8.59,4.14,15.13,7.88,23.04,8.94l20.38-2.92c2.62-.37,1.32,5.06,0,5.71-1.77.86-3.77,1.71-6.43,4.53l66.3,16.95c10.45,2.67,13.35,8.78,14.9,18.21,1.95,11.87,4.83,23.32-4.84,35.01,2.87.81,4.58-1.65,8.01,1.98-10.28,3.89-19.77,7.06-31.88,7.34,2.38,2.56,4.2,3.6,5.37,6.19.89,1.99-.24,5.81-2.93,7.93l-17.85,14.03c9.52-1.66,13.6-8.14,21.83-7.52l-9.88,7.46c-6.28,4.74-10,9.4-16.99,14.07l48.6-2.36c4.31-.21,6.61-3.05,7.1-6.41ZM1556.64,334.05c5.69.05,13.4,3,19.56-.6,1.97-1.15-.76-4.25-2.21-4.52-2.71-.49-5.84,1.32-7.58,3.2-2.6,2.82-5.4-2.7-6.99-3.06l-49.59-11.21c19.95-2.21,45.47,1.73,51.14-11.11-21.79-.4-41.33-6.53-62.25-12.25-27.5-7.52-53.19-16.61-79.18-28.44l-58.36-26.55c-8-3.64-14.26-6.22-24.31-9.29l24.03-16.16,41.63-23.68,71.33-43.94c16.31-10.05,34.47-29.71,31.89-48.74l-23.05,24.61c5.61-12.75,10.52-22.72,9.34-36.07-3.72,2.79-13.5,3.99-15.08.39-2.49-5.67.7-12.64.67-17.22-4.3-2.9-9.59-.9-13.08-1.71-2.8-3.49-4.02-7.34-7.83-7.81-14-1.74-8.22,18.29-34.34,45.54-25.56,26.66-55.48,47.28-87.27,66.13-7.68,4.56-13.7,11.11-23.62,12.51,8.1-27.61,22.12-49.87,34.18-74.54,5.7-11.65,8.93-25.58,18.35-35.15-.99-4.17-6.46-5.81-9.72-4.21-2.5,1.23-5.05,3.11-6.26,8.45-2.34-1.75-2.57-3.56-3.91-7.15l-14.9,9.31-20.47,30.4c-.39-17.03,14.04-31.16,10.63-38.39-1.86-3.95-7.71-3.35-10.9-1.76-3.91,1.96-6.12,5.16-7.05,12.14.3-1.28-3.19-5.13-4.45-4.29-8.22,5.52-6.21,16.96-10.13,24.47l-24.95,47.77-37.13,88.39c-1.33,3.17-4.12,4.4-6.61,5.5,3.9,1.4,5.47,2.95,6.36,4.78,1.64,3.36-31.11,81.56-26.54,91.6.91,2,4.98,3.82,6.31,1.39,2.05-3.75,2.52-7.74,6.32-9.79.67,5.71.82,10.62,4.43,15.21,6.56-11.39,7.45-22.48,15.95-32.02l-.07,39.29c0,3.81,4.03,8.83,8.07,7.14l10.3-19.68c-.39,8.82-2.66,17.83,7.59,22.32l6.26-34.83,20.47-66.14,65.53,38.26c40.7,23.77,84.95,38.07,130.86,48.93,16.08,3.8,24.31,13.19,42.2-4.64-7.14-5.18-14.96-6.25-24.2-8.35,5.34-5.69,13.11-4.82,20.63-4.76l38.01.3ZM373.39,370.85c9.96-14.32,20.52-30.33,29.71-41.04,1.43-1.67-.43-8.25.92-8.04l5.14.8c27.13-8.55,53.14-15.97,81.04-20.24l-3.94,16.42c-10.64,35.29-18.87,70.34-23.16,106.55l6.82,5.04c12.47-13.7,16.35-29.46,22.93-47.64,4.27,9.22-3.26,16.93-4.18,25.27l-3.53,32.03c-.35,3.17,2.44,5.38,4.25,4.46,4.7-2.41,1.21-13.4,6.75-16.8,1.6,8.29,2.19,14.75,7.15,20.95,7.59-4.59,13.22-11.88,14.93-21.11,4.78-25.74,10.04-50.58,17.37-75.72l20.44-70.12,47.33-14.07c9.34-2.78,18.22-7.54,25.06-14.45-4-1.25-8.45.48-11.73-3.53,7.73-5.38,18.1-5.07,21.89-15.35-9.95,6.13-20.29,10.44-33.28,6.76,3.3-1.92,8.91-.83,11.74-6.53l-47.93,5.03,39.61-109.99c2.93-8.13,6.15-15.25,16.08-17.17-6.04,9.25-11.82,17.48-12.39,28.97,19.07-18.34,13.26-32.95,21.48-43.6,4.32-5.6,2.69-12.52,3.56-19.1l.75-5.65c1.01-7.59-65.08,10.95-86.89,16.76-14.6,3.89-28.88,9.3-41.3,17.95-13.02,9.07-26.29,17.96-36.75,29.95l-51.91,59.45-71.08,94.53c-4.53-1.68-8.98,1.85-12.2,2.95l-11.2,3.83c-8.38,2.87-16.5,2.9-25.29,5.49-22.17,6.54-43.06,13.56-64.28,22.81-18.76,8.17-36.89,17.08-49.41,34.23,7.31.79,12.73-1.7,18.58,3.58l-17.43,10.45c3.4,2.05,9.36-1.23,13.32-.05,6.64,1.99,11.55,4.04,19.52,2.6-2.41,3.57-5.35,2.36-8.72,2.64,3.84,6.69,10.2,2.63,15.52,1.07,11.2-3.29,20.5-6.93,30.31-12.49,20.71-11.72,42.19-19.46,66.01-25.88l-17.76,29.66-34.06,52.95-20,26.53c-5.27,6.99-11.16,12.68-12.98,21.64,10.09-5.16,18.13-3.87,23.9,3.18,7.94-3.03,9.36-10.64,13.29-16.81,9.65-15.17,18.43-31.36,34.72-42.97-7.14,19.12-39.69,48.99-31.11,59.21,1.83,2.18,7.09,6.5,10.23,4.19,15.69-11.52,24.25-28.06,31.57-44.35,2.03,1.84,2.22,3.77,2.12,4.93-.11,1.35,2.26,2.29,3.12.72,13.51-24.67,28.66-46.9,45.35-70.89ZM1405.3,80.16c-1.94,4.54-5.84,8.09-5.81,14.48l7.78-5.88c5.08-3.83,8.21-9.42,5.66-14.72-4.53,2.09-6.21,2.77-7.64,6.11ZM674.5,82.96c-5.7-2.93-3,8.95-7.97,26.08,7.69-7.09,9.48-16.86,7.97-26.08ZM1004.35,324.61c1.88,7.95,2.8,14.52,11.17,17.58l13.31-67.87c1.09-5.55.05-9.63,6.98-11.68l21.12-6.26c-14.73,24.21-9.89,59.07,15.87,73.41,28.68,6.72,50.93,1.87,76.55-11.86,29.04-15.56,45.03-1.36,47.96-21.9-12.47,3.59-22.68,9.15-35.69,7.7,12.34-14.71,29-10.39,43.22-33.55,3.69-6.01,9.15-10.44,9.82-19.16-19.32,10.85-20.23,31.43-32.04,32.89,7.39-4.53,8.55-10.36,11.42-16.39,5.37-11.3,11.65-20.88,20.74-27.48-29.3,8.28-46.72,32.67-80.7,46.53-8.81,3.6-22.92,6.88-31.39,4.01-13.39-4.54-8.01-17.63-5.42-26.67,9.83-34.29,24.84-64.36,48.25-91.86l41.44-41.26-6.37,48.54c-.6,4.56.57,9.35,3.64,11.76,10.29,8.08,35.11-8.22,42.02-20.82,6.09-11.11,7.55-24.93,8.55-37.55,2.64-33.14-39.3-49.88-60.61-42.54-16.25,5.6-28.73,17.97-42.05,28.27-22.26,17.22-38.01,39.18-52.32,63.19-9.55,16.02-18.56,31.35-22.92,50.18l-20.53,1.85c.88-18.79,6.62-36.03,10.61-54.53,2.84-13.2,5.34-25.75,10.59-38.31,3.69-8.83,5.24-17.69,15.38-24.56-17.64-16-29.51,9.01-38.13-1.51,12.43-12.25-19.27-11.31-36.2,3.77l-19.3,17.19c-16.55,20.38-32.69,39.39-50.46,58.78-20.12,21.95-38.09,44.06-54.42,68.5-17.26,2.3-51.01,13.33-51.84,14.57-1.18,1.76-.14,4.21,1.29,4.43.82.13,3.36-.46,5.16.75,4.3,2.88.44,9.52-3.88,15l23.77-4.36c-9.27,19.55-29.4,31.57-28.42,56.65l17.92-19.17-1.95,12.44c-.5,3.17,1.45,5.04,3.36,5.96,1.61.78,5.55-.65,6.13-2.23,2.1-5.78,7.15-3.34,9.62-4.8,10.01-5.9,15.78-15.75,21.86-24.95l12.08-18.29,56.25-14.41c13.45-3.45,25.46-7.28,38.99-13.08-7.83,27.74-13.51,60.47,5.26,75.94,9.15-3.24,6.84-14.87,14.32-22.86ZM1248.55,87.87l-1.22,1.53c3.02,6.08,9.13,9.68,13.96,15.33l6.52-16.68-19.26-.18ZM657.22,381.17c5.35-21.54,13.75-39.93,22.16-59.33l28.19-64.99,32.66-77.5c-1.89-3.89-4.45-5.94-5.28-10.7l71.2-7.6c-24.25,50.15-50.06,106.59-63.77,159.13l-7.48,28.69c5.56,2.38,8.96,5.11,11.56,11.44l10.91-15.79c3.36,7.44,2.17,13.37,3.52,19.88,4.45.7,8.33-1.27,9.73-4.51l54.86-127.09,26.79-58.17c2.94-6.37,3.94-12-1.55-18.52l80.16-16.51c10.93-2.25,20.61-7.32,32.07-8.41,9.11-.86,16.88-4.6,23.75-10.48l-61.54,3.36,58.01-14.84,33.07-7.78v-3.05s-94.68,4.33-94.68,4.33l-172.67,18.86-117.87,12.2c-6.37.66-13.24,9.71-14.14,14.68-.51,2.84,4.08,5.81,5.98,6.59-.52,6.53-7.05,9.1-8.38,14.2l-3.84,14.69c7.8-2.51,13.25-.55,19.46-1.28l55.64-6.53-47,96.42-24.13,64.99c-6.37,17.15-12.05,33.46-14.41,52.07,6.86,2.44,12.92-1.51,15.38-8.54,3.83-10.94,8.73-21.91,10.02-33.8.56-5.19-2.76-11.23,4.74-14.36,4,20.56-20.64,57.54-10.71,62.65,4.32,2.23,7.22.35,9.04-3.34l23.38-47.45c5.92-12.02,10.16-23.84,18.48-34.8-3.01,21.82-11.6,39.65-18.1,59.4-2.08,6.31-4.92,12.63-2.83,18.99,3.19-.94,6.85-4.05,7.64-7.23ZM1422.74,234.08c25.32-13.13,46.85-26.96,69.24-43.02,20.43-14.65,42.73-33.41,44.04-59.89-8.75,18-15.04,34.16-31.42,44.69l-63.62,40.89-39.9,25.24c8.86,2.18,14.27-4.08,21.66-7.9ZM688.55,329.94c.61.91,1.63,1.48,2.83.27,2.29-7.55,6.9-14.95,7.49-23.12-.35-.16-1.27-.26-2.24.7l-8.09,22.15ZM568.25,446.51c-8.05-5.05-3.89-10.68-4.2-15.12-.61-8.88,1.35-15.21,2.95-23.45l16.55-85.3c-10.65,30.62-16.12,61.9-21.06,94.24-1.97,12.88-5.51,24.42-4.94,37.97l10.7-8.34ZM1331.23,340.17c3.09,3.26,3.92.33,2.6-.96l-2.6.96ZM1335.62,341.26l-1.03,1.02,3.02,1.02,1.01-1-3-1.03ZM1339.62,343.32l-1.02,1.17c46.78,21.17,96.04,36.15,146.82,48.29,20.23,4.83,45.45,6.79,53.11-5.26-24.18,13.23-65.85-1.66-96.24-9.65-19.68-5.17-37.82-11.29-56.87-18.56l-27.85-10.62c-6.36-2.43-11.76-5.57-17.96-5.37ZM1319.68,353.75c.07-2.9-3.49-4.67-4.91-3.7-3.47,3.19-5.92,8.08-6.16,13.68,5.09-.32,10.95-5.01,11.07-9.98ZM1048.11,428.4l12.61-4.95c.25-10.32,11.37-5.83,12.96-12.38.63-2.57-.69-5.08-3.25-5.08-2.02,0-4.62,1.45-6.21,3.88-2.5.57-4.85-3.51-6.54-4.15l-49.57,4.65c.2-9,6.77-16.01,15.72-17.78,19.76-3.91,38.5-9.02,58.03-14.58,5.37-1.53,9.01-3.19,9.87-8.55,1.68-1.65,6.23-3.57,5.3-6.1-1.32-3.59-3.19-5.01-7.08-5.03-20.57-.13-40.38,2.25-60.98,5.33l-44.24,6.61c-7.64,9.09-9.32,21.47-14.14,32.22-5.36,11.95-9.11,23.16-13.03,35.55l-13.61,42.99c-1.14,3.62-.11,8.56,2.18,10.78,1.81,1.75,6.15,3.93,10.05,3.16l111.21-21.83c-1.52-8.74-.23-13.96.29-23.54-7.65,5.3-14.82,2.52-22.54,3.41l-55.53,6.38c1.37-8.14,2.84-15.15,6.11-21.64l52.39-9.35ZM817.94,514.67c8.89-18.27,16.6-34,19.94-52.99l61.52-8.99c-5.85,19.21-10.5,37.11-8.62,56.87.34,3.6,6.52,5.39,9.57,5.21,3.99-.24,5.62-13.65,10.03-11.75,1.12.48,2.59,2.62,3.45,5.53,2.92-.3,5.78-4.53,7.03-8.12l10.93-31.48,32.63-101.71c-3.76-7.11-15.74-6.75-22.61-3.85l-16.05-2.04-20.8,60.15-53.29,7.49,18.42-50.28c1.17-3.18.15-6.65-1.33-8.1-1.9-1.87-6.59-2.12-8.93-.18-7.54,6.26-11.88-3.39-23.53,1.78-3.33,1.48-5.46,6.08-7.03,10.3l-26.39,70.77-4.89,21.11c-3.84,16.56-11.54,38.1-4.51,40.93,5.42,2.17,7.25-4.45,13.39-8.69,2.49,4.93,5.85,8.91,11.08,8.06ZM354.35,493.05c28.43-41.06,57.41-79.16,87.92-117.98-14.74,6.26-21.94,19.51-30.52,31.1l-71.19,96.2c6.71.92,9.86-3.64,13.8-9.32ZM1295.9,384.59c-3.89-2.68-6.27-5.12-7.01-9.36-1.76,7.48-5.65,12.19-11.18,19.45,8.18-.08,16.4-3.31,18.2-10.08ZM709.01,523c2.74-4.21,2.64-9.36,6.33-11.84-.19,5.98-1.47,11.69,4.86,15.56,8.65-15.96,11.61-32.86,17.57-49.55l20.31-56.82,52.91-9.91,7.86-31.96-25.68,4.44c-4.83.83-6.6.98-11.1,1.71l-60.29,9.75c-27.48,4.44-53.66,9.91-80.42,19.01-4.59,11.03-5.82,22.65-4.24,34.2,8.89-4.46,15.54-5.89,23.43-7.39l56.92-10.8c-11.06,31.28-20.87,59.99-22.81,92.24,4.95-.8,10.36,1.15,14.35,1.35ZM1306.87,411.15l-53.92,21.08,1.91,2.7,59.43-19.18,37.48-14.95c10.32-4.11,18.68-10.13,30.64-11.97-4.08-4.85-6.85-5.5-12.21-7.54-1.34,10.12-10.44,6.21-32.28,15.98l-31.04,13.88ZM1147.07,388.37c-4.62-7.5-12.77-4.13-14.58-.66l1.98,5.48c4.92-1.31,9.03-2.59,12.59-4.83ZM1119.5,465.62c19.81-9.21,32.91-24.72,49.05-37.25,5.53-4.29,8.4-8.73,12.79-14.08,3.93-4.79,10.03-7.32,6.26-15.85-1.57-3.56.47-8.19,1.26-14.3-6.08,5.97-9.34,14.2-8.87,22.85.43,7.91-5.47,6.74-9.77,8.71-20.38,9.32-45.57,27.61-50.72,49.92ZM1217.38,405.68c-4.63-3.41-5.66-5.13-7.37-10.11-.21,7.64-1.6,9.82-9.18,14.04,5.55.3,9.94-2.4,16.55-3.93ZM215.75,414.25c3.2,1.35,4.59-2.36,1.48-3.47-10.09-3.62-18.41-6.99-28.24-13.05-.08,4.97,3.85,6.82,7.77,8.48l18.99,8.04ZM1286.55,402.5c-10.28-.93-17.45,3.81-24.87,9.04,10.01.45,17.18-4.15,24.87-9.04ZM429.62,458.33l19.32,2.03c-3.04-5.91-8.94-10.24-14.52-11.65-.19-1.66-.16-3.46-1.32-6.12-8.05,11.31-10.94,18.54-10.97,7.76,2.82-3.75,11.4-9.51,11.06-15.79-.35-6.34-4.17-11.68-3.64-18.54-6.57,4.13-6.53,11.66-10.55,17.85l-12.03,18.54c-6.7,10.33-15.2,18.4-20.02,31.04,11.13-3.22,19.57-8.76,28.43-15.04l14.24-10.09ZM1309.51,503.08l78.55-9.78c-14.5,41.18-27.63,80.98-37.15,123.39l-13.63,82.86c-1.16,7.03,2.52,15.24,4.31,22.55l9.36-30.32,10.44-40.08c3-11.52,3.26-23.15,9.88-33.57-3.27,27.67-6.3,52.83-5.43,79.92.4,12.49-4.88,25.43-.44,38.22,1.59,4.59,12.32,1.65,16.18-2.84,2.78,5.52,3.91,14.31,9.54,16.66,3.77.64,4.28-6.19,2.78-8.66l18.46-99.76,29.7-124.64c2.34-9.83,9.34-18.02,7.46-29.74l144.39-20.72,11.72-4.42,93.68-16.44c-16.03-3.82-32.21-.67-48.87.38l-56.82,3.58-67.47,3.98c-2.4.14-2.66.95-4.56-1.03-1.18-1.23-.27-2.09.48-2.07l4.78.16,64.77-7.75c17.83-2.13,35.03-2.65,52.4-6.77l29.21-6.92c-3.53-.73-5.44-.5-7.1-2.53,4.9-.84,8.45-.87,12.06-5.38-9.94-3.19-19.31-3.3-30.05-3.05l-142.54,3.25-65.77,5.06-77.79,9.19-105.71,16.97c-7.91,1.27-15.5,3.87-20.43,9,3.36,12.28,13.56,19.19,23.13,25.52-.35,2.05-1.34,5.08-.93,6.47,1.32,4.47,15.71,3.42,13.91,9.19l-14.6,46.76c-7.24,23.19-11.42,45.27-14.84,69.97l-17.94-55.03c-8.35-25.62-15.86-50.57-19.29-77.8l-35.24,9.5c-4.74,1.28-14.18-3.04-18.95,1.94-14.12,47.63-22.82,95.97-30.33,145.37-3.9,25.64-8.55,49.69-8.56,74.78,1.2,2.14,5.04,5.72,6.85,5.63,6.64-.34,14.87-23.99,15.36-40.66.18-6.21-1.4-11.83,3.57-16.53l1.56,33.57,6.83,17.02c3.07.08,8.52-1.18,9.13-4.44l23.6-126.32c17.27,44.44,33.58,88.03,54.53,130.35,1.57,3.17,6.09,5.29,8.72,5.26,2.6-.02,4.9-3.46,7.39-7.14l8.74,14.92,9.82-18.99c9.28-2.18,9.59-12.97,10.51-21.11,7.21-63.56,16.97-125.31,30.63-186.93ZM247.27,423.24c-5.44-2.42-11.27-2.01-13.58,1.53-1.52,2.33,3.3,6.85,5.39,7.45l8.19-8.99ZM1411.24,784.93c6.38-2.38,10.2-.9,16.25-1.29,5.04-.33,15.11-5.3,16.32-10.86l10.28-47.06c11-64.14,24.59-126.68,42.78-189.42l96.72-15.06c41.89-9.65,81.21-24.16,118.12-45.11,6.63-7.05,18.68-9.99,20.1-20.45,1.19-8.76-11.07-17.88-19.46-17.98,6.15,5.58,13.51,8.78,16.37,17.42-7.19,11.64-19.03,19.09-31.48,24.23l-25.84,10.67c-27.91,13.6-56.82,23.03-87.7,27.63l-92.11,13.7c-11.12,35.3-20.13,70.56-27.65,107.22l-13.46,65.68-9.53,61c-3.1,19.82-25.18,10.85-29.71,19.67ZM1167.69,465.3c.94-1.53-1.51-4.97-3.03-6.05,10.84-5.1,21.22-7.73,28.89-16.84l-25.33,12.1c-5.87,2.8-9.03,7.5-16.9,6.79,6.29,6.66,13.55,8.6,16.38,4ZM340.4,732.69l-20.98,48.78c-4.34,10.1-8.29,19.74-16.23,27.84,12.93-30.11,23.92-57.6,33.58-87.84l21.26-51.35c5.54-13.38,11.33-25.73,20.14-39.37l.05,76.1c0,12.16-3.39,23.25-6.94,35.16,3.7.43,6.73.79,8.69,2.46,3.2,2.72,5.24,15.79-2.9,21.39,12.39,7.83,20.28,17.79,28.24,29.66,3.37-8.02,6.37-13.04,13.86-16.46-2.92-3.57-5.31-8.78-2.95-11.81l34.75-44.57,59.29-80.26c4.95-6.7,6.34-14.43,13.46-20.29l-14.63,53.47-13.48,55.62c-6.5,26.83-15.36,98.14-7.41,101.86,4.94,2.31,7.25,4.1,10.65,9.23l7.33-41.8c1.18-6.72.32-13.59,7.29-18.49l-1.1,35.13c-.27,8.66,3.56,15.64,10.41,20.72,8.56-8.88,11.06-18.82,13.07-30.61,10.65-62.37,22.13-123.61,40.07-184.36l4.04-11.82c2.75-8.05,7.83-16.75,11.37-25.53l24.96-61.89,17.72-41.07c4.06-9.41-8.82-10.19-12.7-14.08-2.03-2.03-.99-7.78-1.57-10.1-8.55-4.39-10.52,10.04-14.89,10.75-3.81.62-2.79-8.9-15.1-12.7-2.38-.74-4.74-3.75-6.22-2.97-1.63.86-5.51,2.66-6.87,4.56l-59.15,82.12c-13.04,18.11-21.51,38.26-35.98,55.2-4.42-.58-6.22,1.6-8.8,5.45l-44.04,65.75,11.62-90.2c.89-6.88,2.97-11.29.59-19.02-1.23-4,.31-11.42,3.23-14.2,2.82-2.68,6.83-3.88,12.84-5.87-2.55-3.36-6.64-2.79-11.29-.77,4.42-23,14.5-36.49-6.7-54.39-1.25,2.77-2.49,6.26-5.81,8.21l-13.94,8.21c-22.83,7.86-76.99,24.13-77.11,32.04-.04,2.41,2.56,4.78,5.19,6.57-6.49,2.19-11.26,4.85-13.33,10.42l3.82,6.27c3.19-4.11,5.28-10.23,12.58-11.93l-42.41,84.12c.63.65,2.06.74,2.75-.18l16.23-21.69c-6.6,23.78-18.9,42.49-29.94,63.85-26,50.32-50.47,99.89-72.29,152.16-9.97,23.88-18.12,46.44-23.86,71.5,7.3-.7,15.02-3.85,19.99,1.01,2.34,2.29,3.37,8.03,7.73,7.69,3.05-.24,5.41-2.92,7.52-5.87,2.57-3.59,6.4-3.1,9.06-1.07,2.45,1.87,4.11,4.29,5.26,8.99,7.84-10.19,13.68-21.24,18.39-34.02l29.91-81.32,13.77-31.16-15.27,62.97c-1.21,5.01,1.89,10.54-.91,16.58-2.82,6.08-3.27,14.09-.64,20.49,12.4-20.5,17.08-42.48,27.01-63.21l26.83-56.03c4.13-8.62,7.45-17.18,7.61-26.99-8.88,5.05-12.63,13.45-16.71,22.95ZM554.35,454.65l-1.01,1.01,1.01,1.01,1.01-1.01-1.01-1.01ZM1149.39,458.7l-1.01,1.01,1.01,1.01,1.01-1.01-1.01-1.01ZM1196.21,463.59c-3.11-1.22-6.79-4.95-11.13-3.76-2.94.81-.03,6.94,2.16,7.95,2.69,1.25,7.57-.2,8.97-4.2ZM231.63,482.9l5.68-8.15c-4.49.58-11.27,7.25-10.74,12.13,4.02,12.61,16.07,20.6,28.99,22.18-1.36-7.52-22.89-4.94-23.94-26.16ZM933.87,501.28l8.22,1.58-.66-10.13c-1.15-1.98-5.46.29-6.76,2.37-.88,1.41-3.63,5.64-.8,6.18ZM512.86,501.96c1.47-3.77-3.76-5.4-4.58-4l-2.47,4.21c-3.11,5.32-5.45,9.97-4.22,15.33,4.97-4.7,8.73-9.04,11.26-15.55ZM1017.94,639.69l50.78-13.77,28.88-8.9-1.33-13.95c1.5-4.22,6.81-7,5.03-13.23l-71.71,9.35,11.71-42.91,49.16-13.84c9.2-2.59,19.22-3.39,26.77-11.16-11.6-6.68-23.47-2.29-35.87-4.71,16.48-2.66,33.07-6.49,46.32-17.96-6.15-9.85-45.66-5.04-65.82-.71l-59.84,12.84-24.02,101.22-21.05,92.59c-1.61,7.07-.61,19.27,6.15,22.82,17.35-1.04,34.89-6.06,51.7-11.27l44.96-13.92,29.42-5.71c-2.07-5.97-7.13-4.32-12.74-6.37,16.23-6.22,27.54-18.8,21.33-25.83-1.6-1.81-4.87-3.15-8.2-2.63l-83.38,13.14,11.76-45.07ZM265.55,524.76c-1.28-5.66-4.97-9.13-8.42-13.67-4.18,4.26-5.15,9.94-2.86,16.42.75,2.14,4.54,3.42,6.33,3.04,1.65-.36,5.48-3.48,4.95-5.79ZM309.79,525.55c-5.93-4.33-12.71-1.61-15.24,1.66.66,1.65,2.7,6.26.49,6.75-1.93.42-4.92.27-6.21-1.02l-14.2-14.17c1.24,5.64,3.25,10.39,1.68,16.65l18.57,8.21c1.3-10.44,6.16-14.07,14.91-18.08ZM813.21,618.65l-1.18,18.29c2.17,23.27,5.62,45.54,14.07,67.41,3.34,8.66,17.59,13.48,25.86,10.41l32.24-52.49,26.55-46.6-15.57,85.86c-2.73,15.03-4.14,34.08,1.49,38.41,1.64,1.26,5.35,3.25,7.28,1.03,4.06-4.67,2.68-10.51,4.91-15.45,2.04,5.4.76,10.92,4.45,14.67l9.94,10.13,13.41-29.75,17.57-87.71,20.26-101.19c.55-2.76,0-6.41-1.45-7.71-1.24-1.11-4.24-2.19-6.92-2.28l-37.77-1.32c-2.9-.1-6.28,3.73-7.64,6.4-16.64,32.71-35.65,62.84-56.31,93.22-3.42,5.03-4.12,11.06-9.94,15.12l.38-85.38c.01-2.7-.22-9.69-3.15-11.07-16.26-7.62-34.44,4.19-53.41,3.09l-15.98,44.76-28.5,72.64-12.4,32.16c-3.24,8.4-2.02,15.89-1.68,24.55.48,12.33-1.77,24.83,5.17,35.95,4.85-4.11,3.86-8.82,5.98-12.33.97,7.37,1.16,12.85,6.01,16.35,3.75-3.1,10.12-6.94,10.72-11.79,1.49-11.93,7.37-20.69,11.14-31.29,11.4-32.06,20.22-64.16,34.45-94.1ZM270.22,546.86c1.6,1.38,2.81,2.24,3.63,1.98.57-.18,2.28-2.2,1.82-2.61-4.67-3.89-4.56-8.12-6.16-16.39-2.99,7.63-8.91,12.3-17.55,12.73,5.26,4.96,11.37,3.82,18.27,4.29ZM738.31,676.12c13.03-25.18,18.85-51.14,14.92-79.67-1.81-13.17-4.14-26.86-12.9-37.3-9.7-11.56-25.03-12.96-39.02-13.85-21.8-1.38-38.31,5.57-54.63,19.09-38.36,31.77-65.75,74.52-70.49,125.4-2.46,26.45,6.37,54.2,25.23,73.13,10.92,10.97,31.76,9.45,43.83,2.62,44.3-11.5,72.64-49.98,93.05-89.43ZM1347.8,554.96c-2.82-2.56-8.98-2.04-11.63.35l10.39,15.63c4.18-4.58,5.39-12.22,1.24-15.98ZM276.22,595.18c7.31,3.54,11.07-.49,13.2-4.3,1.25-2.24,3.53-6.9-.11-9.36-4.07,7-6.97,12.51-13.09,13.66ZM286.76,620.96c12.28-6.93,17.75-17.36,24.86-27.59,2.15-3.9,6.8-5.93,6.91-11.61-8.13,6.06-14.21,12.9-19.6,21.33-3.95,6.27-9.62,10.66-12.17,17.87ZM267.53,626.44c-1.93,2.6-3.87,3.57-2.91,6.81,1.25,4.21,3.21,6.6,7.68,8.51-1.45,4.11,3.56,3.09,1.59-.33,2.81-6.35,1.51-15.08-3.67-14.83,2.54-6.33,13.41-5.3,13.57-18.19l-6.29,7.19c-5.72,2.86-7.07,6.93-9.98,10.85ZM1214.87,742.03c-.69-4.21-5.36-6.59-7.91-8.69-4.12,3.86-2.74,7.85.55,11.32,2.12,2.23,8.03,1.46,7.35-2.62ZM1092.41,741.55c3.42-.97,3.6-3.68.44-3.47-12.73,5.88-25.23,6.08-35.96,14.09,12.67-.64,23.08-5.78,35.51-10.63ZM1201.33,763.45l39.65.2c1.83-9.52-1.91-19.76-8.03-25.07-9.23,4.31-14.35,10.51-20.39,17.28-3.24,3.63-9.03,3.72-11.23,7.59ZM799.86,767.78c9.48-6.51,14.71-16.3,16.19-27.97l-16.19,27.97ZM1343.67,759.42c-4.44-4.55-6.54-9.94-13.82-14.82-1.08,8.81,1.38,15.64,8.39,19.33l5.43-4.51ZM833.77,759.79l-11.7-4.79c4.7,6.36,5.9,10.94,4.69,16.96,5.66-.73,8.85-9.34,7.01-12.17ZM1198.72,769.39c-58.56-3.43-142.02,4.37-202.98,14.2-10.79,1.74-20.74,2.15-30.69,8-3.88-6-6.47-13.85-11.74-16.24-13.85-2.65-27.05,4.32-40.91,6.24-44.06,6.11-86.15,15.93-127.44,32.23l-23.33,7.45c-3.57,1.14-9.18.98-12.34-1.3l22.66-13.4c-7.41-1.27-7.14-6.05-9.69-10.77-2.73-5.05-13.2-2.76-18.37-.81-25.91,9.76-50.43,18.2-77.46,23.88l-59.25,12.44c3.16-8.56,10.32-7.1,14.96-11.55-14.45-7-36.3,5.16-38.62.36-1.47-3.03,6.91-11.93,14.66-16.17-6.38-6.19-5.17-16.11-16.32-24.15l-7.68,15.27c5.76,2.98,10.52,4.7,13.69,9.33-4.76,3.66-11.86,5.62-13.81,10.79-2.25,5.96,2.28,10.12,6.08,12.34,9.15,5.36,18.72-.51,19.58,2.56,1.4,4.98-23.3,4.59-40.89,2.38-.94-4.04-4.38-11.96-10.52-10.48-6.01,17.12,17.38,19.45,28.36,26.3,9.27,5.79,13.86,7.01,23.9,1.82,33.15-17.14,68.83-28.76,106.36-30.33,10.33-.43,24.4,16.4,24.26,14.65.1,1.33-2.71,3.26-4.19,6.61,10.39-.5,20.16-5.44,29.99-9.15l63.83-24.09,44.28-10.25c13.22-3.06,26.4-7.75,40.89-2.45-25.07,11.81-51.21,11.52-76.68,18.97-45.35,13.27-86.87,34.68-127.77,62.81,41.06-4.47,91.49-14.3,129.74-30.87,35.33-15.3,70.86-24.96,108.32-33.62,31.05-7.18,60.35-14.75,91.66-19.45l47.98-7.2,42.87-5.2c44.62-5.41,87.92-4.39,131.59-1.23,44.43,3.21,89.15,9.52,131.91,24.75,12.02,4.28,15.12,12.81,13.2,24.65-2.39,14.69-4.98,28.74-13.04,41.69-11.62,18.68-25.11,34.72-41.96,49.25l-74.69,64.46-39.43,39.87c-6,6.07-11.18,13.41-13.15,21.6,4.71.9,7.21-.7,11.33-2.38,4.14,5.02,3.87,10.45,1.61,17.69,3.16,1.24,11.79,3.01,14.81.39,9.54-8.26,19.94-6.19,29.42-.48,7.73,4.66,13.65-16.71,24.42-16.84,26.83-.33,52.43-1.51,79.25-6.09l-5.15-5.17c-25.9,8.6-52.29.75-75.47,6.28,4.96.8,7.48.14,9.89,2.35l-16.53,1.77c-4.91.53-8.93-5.36-12.27-7.18l-42.21.93c2.09-6.41,7.97-9.04,13.92-9.36l38.36-2.02c15.72-.83,29.65-23.94,51.94-16.8,4.14,9.84-6.66,11.24-9.44,15.96-3.05,5.18,7.86.84,22.45.81,5.71-.01,12.81,2.43,18.65-2.97l-24.66-1.39c-.67-.86-1.64-1.67-2.26-3.23l11.89-2.8c-.51-6.19,4.79-6.45,7.28-8.69,6.06-5.43,10.31-10.45,18.63-14.97-8.9-7.54-39.13-2.34-51.37,2.27-13.33,5.02-27.95,8.31-42.97,4.12,16.43-13.18,40.35-6.23,42.15-23.4l-20.79,2.56c2.45-6.46,9.39-6.21,14.71-8.19l29.76-11.12c.45-2.94.53-9.34,3.33-9.92l40.8-8.6c3.72-.78,5.32-7.45,11.78-6.78,6.31.66,12.3-2.33,18.06-6.98-7.97-6.24-21.42,1.96-39.23-1.46,6.31-7.25,15.5-6.48,23.89-8.88,7.49-2.14,13.63-5.26,21.33-5.44l-10.99-9.41c-5.32-4.55-6.21-21.22.24-26.38,9.32-7.45,21.99-9.12,33.11-11.69l77.09-17.86c-14.93-2.97-28.4.61-42.88.52l-40.01-.25c-7.81-.05-13.9-5.21-22.88-5.01l-22.74.51c-2.13.05-2.03-5.78-.7-6.9,1.21-1.02,2.81-2.88,5.4-3.92l24.86-9.99c3.45-1.39,7.62-.23,7.73-5.3.04-2.08.74-7.52-4-6.19-2.96.83-4.45,7.24-5.9,9.44l-16.13-1.19c-4.79-.35-8.84,4.89-14.53,2.75-.09-4.26,1.76-7.58,2.66-10.77-29.18-13.9-56.62-26.91-87.52-31.77l-32.59-5.12c.68-4.35,2.75-5.77,5.07-9.31-10.67-5.33-22.79-6.01-33.59-1.27l-8.13,8.09-48.72.84ZM897.68,770.45c-4.02-5.33-9.27-6.63-15.58-4.72l1.93,11.21c4.45-4.81,8.87-4.08,13.65-6.49ZM727.46,765.71c-22.05,22.33-47.76,33.12-77.7,37.93,25.61,3.1,69.83-14.88,77.7-37.93ZM792.09,773.61c3.15,2.27,3.98.1,5.15-1.01,1.3-1.24,1.75-2.9-.18-4.25-.82,3.26-1.49,4.06-4.97,5.25ZM1172.15,796.93c-6.98-3.88-15.44-3.65-20.09,1.1,7.09,1.08,13.03,2.31,20.09-1.1ZM334.57,885.78l-2.03,3.31c-.76,1.24,2.02,3.54,4.57,2.46,9.12-3.85,15.56-14.44,12.81-21.66-.71-1.87-3.55-3.54-6.03-4.39-1.2-4.66-.21-9.59,2.09-14.89l19.45-44.83c3.77-.34,4.56,3.19,5.73,5.27,2.3,3.97,3.11,9.01-.09,15.36l11.02-3.27c2.22-.66.98-7.11-.18-9.68-1.22-2.7-6.69-2.66-8.79-4.76-2.41-2.42-5.62-5.29-6.93-11.45l-16.96,36.26c-7.79,16.65-13.71,35.09-14.64,52.25ZM734.52,1110.68l-44.24,7.36c-28.94,4.81-55.93,13.32-81.26,27.82-49.11,28.11-67.97,92.34-35.43,140.41-6.45-30.17-8.69-56.92,11.24-79.7,42.68-48.79,107.17-52.46,168.86-57.1l98.22-7.39c26.32-4.37,50.34-11.58,75.55-23.05l-31.01-11.36c-14.27-5.23-27.96-10.94-39.6-21.9,3.28-6.02,12.3-13.18,18.97-10.49l13.7,12.96c17.11,11.56,36.83,19.37,57.52,19.35,48.88-.03,95.23-11.35,138.36-33.42l37.64-15.13c6.7-2.69,11.04-4,16.56,2.17,1.35,1.51,5.41-1.43,5.87-3.15,3.06-11.58-28.15-30.64-46.74-39.69-61.43-29.9-113.41-16.6-127.58-26.23-3.6-2.44,1.21-10.39,3.45-12.74,26.66-28.03,88.23-49.71,128.09-60.07,21.4-5.56,43.51-7.36,65.42-6.05,16.77,1,32.17,7.13,47.8,12.32,14.91,4.95,28.09,12.67,37.74,25.57,31-40.76,88.18-68.76,100.35-116.6,4.43-17.42-55.64-18.88-79.71-10.73l-21.12,7.15c-15.36,3.02-29.62,9.73-45.68,9.2-3.07-.1-6.39-1.32-8.55.02-2.29,1.42-1.54,18.37-21.83,27.57-8.26,3.75-15.38-1.3-22.75-4.06-8.79-3.3-18.03-2.61-24.47-9.81,16.59-3.73,13.97-26.24,46.49-25.87,26.51.3,52.51.3,79.16-9.49-32.14-5.23-113.31-.56-127.14,12.94-5.36,5.23-3.55,16.82,2.1,21.66-15.39,4.95-29.02,4.26-44.42,2.83-5.28-.49-15.98,6.05-11.87,10.41,10.37,10.99,25.99.52,39.34,6.35-65.25,7.88-142.56,23.16-192.07,65.48-17.99,15.38-25.28,38.48-11.44,59.55-36.45-13.8-38.11-59.23-18.59-89.49,9.95-15.42,22.66-26.72,36.56-39.61-27.32,9.05-45.45,31.41-58.71,56.05-10.46,19.43-13.89,41.53-11.4,63.64,1.36,12.03,12.71,21.91,3.27,26.69-41.61-34.53-34.05-66.24-17.13-113.96-14.04,9.22-20.59,23.28-25.17,38.11-9.69,31.42-5.29,64.9,10.31,95.78-23.11-9.65-38.06-31.99-43.75-55.01l-.15-30.18c-8.84,4.06-8.66,12.55-11.32,18.96-10.25,24.73,5.06,63.66,26.38,76.93l28.31,12.46-45.73,3.04-35.28,15.12c-22.73,4.08-45.67,2.1-68.76,3.44l-30.92,1.79c-23.5,1.36-49.93,6.65-67.61,23.59-20.75,19.88-51.26,63.23-53.89,91.81-3.38,36.73,9.61,77.52,40.29,101.73-11.22-22.41-25.8-41.19-26.87-66.87-2.35-56.32,39.55-98.54,90.66-116.99,34.04-12.29,70.13-20.48,106.87-22.13,31.51-1.42,61.52,2.43,93.24-2.44-11.36,17.62-68.67,15.88-96.15,20.45ZM435.3,837.15c2.64,3.55,8.47,3.74,9.49.43,1.21-3.92-3.99-7.74-6.45-5.88-1.42,1.08-4.55,3.41-3.03,5.45ZM371.73,843.58c-1.25-2.83-2.22-4.39-3.93-6.07-3.95,4.97-7.68,9.31-8.11,14.8l12.03-8.73ZM753.77,1023.41c-35.56-28.45-24.03-67.57-29.32-69.96-26.19-11.79-53.2-20.9-82.11-24.69-28.34-3.71-55.88-5.57-83.99-3.56-17.45,1.25-34.02,2.89-50.53-.07l50.77-3.65c30.21-2.17,59.46-3.43,89.91-1.06l69.01,5.39c12.67.99,23.92,4.03,33.37,10.13,4.79-13.53,13.13-20.76,19.98-31.29-7.29-3.16-14.04-3.49-21.13-3.4l-127.54,1.61-54.07,4.28c-25.66,2.03-49.51,8.16-74.27,14.28l-84.76,20.95c38.92-3.7,75-2.48,111.96,9.4,2.16.69,2.79-4.04,1.16-5.23l-3.11-2.28c-19.9-9.08-40.8-8.75-64.04-8.49,21.61-7.86,44.81-5.74,68.12-4.48l48.42,2.63c25,1.36,46.77,8.89,69.83,17.48,31.8,11.85,59.42,28.22,83.25,52.56,8.33,8.51,17.46,16.85,29.09,19.46ZM213.29,917.91c9.06,20.62,53.91,17.69,73.62,5.09l22.34-14.29-19.41,3.18c-2.31.38-4.12,6.52-5.95,7.88-11.78,8.76-26.32,8.37-40.12,9.05-12.49.62-19.83-4.38-30.48-10.91ZM1191.96,979.9l12.7-12.57c4.12,7.95,1.65,13.87,3.77,21.93,8.01-4.5,17.88-11.25,19.91-20.7,3.28-15.26-36.75-35.72-56.09-39.45l-46.44-.08c.3,11.54,5.24,17.93,13.88,21.01l12.61-12.06c2.35-2.25,7.7.89,9.67,2.86,6.07,6.09-1.82,23.59,6.62,21.91,5.74-1.14,9.39-8.68,13.26-11.98,7.94,8.57,8.8,18.3,10.11,29.15ZM1114.02,931.73c-3.06-4.98-13.26.06-14.11,6.15-.65,4.62.22,15.79,7.85,14.47,5.5-.95,9.67-15.08,6.26-20.63ZM370.74,975.74c22.28-4.97,42.25-3.6,64.25-5.85-16.01-7.61-31.85-2.66-47.64-1.21-6.57.6-12.74-.42-16.61,7.06ZM1350.97,970.99c1.51-.27,2.73.13,3.85-1.01.66-.68-.11-3.14-.8-2.84l-3.41,1.47c-8.1.28-14.26,1.67-20.63,6.12l21-3.74ZM1036.38,990.15c2.76,4.26,8.64,2.6,11.42.63,3.73-2.65,4.09-6.37,2.79-10.15-1.16-3.37-4.53-6.9-9.34-5.61-6.09,1.63-8.27,9.89-4.87,15.13ZM1020.71,983.97c.95-2.62-1.66-5.61-3.54-6.46-2.68-1.21-5.66-.84-8.16,1.89-1.81,1.97-2.95,4.71-1.85,6.5,1.82,2.95,11.92,2.58,13.56-1.92ZM1081.58,996.27c3.46-6.08,1.31-15.49-5.15-17.77-6.51-2.3-16.57,6.87-13.42,13.8,2.47,5.43,12.68,5.81,18.56,3.97ZM448.5,988.05c-3.17-8.59-9.91-6.75-16.62-7.17-32.74-2.04-65.38-2.28-95.45,13.18,19.75-5.04,39.74-7.79,61-7.27l51.06,1.26ZM1121.32,1017.61c-.62-16.63-8.14-31.92-19.92-27.93-2.68.91-7.28,5.04-5.48,9.43,3.24,7.88,14.5,11.41,25.4,18.51ZM1140.96,1027.87c6.11-3.59,7.88-7.34,8.97-12.2.77-3.44.37-11.91-5-13.03-8.67-1.82-16.82,9.85-14.87,17.8,6.49-.23,9.83,2.97,10.89,7.43ZM428.23,1023.69c6.7-1.99,5.48-5.5,4.16-7.91-1.93-3.52-4.04-5.57-8.8-4.27l4.64,12.18ZM461.83,1028.67c-5.5-5.57-8.89-7.77-13.27-8.62,1.28,8.21-.56,13.7,4.06,20.56l9.2-11.95ZM1146.95,1063.23c-5.57,5.46-4.22,13.85-1.83,18.75,10.55-9.7,14.9-22.54,21.12-34.51,5.33-10.27,16.66-21.44,8.83-25.73-5.12-2.81-13.54,7.58-13.35,13.61.12,3.85,3.33,8.05.14,12.93-6.11-6.51-11.67-12.99-19.57-15.79,4.86,9.46,12.39,16.03,14.61,25.95-.02,2.43-8.01,2.89-9.95,4.79ZM401.29,1030.76c-.19-1.37-1.83-4.05-3.18-4.28-3.22-.56-9.52,2.55-10.21,4.66-.8,2.44,1.64,4.06,3.1,4.44,5.01,1.28,10.59-2.64,10.29-4.82ZM448.28,1046.88c-6.35-2.99-10.05-4.43-13.08-4.55-2.22,1.31-3.22,6.03-2.03,7.28.96,1,3.72,3.36,5.57,2.94,3.31-.74,7.49-3.45,9.54-5.67ZM589.25,1065.61l13.09-18.14c-13.04-.11-25.6,7.19-30.66,18.74l-23.13,52.81c7.07-5,11.18-10.39,18.76-12.47,15.77-8.32,9.11-25.86,21.95-40.93ZM1294.51,1079.54c-8.89-5.98-23.79-7.12-29.06-1.6l29.06,1.6ZM1109.31,1092.39c3.27.03,3.86-3.91,1.29-4.9-6.63-.35-12.86,4.78-16.4,10.41,5.43.61,9.49-2.27,15.11-5.51ZM1245.62,1118.17c5.21-1.41,11.22-2.22,16.36-4.9l-23.51.64c1.32-5.13,4.8-4.88,7.26-6.6l-17.69.52c-.08,3.31.71,4.99,1.39,5.14l2.58.59c4.16.96,2.94,6.82,1.32,11.83-.13,1.49,4.23,1.21,5.89-.96l4.84-.7c.82-.12,1.6-3.59,1.56-5.56ZM1225.46,1117.73c3.88-1.08,1.87-6.4-1.34-3.93-5.55.21-11.49,1.1-14.1,8.21l15.44-4.28ZM1192.54,1129.77c4.34-.35,3.97-3.28,3.02-4.64-2.72-3.92-9.75-1.24-10.62.75-.54,1.23.38,2.9,1.84,3.96,1.02.74,2.4.21,5.75-.06ZM382.44,1128.29c-11.06-4.08-18.5,2.22-25.85,8.44,9.69-1.34,16.93-3.15,25.85-8.44ZM1172.96,1145.12c-.64-.19-2.95-.37-3.38-1.15-.53-.95,1.2-3.35-1.75-4.15-2.03,2.68-2.96,4.62-4.14,3.22-.52-.62.09-2.39.33-4.05-4.2,1.6-5.01,6.77-2.51,9.82,3.46,4.23,8.42.91,11.62.73,2.52-.15,4.36-.19,9.38-.94l15.46-2.31c5.58-.83,11.27-4.84,11.23-11,0-.28-4.63,1.67-4.79.62-.11-.73.27-2.72-1.21-3.65-2.18,3.33-6.76,2.76-8.28,4.7l-3.21,4.08c-.81,1.03-7.95-6.85-10.46-4.52-2.02,1.87-2.36,4.08-3.84,6.4.49-4.79-1.34-7.08-4.79-3.65.64,1.92,1.66,4.76.35,5.87ZM1159.39,1141.68c-9.06-6.3-15.45-.67-18.97,6.27,8.04.09,15.58-.96,18.97-6.27ZM985.36,1291.77c8.32-5.67,6.54-11.64,9-17.6,5.24-26.72,7.53-53.48,4.52-80.74-.98-8.85-4-16.75-3.03-25.89.36-3.33-2.03-6.39-4.49-6.93-1.59-.35-4.67,2.76-6.52,3.13-13.88,2.73-26.99,4.83-40.34,10.22l-15.62,2.84c7.01,6.58,13.81,10.81,17.6,18.35l26.35,52.47c7.1,14.14,10.14,28.43,12.54,44.13ZM776.51,1207.01c-4.3,2.48-11.07,1.56-15.57,1.58-3.59.02-5.9,5.13-4.02,5.65,7.11,1.99,14.05-1.05,20.88-1.01,6.37.04,9.86-1.44,12.27-8.38,2.78,3.05,7.55,3.67,9.08.86-6.62-8.29-15.51-2.82-22.63,1.3ZM757.49,1241.24l-25.33-2.18-5.08,7.06c11.68.26,21.24-.94,30.4-4.88ZM724.19,1266.31c1.81,3.1-.13,4.69-.15,5.34-.03.88,1.9,1.53,2.31.84.59-.99,1.5-2.3,1.99-4.69,16.44.66,32.21,0,46.5-8.66l32.09-5.68c-8.55-5.08-17.32-2.92-27.25-1.72l-27.49,3.33c-8.64,1.05-17.05,7.49-25.84,7.64-14.68.24-30.04,4.13-37.66,18.11l22.09-8c7.01.24,10.86-.01,13.41-6.51ZM664.91,1271.62c-2.14-.92-4.62-1.88-6.53.09,2.4,1.52,4.06.99,5.25.85l1.28-.94Z"/>
      <path class="st3" d="M222.32,731.77c-1.17,1.8-1.2,4.01-1.9,4.34-.95.45-2.54-.06-3.03-1-.03-.07,23.16-42.7,35.24-58.89,2.32-3.1,5.5-1.4,4.41,2.15l-34.72,53.4Z"/>
      <path class="st1" d="M233.96,568.21c-6.93.69-3.37-12.89-8.83-12.69-1.56.06-3.48,2.29-6.3,1.42,3.5-9.52,13.29-6.69,18.63-10.36,1.38-.16,2.44-.96,3.92-.88l1.7,14c.56,4.59-7,6.13-9.12,8.51Z"/>
      <path class="st1" d="M1598.8,385.03l-2.66,2c-4.85-1.17-10.2.69-15.11,5.58l-1.45-11.56c-.37-.41-.93-.86-1.4-1.09-1.65-1.89,1.21-1.62.63-1.77,1.43,1.22,1.88,2.09,2.36,2.9.31-.8,2.28-3.02,2.99-2.46l3.4,2.68c5.09,0,8.24-4.22,11.53-7.79,2.96,4.1.7,8.13-.3,11.51Z"/>
      <path class="st3" d="M714.68,89.86c2.13,3.59-.71,7.43-2.46,8.58-4.01,2.62-13.01,2.52-15.44-.91-1.16-1.64.06-4.12,1.14-8.48,1.12.79,1.84,2.14,5.11,2.91,2.19-2.83,10.05-4.78,11.65-2.1Z"/>
      <path class="st1" d="M239.54,627.23c1.78-.58,3.57-.29,4.15.18,2.69,2.22,4.62-1.71,6.06-2.07,4.12-1.02,6.73,5.8,6.61,9.89-2.03,4.25-9.73,2.86-14.42,1.55-3.17-.48-4.54-.64-5.41-1.63-1.09-1.22-1.09-4.35-.31-4.17,2.34.8,4.44-.04,4.78-.89.32-.8-.65-2.37-1.45-2.87Z"/>
      <path class="st1" d="M278.27,661.42l-8.66,22.05-3.91-2.16c1.91-4.14,4.07-8.94,3.96-12.72-6.69-.63-.76-5.09.55-6.74,1.5-1.9,5.24-2.77,8.06-.43Z"/>
      <path class="st3" d="M243.7,627.41c-.58-.48-2.38-.76-4.15-.18-3.83.22-5.34-2.49-5.1-5.34.31-3.62,2.88-6.92,7.55-5.03,3.68,1.49,3.11,7.48,1.71,10.55Z"/>
      <path class="st3" d="M254.71,606.12c-5.22-1.84.26-12.97,3.93-12.38,4.12,3.95,1.43,14.26-3.93,12.38Z"/>
      <path class="st3" d="M247.96,667.57c2.87-7.95,6.79-14.06,14.25-18.34-2.51,8.09-7.97,13.14-14.25,18.34Z"/>
      <path class="st3" d="M189.3,604.48c-1.65-3.54,4.22-7.98,8.19-7.45,1.58,2.35.85,4.94-.21,6.86-1.37,2.46-6.01,4.82-7.99.59Z"/>
      <path class="st2" d="M1309.51,503.08c-13.66,61.62-23.42,123.37-30.63,186.93-.92,8.14-1.23,18.93-10.51,21.11l-9.82,18.99-8.74-14.92c-2.49,3.68-4.79,7.12-7.39,7.14-2.63.02-7.16-2.1-8.72-5.26-20.95-42.32-37.26-85.91-54.53-130.35l-23.6,126.32c-.61,3.26-6.06,4.52-9.13,4.44l-6.83-17.02-1.56-33.57c-4.98,4.7-3.39,10.32-3.57,16.53-.5,16.68-8.72,40.32-15.36,40.66-1.82.09-5.66-3.49-6.85-5.63.02-25.09,4.66-49.14,8.56-74.78,7.51-49.41,16.21-97.74,30.33-145.37,4.77-4.98,14.21-.66,18.95-1.94l35.24-9.5c3.43,27.23,10.93,52.18,19.29,77.8l17.94,55.03c3.42-24.7,7.59-46.78,14.84-69.97l14.6-46.76c1.8-5.76-12.59-4.72-13.91-9.19-.41-1.39.58-4.41.93-6.47-9.57-6.33-19.77-13.24-23.13-25.52,4.92-5.13,12.52-7.74,20.43-9l105.71-16.97,77.79-9.19,65.77-5.06,142.54-3.25c10.73-.24,20.1-.14,30.05,3.05-3.61,4.51-7.16,4.54-12.06,5.38,1.67,2.03,3.57,1.81,7.1,2.53l-29.21,6.92c-17.37,4.12-34.57,4.63-52.4,6.77l-64.77,7.75-4.78-.16c-.75-.03-1.66.84-.48,2.07,1.9,1.99,2.16,1.18,4.56,1.03l67.47-3.98,56.82-3.58c16.67-1.05,32.85-4.2,48.87-.38l-93.68,16.44-11.72,4.42-144.39,20.72c1.88,11.71-5.12,19.91-7.46,29.74l-29.7,124.64-18.46,99.76c1.5,2.46.99,9.3-2.78,8.66-5.63-2.35-6.76-11.14-9.54-16.66-3.86,4.49-14.59,7.43-16.18,2.84-4.44-12.79.84-25.73.44-38.22-.87-27.09,2.16-52.25,5.43-79.92-6.62,10.42-6.88,22.04-9.88,33.57l-10.44,40.08-9.36,30.32c-1.78-7.32-5.46-15.52-4.31-22.55l13.63-82.86c9.51-42.41,22.64-82.2,37.15-123.39l-78.55,9.78Z"/>
      <path class="st2" d="M373.39,370.85c-16.69,23.99-31.84,46.23-45.35,70.89-.86,1.58-3.23.63-3.12-.72.09-1.16-.1-3.08-2.12-4.93-7.32,16.29-15.88,32.83-31.57,44.35-3.14,2.31-8.4-2.01-10.23-4.19-8.58-10.22,23.97-40.09,31.11-59.21-16.3,11.61-25.07,27.8-34.72,42.97-3.93,6.17-5.35,13.78-13.29,16.81-5.77-7.05-13.81-8.34-23.9-3.18,1.81-8.96,7.71-14.66,12.98-21.64l20-26.53,34.06-52.95,17.76-29.66c-23.82,6.42-45.3,14.16-66.01,25.88-9.82,5.55-19.12,9.19-30.31,12.49-5.32,1.56-11.68,5.62-15.52-1.07,3.37-.28,6.31.93,8.72-2.64-7.96,1.44-12.88-.61-19.52-2.6-3.96-1.19-9.92,2.1-13.32.05l17.43-10.45c-5.85-5.28-11.27-2.79-18.58-3.58,12.52-17.16,30.64-26.06,49.41-34.23,21.22-9.25,42.11-16.27,64.28-22.81,8.79-2.59,16.91-2.62,25.29-5.49l11.2-3.83c3.22-1.1,7.67-4.63,12.2-2.95l71.08-94.53,51.91-59.45c10.47-11.99,23.74-20.88,36.75-29.95,12.42-8.65,26.7-14.06,41.3-17.95,21.8-5.81,87.89-24.35,86.89-16.76l-.75,5.65c-.87,6.59.76,13.5-3.56,19.1-8.22,10.64-2.41,25.26-21.48,43.6.57-11.49,6.35-19.72,12.39-28.97-9.94,1.93-13.15,9.04-16.08,17.17l-39.61,109.99,47.93-5.03c-2.83,5.7-8.44,4.62-11.74,6.53,12.99,3.69,23.33-.63,33.28-6.76-3.79,10.28-14.15,9.97-21.89,15.35,3.28,4.01,7.73,2.28,11.73,3.53-6.83,6.91-15.72,11.67-25.06,14.45l-47.33,14.07-20.44,70.12c-7.33,25.14-12.59,49.99-17.37,75.72-1.71,9.23-7.34,16.52-14.93,21.11-4.96-6.2-5.55-12.66-7.15-20.95-5.54,3.4-2.05,14.39-6.75,16.8-1.8.93-4.6-1.29-4.25-4.46l3.53-32.03c.92-8.34,8.45-16.05,4.18-25.27-6.58,18.18-10.46,33.94-22.93,47.64l-6.82-5.04c4.29-36.21,12.53-71.26,23.16-106.55l3.94-16.42c-27.9,4.27-53.91,11.69-81.04,20.24l-5.14-.8c-1.35-.21.51,6.37-.92,8.04-9.19,10.7-19.75,26.72-29.71,41.04ZM510.84,249.98c-.6-10.93,3.02-16.86,5.58-24.52,8.17-24.49,14.97-48.57,24.58-72.58,2.17-5.43,6.93-9.62,5.59-16.64l-27.79,32.86c-15.65,18.5-30.92,36.14-45.85,55.25-11.76,15.06-22.78,28.87-36.92,43.98l74.82-18.35Z"/>
      <path class="st2" d="M1004.35,324.61c-7.47,8-5.17,19.62-14.32,22.86-18.77-15.47-13.09-48.2-5.26-75.94-13.53,5.8-25.53,9.64-38.99,13.08l-56.25,14.41-12.08,18.29c-6.08,9.2-11.85,19.04-21.86,24.95-2.47,1.46-7.52-.98-9.62,4.8-.57,1.57-4.52,3.01-6.13,2.23-1.91-.92-3.85-2.79-3.36-5.96l1.95-12.44-17.92,19.17c-.98-25.07,19.15-37.09,28.42-56.65l-23.77,4.36c4.32-5.48,8.18-12.12,3.88-15-1.8-1.21-4.34-.62-5.16-.75-1.43-.23-2.47-2.67-1.29-4.43.83-1.24,34.58-12.26,51.84-14.57,16.33-24.44,34.3-46.55,54.42-68.5,17.78-19.39,33.91-38.4,50.46-58.78l19.3-17.19c16.93-15.08,48.63-16.02,36.2-3.77,8.61,10.51,20.48-14.49,38.13,1.51-10.13,6.87-11.69,15.73-15.38,24.56-5.25,12.56-7.75,25.11-10.59,38.31-3.98,18.5-9.73,35.74-10.61,54.53l20.53-1.85c4.36-18.83,13.37-34.16,22.92-50.18,14.31-24.01,30.05-45.97,52.32-63.19,13.33-10.3,25.8-22.67,42.05-28.27,21.3-7.34,63.24,9.4,60.61,42.54-1,12.62-2.45,26.44-8.55,37.55-6.91,12.6-31.73,28.89-42.02,20.82-3.07-2.41-4.23-7.2-3.64-11.76l6.37-48.54-41.44,41.26c-23.41,27.5-38.42,57.57-48.25,91.86-2.59,9.04-7.97,22.13,5.42,26.67,8.47,2.87,22.57-.41,31.39-4.01,33.98-13.86,51.41-38.25,80.7-46.53-9.09,6.6-15.38,16.19-20.74,27.48-2.86,6.03-4.03,11.86-11.42,16.39,11.81-1.46,12.72-22.04,32.04-32.89-.67,8.72-6.13,13.14-9.82,19.16-14.22,23.15-30.88,18.84-43.22,33.55,13.01,1.44,23.23-4.11,35.69-7.7-2.93,20.54-18.92,6.35-47.96,21.9-25.63,13.73-47.88,18.58-76.55,11.86-25.76-14.34-30.6-49.2-15.87-73.41l-21.12,6.26c-6.93,2.05-5.89,6.13-6.98,11.68l-13.31,67.87c-8.37-3.07-9.28-9.64-11.17-17.58ZM974.35,243.67c8.26-1.47,13.93-3.57,15.59-12.6l12.27-66.7c-23.39,31.53-48.06,59.88-73.41,87.4l45.54-8.1Z"/>
      <path class="st2" d="M1559.42,329.07c-1.4.61-2.29,1.18-2.96,2.08-.61.82-.59,2,.18,2.9l-38.01-.3c-7.52-.06-15.29-.94-20.63,4.76,9.24,2.1,17.06,3.16,24.2,8.35-17.89,17.83-26.11,8.45-42.2,4.64-45.9-10.86-90.16-25.16-130.86-48.93l-65.53-38.26-20.47,66.14-6.26,34.83c-10.25-4.49-7.98-13.5-7.59-22.32l-10.3,19.68c-4.04,1.69-8.07-3.33-8.07-7.14l.07-39.29c-8.5,9.54-9.39,20.63-15.95,32.02-3.62-4.58-3.77-9.5-4.43-15.21-3.8,2.04-4.27,6.04-6.32,9.79-1.33,2.43-5.4.61-6.31-1.39-4.58-10.05,28.18-88.24,26.54-91.6-.89-1.83-2.46-3.38-6.36-4.78,2.49-1.11,5.28-2.34,6.61-5.5l37.13-88.39,24.95-47.77c3.92-7.51,1.9-18.95,10.13-24.47,1.26-.84,4.74,3.01,4.45,4.29.93-6.99,3.13-10.18,7.05-12.14,3.19-1.6,9.04-2.19,10.9,1.76,3.41,7.24-11.02,21.36-10.63,38.39l20.47-30.4,14.9-9.31c1.34,3.59,1.57,5.4,3.91,7.15,1.21-5.34,3.76-7.22,6.26-8.45,3.26-1.6,8.73.04,9.72,4.21-9.42,9.57-12.65,23.5-18.35,35.15-12.06,24.66-26.08,46.92-34.18,74.54,9.93-1.4,15.94-7.96,23.62-12.51,31.79-18.85,61.71-39.47,87.27-66.13,26.13-27.25,20.35-47.27,34.34-45.54,3.8.47,5.03,4.33,7.83,7.81,3.49.81,8.78-1.19,13.08,1.71.03,4.58-3.15,11.55-.67,17.22,1.58,3.6,11.36,2.4,15.08-.39,1.18,13.35-3.74,23.32-9.34,36.07l23.05-24.61c2.58,19.04-15.58,38.69-31.89,48.74l-71.33,43.94-41.63,23.68-24.03,16.16c10.05,3.07,16.31,5.65,24.31,9.29l58.36,26.55c26,11.83,51.68,20.92,79.18,28.44,20.91,5.72,40.45,11.85,62.25,12.25-5.68,12.84-31.19,8.9-51.14,11.11l49.59,11.21ZM1464.61,332.65l-100.97-42.23c29.41,25.82,66.02,36.69,100.97,42.23Z"/>
      <path class="st2" d="M657.22,381.17c-.79,3.17-4.45,6.29-7.64,7.23-2.09-6.36.75-12.68,2.83-18.99,6.51-19.75,15.09-37.58,18.1-59.4-8.32,10.95-12.56,22.78-18.48,34.8l-23.38,47.45c-1.82,3.69-4.72,5.57-9.04,3.34-9.93-5.12,14.71-42.09,10.71-62.65-7.5,3.14-4.18,9.18-4.74,14.36-1.29,11.89-6.19,22.86-10.02,33.8-2.46,7.04-8.52,10.99-15.38,8.54,2.37-18.61,8.05-34.92,14.41-52.07l24.13-64.99,47-96.42-55.64,6.53c-6.21.73-11.66-1.24-19.46,1.28l3.84-14.69c1.33-5.1,7.86-7.66,8.38-14.2-1.9-.78-6.49-3.75-5.98-6.59.9-4.98,7.77-14.03,14.14-14.68l117.87-12.2,172.67-18.86,94.68-4.33v3.05s-33.07,7.78-33.07,7.78l-58.01,14.84,61.54-3.36c-6.87,5.87-14.64,9.62-23.75,10.48-11.45,1.08-21.14,6.16-32.07,8.41l-80.16,16.51c5.5,6.52,4.49,12.15,1.55,18.52l-26.79,58.17-54.86,127.09c-1.4,3.24-5.28,5.2-9.73,4.51-1.34-6.51-.16-12.44-3.52-19.88l-10.91,15.79c-2.6-6.33-6-9.06-11.56-11.44l7.48-28.69c13.7-52.55,39.52-108.98,63.77-159.13l-71.2,7.6c.83,4.75,3.39,6.81,5.28,10.7l-32.66,77.5-28.19,64.99c-8.41,19.39-16.81,37.78-22.16,59.33ZM769.84,322.56c3.04-2.22,1.81-11.31-1.4-10.45-4.43,1.19-6.39,5.47-5.77,7.61.66,2.3,4.23,4.99,7.17,2.84Z"/>
      <path class="st2" d="M813.21,618.65c-14.23,29.93-23.05,62.04-34.45,94.1-3.77,10.6-9.65,19.36-11.14,31.29-.61,4.85-6.97,8.69-10.72,11.79-4.85-3.5-5.04-8.99-6.01-16.35-2.12,3.51-1.14,8.22-5.98,12.33-6.94-11.12-4.69-23.62-5.17-35.95-.34-8.66-1.55-16.15,1.68-24.55l12.4-32.16,28.5-72.64,15.98-44.76c18.96,1.1,37.15-10.71,53.41-3.09,2.93,1.37,3.16,8.37,3.15,11.07l-.38,85.38c5.82-4.06,6.52-10.08,9.94-15.12,20.66-30.38,39.67-60.51,56.31-93.22,1.36-2.68,4.75-6.5,7.64-6.4l37.77,1.32c2.68.09,5.68,1.18,6.92,2.28,1.46,1.3,2.01,4.96,1.45,7.71l-20.26,101.19-17.57,87.71-13.41,29.75-9.94-10.13c-3.68-3.75-2.41-9.27-4.45-14.67-2.24,4.94-.85,10.78-4.91,15.45-1.93,2.22-5.65.23-7.28-1.03-5.63-4.33-4.21-23.38-1.49-38.41l15.57-85.86-26.55,46.6-32.24,52.49c-8.28,3.08-22.52-1.74-25.86-10.41-8.45-21.87-11.89-44.13-14.07-67.41l1.18-18.29Z"/>
      <path class="st2" d="M1017.94,639.69l-11.76,45.07,83.38-13.14c3.33-.52,6.6.82,8.2,2.63,6.2,7.03-5.1,19.62-21.33,25.83,5.61,2.05,10.67.4,12.74,6.37l-29.42,5.71-44.96,13.92c-16.81,5.2-34.35,10.23-51.7,11.27-6.77-3.55-7.76-15.75-6.15-22.82l21.05-92.59,24.02-101.22,59.84-12.84c20.16-4.32,59.67-9.14,65.82.71-13.25,11.47-29.84,15.3-46.32,17.96,12.41,2.43,24.27-1.97,35.87,4.71-7.56,7.78-17.57,8.58-26.77,11.16l-49.16,13.84-11.71,42.91,71.71-9.35c1.77,6.23-3.54,9.01-5.03,13.23l1.33,13.95-28.88,8.9-50.78,13.77Z"/>
      <path class="st2" d="M817.94,514.67c-5.23.85-8.58-3.14-11.08-8.06-6.14,4.24-7.97,10.87-13.39,8.69-7.03-2.82.67-24.36,4.51-40.93l4.89-21.11,26.39-70.77c1.57-4.22,3.7-8.82,7.03-10.3,11.65-5.17,15.99,4.48,23.53-1.78,2.34-1.94,7.03-1.69,8.93.18,1.48,1.45,2.49,4.92,1.33,8.1l-18.42,50.28,53.29-7.49,20.8-60.15,16.05,2.04c6.88-2.9,18.86-3.26,22.61,3.85l-32.63,101.71-10.93,31.48c-1.25,3.59-4.11,7.82-7.03,8.12-.87-2.91-2.33-5.05-3.45-5.53-4.41-1.9-6.04,11.51-10.03,11.75-3.05.19-9.23-1.61-9.57-5.21-1.88-19.76,2.77-37.66,8.62-56.87l-61.52,8.99c-3.34,18.99-11.05,34.73-19.94,52.99Z"/>
      <path class="st2" d="M1048.11,428.4l-52.39,9.35c-3.28,6.49-4.74,13.51-6.11,21.64l55.53-6.38c7.72-.89,14.88,1.89,22.54-3.41-.52,9.58-1.81,14.8-.29,23.54l-111.21,21.83c-3.91.77-8.25-1.41-10.05-3.16-2.28-2.22-3.32-7.16-2.18-10.78l13.61-42.99c3.92-12.39,7.67-23.6,13.03-35.55,4.82-10.75,6.5-23.13,14.14-32.22l44.24-6.61c20.6-3.08,40.41-5.46,60.98-5.33,3.88.02,5.76,1.44,7.08,5.03.93,2.53-3.62,4.45-5.3,6.1-.86,5.36-4.5,7.02-9.87,8.55-19.53,5.55-38.27,10.66-58.03,14.58-8.95,1.77-15.53,8.78-15.72,17.78l49.57-4.65c1.69.64,4.05,4.72,6.54,4.15,1.59-2.42,4.2-3.88,6.21-3.88,2.56,0,3.88,2.51,3.25,5.08-1.6,6.54-12.71,2.06-12.96,12.38l-12.61,4.95Z"/>
      <path class="st2" d="M709.01,523c-3.99-.21-9.4-2.15-14.35-1.35,1.94-32.25,11.76-60.96,22.81-92.24l-56.92,10.8c-7.9,1.5-14.54,2.93-23.43,7.39-1.58-11.55-.35-23.16,4.24-34.2,26.76-9.1,52.94-14.57,80.42-19.01l60.29-9.75c4.5-.73,6.27-.88,11.1-1.71l25.68-4.44-7.86,31.96-52.91,9.91-20.31,56.82c-5.97,16.69-8.92,33.59-17.57,49.55-6.33-3.87-5.05-9.58-4.86-15.56-3.69,2.48-3.58,7.63-6.33,11.84Z"/>
      <path class="st1" d="M761.63,821.26c.7,3.31-.93,6.26-5.09,7.48-2.61.38-2.39,3.29.47,3.12-9.83,3.71-19.6,8.64-29.99,9.15,1.47-3.34,4.29-5.27,4.19-6.61.14,1.75-13.93-15.08-24.26-14.65-37.53,1.57-73.21,13.2-106.36,30.33-10.05,5.19-14.63,3.97-23.9-1.82-10.97-6.85-34.36-9.18-28.36-26.3,6.13-1.49,9.57,6.44,10.52,10.48,17.59,2.21,42.29,2.6,40.89-2.38-.86-3.07-10.43,2.8-19.58-2.56-3.8-2.22-8.33-6.38-6.08-12.34,1.95-5.18,9.05-7.14,13.81-10.79-3.17-4.63-7.93-6.35-13.69-9.33l7.68-15.27c11.14,8.05,9.94,17.96,16.32,24.15-7.75,4.24-16.13,13.14-14.66,16.17,2.32,4.8,24.17-7.36,38.62-.36-4.64,4.45-11.8,2.99-14.96,11.55l59.25-12.44c27.03-5.67,51.55-14.12,77.46-23.88,5.18-1.95,15.64-4.24,18.37.81,2.55,4.72,2.28,9.5,9.69,10.77l-22.66,13.4c3.17,2.27,8.78,2.43,12.34,1.3Z"/>
      <path class="st1" d="M1411.24,784.93c4.53-8.83,26.61.14,29.71-19.67l9.53-61,13.46-65.68c7.51-36.66,16.52-71.92,27.65-107.22l92.11-13.7c30.88-4.59,59.79-14.03,87.7-27.63l25.84-10.67c12.46-5.15,24.29-12.59,31.48-24.23-2.86-8.64-10.22-11.84-16.37-17.42,8.39.1,20.65,9.22,19.46,17.98-1.42,10.47-13.47,13.41-20.1,20.45-36.91,20.95-76.23,35.46-118.12,45.11l-96.72,15.06c-18.19,62.74-31.78,125.27-42.78,189.42l-10.28,47.06c-1.21,5.56-11.28,10.54-16.32,10.86-6.05.39-9.88-1.09-16.25,1.29Z"/>
      <path class="st2" d="M434.42,448.72c-1.34,3.14-2.19,7.77-4.8,9.61l-14.24,10.09c-8.86,6.28-17.3,11.82-28.43,15.04,4.82-12.64,13.32-20.71,20.02-31.04l12.03-18.54c4.01-6.18,3.98-13.72,10.55-17.85-.53,6.85,3.29,12.2,3.64,18.54.35,6.28-8.24,12.04-11.06,15.79.03,10.79,2.92,3.56,10.97-7.76,1.16,2.66,1.13,4.46,1.32,6.12Z"/>
      <path class="st1" d="M1422.74,234.08c-7.38,3.83-12.79,10.08-21.66,7.9l39.9-25.24,63.62-40.89c16.38-10.53,22.67-26.68,31.42-44.69-1.31,26.48-23.61,45.24-44.04,59.89-22.39,16.06-43.92,29.89-69.24,43.02Z"/>
      <path class="st1" d="M354.35,493.05c-3.93,5.68-7.08,10.24-13.8,9.32l71.19-96.2c8.58-11.59,15.78-24.84,30.52-31.1-30.51,38.82-59.49,76.92-87.92,117.98Z"/>
      <path class="st1" d="M1119.5,465.62c5.15-22.31,30.34-40.6,50.72-49.92,4.3-1.97,10.2-.8,9.77-8.71-.47-8.65,2.79-16.88,8.87-22.85-.79,6.11-2.84,10.74-1.26,14.3,3.77,8.53-2.34,11.06-6.26,15.85-4.38,5.35-7.26,9.78-12.79,14.08-16.15,12.53-29.24,28.04-49.05,37.25Z"/>
      <path class="st1" d="M1331.23,340.17c3.09,3.26,3.92.33,2.6-.96.91,1.61,1.45,1.92,1.79,2.04l3,1.03c.44.15.8.56,1,1.02,6.2-.21,11.6,2.94,17.96,5.37l27.85,10.62c19.05,7.27,37.18,13.39,56.87,18.56,30.39,7.98,72.05,22.88,96.24,9.65-7.66,12.06-32.88,10.1-53.11,5.26-50.78-12.14-100.05-27.12-146.82-48.29-.17-.43-.55-.88-.99-1.19l-3.02-1.02-3.37-2.1Z"/>
      <path class="st1" d="M1201.33,763.45c2.2-3.87,7.99-3.96,11.23-7.59,6.04-6.77,11.16-12.97,20.39-17.28,6.11,5.32,9.86,15.55,8.03,25.07l-39.65-.2Z"/>
      <path class="st1" d="M1314.29,415.75c-1.95-1.77-4.83-2.68-7.42-4.59l31.04-13.88c21.84-9.77,30.94-5.86,32.28-15.98,5.36,2.04,8.13,2.7,12.21,7.54-11.95,1.84-20.32,7.85-30.64,11.97l-37.48,14.95Z"/>
      <path class="st1" d="M568.25,446.51l-10.7,8.34c-.57-13.56,2.97-25.09,4.94-37.97,4.94-32.34,10.41-63.61,21.06-94.24l-16.55,85.3c-1.6,8.25-3.55,14.57-2.95,23.45.3,4.44-3.85,10.07,4.2,15.12Z"/>
      <path class="st1" d="M213.29,917.91c10.65,6.53,17.99,11.53,30.48,10.91,13.8-.68,28.34-.29,40.12-9.05,1.83-1.36,3.64-7.5,5.95-7.88l19.41-3.18-22.34,14.29c-19.71,12.6-64.56,15.53-73.62-5.09Z"/>
      <path class="st1" d="M373.1,808.71c-1.18.53-1.86,1.65-1.95,2.34-1.16-2.08-1.95-5.62-5.73-5.27l-19.45,44.83c-2.3,5.3-3.29,10.23-2.09,14.89l-2.55,10.71c-1.12,4.71-2.87,8.55-6.76,9.57.93-17.16,6.85-35.61,14.64-52.25l16.96-36.26c1.31,6.16,4.52,9.03,6.93,11.45Z"/>
      <path class="st1" d="M727.46,765.71c-7.87,23.04-52.09,41.02-77.7,37.93,29.93-4.81,55.65-15.59,77.7-37.93Z"/>
      <path class="st2" d="M1306.87,411.15c2.58,1.91,5.47,2.83,7.42,4.59l-59.43,19.18-1.91-2.7,53.92-21.08Z"/>
      <path class="st1" d="M309.79,525.55c-8.76,4.02-13.61,7.64-14.91,18.08l-18.57-8.21c1.57-6.26-.44-11.01-1.68-16.65l14.2,14.17c1.3,1.29,4.28,1.45,6.21,1.02,2.21-.48.16-5.1-.49-6.75,2.53-3.28,9.3-5.99,15.24-1.66Z"/>
      <path class="st2" d="M334.57,885.78c3.89-1.02,5.64-4.86,6.76-9.57l2.55-10.71c2.48.86,5.32,2.52,6.03,4.39,2.75,7.22-3.69,17.81-12.81,21.66-2.55,1.08-5.33-1.22-4.57-2.46l2.03-3.31Z"/>
      <path class="st1" d="M231.63,482.9c1.04,21.22,22.58,18.64,23.94,26.16-12.92-1.59-24.97-9.57-28.99-22.18-.53-4.88,6.24-11.54,10.74-12.13l-5.68,8.15Z"/>
      <path class="st1" d="M286.76,620.96c2.55-7.21,8.23-11.6,12.17-17.87,5.39-8.43,11.46-15.26,19.6-21.33-.11,5.68-4.76,7.71-6.91,11.61-7.11,10.22-12.58,20.65-24.86,27.59Z"/>
      <path class="st2" d="M270.22,546.86c-6.9-.46-13.01.67-18.27-4.29,8.63-.42,14.56-5.09,17.55-12.73,1.6,8.27,1.49,12.49,6.16,16.39.46.41-1.25,2.43-1.82,2.61-.81.25-2.03-.61-3.63-1.98Z"/>
      <path class="st1" d="M265.55,524.76c.52,2.31-3.3,5.43-4.95,5.79-1.79.39-5.58-.9-6.33-3.04-2.28-6.48-1.32-12.17,2.86-16.42,3.45,4.54,7.14,8.01,8.42,13.67Z"/>
      <path class="st1" d="M1295.9,384.59c-1.8,6.78-10.01,10.01-18.2,10.08,5.54-7.26,9.42-11.97,11.18-19.45.74,4.25,3.12,6.69,7.01,9.36Z"/>
      <path class="st2" d="M371.15,811.05c.09-.69.77-1.81,1.95-2.34,2.1,2.1,7.57,2.07,8.79,4.76,1.16,2.57,2.4,9.02.18,9.68l-11.02,3.27c3.2-6.36,2.39-11.39.09-15.36Z"/>
      <path class="st1" d="M1347.8,554.96c4.15,3.76,2.94,11.4-1.24,15.98l-10.39-15.63c2.65-2.39,8.8-2.9,11.63-.35Z"/>
      <path class="st1" d="M270.22,626.59c5.18-.25,6.48,8.48,3.67,14.83,1.97,3.43-3.05,4.44-1.59.33-4.47-1.91-6.43-4.29-7.68-8.51-.96-3.24.98-4.21,2.91-6.81l2.69.15Z"/>
      <path class="st1" d="M1343.67,759.42l-5.43,4.51c-7.01-3.69-9.48-10.51-8.39-19.33,7.28,4.88,9.38,10.27,13.82,14.82Z"/>
      <path class="st1" d="M215.75,414.25l-18.99-8.04c-3.92-1.66-7.85-3.51-7.77-8.48,9.83,6.05,18.15,9.43,28.24,13.05,3.11,1.12,1.72,4.83-1.48,3.47Z"/>
      <path class="st1" d="M429.62,458.33c2.61-1.85,3.46-6.47,4.8-9.61,5.58,1.41,11.48,5.73,14.52,11.65l-19.32-2.03Z"/>
      <path class="st1" d="M512.86,501.96c-2.53,6.51-6.29,10.85-11.26,15.55-1.24-5.36,1.1-10.01,4.22-15.33l2.47-4.21c.82-1.4,6.04.23,4.58,4Z"/>
      <path class="st1" d="M1092.41,741.55c-12.43,4.85-22.84,9.98-35.51,10.63,10.73-8.02,23.22-8.21,35.96-14.09,3.15-.21,2.97,2.5-.44,3.47Z"/>
      <path class="st1" d="M1167.69,465.3c-2.82,4.6-10.09,2.65-16.38-4,7.87.71,11.04-3.99,16.9-6.79l25.33-12.1c-7.67,9.11-18.05,11.75-28.89,16.84,1.53,1.08,3.97,4.52,3.03,6.05Z"/>
      <path class="st1" d="M897.68,770.45c-4.78,2.41-9.2,1.68-13.65,6.49l-1.93-11.21c6.31-1.91,11.56-.62,15.58,4.72Z"/>
      <path class="st1" d="M674.5,82.96c1.52,9.23-.28,18.99-7.97,26.08,4.96-17.14,2.26-29.02,7.97-26.08Z"/>
      <path class="st1" d="M833.77,759.79c1.84,2.83-1.35,11.44-7.01,12.17,1.21-6.02,0-10.6-4.69-16.96l11.7,4.79Z"/>
      <path class="st1" d="M1556.64,334.05c-.77-.9-.79-2.08-.18-2.9.67-.9,1.56-1.47,2.96-2.08,1.59.36,4.4,5.89,6.99,3.06,1.73-1.88,4.87-3.69,7.58-3.2,1.44.26,4.18,3.36,2.21,4.52-6.16,3.6-13.87.64-19.56.6Z"/>
      <path class="st1" d="M1319.68,353.75c-.11,4.97-5.98,9.66-11.07,9.98.24-5.6,2.69-10.49,6.16-13.68,1.41-.97,4.97.8,4.91,3.7Z"/>
      <path class="st2" d="M276.22,595.18c6.12-1.14,9.02-6.65,13.09-13.66,3.64,2.46,1.36,7.12.11,9.36-2.13,3.81-5.89,7.83-13.2,4.3Z"/>
      <path class="st1" d="M1147.07,388.37c-3.56,2.24-7.67,3.52-12.59,4.83l-1.98-5.48c1.8-3.47,9.96-6.85,14.58.66Z"/>
      <path class="st1" d="M1286.55,402.5c-7.69,4.89-14.86,9.49-24.87,9.04,7.42-5.23,14.59-9.97,24.87-9.04Z"/>
      <path class="st1" d="M799.86,767.78l16.19-27.97c-1.49,11.67-6.71,21.46-16.19,27.97Z"/>
      <path class="st1" d="M1196.21,463.59c-1.4,3.99-6.28,5.45-8.97,4.2-2.18-1.02-5.1-7.14-2.16-7.95,4.34-1.2,8.02,2.53,11.13,3.76Z"/>
      <path class="st1" d="M247.27,423.24l-8.19,8.99c-2.09-.61-6.91-5.12-5.39-7.45,2.31-3.54,8.14-3.95,13.58-1.53Z"/>
      <path class="st2" d="M933.87,501.28c-2.83-.54-.08-4.77.8-6.18,1.3-2.08,5.61-4.35,6.76-2.37l.66,10.13-8.22-1.58Z"/>
      <path class="st2" d="M371.73,843.58l-12.03,8.73c.43-5.49,4.16-9.83,8.11-14.8,1.71,1.68,2.68,3.24,3.93,6.07Z"/>
      <path class="st1" d="M1214.87,742.03c.67,4.09-5.23,4.86-7.35,2.62-3.29-3.47-4.67-7.45-.55-11.32,2.54,2.1,7.21,4.49,7.91,8.69Z"/>
      <path class="st1" d="M1217.38,405.68c-6.6,1.54-11,4.24-16.55,3.93,7.57-4.22,8.96-6.4,9.18-14.04,1.71,4.97,2.74,6.7,7.37,10.11Z"/>
      <path class="st2" d="M1407.28,88.77c.43-3.05.49-6.28-1.98-8.61,1.43-3.34,3.11-4.02,7.64-6.11,2.55,5.3-.58,10.88-5.66,14.72Z"/>
      <path class="st1" d="M688.55,329.94l8.09-22.15c.96-.95,1.89-.86,2.24-.7-.59,8.17-5.2,15.57-7.49,23.12-1.2,1.21-2.22.63-2.83-.27Z"/>
      <path class="st1" d="M1407.28,88.77l-7.78,5.88c-.04-6.4,3.86-9.95,5.81-14.48,2.47,2.32,2.41,5.56,1.98,8.61Z"/>
      <path class="st2" d="M270.22,626.59l-2.69-.15c2.91-3.92,4.26-7.99,9.98-10.85l6.29-7.19c-.17,12.89-11.04,11.86-13.57,18.19Z"/>
      <path class="st1" d="M435.3,837.15c-1.52-2.04,1.61-4.38,3.03-5.45,2.46-1.86,7.66,1.96,6.45,5.88-1.02,3.31-6.85,3.12-9.49-.43Z"/>
      <path class="st1" d="M792.09,773.61c3.48-1.2,4.15-2,4.97-5.25,1.93,1.35,1.48,3,.18,4.25-1.17,1.11-2,3.28-5.15,1.01Z"/>
      <rect class="st1" x="553.63" y="454.94" width="1.43" height="1.43" transform="translate(-159.85 525.33) rotate(-44.99)"/>
      <rect class="st1" x="1148.67" y="458.99" width="1.43" height="1.43" transform="translate(11.5 947.2) rotate(-44.99)"/>
      <g>
        <path class="st2" d="M340.4,732.69c4.08-9.49,7.84-17.9,16.71-22.95-.16,9.81-3.49,18.37-7.61,26.99l-26.83,56.03c-9.93,20.73-14.61,42.72-27.01,63.21-2.63-6.4-2.18-14.41.64-20.49,2.8-6.04-.3-11.57.91-16.58l15.27-62.97-13.77,31.16-29.91,81.32c-4.7,12.79-10.55,23.83-18.39,34.02-1.15-4.7-2.81-7.12-5.26-8.99-2.66-2.03-6.49-2.51-9.06,1.07-2.11,2.95-4.47,5.63-7.52,5.87-4.36.35-5.39-5.4-7.73-7.69-4.98-4.86-12.69-1.7-19.99-1.01,5.74-25.07,13.89-47.62,23.86-71.5,21.82-52.26,46.29-101.83,72.29-152.16,11.04-21.36,23.34-40.08,29.94-63.85l-16.23,21.69c-.69.92-2.11.82-2.75.18l42.41-84.12c-7.29,1.7-9.39,7.82-12.58,11.93l-3.82-6.27c2.07-5.57,6.84-8.23,13.33-10.42-2.63-1.79-5.22-4.17-5.19-6.57.12-7.92,54.28-24.19,77.11-32.04l13.94-8.21c3.32-1.95,4.56-5.44,5.81-8.21,21.2,17.89,11.13,31.38,6.7,54.39,4.66-2.02,8.75-2.59,11.29.77-6.01,1.99-10.03,3.19-12.84,5.87-2.92,2.78-4.46,10.19-3.23,14.2,2.38,7.73.29,12.15-.59,19.02l-11.62,90.2,44.04-65.75c2.58-3.86,4.38-6.03,8.8-5.45,14.47-16.93,22.94-37.09,35.98-55.2l59.15-82.12c1.36-1.89,5.24-3.69,6.87-4.56,1.48-.78,3.84,2.23,6.22,2.97,12.31,3.8,11.29,13.31,15.1,12.7,4.37-.71,6.34-15.13,14.89-10.75.57,2.32-.46,8.07,1.57,10.1,3.88,3.89,16.76,4.67,12.7,14.08l-17.72,41.07-24.96,61.89c-3.54,8.78-8.62,17.48-11.37,25.53l-4.04,11.82c-17.95,60.75-29.42,121.99-40.07,184.36-2.01,11.78-4.51,21.73-13.07,30.61-6.86-5.08-10.69-12.07-10.41-20.72l1.1-35.13c-6.97,4.91-6.11,11.77-7.29,18.49l-7.33,41.8c-3.4-5.13-5.71-6.92-10.65-9.23-7.95-3.72.9-75.03,7.41-101.86l13.48-55.62,14.63-53.47c-7.12,5.86-8.51,13.59-13.46,20.29l-59.29,80.26-34.75,44.57c-2.36,3.03.03,8.24,2.95,11.81-7.49,3.43-10.49,8.44-13.86,16.46-7.96-11.87-15.84-21.83-28.24-29.66,8.14-5.6,6.11-18.67,2.9-21.39-1.96-1.67-4.99-2.03-8.69-2.46,3.55-11.91,6.95-22.99,6.94-35.16l-.05-76.1c-8.81,13.65-14.6,25.99-20.14,39.37l-21.26,51.35c-9.66,30.24-20.64,57.74-33.58,87.84,7.93-8.1,11.89-17.75,16.23-27.84l20.98-48.78ZM544.96,631.72c.27-3.74-3.23-3.53-4.39-2.55-5.3,4.45-5.99,13.53-2.62,19.72,3.92-5.18,6.5-9.91,7.02-17.17ZM336.63,684.39c0-2.86-2.32-5.17-5.17-5.17s-5.17,2.32-5.17,5.17,2.32,5.17,5.17,5.17,5.17-2.32,5.17-5.17Z"/>
        <path class="st3" d="M544.96,631.72c-.52,7.26-3.1,11.99-7.02,17.17-3.36-6.2-2.67-15.27,2.62-19.72,1.16-.98,4.66-1.19,4.39,2.55Z"/>
      </g>
      <circle class="st3" cx="331.46" cy="684.39" r="5.17"/>
      <path class="st3" d="M510.84,249.98l-74.82,18.35c14.14-15.1,25.16-28.92,36.92-43.98,14.93-19.11,30.2-36.74,45.85-55.25l27.79-32.86c1.34,7.02-3.41,11.21-5.59,16.64-9.61,24.01-16.4,48.08-24.58,72.58-2.56,7.66-6.18,13.59-5.58,24.52Z"/>
      <path class="st3" d="M974.35,243.67l-45.54,8.1c25.35-27.52,50.02-55.87,73.41-87.4l-12.27,66.7c-1.66,9.03-7.33,11.13-15.59,12.6Z"/>
      <path class="st3" d="M1464.61,332.65c-34.95-5.53-71.56-16.41-100.97-42.23l100.97,42.23Z"/>
      <path class="st3" d="M769.84,322.56c-2.94,2.15-6.52-.54-7.17-2.84-.61-2.14,1.34-6.42,5.77-7.61,3.21-.87,4.44,8.23,1.4,10.45Z"/>
      <path class="st3" d="M708.76,630.32c-10.71,37.9-56.44,112.4-83.99,94.01-18.63-12.44,7.09-86.13,31.01-110.08,4.73-2.86,12.35-3.93,13.63-11.51,3.54-20.89,32.43-22.15,38.55-16.37,5.2,4.9,4.34,31.39.79,43.95Z"/>
      <g>
        <path class="st2" d="M738.31,676.12c-20.42,39.45-48.75,77.93-93.05,89.43-12.07,6.83-32.91,8.34-43.83-2.62-18.86-18.93-27.69-46.68-25.23-73.13,4.73-50.88,32.13-93.64,70.49-125.4,16.32-13.51,32.83-20.46,54.63-19.09,13.98.88,29.32,2.29,39.02,13.85,8.76,10.44,11.09,24.13,12.9,37.3,3.93,28.53-1.88,54.49-14.92,79.67ZM708.76,630.32c3.55-12.56,4.41-39.04-.79-43.95-6.13-5.78-35.02-4.53-38.55,16.37-1.28,7.57-8.9,8.64-13.63,11.51-23.92,23.94-49.65,97.64-31.01,110.08,27.55,18.39,73.28-56.11,83.99-94.01ZM727.92,603.07c4.5.73,6.17-5.3,5.79-7.75-.33-2.13-2.29-6.46-7.09-5.3-3.82.92-2.38,12.45,1.3,13.05Z"/>
        <path class="st3" d="M727.92,603.07c-3.68-.6-5.13-12.13-1.3-13.05,4.81-1.16,6.77,3.17,7.09,5.3.38,2.45-1.3,8.48-5.79,7.75Z"/>
      </g>
    </g>
  </g>
</svg>