<?xml version="1.0" encoding="UTF-8"?>
<svg id="Camada_1" xmlns="http://www.w3.org/2000/svg" version="1.1" viewBox="0 0 1900.8 1419.26">
  <!-- Generator: Adobe Illustrator 30.3.0, SVG Export Plug-In . SVG Version: 2.1.3 Build 182)  -->
  <defs>
    <style>
      .st0 {
        fill: #fefdfd;
      }

      .st1 {
        fill: #a6bc2f;
      }

      .st2 {
        fill: #0d120a;
      }
    </style>
  </defs>
  <circle class="st1" cx="273.13" cy="449.13" r="4.73"/>
  <path class="st1" d="M1525.86,506.78c-.18,1.05-2.53,1.6-4.22,1.17-14.74-59.05-40.72-111.96-70.2-166.83,35.67,49.12,56.32,107.21,74.43,165.66Z"/>
  <path class="st1" d="M1487.92,506.62c.72,2.14-5.84,2.92-6.35.65-9.3-41.79-28.14-79.07-42.45-120.31,24.93,36.97,35.14,79.08,48.79,119.66Z"/>
  <path class="st1" d="M354.74,510.57c3.98-27.54,13-55.5,27.5-81.98-8.33,26.96-16.62,53.05-27.5,81.98Z"/>
  <path class="st1" d="M411.9,350.06c-16.28,23.44-23.38,49.03-39.33,73.07,7.82-27.81,23.69-51.63,36.85-76.57,2.19-1.28,4.31.87,2.49,3.5Z"/>
  <path class="st1" d="M359.54,448.59l-22.21,70.58c.7-25.15,12.5-46.83,17.98-70.84.15-.64,2.75-1.49,4.23.26Z"/>
  <g>
    <path class="st1" d="M426.87,868.11c.08,2.05-.28,3.87-1.29,4.67-1.03.81-4.86.41-4.85-1.85l.78-120.07,25.85-.19c3.62-.03,6.13-.99,10.24,2.77l9.05-74.16,3.05.05-8.45,76.49c-2.83,4.26-10.56.69-13.8.98l-18.92,1.71c-2.95,37.25-3.16,72.73-1.65,109.59Z"/>
    <path class="st1" d="M390.19,768.17c-.79,7.04.51,9.07,3.34,14.89,2.65,5.44-2.22,13.32-8.08,13.94-4.99.52-10.49-3.42-11.44-9.43-.94-5.97,4.14-9.86,10.38-12.42l11.5-101.13c.22-1.95,3.26-1.95,3.84-1.26.58.69,1.67,3.13,1.35,4.81-5.69,29.99-7.41,59.63-10.89,90.61Z"/>
    <path class="st1" d="M437.32,663.71c-4.95-3.02-9.38-4.32-14.78-4.11-.42-1.89-.39-3.66-.02-5.2,21.7-1.97,41.3,11.49,50.02-3.63,3.85-6.67.58-18.16,5.37-19.77,2.05-.69,4.77.81,4.66,3.72l-1.68,43.72-14.05-6.1-6.15-8.27c-7.44-2.85-15.27-2.4-23.38-.36Z"/>
    <path class="st1" d="M393.57,835.19c-4.77-2.08-3.86-10.73.46-12.04,4.42-1.34,7.83,2.37,8.22,5.35.57,4.4-2.8,9.26-8.68,6.69Z"/>
    <rect class="st1" x="396.22" y="646.56" width="11.95" height="4.56" transform="translate(-270.2 1010.3) rotate(-86.47)"/>
    <g>
      <path class="st1" d="M267.04,553.02c-2.83,0-3.91-1.4-3.07-4.15l140.39-.58c3.28-3.84,8.5-7.78,13.29-6,3.43,1.28,8.09,5.39,6.83,10.85-.79,3.43-4.62,7.44-9.71,8.23-3.97.61-8.26-2.91-10.8-8.62l-136.92.26Z"/>
      <rect class="st1" x="315.83" y="614.03" width="234.98" height="5.5"/>
      <rect class="st1" x="310.27" y="584.71" width="240.75" height="3.7"/>
      <path class="st1" d="M551.11,558.65l-114.96-.08v-3.26s77.81.2,77.81.2c-.2-3.79.3-7.7,2.17-8.48,2.36-.98,5.42-1.03,8.12-.9,2.97.14,3.45,5.1,2.46,8.83l23.43.04c1.08.93,1.22,2.25.97,3.64Z"/>
      <circle class="st1" cx="286.24" cy="588.33" r="9.47"/>
    </g>
  </g>
  <path class="st1" d="M1457.06,496.68c-9.1-22.44-16.82-43.14-22.6-66.59,10.87,20.86,19.38,42.74,22.6,66.59Z"/>
  <g>
    <path class="st1" d="M1413.83,748.46c1.92,42.64.85,83.47-4.29,124.05-.76.64-2.94.72-3.63.49-1.05-.36-1.92-2.73-1.62-4.94,5.3-39.03,4.91-76.82,5.42-115.98l-2.82-86.23c-6.6-2.48-18.9-4.16-24.38.46-6.54,5.52-11.02,13.21-21.45,11.6l2.07-45.93c12.95-4.48,2.21,14.2,11.28,22.83,11.72,11.16,29.18-2.4,51,1.61.95.23,1.34,3.98.54,4.52-3.43,2.3-10.32.66-12.99,3.49-1.9,2.02-2.67,6.02-2.52,9.2l3.38,74.84Z"/>
    <path class="st1" d="M1444.34,699.67l3.13,73.45c.03.73-3.72.65-4.04-.28-.3-.86-.45-1.32-.52-3.29l-3.46-97.31c6.72,8.01,4.51,18.25,4.9,27.42Z"/>
    <circle class="st1" cx="1448.67" cy="787.64" r="10.28"/>
    <g>
      <rect class="st1" x="1407.05" y="499.82" width="5.67" height="234.63" transform="translate(792.03 2026.71) rotate(-89.97)"/>
      <rect class="st1" x="1291.79" y="584.71" width="242.6" height="3.7"/>
      <path class="st1" d="M1571.53,551.17l-127.84.35c-4.23.01-6.73.71-8.72,4.4-2.94,5.45-11.21,5.34-14.98,1.72-5.33-5.13-2.38-10.99,1.82-15.1,6.25-6.12,10.49,4.08,14.86,4.12l133.91,1.23c1.11.75,1.21,2.15.95,3.29Z"/>
      <path class="st1" d="M1407.37,554.17c.5,2.02.15,3.07-.03,3.48l-115.38-.62c8.01-7.35,17.09-2.33,25.88-3.36-.69-7.31,1.13-9.39,6.38-9.39,5.36,0,8.16,1.69,7.29,9.33l75.87.55Z"/>
      <circle class="st1" cx="1557.44" cy="588.04" r="9.6"/>
    </g>
    <path class="st1" d="M1383.3,767.09c-2.9,1.79-5.55-3.52-5.97-5.91-.54-3.04.15-7.6,4.05-8.74,3.26-.96,6.56,1.9,7.29,4.64.74,2.76-.79,7.2-5.37,10.02Z"/>
    <path class="st1" d="M1433.03,823.38c3.65-1.8,7.15,1.74,7.87,4.12.78,2.57-.1,6.83-3.03,7.91-3.3,1.21-6.68.02-7.8-2.75-1.11-2.75-.82-7.41,2.96-9.28Z"/>
  </g>
  <path class="st1" d="M1447.03,334.8c-7.44-6.85-12.59-15.91-17.72-24.36l1.62-1.26c6.52,5.89,10.49,14.18,15.71,21.41,1.01,1.4,1.49,3,.39,4.21Z"/>
  <circle class="st1" cx="340.08" cy="388.11" r="5.44"/>
  <circle class="st1" cx="294.19" cy="447.88" r="5.08"/>
  <circle class="st1" cx="1300.29" cy="1335.35" r="4.84"/>
  <circle class="st1" cx="307.99" cy="474.7" r="4.77"/>
  <circle class="st1" cx="600.25" cy="1295.2" r="4.64"/>
  <circle class="st1" cx="321.78" cy="459.68" r="3.97"/>
  <g>
    <path class="st1" d="M918.82,1241.05c1.73,14.57,2.09,29.73.17,44.46-4.4-3.97-6.23-9.26-11.05-9.41-24.9-.76-48.6-1.75-73.64-6.53-52.6-10.04-102.51-27.87-149.16-53.88l-28.89-17.57-32-24.6c17.51-4.62,23.52,17.94,40.05,12.99l2.32,9.17c57.31,35.26,120.56,59.85,187.88,67.76,16.81,1.98,33.63,4.85,49.55,1.77,9.56-1.85,11.59-16.66,14.77-24.15Z"/>
    <path class="st1" d="M801.95,1304.84c-49.49-14.26-99.18-29.36-142.39-58.99,47.46,22.57,93.16,43.62,143.97,55.04,6.63,1.49,10.51,4.67,17.84.77,8.34-4.43,18.25,1.36,25.47,6.01,2.29,1.48,10.09.52,9.38,5.19-.57,3.73-7.95,2.12-10.48,2.89-8.31,2.55-16.7,5.52-24.19.18-4.97-3.54-9.44-8.88-16.17-8.12l.29,25.86c.03,2.35,6.37,2.31,8.45,5.73-74.19-13.45-144.27-44.32-206.44-88.69l-19.6-12.89c-5.3.1-10.97,2.06-15.4-1.25-3.8-2.84-3-9.36-3.72-13.93l-21.49-17.9.81-2.22,17.96,13.6c8.11,6.14,16.69-2.62,22.66,5.79,1.72,2.43,2.77,6.82,1.05,11.79l41.39,28.51,6.46-13.1c2.99-6.05-9.33-9.86-6.01-19.54,1.47-4.27,5.4-8.04,10.91-6.58,4.73,1.26,8.91,3.99,10.45,7.18,2.12,4.41,2.98,11.3-1.94,14.15-2.19,1.27-7.45.92-8.35,4.68-1.42,5.9-3.52,9.21-11.42,13.2,30.62,20.38,63.12,36.96,98.18,49.84l71.71,21.71.62-28.9Z"/>
    <path class="st1" d="M927,1240.11c4.99,7.86,5.14,23,15.85,25.14,14.28,2.86,30.19-.23,45.36-1.76,74.84-7.55,159.51-42.19,216.52-90.68,4.1.96,8.12.22,10.94-2.87-1.79,2.79-2.77,7.55-5.3,9.61-74.56,60.8-177.17,96.19-273.76,96.29-3.93,2.82-4.98,7.18-10.55,9.28l.94-45.01Z"/>
    <path class="st1" d="M990.98,1198.35c-2.73-5.34-1.84-9.91-.68-15.6,50.49-7.46,99-23.8,142.72-50.99l26.65-.54c-49.31,36.13-108.09,55.33-168.68,67.13Z"/>
    <path class="st1" d="M853.65,1182.99c2.86,5.55,2.27,10.29,1.38,15.62-61.71-11.4-115.02-29.6-167.15-65.13l23.92-1.32c43.05,26.79,90.26,43.3,141.84,50.83Z"/>
    <path class="st1" d="M535.26,1168.77c-4.03-1.89-7.72-5.43-12.42-9.91l-43.33,37.78-24.81,23.38c.88,4.91,2.29,10.8-1.56,14.34-4.04,3.7-9.42,4.58-13.75,1.66-4.49-3.02-5.48-8.45-4.1-12.63,1.86-5.62,7.65-8.4,14.87-5.64l69.22-62.03-39.39-35.24-77.3,64.93c1.19,5.52,2.63,11.53-1.65,15.27-3.89,3.4-9.87,3.72-14.61.13-4.51-3.41-3.87-8.48-1.91-13.9,2.25-6.22,11.04-1.91,14.14-4.42l81.49-66.04,41.4,36.52,21.15-15.98c-2.88-2.41-3.52-7.01-.65-8.62,5.92,4.48,11.9,10.27,16.53,17.04-5.45,1.48-9.18-2.05-12.93-5.44-8.25,4.5-13.72,10.42-20.04,16.82,4.98,3.84,7.76,6.55,10.17,10.27.31.48.83.83,1.4,1.06.42.16.77.55.97,1,.17.38.52.72.92.89,1.43.58.94,2.33-.49,2.26l-1.62-1.86-1.16-1.04-.55-.6Z"/>
    <path class="st1" d="M918.69,1177c-1.22-23.37-15.75-39.26-9.06-42.21,2.3-1.01,4.33.29,5.62,2.59l7.13,12.74c2.62-4.9,3.29-11.88,7.43-15.76,2.24-2.1,4.99.95,5.53,2.53.93,2.7-.76,5.48-2.01,8.37-6.98,16.14-6.88,33.62-7.93,51.38-.77,12.99,4.96,26.78-3.62,39.68l-3.09-59.32Z"/>
    <path class="st1" d="M1043.09,1328.77l-12.71-14.7c7.08-2.93,8.8-7.73,7.54-14.1,2.77-3.73,7.08.17,9.59-.34,48.1-9.81,90.35-31.27,134.17-52.57-40.64,29.95-88.56,43.33-135.37,58-1.62,3.21,2.62,8.12,3.59,10.22-.23,4.44-2.36,7.38-6.81,13.49Z"/>
    <path class="st1" d="M1037.49,1338.16c6.63,9.49-157.82,20.01-199.16,4.83,65.05,4.31,130.07,8.02,194.83-4.97,1.82-.37,3.82-.58,4.33.14Z"/>
    <path class="st1" d="M1212.31,1258.83c.9,1.17.88,3.1.75,3.99-.13.89-3.96,1.78-4.57,1.09l-22.74-25.64,33.79-25.73c3.79.96,6.42,5.78,6.81,8.76l-27.65,19.8,13.62,17.73Z"/>
    <path class="st1" d="M925.02,1323.76c-2.6-2.98-2.95-10.25-.28-12.77,4.43-4.2,9.76.53,13.9.93,28.96,2.8,55.86-5.36,85.56-4.48-28.27,9.18-56.14,6.22-84.55,10.48l-5.58,6.93c-1.24,1.55-6.73,1.56-9.04-1.1Z"/>
    <path class="st1" d="M1081.18,1328.8c-17.08,9.48-29.25,7.18-18.66,3.38,6.31-1.78,11.28-5.11,18.66-3.38Z"/>
    <path class="st1" d="M1269.46,1230.76c-.05,9.27-8.31,6.89-12.31,9.73-25.67,18.22-49.02,36.95-77.51,50.63-31.7,15.22-63.12,31.53-98.16,37.3,38.62-15.59,74.79-27.08,109.88-47.65,21.45-12.58,43.69-26.6,61.31-43.31-3.33-11.64-2.64-22.95,6.26-31.77l50.59-50.12c-7.07-6.12-13.51-12.35-21.75-15.24-3.35.79-7.97,5.54-12.76,3.23l11.79-13.62c2.12-2.45,5.18-3.11,8.25-2.04l-3.37,8.88,21.22,16.04,40.36-38.29,111.44,94.92-112.4-89.81-36.29,35.63,50.53,38.91c5.78-1.75,13.73-3.79,17.24,2.95,2.11,4.06,2.92,10.52-3.04,14.58-4.2,2.86-11.83,2.28-15.84-3.86-1.96-3-1.8-7.38-2.7-11.37l-29.06-23.26c-6.7-5.36-12.97-10.59-20.68-14.23l-50.97,49.27c-3,2.9-5.4,5.55-6.48,10.68l10.06,2.01,4.09,2.84,6.25-1.38c-1.96,2.18-5.92,5.77-5.94,8.35Z"/>
  </g>
  <rect class="st1" x="1449.47" y="338.6" width="1.31" height="1.31" transform="translate(184.72 1124.57) rotate(-44.99)"/>
  <path class="st1" d="M444.64,188.27l11.56-.93c2.94-.24,5.47,1.36,6.92,2.74,4.35,4.16-2.65,10.97,6.87,18.33l44.03,34.02c8.87-6.48,17.28-13.62,27.97-16.42,9.56-2.51,18.31,3.23,24.24,10.71,7.1-.06,12.28,1.44,15.6,7.76l38.99-28.96c2.41-1.79,4.97-9.52,8.55-9.07,10.55,1.34,13.47-6.06,20.06-10.52,51.14-34.62,124.61-58.47,186.68-66.4,4.23-4.7,9.76-4.61,14.88-1.35,21.03-1.7,40.75-5.76,62.06-2.42l-61.94,6.33c-3.46,3.61-7.82,5.82-13.22,3.2-60.52,8.19-117.24,26.93-171.12,56.08,6.51,4.71,4.48,11.94,6.73,16.85,6.47,14.07,18.22,23.84,29.94,35.92,57.99-28.32,119.03-41.08,182.33-43.05-12.51-6.11-23.24-.43-34.99-2.52l49.89-5.71,3.49,2.42c3.37,2.34,11.58-10.53,14.64-24.28,1.21,7.77.36,15-.53,21.46-1.95,14.12-11.22,20.85-24.96,21.01-71.28.81-139.65,17.97-202.09,51.84-14.7,7.98-28.33,15.25-45.28,18.16,15.83-16.38,33.01-26.15,51.41-37.31-10.32-12.78-19.37-24.69-31.6-33.88-3.31-2.49-12.16,3.32-20.72-6.6l-48.14,32.34c-5.04,3.38-12.38,6.85-15.84,11.29-4.76,6.27-7.26,12.85-17.3,10.1l-13.44,13.22,17.04,16.26c.02-.13-.69,1.4-.64,1.33l-20.75-13.85c-5.95,6.02-10.44,13.94-17.99,14.96,3.81-7.94,10.49-10.84,16.03-16.93l-30.65-27.01c-13.32,10.87-24.71,22.89-36.59,34.37l32.32,25.45-2.12,1.9-89.66-67.24c-4.36,1.06-8.9,3.27-12.26,2.6-5.62-1.13-4.99-7.94-8.52-10.71l-39.36-30.88c-.85-1.58,1.71-4.17,3.04-3.12,12.05,9.58,37.98,28.53,41.47,27.46,2.73-.83,4.38-3.46,5.58-7.87,4.4,7.2,10.63,9.22,11.94,19.33l54.75,41.36,36.4-34.81-48.19-39.04c-4.06.65-8.88,2.78-12.11.71-7.07-4.54-5.3-9.74-6.43-17.42l-1.19-.61-2.67-1.41-.94-1.14-2.55-2.39-1.18-.77c-2.28-1.5-4.89-2.73-6.45-5.94,4.52-.19,5.95,2.54,7.72,4.56l.96,1.1,2.56,2.47c.32.31.77.47,1.19.67l2.72,1.3c.39.19.7.57.86,1ZM901.2,198.72c-2.34-1.94-8.46-1.64-13.16-.45.03.1.34.65.97,1.06,3.97.03,8.09.64,12.19-.61ZM561.88,255.96c-5.16-5.88-4.02-12.35.79-17.66-6.18-9.46-17.63-11.91-27.05-6.28-6.73,4.03-13.26,7.52-18.52,13.08l30.13,23.86c6.54-2.88,10.1-7.64,14.65-13Z"/>
  <path class="st1" d="M1009.45,129.94c65.57,10.48,128,31.14,183.82,65.95-.88-.55,5.6,9.64,28.85,19.02,4.8,7.43,10.69,10.41,16.27,18.1l-22.72-11.83c-6.13-3.19-11.14-14.81-20.35-14.22-9.11,7.83-19.77,2.66-22.88,6.38l-27.39,32.75c17.72,11.44,34.45,20.24,49.4,35.64-9.09-2.75-18.88-3.13-27.34-8-66.71-38.41-140.38-59.38-217.88-59.93-11.01-.08-20.62-5.15-22.11-16.32l-3.21-24.02-3.63-6.04-1.65-48.52c-2.65-2.99-8-6.24-7.65-11.23.31-4.48,4.88-7.51,8.3-10.43l.25-43.59c-4.18-2.6-7.79-5.7-7.05-10.75.69-4.73,3.63-8.05,9.71-7.98,3.91.04,6.77,2.82,9.05,6.75,2.86,4.94-4.48,8.52-5.96,11.76-1.73,14.28-2.65,29.58.31,43.59.84,3.95,7.61,6.3,7.5,10.63-.14,5.58-5.09,8.64-8.75,11.83l.34,46.34c.05,7.03,5.03,23.73,13.03,29.41,1.21.86,3.54-2.41,5.35-2.2l47.11,5.49c-11.81,1.47-22.94-2.91-32.92,2.39,67.83,4.09,115.7,14.25,175.94,40.74,3.42,1.5,7.85,1.9,10.57-1.54,8.35-10.55,19.23-19.62,24.79-32.19,2.11-4.76-.29-11.61,5.36-16.88-52.36-27.49-107.95-47.59-166.81-55.02-6.01-.76-6.62,1.65-12.95-2.16-9.49-5.71-24.89-2.68-35.77-5.01-9.87-2.12-18.9,1.62-28.53-3.29,22.9-2.94,43.53,1.14,65.52,2.87,4.7-3.04,9.19-3.32,14.06,1.5ZM951.17,198.65c-1.64-1.73-6.34-1.71-9.43-.29.01.03.43.48.98.97,2.71.16,5.66.59,8.45-.67Z"/>
  <path class="st1" d="M1334.75,159.71l-30.16,26.76,24.83,24.69c-.15.2-1.28.49-2.29.5l-26.12-21.44-51.41,46.71c-1.49,1.35-1.56,5.8-5.1,5-3.02-.68-3.51-2-4.21-4.41-1.59-5.41,4.05-3.46,5.94-5.11l51.2-44.91c-22.57-20.01-46.64-34.54-72.26-49.3-48.54-27.95-100.24-43.47-152.98-61.13,79.06,15.5,152.11,51.25,216.1,97.54,5.9,4.27,11.52,11.3,18.88,4.73l59.81-53.42c-.12-3.44-1.52-8.8.27-11.15,4.19-5.51,11.72-2.49,21.61-5.92-3.09,5.13-4.73,10.15-5.67,15.17-1.28,6.87-10.55,2.29-13.11,4.55l-35.31,31.13Z"/>
  <path class="st1" d="M972.89,249.29c-52.18-4.6-103.35-4.13-154.52,7.64-33.31,7.66-64.38,17.68-94.15,33.97-1.66.91-4-1.05-3.24-3.29,77.26-40.58,166.58-51.65,253.3-42.2,51.45,5.6,104.07,16.42,148.46,44.8-50.31-20.43-96.93-36.24-149.86-40.91Z"/>
  <path class="st1" d="M1009.2,271.07c-80.46-14.31-160.44-10.7-236.27,16.47-10.96,3.93-19.77,11.6-32.75,10.17,71.16-36.84,169.62-46.52,248.73-34.1,39.33,6.18,77.75,14.36,113.63,34.91-31.92-8.81-59.58-21.45-93.34-27.45Z"/>
  <path class="st1" d="M738.89,86.38c-71.15,18.59-130.91,53.59-193.21,93.92,64.4-52.18,144.29-88.17,227.68-106.13-9.75,6.82-21.63,8.85-34.47,12.21Z"/>
  <path class="st1" d="M667.31,152.6c-4.21-1.46-9.06-9.63-7.93-12.65.46-1.23,3.78-1.14,5.62.44,42.44-21.15,86.77-35.73,133.74-44.36,1.85-2.93,4.77-5.29,6.8-4.94,3.19.56,4.65,3.04,4.87,5.55.25,2.91-2.23,6.86-5.25,5.61-6.86-2.85-11.4-1.74-18.16-.27-41.63,9.08-81.51,21.86-119.78,41.38-2.32,1.18-.38,5.99.09,9.24Z"/>
  <path class="st1" d="M1183.15,140.28c.63,4.66-2.21,10.58-8.3,13,.8-2.78,1.89-8.59-1.12-10.07-41.77-20.47-85.8-33.59-130.46-43.42-2.19,2.76-5.32,3.48-7.35,2.79-1.61-.55-4.31-2.72-4.66-5.7-.32-2.72,3.97-4.32,6.18-4.82,2.69-.61,5.28,3.68,8.17,4.33,42.12,9.54,82.93,21.6,122.06,40.03,4.61,2.17,6.68,5.09,15.49,3.85Z"/>
  <path class="st1" d="M1389.16,295.54c-3.52,2.87-6.5,6.29-11.01,4.79l85.26-72.09,2.8-9.94,16.82-5.25-6.69,15.32c-8,.22-13.01,4.5-18.64,9.27l-68.54,57.9Z"/>
  <path class="st1" d="M572.25,202.79c-2.49,1.87-5.14,1.58-6.09.55-1.2-1.31-1.07-4.96,1.4-5.99,19.53-13.84,38.57-26.62,59.47-38.65.81-2.32,4.31-6.3,6.56-4.85,3.9,2.52,5.66,7.38,6.28,12.94-6.31-4.46-9.41-3.68-14.44-.42-18.09,11.7-35.44,23.07-53.18,36.42Z"/>
  <path class="st1" d="M1269.58,198.3c-20.23-9.89-36.96-26.16-59.26-35.39-3.37,1.59-5.23,4.37-9.63,4.93,2.13-9.28,5.79-16.34,10.28-14.44,1.27.54,2.5,2.93,2.46,5.61,18.18,13.15,38.95,21.4,56.15,39.29Z"/>
  <path class="st1" d="M1317.99,250.79c-.02,6.25-13.04,4.04-16.03-.26l-5.28-3.19c-1.25-.75-1.05-5.54,1.75-6.69,5.33-2.19,19.59,2.37,19.56,10.14Z"/>
  <path class="st1" d="M1373.94,257.14c13.61,7.69,23.68,23.18,17.33,21.13-1.72-.55-15.58-13.98-17.33-21.13Z"/>
  <path class="st1" d="M1071.34,76.37c-1.95,1.03-4.12,1.51-7.55.03,1.18-.96,3.37-2.4,7.55-.03Z"/>
  <path class="st1" d="M1372.17,255.39l-10.15-8.63-22.08,19.82-3.94,9.53c-1.57,3.8-8.41,1.17-12.15,3.44l-11.5,6.98,8.3-10.93c-4.92-8.91.44-13.67,4.45-20.46,10.24-17.35,5.39-42.28,20.22-37.69,10.97,3.4,1.43,15.16,17.56,24.24l105.58-93.57c2.04-1.8,4.64,1.2,2.7,3.09l-105.61,92.87c1.46,4.03,4.33,6.37,7.08,9.12l1.69,1.69c1.22,1.22.89,2.89-.34,3.37-.91-2.12-1.71-2.81-1.79-2.86ZM1339.33,261.39l19.63-16.25c-3.58-8.5-10.8-15.35-21.13-12.7l-6.29,24.61c-.68,2.68,5.42,6.3,7.79,4.34Z"/>
  <path class="st0" d="M901.2,198.72c-4.1,1.25-8.22.64-12.19.61-.64-.41-.95-.96-.97-1.06,4.71-1.19,10.83-1.49,13.16.45Z"/>
  <path class="st0" d="M951.17,198.65c-2.79,1.27-5.74.83-8.45.67-.55-.48-.97-.93-.98-.97,3.09-1.42,7.79-1.44,9.43.29Z"/>
  <g>
    <path class="st2" d="M1052.7,883.82l-17.17-19.5c-31.81,29.72-89.72,31.89-114.76-3.15l-23.13-32.36-39.79.19-10.08,56.37-173.75,1.37-10.84-12.8c-18.86,12.66-39.9,13.23-62.17,13.25l-56.1.07-20.37-23.04,28.53-166.29,73.88-1.18c21.93-.35,39.64,8.66,51.91,29.09l4.98-29.61,109.8-.11c4.43,0,7.57-.67,11.5-.69l106.23-.74,13.63,15.37c26.36-20.21,60.26-25.57,89.94-11.19,15.59,7.55,25.38,20.72,36.5,35.56l6.93-39.72,66.76-.7c27.4-.29,41.19,10.69,58.41,31.9l5.08-31.42,109.18-.34c6.47,8.34,16.32,16.5,20.36,26.57l-5.41,44.15-10.2,1.76-8.39,55.94,8.37,12.39-7.55,48.07-160.71.38-14.4-17.36c-3.3-3.98-4.82-7.01-7.4-12.01l-5.84,29.53-53.91.25ZM1006.34,832.93c38.39-32.24,41.22-100.63,8.88-121.34-31.85-20.39-72.35-11.21-95.41,18.04-29.88,37.89-27.86,97.01,9.13,114.04,25.97,11.96,54.35,8.62,77.4-10.74ZM883.6,763.05l-51.21.46,5.46-30.5,57.72-1.4,4.85-27.67-92.27.95-24.78,143.98,34.34-.32,9.79-57.08,52.03-.05,4.07-28.36ZM1122.19,847.55l33.97-.66-22.34-54.65c20.72-8.69,34.44-25.79,34.07-48.26,2.31-20.27-11.8-39.31-32.79-39.52l-68.45-.68-23.53,144.01h33.42s8.54-51,8.54-51c5.95-1.32,11.27-.97,17.22-.11l19.88,50.87ZM1267.89,786.75l3.94-26.77-49.75-.26,4.17-28.09,57.71-.54,4.2-27.29-91.99.17-23.18,143.72,93.9-.39,4.57-27.84-59.25-.59,4.8-31.43,50.88-.7ZM764.5,788.87l4.51-26.94-51.34.35,4.84-29.01,58.1-.59,4.56-27.88-91.38.73-7.79,40.18-17.93,104.75,96.57-1.24,4.34-28.55-60.96.48,5.22-31.4,51.26-.88ZM640.56,773.99c19.77-12.17,26.75-31.46,20.31-50.76-6.16-10.94-17.49-16.76-30.2-16.74l-69.07.14-25.34,144.49,74.02-.91c24.81-.3,44.95-18.95,47.77-43.23,1.69-14.52-5.51-25.36-17.49-32.98Z"/>
    <path class="st1" d="M1006.34,832.93c-23.05,19.36-51.42,22.7-77.4,10.74-36.99-17.03-39.01-76.15-9.13-114.04,23.06-29.25,63.56-38.43,95.41-18.04,32.34,20.71,29.5,89.1-8.88,121.34ZM957.15,822.55c33.3,3,52.77-38.75,45.2-72.21-3.65-16.1-18.53-24.89-34.86-20.98-24.77,5.94-36.86,40.09-33.7,66.95,1.46,12.44,10.03,25.03,23.37,26.23Z"/>
    <polygon class="st1" points="764.5 788.87 713.24 789.75 708.02 821.15 768.98 820.67 764.63 849.21 668.07 850.46 686 745.71 693.79 705.53 785.17 704.8 780.61 732.67 722.51 733.27 717.67 762.27 769.01 761.92 764.5 788.87"/>
    <polygon class="st1" points="1267.89 786.75 1217.01 787.45 1212.21 818.88 1271.46 819.47 1266.89 847.31 1172.99 847.7 1196.17 703.98 1288.17 703.81 1283.97 731.1 1226.26 731.64 1222.08 759.73 1271.83 759.98 1267.89 786.75"/>
    <polygon class="st1" points="883.6 763.05 879.53 791.41 827.49 791.46 817.71 848.54 783.37 848.86 808.15 704.88 900.42 703.93 895.57 731.6 837.84 733.01 832.39 763.51 883.6 763.05"/>
    <g>
      <path class="st1" d="M640.56,773.99c11.98,7.63,19.18,18.47,17.49,32.98-2.83,24.29-22.97,42.93-47.77,43.23l-74.02.91,25.34-144.49,69.07-.14c12.71-.03,24.04,5.8,30.2,16.74,6.44,19.3-.54,38.59-20.31,50.76ZM629.77,742.19c-1.87-4.99-5.85-8.53-10.58-8.52l-28.39.11-5.82,30.54,25.26-.31c11.91-.14,20.75-9.42,19.53-21.82ZM620.16,794.33c-3.1-2.96-7.95-3.82-11.65-3.83l-27.91-.03-4.92,32.98,31.65-.86c7.03-.19,12.87-4.25,15.26-9.94,2.33-5.56,3.23-12.92-2.42-18.31Z"/>
      <path class="st2" d="M620.16,794.33c5.65,5.4,4.75,12.75,2.42,18.31-2.39,5.69-8.23,9.75-15.26,9.94l-31.65.86,4.92-32.98,27.91.03c3.7,0,8.55.87,11.65,3.83Z"/>
      <path class="st2" d="M629.77,742.19c1.22,12.4-7.62,21.68-19.53,21.82l-25.26.31,5.82-30.54,28.39-.11c4.72-.02,8.71,3.52,10.58,8.52Z"/>
    </g>
    <g>
      <path class="st1" d="M1122.19,847.55l-19.88-50.87c-5.95-.86-11.27-1.21-17.22.11l-8.54,51h-33.42s23.53-144.01,23.53-144.01l68.45.68c20.98.21,35.09,19.25,32.79,39.52.37,22.47-13.35,39.58-34.07,48.26l22.34,54.65-33.97.66ZM1135.83,745.21c-.49-7.82-6.02-13.23-12.91-13.39l-26.75-.62-5.96,36.94,27.41-.19c11.25-.08,18.97-10.77,18.22-22.74Z"/>
      <path class="st2" d="M1135.83,745.21c.75,11.97-6.97,22.66-18.22,22.74l-27.41.19,5.96-36.94,26.75.62c6.89.16,12.42,5.57,12.91,13.39Z"/>
    </g>
    <path class="st2" d="M957.15,822.55c-13.34-1.2-21.9-13.79-23.37-26.23-3.16-26.86,8.93-61.02,33.7-66.95,16.34-3.92,31.22,4.87,34.86,20.98,7.58,33.46-11.89,75.21-45.2,72.21Z"/>
  </g>
  <path class="st2" d="M591.81,659.7l-20.5-29.59,32.2-29.76c-13.14-14.32-20.38-33.38-12.93-52.29,8.51-21.62,28.61-34.42,51.32-36.82,20.93-2.21,41.49,2.01,56.77,16.5l3.74-14.96,116.61-.28,13.64,15.94,9.29-16.48,48.04.05,20.69,27.91,7.33,29.43,9.72-57.01,67.74-.15c14.68-.03,26.98,6.53,37.16,17.88l3.79-18.01,115.93-.35,7.89,9.82c10.46-7.82,21.67-9.02,34.17-12.46-17.22-2.01-30.95-6.35-42.39-17.99l-16.71-21.43-5.9,35.04-51.87.43-10.52-11.12c-26.64,20.63-71.34,21.16-95.64-4.54l-4.72,15.28-52.07.29c-2.9-4.62-5.35-8.55-9.73-10.94-17.22,14.71-46.19,18.53-66.33,12.21-16.44-5.16-26.93-18.22-37.12-31.77l-6.71,30.84-145.63,1.21c-9.15-6.63-15.58-15.02-21.85-24.66l-5.3,24.5-50.19.18-18.14-21,4.2-26.29c-14.08,5.98-26.34,6.54-41.26,5.5l-8.62,41.82-49.01.08-19.46-20.5,27.46-149.13,61.93-.47c19.04-.14,33.96,8.11,45.74,23.25l5.06-23.51,65.83-.39c18.01-.11,32.87,7.22,44.72,22.66,3.72-7.7,3.57-14.49,5.48-22.5,15.27-1.87,30.35-1.19,46.09-1.02l56.01.6,11.78,14.47c24.24-18.4,55.83-24.63,83.91-11.71,9.73,4.48,15.71,12.48,24,19.33l4.78-23,48.69-.08c3.08,4.43,5.2,8.61,9.97,11.5,24.53-17.33,57.04-19.41,82.78-3.96l16.74,13.72,4.19-21.27,46.83-.75,14.38,17.1c28.12-25.38,78.13-27.04,101.59-1.65l15.87,17.17,5.64-32.84,47.43-.05,27.07,37.05,7.01-37.23,48.76.32,20.6,27.36-24.33,143.72-46.3.12-16.19-18.81-11.29-21.14-7.06,39.58-49.78.1c-4.29-5.98-8.28-10.64-13.71-15.38-13.17,11.09-27.11,16.46-43.4,20.32,33.49,3.81,49.14,26.15,65.99,52.2l-27.04,24.55c6.41,7.28,13.47,13.95,16.7,22.78,10.89,29.71-4.97,61.3-34.53,71.87-17.65,6.31-36.18,7.25-54.3,2.34-14.53-3.94-24.94-13.68-34.33-24.88l-16.41-19.56-7.19,43.89-51.19.44-18.93-21.6,6.72-52.07c-7.33,8.1-13.17,15.03-22.03,20.07l14.78,39.69c1.6,4.31,2.99,8.22,2.67,13.48l-51.68.42-19.84-23.38-5.33,23.63-88.55-.38-15.33-19.31c-3.37-2.83-14.03-2.49-18.11-.52l-10.16,20.16-110.1,1.01-12.61-15.63c-3.14-3.89-4.39-6.43-5.18-12.55-12.38,20.97-34.76,30.91-58.75,32.03-24.46,1.14-46.85-8-61.18-28.68ZM821,430.49c-4.04-17.16-.17-34.57,8.83-48.35,8.86-13.57,24.51-20.49,39.78-13.9,7.4,3.19,11.08,11.42,14,18.47l25.19-13.78c-2.75-12.27-11.19-23.31-23.51-28.07-28.06-10.85-59.08-1.25-78.3,21.7-14.16,16.92-20.65,38.58-18.98,60.54,2.14,28.26,23.93,47.74,51.85,48.4,26,.62,48.82-11.6,60.08-34.72l-22.45-12.33c-6.46,9.57-13.23,17.28-23.67,20.14-13.99,3.83-29.15-2.54-32.82-18.1ZM1060.18,436.66c3.65-17.14-4.09-32.25-20.27-37.54l-31.67-10.35c-3.92-1.28-6.69-5.92-6.88-8.88-.22-3.45,2.05-7.58,5.74-9.91,13.51-8.51,30.71-3.53,40.15,10.71l23.54-17.75c-5.63-9.81-14.49-13.41-23.26-17.55-24.85-11.72-65.36-.68-74.33,27.69-5.49,17.38.25,35.51,16.98,41.03l30.52,10.06c4.51,1.49,8.53,4.5,9.3,8.28.82,4.02-.7,9.06-4.72,11.77-16.32,11.02-37.3,4.47-47.12-13.11l-22.56,16.97c6.22,13.92,19.22,22.87,34.12,25.84,30.87,6.16,63.94-6.61,70.47-37.25ZM1183.57,475.06c25.92-1.4,47-15.43,59.07-38.2,10.53-19.87,12.31-45.78,4.97-67.37-6.2-18.23-24-27.28-41.73-28.8-37.03-3.17-69.48,20.21-77.57,56.48-2.76,12.37-4.1,24.62-1.13,37,6.24,26.03,28.49,42.39,56.4,40.89ZM938.64,471.68l21.99-128.62-30.44.26-21.49,129.15,29.94-.78ZM1106.64,435.4l15.71-92.95-30.59.79-20.88,129.6,29.52-.19,6.25-37.25ZM1366.34,471.43l21.64-129.16-30.11-.36-13.4,79.38-37.56-78.82-29.64.97-21.13,128.43,29.56-.04,13.27-77.68,37.44,77.55,29.91-.29ZM618.29,430.34l17.37,43.87,31.61-.68-20.62-49.43c21.16-5.86,32.03-23.22,33.69-43.35,1.6-19.5-10.95-35.84-30.87-35.72l-61.92.38c-1.09,10.83-4,20.23-5.8,30.73l-16.7,97.47,30.07-.02,8-44.31c3.64-1.31,13.65-2.84,15.19,1.04ZM769.06,419.56l3.19-24.38-46.45-.4,4.62-24.97c18.34-1.77,35.13-.31,52.97-.7l4-25.61-84.19.38-22.39,129.88,86.76-.26,4.17-25.67-55.18.36,4.87-27.74,47.63-.88ZM521.54,430.17c26.14-3.06,44.32-23.71,43.56-49.32,1.68-18.67-11.82-34.76-30.9-34.75l-59.93.03-23.41,127.95,30.18.08,8.2-43.4,32.31-.59ZM686.22,621.68c6.86-18.25-.58-37.69-19.49-43.72l-30.52-9.73c-4.28-1.37-7.18-5.22-7.34-8.69-.13-2.96,1.02-7.48,4.21-9.63,13.41-9.02,31.7-4.96,40.52,10.14l22.55-18.35c-8.95-14.8-24.82-20.74-41.65-21.31-20.74-.7-41.44,6.68-51.99,24.53-10.94,18.5-4.65,39.42,14.54,47.96l30.54,9.92c5.31,1.72,9.81,5.93,9.99,10.61.18,4.47-2.1,9.79-6.54,12.09-17.02,8.85-35.69,2.13-45.52-14.54l-21.32,19c4.36,9.77,12.85,16.69,23.19,20.59,28.03,10.58,67,2.52,78.81-28.87ZM1087.49,649.32l17.62-102.65,32.8-.64,4.23-25.86-97.5.92c-2.34,8.65-3.3,17.24-3.61,26.42h33.3s-17.36,102.7-17.36,102.7c10.09.18,20.33,1.49,30.52-.88ZM1234.01,620.64c6.13-18.22-.11-36.55-17.45-42.43l-30.11-10.22c-5.52-1.87-9.61-5.19-9.83-10.17-.21-4.71,2.23-8.63,7.15-10.98,14.02-6.69,29.23-.84,38.49,11.5l21.98-18.15c-16.26-23.14-52.88-26.22-76.28-13.02-17.18,9.7-26.55,29.04-19.86,47.47,3.74,10.31,13.55,16.09,23.22,19.37l24.84,8.44c4.81,1.63,8.53,5.05,8.92,9.34.36,3.95-1.33,9.85-5.57,12.24-16.13,9.12-35.57,2.93-45.24-14.2l-23.41,17.97c12.28,19.82,34.17,27.4,57.01,25.09,20.57-2.08,39.24-11.73,46.14-32.25ZM765.18,580.63l4.9-32.83,33.59-.65,4.95-25.93-97.85.59-4.44,26.14,33.82.09-17.15,103.34,29.2-.56,12.97-70.19ZM875.19,651.16l28.55-.67-16.43-92.46-6.32-36.24-33.61.15-65.82,128.73h31.15s11.54-22.41,11.54-22.41l46.2-.49,4.75,23.39ZM986.24,651.2l29.83-1.21-20.09-49.19c20.88-5.85,33.07-24.58,32.1-45.47.94-19.32-13.27-33.85-32.72-33.74l-59.85.34-21.06,128.56,30.17-.04,8.11-44.98c5.74-1.12,10.78-1.12,15.55.67l17.95,45.07ZM724.6,585.22c-7.19,1.19-10.99-.23-14.58-4.53-4.06,1.23-7.26,3.56-10.76,6.9,8.19,8.98,15.77,16.92,19.67,29.37l5.67-31.75ZM1152.05,599.08l-14.56-17.95-6.08,34.4,20.64-16.45Z"/>
  <path class="st1" d="M1234.01,620.64c-6.9,20.52-25.57,30.17-46.14,32.25-22.84,2.31-44.73-5.28-57.01-25.09l23.41-17.97c9.67,17.13,29.11,23.32,45.24,14.2,4.23-2.39,5.93-8.29,5.57-12.24-.39-4.28-4.12-7.7-8.92-9.34l-24.84-8.44c-9.67-3.28-19.48-9.06-23.22-19.37-6.69-18.43,2.67-37.77,19.86-47.47,23.4-13.21,60.03-10.12,76.28,13.02l-21.98,18.15c-9.25-12.34-24.46-18.19-38.49-11.5-4.93,2.35-7.36,6.27-7.15,10.98.22,4.98,4.31,8.3,9.83,10.17l30.11,10.22c17.33,5.88,23.57,24.21,17.45,42.43Z"/>
  <polygon class="st1" points="765.18 580.63 752.21 650.82 723.01 651.38 740.15 548.04 706.34 547.96 710.77 521.81 808.63 521.22 803.67 547.15 770.08 547.8 765.18 580.63"/>
  <path class="st1" d="M686.22,621.68c-11.8,31.39-50.78,39.45-78.81,28.87-10.34-3.9-18.84-10.82-23.19-20.59l21.32-19c9.82,16.67,28.49,23.39,45.52,14.54,4.44-2.31,6.72-7.62,6.54-12.09-.18-4.67-4.69-8.88-9.99-10.61l-30.54-9.92c-19.19-8.55-25.48-29.47-14.54-47.96,10.56-17.85,31.26-25.22,51.99-24.53,16.83.56,32.7,6.5,41.65,21.31l-22.55,18.35c-8.83-15.1-27.12-19.16-40.52-10.14-3.2,2.15-4.35,6.67-4.21,9.63.16,3.47,3.05,7.32,7.34,8.69l30.52,9.73c18.92,6.03,26.36,25.47,19.49,43.72Z"/>
  <path class="st1" d="M1087.49,649.32c-10.19,2.37-20.43,1.06-30.52.88l17.36-102.7h-33.3c.31-9.19,1.27-17.78,3.61-26.43l97.5-.92-4.23,25.86-32.8.64-17.62,102.65Z"/>
  <g>
    <path class="st1" d="M986.24,651.2l-17.95-45.07c-4.78-1.78-9.81-1.79-15.55-.67l-8.11,44.98-30.17.04,21.06-128.56,59.85-.34c19.45-.11,33.67,14.43,32.72,33.74.97,20.89-11.22,39.62-32.1,45.47l20.09,49.19-29.83,1.21ZM996.77,552.84c-2.74-4.54-8-6.21-12.43-6.23l-22.05-.07-5.2,32.82,23.72.27c6.54.07,12.34-4.08,15.08-8.56,3.16-5.17,4.54-12.18.89-18.24Z"/>
    <path class="st2" d="M996.77,552.84c3.65,6.06,2.28,13.07-.89,18.24-2.74,4.47-8.53,8.63-15.08,8.56l-23.72-.27,5.2-32.82,22.05.07c4.44.01,9.7,1.68,12.43,6.23Z"/>
  </g>
  <g>
    <path class="st1" d="M875.19,651.16l-4.75-23.39-46.2.49-11.54,22.42h-31.15s65.82-128.74,65.82-128.74l33.61-.15,6.32,36.24,16.43,92.46-28.55.67ZM866.62,602.64l-7.81-51.02-23.29,51.33,31.11-.31Z"/>
    <polygon class="st2" points="866.62 602.64 835.52 602.95 858.81 551.62 866.62 602.64"/>
  </g>
  <g>
    <polygon class="st1" points="1366.34 471.43 1336.43 471.72 1298.98 394.17 1285.71 471.85 1256.14 471.88 1277.28 343.45 1306.91 342.49 1344.48 421.3 1357.87 341.92 1387.98 342.28 1366.34 471.43"/>
    <path class="st1" d="M769.06,419.56l-47.63.88-4.87,27.74,55.18-.36-4.17,25.67-86.76.26,22.39-129.88,84.19-.38-4,25.61c-17.84.39-34.63-1.06-52.97.7l-4.62,24.97,46.45.4-3.19,24.38Z"/>
    <path class="st1" d="M1060.18,436.66c-6.53,30.64-39.6,43.41-70.47,37.25-14.9-2.97-27.9-11.92-34.12-25.84l22.56-16.97c9.82,17.58,30.8,24.13,47.12,13.11,4.02-2.72,5.54-7.76,4.72-11.77-.77-3.78-4.78-6.79-9.3-8.28l-30.52-10.06c-16.73-5.51-22.47-23.65-16.98-41.03,8.96-28.36,49.48-39.4,74.33-27.69,8.77,4.14,17.63,7.74,23.26,17.55l-23.54,17.75c-9.44-14.24-26.64-19.22-40.15-10.71-3.69,2.33-5.96,6.46-5.74,9.91.19,2.96,2.96,7.6,6.88,8.88l31.67,10.35c16.18,5.29,23.92,20.4,20.27,37.54Z"/>
    <path class="st1" d="M821,430.49c3.66,15.56,18.82,21.93,32.82,18.1,10.44-2.86,17.21-10.57,23.67-20.14l22.45,12.33c-11.25,23.12-34.07,35.34-60.08,34.72-27.92-.66-49.71-20.14-51.85-48.4-1.67-21.96,4.82-43.62,18.98-60.54,19.22-22.95,50.24-32.55,78.3-21.7,12.33,4.76,20.76,15.8,23.51,28.07l-25.19,13.78c-2.92-7.04-6.6-15.27-14-18.47-15.28-6.59-30.92.33-39.78,13.9-9,13.78-12.87,31.19-8.83,48.35Z"/>
    <polygon class="st1" points="1106.64 435.4 1100.39 472.65 1070.87 472.84 1091.75 343.23 1122.34 342.45 1106.64 435.4"/>
    <polygon class="st1" points="938.64 471.68 908.7 472.46 930.19 343.31 960.63 343.05 938.64 471.68"/>
    <g>
      <path class="st1" d="M1183.57,475.06c-27.91,1.5-50.16-14.86-56.4-40.89-2.97-12.38-1.63-24.63,1.13-37,8.09-36.26,40.55-59.65,77.57-56.48,17.74,1.52,35.53,10.57,41.73,28.8,7.34,21.59,5.56,47.51-4.97,67.37-12.07,22.77-33.15,36.81-59.07,38.2ZM1204.61,440.73c22.99-20.88,22.84-65.5,1.11-73.49-14.34-5.27-29.71,1.18-38.11,13.73-14.95,22.34-15.42,58.17,7.16,66.44,9.85,3.6,21.09,1.27,29.84-6.67Z"/>
      <path class="st2" d="M1204.61,440.73c-8.74,7.94-19.99,10.28-29.84,6.67-22.58-8.26-22.11-44.09-7.16-66.44,8.4-12.55,23.77-19.01,38.11-13.73,21.73,7.99,21.88,52.61-1.11,73.49Z"/>
    </g>
    <g>
      <path class="st1" d="M618.29,430.34c-1.53-3.87-11.54-2.35-15.19-1.04l-8,44.31-30.07.02,16.7-97.47c1.8-10.5,4.71-19.9,5.8-30.73l61.92-.38c19.92-.12,32.48,16.22,30.87,35.72-1.66,20.12-12.53,37.49-33.69,43.35l20.62,49.43-31.61.68-17.37-43.87ZM649.94,384.62c.53-7.08-3.4-13.75-10.87-13.79l-25.77-.16-5.04,32.18,24.04-.11c10.31-.05,16.87-7.97,17.64-18.12Z"/>
      <path class="st2" d="M649.94,384.62c-.77,10.15-7.33,18.07-17.64,18.12l-24.04.11,5.04-32.18,25.77.16c7.47.04,11.4,6.72,10.87,13.79Z"/>
    </g>
    <g>
      <path class="st1" d="M521.54,430.17l-32.31.59-8.2,43.4-30.18-.08,23.41-127.95,59.93-.03c19.08-.01,32.58,16.08,30.9,34.75.76,25.62-17.42,46.26-43.56,49.32ZM535.91,385.56c.17-8.95-6.51-14.21-14.38-14.11l-21.77.27-4.92,33.27,22.89.19c10.29.09,17.97-8.55,18.18-19.62Z"/>
      <path class="st2" d="M535.91,385.56c-.21,11.07-7.89,19.71-18.18,19.62l-22.89-.19,4.92-33.27,21.77-.27c7.87-.1,14.55,5.16,14.38,14.11Z"/>
    </g>
  </g>
  <path class="st2" d="M1056.58,1101.94l-21.69-29.85c-7.52-1.09-15.7-1.11-24.6-.24l-11.8,29.56-104.76.1c-4.61-1.09-7.65-7.6-10.91-10.9l-5.43,11.9-35.33.22-12.77-16.77-4.3,16.14-53.48.79-22.92-27.7,28.34-176.14,60.82-.82,25.17,32.01c1.45,3.44-.97,9.54,3.22,13.45l23.36-46.07,60.98.21,23.57,29.21-3.5,34.55,31.08-64.39,58.16-.55,18.83,22.45,4.57-22.49,133.82-.3,12.78,15.4c24.71-19.37,58.42-24.39,87.61-11.59,14.72,6.46,24.32,18.21,34.76,29.75l5.13-33.32,54.62-.28,22.45,31.09-3.29,27.92c1.16-.15,2.75-.04,3.5.19l10.66-58.83,54.12-.63,23.34,30.42-28.52,174.2-55.07.15c-5.19-9.89-16.54-16.83-19.8-26.87l1.39-38.4-12.86,64.92-54.64.25-15.19-16.8c-31.72,26.56-79.45,28.98-108.35.27l-20.43-27.81c-10.13-13.79-17.5-28.02-20.11-44.87l-5.65,26.26-10.57,63.43-55,.17c-1.19,0-3.07-2.03-3.79-2.69-.9-.83-3.16,1.7-4.22,2.56l-53.3.75ZM1276.68,1031.88c-16.6,5.74-33.94-2.21-38.58-19.29-6.2-22.83-.84-48.71,14.32-66.72,9.31-11.06,23.47-16.44,36.77-12.21,11.29,3.59,16.07,13.69,20.49,24.54l29.09-12.82c-2.62-17.81-14.24-33.01-32.13-38.39-27.1-8.15-57.51-2.04-77.91,18.58-34.27,34.65-42.15,99.26-4.28,126.55,17.29,12.46,39.28,13.99,59.97,8.33,20.58-5.64,36.48-21.66,47.2-40.5l-27.96-14.68c-5.9,12.44-13.71,22.01-26.98,26.6ZM1429.54,1059.05l33.94-.3,25.09-152.05h-34.97s-9.69,59.28-9.69,59.28l-52.84.03,9.46-60.02-35.3.63-23.91,152.27,34.95-.04,9.72-62.82,52.93.1-9.38,62.91ZM897.58,963.59l-14.56,96.55,33.7-.17,22.84-152.97-44.31.82-47.97,95.18-17.59-95.21-44.31.64-24.4,152.47,33.74-.46,15.64-93.66,17.94,93.82,21.65-.71,47.64-96.3ZM1043.08,1059.79l33.47-.49-4.7-28.52-21.65-124.03-42.18.17-75.69,152.77,36.64-.67,13.02-28.25,55.6.14,5.5,28.89ZM1141.88,1059.01l18.94-123.56,40.61-.12,4.6-29.23-114.21.59-5.11,29.54,38.96.49-18.04,122.49,34.25-.19ZM1109.8,976.61c-7.71.63-11.16-.14-16.86-3.01l9.05,51.02,7.81-48.01Z"/>
  <polygon class="st1" points="897.58 963.59 849.94 1059.89 828.29 1060.6 810.35 966.78 794.71 1060.44 760.98 1060.9 785.38 908.43 829.69 907.79 847.28 1003.01 895.24 907.83 939.56 907.01 916.72 1059.98 883.02 1060.15 897.58 963.59"/>
  <polygon class="st1" points="1429.54 1059.05 1438.92 996.14 1385.99 996.04 1376.27 1058.85 1341.32 1058.89 1365.23 906.62 1400.53 905.99 1391.07 966.02 1443.91 965.99 1453.61 906.71 1488.57 906.7 1463.49 1058.75 1429.54 1059.05"/>
  <path class="st1" d="M1276.68,1031.88c13.27-4.59,21.09-14.16,26.98-26.6l27.96,14.68c-10.72,18.84-26.63,34.86-47.2,40.5-20.7,5.67-42.68,4.14-59.97-8.33-37.87-27.29-30-91.91,4.28-126.55,20.4-20.62,50.8-26.73,77.91-18.58,17.9,5.38,29.51,20.59,32.13,38.39l-29.09,12.82c-4.42-10.85-9.2-20.95-20.49-24.54-13.3-4.23-27.46,1.14-36.77,12.21-15.15,18.01-20.52,43.88-14.32,66.72,4.64,17.08,21.98,25.03,38.58,19.29Z"/>
  <polygon class="st1" points="1141.88 1059.01 1107.63 1059.2 1125.67 936.72 1086.71 936.23 1091.81 906.69 1206.02 906.09 1201.42 935.33 1160.82 935.45 1141.88 1059.01"/>
  <g>
    <path class="st2" d="M452.68,1106.26l-22.65-28.44,14.82-94.83c.16-1.05-1.53-2.46-3.71-1.47l-21.09,124.87-53.82.48-23.25-27.8,15.57-97.47c-3.92,0-9.5.87-11.66-1.83l-20.76-25.9,8.54-51.21,47.89-.76,127.95-1.14,24.79,30.09c.8,9.71-4.89,19.05-.8,29.93l11.94-59.9,54.57-.38c.87,1.46,2.18,4.34,3.06,4.64,1.45.49,3.35-2.45,3.78-5.04l91.15-.7,23.88.81,20.05,27.34-7.18,49.55-13.22.73c2.7,5.57,3,10.19,1.98,16.06l-7.75,44.96,8.68,12.85-8.94,51.4-113.12,1.47-7.27-7-1.39,7.18h-54.45s-22.32-25.82-22.32-25.82l3.41-25.94c.59-4.51,1.76-9.53-1.82-13.16l-12.23,66.28-54.64.15ZM689.08,998.49l4.61-29.68-51.96-.34,5.32-30.03,58.81-.5,4.87-28.53-94.49.34-25,152.87,96.88-1.02,4.86-30.19-61.19.49,4.93-33.23,52.37-.17ZM389.66,1064.01l19.76-123.59,39.47-.1,4.68-28.99-48.83-.15-39.05.03-22.34,1.18-5.35,28.54,37.16.41-20.18,123.39,34.67-.7ZM564.56,1061.77l25.31-151.31-34.15-.12-10.66,59.88-53.66.4,9.84-59.42-34.72.29-24.98,152.58,35.55-.88,10.04-63.16,53.1-.16-9.86,62.97,34.18-1.08Z"/>
    <polygon class="st1" points="564.56 1061.77 530.37 1062.85 540.23 999.88 487.13 1000.04 477.08 1063.2 441.53 1064.08 466.51 911.5 501.23 911.21 491.39 970.63 545.05 970.23 555.71 910.34 589.86 910.46 564.56 1061.77"/>
    <polygon class="st1" points="689.08 998.49 636.71 998.66 631.78 1031.89 692.97 1031.41 688.1 1061.6 591.22 1062.62 616.22 909.75 710.71 909.41 705.84 937.94 647.04 938.44 641.72 968.47 693.68 968.82 689.08 998.49"/>
    <polygon class="st1" points="389.66 1064.01 354.99 1064.71 375.17 941.33 338 940.92 343.35 912.39 365.69 911.21 404.74 911.18 453.57 911.32 448.89 940.32 409.42 940.42 389.66 1064.01"/>
  </g>
  <g>
    <path class="st1" d="M1043.08,1059.79l-5.5-28.89-55.6-.14-13.02,28.25-36.64.67,75.69-152.77,42.18-.17,21.65,124.03,4.7,28.52-33.47.49ZM1032.68,1001.25l-9.33-58.99-28.03,60,37.36-1.01Z"/>
    <polygon class="st2" points="1032.68 1001.25 995.32 1002.27 1023.34 942.27 1032.68 1001.25"/>
  </g>
</svg>