<?xml version="1.0" encoding="UTF-8"?>
<svg id="Camada_1" xmlns="http://www.w3.org/2000/svg" version="1.1" viewBox="0 0 1900.8 1419.26">
  <!-- Generator: Adobe Illustrator 30.3.0, SVG Export Plug-In . SVG Version: 2.1.3 Build 182)  -->
  <defs>
    <style>
      .st0 {
        display: none;
      }
    </style>
  </defs>
  <path class="st0" d="M741.13,644.06c-8.41-53.42,23.43-108.06,61.06-148.56-29.94,12.94-51.01,37.85-65.82,65.75-22.69,42.75-31.86,83.98-11.69,131.68-37.26-6.44-71.96-13.79-108.41-16.24l-25.59-1.72c-24.66-1.66-49.4-1.15-73.78.29l-45.35,2.68c-24.92,1.47-48.97,4.54-71.62,12.39,60.67-1.02,123.86-4.45,182.66,5.19l178.23,29.23c.54,2.65,1.16,7.88-.14,9.43-11.13,13.33-77.25,8.17-110.13.66,31.27,23.64,67.89,33.48,106.92,39.01,24.43,3.46,56.39-12.01,56.92-5.51.89,10.98-34.52,27.53-55.59,33.67-35.77,10.41-71.47,15.84-108.57,16.76l-64.4,1.59c-31.07.77-61.12,17.85-82.21,39.37-19.69,20.09-25.02,45.65-23.1,73.28,3.12,44.92,25.86,84.03,55.34,117.39l10.38,11.75c1.03,1.16,2.65,6.57,1.25,6.68l-7.81.61c-36.9-20.19-63.74-49.51-85.54-85.83-44.34-74.6-47.87-166.25-12.88-246.01-34.3-7.28-67.36-13.39-100.39-9.86l-54.23,5.8c-11.06,1.18-21.54.92-33.93-.18,8.54-15.62,19.31-21.66,32.74-28.97,75.76-41.23,160.2-58.73,245.95-61.72l59.73-2.08-45.23-3.27c-15.38-1.11-29.23,3.76-46.72,1.02,50.56-62.77,120.72-102.53,196.69-127.63l56.27-18.6c-43.26,2.55-79.48,19.14-118.36,37.03.91-5.14,2.55-8.36,4.88-13.33,15.15-32.34,17.64-70.99,4.82-105.34-9.37-25.12-22.67-47.86-37.19-70.41l-13.56-16.19-4.67-7.45c-1.25-2,5.65-5.25,8.75-6.12,69.57,13.07,132.63,47.37,184.52,95.62,10.49,8.74,19.17,17.34,27.77,27.57l19.17,22.78c49.57-10.13,99.94-20.12,151.37-22.94l32.86-1.8c24.83-1.36,49.23-.04,73.77.62l71.52,1.92,25.73,1.64c110.62,7.05,218.39,34.21,319.47,78.31,9.31,4.06,16.68,12.93,18.54,19.56,7.56,27.04-44.19,74.78-71.61,98.83-27.5,24.12-57.03,43.51-89.05,61.55-6.04,3.4-13.65,5.21-18.65,5.11,2.89-19.16,10.09-33.65,25.14-44.19,31.83-22.31,62.76-44.56,88.08-74.73,4-4.76,11.14-15.13,8.5-20.66-5.22-10.9-16.21-17-25.75-21.98-32.53-16.94-66.36-17.01-101.47-20.28-41.85-3.91-81.14,1.61-118.89,21.28-17.67,9.2-37.49,12.9-57.17,13.69l-37.77,1.53-42.53,1.9-37.55,2.28c-39.17,2.38-73.81,11.62-106.83,32.29-27.8,17.4-45.63,44.14-47.45,77.97-4.32,1.77-10.04-1.88-11.44-6.71-11.63-40.11-3.17-80.85,19.25-116.23,18.73-29.55,46.64-48.7,76.13-67.12-24.79,8.13-46.48,23.04-65.83,39.97-38.66,33.81-58.62,93.14-50.95,142.98,1.99,12.93,13.5,23.31,12.91,33.8-.89,15.66-38.71-28.3-38.7-58.14l.02-39.99c.01-32.1,20.3-56.23,37.11-84.54-34.29,24.69-50.83,66.2-54.48,107.54-2.64,29.87,7.84,56.63,20.42,84.8-30.6-2.52-47.35-43.28-51.01-72.75-3.49-28.13,4.84-52.17,14.42-80.16-39.14,50.13-39.87,101.88-3,158.72-32.1-7.21-47.67-36.97-52.28-66.29ZM770.45,444.06c-17.26-22.1-35.09-41.45-59.66-54.36l39.37,54.96c3.56,4.96,14.8,5.74,20.29-.59ZM1194.17,484.06c-8.72,2.37-10.46,10.27-7.95,17.99,1.83,5.63,10.58,8.31,17.74,6.13,5.98-1.81,8.53-10.18,5.89-17.38-1.73-4.73-9.57-8.41-15.69-6.75ZM675.9,548.49c-28.46,12.37-51.56,28.11-73.59,47.58,36.48-2.66,53.3-22.87,73.59-47.58ZM535.78,777.45l-22.64-11.43c-22.53,20.16-37.7,43.9-46.74,72.22-9.19,28.81-15.78,59.44-7.3,88.05,9.12-63.47,24.5-113.08,76.68-148.84Z"/>
  <path class="st0" d="M709.81,972.04l-30.85-29.58c-15.49-14.85-38.3-24.88-60.2-24.71-40.01.31-65.9,33.1-69.76,71.39-3.29,32.72,18.07,66.69,10.63,66.61-9.9-.09-28-26.26-35.3-41.12-19.57-39.82-19.07-83.87,18.33-110.46,39.63-28.17,85.89-43.04,134.65-45.61l50.28-2.64,64.11-1.81,37.7-2.43,31.94-2.77c57.66-5,113.08-14.05,169.44-33.29l-82.63-1.94c-30.77-.72-59.99-9.92-84.97-28.04,9.97-5.97,19.16-2.72,29.2-1.71l24.98,2.49c26.62,2.66,52.62,1.16,79.1-.34,43.65-2.46,84.81-10.48,126.36-24.37,10.54-3.52,21.85-1.49,30.12,4.2,9.61,6.61,11.34,15.78,10.19,30.9,2.77-1.28,8.01-4.23,10.19-6.54,10.46-11.07-14.46-38.91-36.26-55.29-50.45-37.91-109.27-59.02-173.2-71.1,10.63-10.88,24.15-15.44,38.43-20.26,60.02-20.24,138.51-43.52,199.57-38.68,39.2,3.1,76.73,13.03,107.32,38.61,12.38,10.35,22.14,24.26,24.06,41.11,3.11,27.2-49.79,53.71-79.89,66.97-12.9,5.69-19.54,12.85-25.44,25.45-8.99,19.2-27.96,32.48-47.07,40.19l-30.54,12.32-102.17,25.04,14.27,85.52,2.45,22.74,1.18,56.93c.15,7.02,1.77,14.84.58,21.65-2.65,15.13-3.57,30.82-8.22,44.92l-19.89,60.37c-.92,2.78-6.87,7.67-9.73,7.18-2.86-.49-6.38-5.43-7.6-8.9l-24.72-70.5c-11.94-34.06-41.02-69.97-67.13-96.55-28.66-29.18-60.89-53.92-100.39-67.51l8.89-15.46-48.46.77-27.4,1.97c-13.01.93-21.73,6.2-27.72,18.33-16.36,33.12-10.62,69.18-24.45,55.92ZM1152.03,647.68l12.84-16.44-21.97,3,9.13,13.44ZM1208.54,634.75l-21.22-.89,6.55,15.9,14.67-15.01ZM1281.69,672.31c-.56,11.03-3.41,20.86-7.47,32.19,5.28-1.21,17.82-6.94,18.86-12.5,4.69-24.97-39.43-48.97-70.47-53.78l6.17,21.02,21.49-9.65c9.27,7.68,10.08,17.38,4.55,30.1l26.88-7.38ZM1065.21,668.2l9.89.02c1.55,0,.06-7.12-1.45-6.74l-9.39,2.33c-.13-.51.48,2.28.94,4.4ZM1105.52,683.73c.16-9.86-2.46-15.32-4.73-13.67l-9.72,7.08,14.45,6.59ZM1139.1,701.03l1.71-20.56-21.93,9.91,20.22,10.65ZM1169.93,722.03l2.92-21.15-20.32,9.92,17.4,11.23ZM1191.93,741.93l7.02-14.88-15.97,5.82c-.3,2.75,6.47,9.9,8.94,9.06ZM1210.44,755.65c-3.78-.84-11.88-2.02-11.36-.29l2.74,9.16,8.62-8.87ZM1028.68,1085.84c5.84-59.89-6.26-112.79-23.16-167.82-17.06,3.84-33.31,10.26-48.8,18.61,16.06,21.84,28.78,41.66,40,64.65l31.97,84.56Z"/>
  <path class="st0" d="M1332.15,541.28c-46.51-13.28-41.74,28.11-71.26,32.8l7.32-33.68c2.84-13.09,20.53-17.27,31.26-17.03,12.19.27,27.37,2.67,32.68,17.92Z"/>
  <g>
    <path d="M1646.99,1023.22c0,15.47-12.55,28.02-28.02,28.02s-28.02-12.55-28.02-28.02,12.55-28.02,28.02-28.02,28.02,12.55,28.02,28.02ZM1641.3,1023.22c0-12.34-9.99-22.33-22.33-22.33s-22.33,9.99-22.33,22.33,9.99,22.33,22.33,22.33,22.33-9.99,22.33-22.33Z"/>
    <path d="M1628.62,1028.1l4.53,9.15h-8.03l-3.88-7.85c-.46-.95-1.09-1.7-1.83-2.39-.82-.52-1.71-.83-2.71-.83h-2.45v11.08h-7.57v-29.32l12.84.04c2.02,0,3.91.37,5.74,1.1,1.98.84,3.38,2.37,3.87,4.47.37,1.57.39,3.17.04,4.75-.62,2.78-2.72,4.44-5.33,5.25,2.42.71,3.6,2.45,4.8,4.57v-.02ZM1621.67,1015.65c-.27-.99-.98-1.66-1.94-1.96-.64-.14-1.32-.27-2-.27h-3.47v7.53h3.58c.75-.01,1.5-.19,2.19-.41,1.83-.77,2.14-3.08,1.64-4.9h-.01Z"/>
  </g>
  <path d="M808.19,603.19c-58.45-68.66-8.43-176.08,56.64-231.36-55.16,21.88-92.96,75.68-108.38,132.09-8.86,32.41-8.03,65.4,5.36,96.58-4.13,2.91-9.16,2.48-14.82,1.12-54.98-13.23-109.9-16.95-166.53-18.33l-114.69,5.07c-28.5,1.26-56.49,4.45-82.15,16.68,90.93-9.73,177.78-3.45,266.73,11.31l149.77,24.86c2.49.41,6.62,2.88,7.61,4.66,4.25,7.68-32.25,17.83-52.56,15.23l-84.71-10.83,53.23,28.11c23.94,12.64,51.02,16.49,78.55,19.14,18.21,1.75,40.64-3.74,57.33-8.35,1.73-.48,8.38,1.9,7.37,3.21l-4.79,6.21c-29.43,21.77-64.03,33.6-100.61,39.11-42.76,8.39-84.07,10.83-127.57,9.57-37.03-1.07-72.23,8.24-101.87,28.76-52.54,36.38-55.87,94.79-35.63,153.29,14.26,36.95,35.84,69,64.55,96.45l1.01,7.25c.21,1.5-4.99.82-6.56.01-33.33-17.05-61.25-44.13-83.21-74.87-49.42-69.17-67.25-152.54-50.53-236.07,4.75-23.71,10.38-45.66,22.97-66.24-41.62-11.25-81.97-13.9-123.57-11.89l-83.69,9.29-7.24-2.48c-8.64-2.97,16.63-23.67,38.61-35.12,66.62-34.72,168.91-62.96,243.51-65.16l100.35-2.97,25.6,2.36,16.9.64c-46.87-10.6-93-10.69-145.13-7.32,41.94-59.53,133.08-115.37,203-138.56l96.15-31.9c-34.61,1.93-68.88,10.23-101.47,24.06l-48.88,20.75,12.75-24.12c26.82-71.29-1.97-136.75-45.02-196.33l-13.96-15.52c-1.06-1.18-3.88-6.26-2.62-6.98l7.84-4.46c40.8,7.46,77.78,20.63,114.21,40.67,59.1,30.44,108.2,73.57,150.02,125.77,43.16-8.62,85.14-18.11,129.7-22.96,60.41-6.57,118.84-5.84,179.46-5.07,48.35,1.57,93.95,2.02,141.97,8.11,105.73,13.4,207.9,39.4,305.79,80.37,13.19,5.52,24.42,13.37,31.69,25.37,7.63,12.58-12.6,43.2-26.79,59.37-19.87,22.65-41.66,41.67-64.64,61.33-31.75,27.01-65.56,48.88-102.65,67.93l-9.6-.74,8.66-23.95c2.04-5.65,5.9-13.23,10.86-16.89l63.18-46.65c18.87-13.94,34.17-30.75,49.71-48.4,4.65-5.28,8.5-14.81,7.15-21.37-5-24.25-68.76-43.62-100.38-45.37l-79.32-4.4c-24.33-1.35-48.61,3.36-70.73,12.23l-56.72,22.74c-17.08,6.85-36.2,4.62-54.48,5.59l-126.39,6.73c-45.69,2.43-87.49,17.57-124.39,43.7-27.4,19.4-41.99,48.31-43.86,81.98-2.52,1.29-9.65-1.54-10.52-4.34-11.7-37.58-8.46-76.46,8.36-111.49,11.06-23.02,24.5-42.83,43.53-59.58,23.72-20.88,49.01-36.78,78.85-46.9-26.35.74-46.83,14.4-68.11,27.31-44.51,27.01-75.32,67.87-86.35,118.97-7.79,36.12-10.39,72.38,11.72,101.79,1.29,1.72-1.83,7.05-3.33,6.52l-6.99-2.45c-25.43-26.63-37.1-61.73-34.14-99.02,2.44-32.38,13.01-63.01,32.54-88.54l25.35-33.12c-44.24,28.4-71.71,73.83-76.66,126.41-3.53,37.52,2.62,73.15,23.97,105.65-16.36-1.3-28.81-11.2-37.37-24.46-22.06-34.18-27.33-75.45-15.52-114.8l19.37-50.2c-50.09,56.77-61.53,130.07-13.02,194.62-14.67.22-25.21-9.36-33.77-19.41ZM793.81,327.84l25.42-3.84c-22.94-33.73-51.52-56.59-85.23-76.23l45.43,55.38,14.39,24.69ZM1319.03,381.16c0-8.8-7.13-15.94-15.93-15.94s-15.93,7.14-15.93,15.94,7.13,15.94,15.93,15.94,15.93-7.14,15.93-15.94ZM680.75,471.5l35.24-37.05c-38.59,18.66-71.96,40.33-103.88,67.93l46.53-15.17c8.14-2.56,15.85-8.58,22.11-15.7ZM470.75,825.84c11.07-51.41,36.46-94.77,80.3-125.46l-29.55-13.36c-53.37,51.02-74.66,127.38-59.25,198.48l8.49-59.65Z"/>
  <path d="M671.92,864.82c-34.01-12.04-67.23-1.62-89.1,25.83-17.11,21.48-22.04,50.27-18.11,78.35l14.59,48.26c-9.56-1.46-14.94-6.75-20.21-13.16-34.6-42.09-54.04-109.13-14.98-145.88,50.07-47.09,122.34-62.93,190.58-65.59l132.41-5.17c72.85-2.84,190.11-19.99,257.47-46.64-47.1,2.57-90.17,5.67-135.3-3.44-62.06-12.52-74.26-34.43-55.43-31.32,40.41,6.68,78.78,7.51,119.88,6.44,57.45-1.5,112.3-10.46,166.16-29.33,11.72-4.11,26.03.8,33.5,7.74,9.1,8.44,12.03,20.18,9.92,34.65,44.76-19.16-28.57-79.64-67.49-99.03l-43.61-21.72c-35.98-17.93-74.32-25.31-114.45-34.08,10.66-10.27,22.64-14.26,35.46-18.64,49.48-16.9,98.19-32.2,149.9-41.06,75.95-13.02,166.11-6.9,218.58,50.87,9.33,10.27,14.71,24.09,13.81,37.16-.81,11.72-7.92,25.18-19.06,32.09l-38.93,24.17-52.87,26.5c-7.59,26.1-25.4,45.08-49.4,57.95-25.86,13.99-53.13,22.86-82.16,29.6l-84.06,19.51c18.97,66.96,25.85,135.3,22.21,205.68,42.71,13.21,70.6,47.43,81.15,89.8,12.44,49.96-1.23,101.35-39.73,135.58-26.32,23.59-58.38,31.45-92.65,28.47-79.95-6.95-118.59-82.88-106.61-159.51,5.98-38.25,28.31-69.58,62.36-87.71-40.94-63.9-97.42-120.94-170.57-149.14l10.86-17.25c-36.54-1.24-70.49.02-107.27,5.01-31.27,27.37-25.1,81.42-35.1,85.28-8.84,3.42-26.74-40.78-81.77-60.28ZM1267.82,535.51l-30.54-.05,12.75,19.49,17.79-19.44ZM1317.71,537.75l-28.1-2.6,7.11,23.41,20.99-20.8ZM1399.27,582.42l-11.64,36.51c7.24-1.49,20.87-5.35,23.53-12.19,11.75-30.29-47.96-61.02-84.47-67.2,4.79,9.95,8.16,19.28,10.58,28.45l26.53-11.31c9.1,9.86,7.36,20.29,3.85,33.94l31.63-8.2ZM1164.99,581.35l-3-16.19-15.91,9.25,18.91,6.94ZM1200.33,597.95l-3.59-22.38-19.52,11.01,23.11,11.37ZM1236.8,616.72l1.12-27.65-27.2,12.6,26.08,15.05ZM1272.67,640.75l2.2-27.33-26.38,11.05,24.19,16.28ZM1295.85,664.81l10.77-22.15-25.01,7.3,14.25,14.85ZM1320.84,673.99l-19.99-1.32,7.39,17.08,12.6-15.76ZM1111.54,1063.89c4.87-26.72,1.95-50.58.55-76.29-4.86-44.2-14.05-85.81-27.78-128.23l-59.27,21.32c20.58,25.25,35.33,50.72,49.43,79.68l37.08,103.51ZM1047.46,1127.97c2.22,41.85,35.78,75.62,78.13,68.69,18.63-3.05,32.52-17.93,43.91-32.54,24.64-31.6,16.63-97.78-23.45-118.71l-26.43,78.09c-.92,2.73-8.37,6.75-10.71,5.11-1.95-1.36-5.56-5.49-6.54-8.44l-23.76-71.28c-26.37,20.71-32.79,48.14-31.15,79.07Z"/>
  <path d="M372.51,1244.63l-54.64-89.82-34.47-.85-.99,88.53c-17.61,1.68-32.88,2-51.44.25l-2.42-247.46,106.54-.08c31.87-.03,58.45,14.77,76.12,40.58,18.13,44.63,4.08,84.35-36.89,111.26l55.72,94.83-57.54,2.75ZM363.27,1059.03c-7.13-12-19.68-19.1-32.77-19.1h-47.13s.48,69.52.48,69.52l55.74-1.15c10.2-.21,20.32-10.02,24.13-16.77,5.63-10,5.51-22.47-.45-32.5Z"/>
  <path d="M657.2,1242.95c-19.63-7.48-31.13-27.59-34.11-45.23-3.69-21.83,4.08-43.33,21.77-56.71,26.87-20.32,61.5-21.86,93.76-12.48,3.63-16.01-7.57-27.04-22.47-29.65-21.96-3.85-42.45,1.76-64.71,11.73l-15.48-37.14c38.4-25.34,104.34-29.98,135.85-1.93,11.37,10.11,19.65,27.54,19.65,42.98l.05,128.51c-16.42,2.27-29.58,2.33-45.63,1.51l-3.18-16.87c-22.64,21.83-54.38,27.14-85.52,15.27ZM704.77,1206.5c22.06-.73,37.94-17.36,33.14-38.87-17.2-6.92-37.21-7.76-54,.64-8.33,4.17-11.91,12.49-8.76,20.91,4.51,12.07,15.84,17.78,29.62,17.32Z"/>
  <path d="M1585.11,1189.24l25.32,26.29c-36.83,36.36-93.42,45.36-132.56,13.24-28.65-23.51-38.61-57.75-34.22-93.6,4.34-35.42,24.79-66.88,60.21-77.46,30.16-9.01,66.59-4.68,89.56,17.44,23.56,22.68,27.59,55.77,24.77,88.07l-121.94,2.95c1.96,26.66,24.38,42.73,49.58,40.1,13.95-1.46,24.84-7.93,39.28-17.03ZM1567.39,1129.82c.48-15.7-7.63-25.24-19.62-29.65-23-9.01-47.61,5.07-51.68,30.32l71.3-.68Z"/>
  <path d="M532.6,1205.12c15.49-1.34,26.68-8.42,39.82-16.96l25.68,26.37c-39.04,38.58-99.03,44.71-136.8,9.5-26.69-24.89-33.96-57.97-29.55-92.61,6.2-48.69,45.16-83.08,95.12-78.96,20.61,1.7,42.07,7.57,56.37,23.34,21.07,23.25,26.53,55.11,22.28,86.35l-121.21,2.73c1.31,24.85,22.1,42.51,48.3,40.24ZM555.45,1128.6c-.57-18.84-10.71-27.36-24.51-31.1-22.31-5.71-44.53,9.16-46.73,32l71.23-.9Z"/>
  <path d="M1374.68,1241.65l-3.93-113.93c-.39-11.31-7.74-22.01-15.63-25.38-11.14-4.75-22.56-3.77-32.72,3.46-8.34,5.93-14.1,19.8-14.3,31.29l-1.86,106.31-49.9.08-1.87-189.07,48.59.9,2.61,17.83c18.85-17.51,40.55-20.95,64.09-16.71,29.66,5.35,51.91,28.18,52.65,59.9l2.92,124.9-50.65.42Z"/>
  <polygon points="990.32 1241.7 935.29 1243.74 896.26 1186.93 857.36 1243.36 801.56 1243.31 863.51 1147.59 803.94 1056.7 861.1 1054.42 898.43 1107.44 933.09 1055.41 979.72 1054.59 985.9 1059.77 928.12 1146.88 990.32 1241.7"/>
</svg>