<?xml version="1.0" encoding="UTF-8"?>
<svg id="Camada_1" xmlns="http://www.w3.org/2000/svg" version="1.1" viewBox="0 0 1900.8 1419.26">
  <!-- Generator: Adobe Illustrator 30.3.0, SVG Export Plug-In . SVG Version: 2.1.3 Build 182)  -->
  <defs>
    <style>
      .st0 {
        fill: #5b9431;
      }

      .st1 {
        fill: #84b12e;
      }

      .st2 {
        fill: #89b92d;
      }

      .st3 {
        fill: #0e100e;
      }

      .st4 {
        fill: #3f3f3e;
      }

      .st5 {
        fill: #292a28;
      }

      .st6 {
        fill: #fdfcfc;
      }

      .st7 {
        fill: #bdd075;
      }

      .st8 {
        fill: #fbfaf9;
      }

      .st9 {
        fill: #548830;
      }

      .st10 {
        fill: #dedede;
      }

      .st11 {
        fill: #9cbe3f;
      }

      .st12 {
        fill: #171818;
      }

      .st13 {
        fill: #1e1f1e;
      }

      .st14 {
        fill: #686868;
      }
    </style>
  </defs>
  <path class="st12" d="M433.66,1097.83c-8.59,17.62-36.87,27.82-59.13,14.34-9.54-14.9,0-32.15,18.76-36.34,9.69-2.16,20.47-3.17,30.29.53,7.25,2.73,13.82,13.8,10.08,21.47Z"/>
  <path class="st12" d="M1058.03,973.25c14.56-.57,26.77-14.03,37.5-2.3,5.31,5.8,1.77,11.85-4.45,17.08-6.59,5.55-14.08,8.31-23.72,5.18-7.16-2.33-13.31-9.86-9.34-19.96Z"/>
  <path class="st13" d="M1321.16,956.26l-.58-7.24c6.55-4.68,15.03-7.25,21.71-3.62,7.26,3.94,11.16,12.52,5.51,18.47-4.09,4.31-10.99,4.01-16.54,1.98-3.92-1.43-7.56-5.7-10.1-9.59Z"/>
  <path class="st13" d="M1414.34,871.93c-2.67,5.88-10.44,7.5-15.92,7.34-5.36-.16-13.46-1.33-15.28-7.23-1.86-6,6.75-11.12,13.09-12.4,5.42-1.09,9-.91,12.9,1.08,3.41,1.74,7.62,5.93,5.22,11.21Z"/>
  <path class="st13" d="M1731.04,440.39c-5.15,1.92-11.56,1.65-13.98-2.45-2.45-4.15-.15-9.66,5.71-12.04,5.15-2.09,11.02-.96,13.9,2.92,2.96,3.98.58,9.25-5.64,11.57Z"/>
  <path class="st13" d="M184.72,769.46c-6.5,1.28-11.26-.66-12.98-5.3-1.1-2.98,2.68-8.09,8.11-9.38,5.58-1.31,12.02.25,13.99,4.95,1.42,3.38-2.36,8.39-9.13,9.73Z"/>
  <path class="st5" d="M163.53,683.66c-5.53,2.15-11.25,1.52-14.12-2.75-2.05-3.04,1.61-8.01,6.88-10.01,4.92-1.87,10.43-1.03,13.08,2.46,2.69,3.54.3,7.91-5.84,10.3Z"/>
  <path class="st5" d="M1424.47,828.45c-1.98,3.92-7.83,8.32-14.65,6.96-5.46-1.09-7.05-6.23-7.81-10.89,7.7-3.53,20.98-2.59,22.09-.98.74,1.08.32,3.46.37,4.91Z"/>
  <path class="st2" d="M1720.07,686.74c-5.28,3.93-9.38,2.96-12.76.84-4.51-2.83-6.01-6.46-2.2-10.15,4.09-3.96,9.16-5.45,13.72-3.45,5.67,2.48,7.04,8.44,1.24,12.76Z"/>
  <path class="st5" d="M1710.82,372.89c-4.72-.08-7.46-2.88-8.63-5.33-1.43-3,1-5.76,5.26-7.44,3.92-1.54,7.21-1.36,9.77.23,3.09,1.91,4.09,4.84,2.72,7.54-1.17,2.31-4.09,5.08-9.13,5Z"/>
  <path class="st13" d="M340.36,1111.42c-5.91,2.48-9.35-2.03-10.89-4.68-2.08-3.6-1.83-8.54,3.15-10.42,4.58-1.73,8.6,1.64,10.69,4.47,2.07,2.81,2.93,8.15-2.95,10.62Z"/>
  <ellipse class="st5" cx="1243.01" cy="994.35" rx="8.4" ry="7.06"/>
  <path class="st5" d="M514.07,1060.95c-3.99,2.68-6.38,2.15-8.3,1.4-3.55-1.39-6.09-4.39-4.98-6.78,1.35-2.91,5-4.48,8.97-4.58,3.44-.09,6.22,1.19,7.57,3.56.9,1.59-.17,4.31-3.27,6.39Z"/>
  <path class="st5" d="M1629.07,565.12c-5.23,1.41-9.89-.56-10.75-4.23-.62-2.64,3.5-7.12,8.12-7.18,3.52-.04,8.04,1.96,8.9,3.9,1.29,2.91-1.63,6.25-6.27,7.51Z"/>
  <path class="st12" d="M1091.86,1039.06c-2.85,3.55-11.56,7.02-13.7,2.22-2.18-4.89,5.88-11.41,10.37-12.13,2.39-.39,4.74,1.29,5.22,2.37.84,1.88.68,4.35-1.88,7.54Z"/>
  <ellipse class="st13" cx="1666.14" cy="569.92" rx="7.62" ry="6.4"/>
  <path class="st5" d="M265.13,1052.57l-5.03-1.76c-2.3-3.31-2.14-6.11.17-8.63,2.05-2.24,6.24-2.21,8.37-1.07,3.78,2.02,4.04,5.01,2.97,8.5-.65,2.11-4.22,2.47-6.48,2.96Z"/>
  <path class="st5" d="M1700.42,454.9c1.09,3.19-4.24,8.61-8.44,8.72-3.64.09-4.63-3.04-4.44-4.44.61-4.41,5.31-8.41,7.55-8.64,1.39-.14,4.12.81,5.33,4.37Z"/>
  <ellipse class="st5" cx="204.07" cy="943.03" rx="6.69" ry="5.62"/>
  <ellipse class="st5" cx="1745" cy="403.12" rx="6.97" ry="5.86"/>
  <ellipse class="st5" cx="202.03" cy="548.75" rx="6.4" ry="5.37"/>
  <path class="st4" d="M1149.39,970.36c-9.27-2.84-13.13-3.19-20.81,1.78.88-4.61,4.06-9.54,8.48-11.4,5.36-.65,10.35,5.16,12.33,9.62Z"/>
  <path class="st5" d="M1717.26,442.37c2.15.72,1.25,6-1.14,7.03-3.07,1.33-5.82,1.34-8.43-.05-2.63-1.4-4.58-5.79-1.82-7.35,1.87-1.06,7.76-.83,11.4.38Z"/>
  <path class="st5" d="M1356.92,896.6c-2.73-1.21-3.61-2.06-3.61-2.98.02-2.6,2.38-3.28,4.94-4,3.33-.94,6.36-1.39,8.75.69,1.63,1.42,1.31,3.96-1.07,6.55-1.9,2.07-3.9,3.37-9.01-.25Z"/>
  <path class="st7" d="M1700.64,646.37c-8.31,5.12-18.97,7.56-30.33,7.59,2.6-5.09,8.42-2.94,11.76-2.65,6.22-2.62,9.49-6.36,18.57-4.94Z"/>
  <path class="st5" d="M481.02,1061.5c-3.19,1.79-5.5,1.67-7.14,1.23-2.1-.56-3.91-1.97-3.89-3.77.04-2.47,2.57-3.71,5.84-4.73,2.88-.9,5.91-.85,7.55.97,1.31,1.45.68,4.59-2.36,6.29Z"/>
  <ellipse class="st5" cx="1466.29" cy="926.01" rx="5.95" ry="5"/>
  <path class="st4" d="M450.13,1071.02c3.09,3.32-1.64,6.11-3.55,6.84-2.29.88-8.66,2.18-9.61-.66-1.47-4.41,10.09-9.48,13.16-6.18Z"/>
  <path class="st5" d="M1589.56,556.48c-4.26,0-5.76-1.81-6.99-3.86-.95-1.58,1.67-3.45,4.57-4.65,4.09-1.69,7.6-.54,8.98,2.67.82,1.9-1.41,5.85-6.56,5.84Z"/>
  <path class="st5" d="M376.09,1070.64c-.37,3.05-7.66,4.9-10.8,4.33-1.85-.33-3.07-2.06-2.89-3.97.2-2.12,2.31-3.21,5.5-3.51l5.31-.51c2.2-.21,3.1,1.86,2.88,3.65Z"/>
  <ellipse class="st5" cx="406.95" cy="1128.61" rx="6.06" ry="5.09"/>
  <path class="st5" d="M827.49,1015.01c1.08,2.08-4.09,7.98-8.35,6.85-1.93-.51-3.08-2.3-2.81-4.79.31-2.91,2.1-4.44,5.03-5.04,1.84-.37,4.94.67,6.14,2.99Z"/>
  <path class="st4" d="M191.17,668.61c-4.85.64-7.21-1.55-7.11-3.8.12-2.76,2.79-5.01,6.54-4.86,3.23.13,5.45,1.51,6.23,3.29,1.06,2.41-.96,4.73-5.67,5.36Z"/>
  <path class="st5" d="M1587.01,763.2c4.97-.83,4.91,1.89,5.09,3.84.34,3.55-1.62,4.93-3.55,5.34-3.8.8-6.29-.63-7.03-2.21-1.41-2.99,2.1-6.4,5.49-6.97Z"/>
  <path class="st5" d="M1523.12,811.05c-2.64,2.71-10.65,1.56-11.11-1.46-.67-4.34,3.29-6.11,6.95-5.3,3.04.68,7.48,3.35,4.16,6.76Z"/>
  <path class="st4" d="M1231.12,1033.71c-6.1,1.16-9.77-9.88-7.74-13.39,5.53,1.6,12.1,9.84,7.74,13.39Z"/>
  <path class="st5" d="M1021.83,982.63c-3.06,1.15-7.16.96-9.57-1.21-1.38-1.24-.77-3.99,1.68-5.88,3.33-2.58,9.7,1.24,10.4,2.7.76,1.6.15,3.39-2.5,4.39Z"/>
  <ellipse class="st4" cx="1194.07" cy="955.27" rx="5.39" ry="4.52"/>
  <path class="st5" d="M746.99,1046.3c-3.74,2.71-6.02-1.14-6.22-3.98-.19-2.61-.35-6.77,5.17-6.49,4.16.22,5.85,6.99,1.06,10.47Z"/>
  <ellipse class="st4" cx="216.36" cy="644.2" rx="5.06" ry="4.25"/>
  <ellipse class="st5" cx="1582.32" cy="539.12" rx="5.48" ry="4.6"/>
  <path class="st4" d="M954.36,379.44c1.21,4.17-1.53,9.69-5.69,12.69l-2.03-11.69c1.56-1.07,4.57-2.28,7.72-.99Z"/>
  <ellipse class="st4" cx="261.3" cy="582.72" rx="4.87" ry="4.09"/>
  <path class="st4" d="M275.39,540c-.54,2.65-5.39,3.52-11.58,3.27-1.02-.04-2.37-1.38-1.21-2.66.55-.61,6.25-3.12,10-3.43,1.43-.12,3.24.61,2.79,2.81Z"/>
  <path class="st4" d="M1689.4,734v-4.1c4.08-.7,8.03-2.76,14.34-.98-4.43,2.91-9.3,4.04-14.34,5.09Z"/>
  <path class="st4" d="M1682.98,730.2c-1.32,1.28-3.07,1.52-4.85,1.87.45-2.01,2.79-2.1,4.85-1.87Z"/>
  <path class="st12" d="M1615.58,501.24c-10.34,6.84-27.31,6.24-32.36-4.38-4.96-10.44,5.24-18.89,16.02-21.82,10.09-2.74,16.72-1,22.27,5.51,5.99,7.03,3.23,14.64-5.93,20.69Z"/>
  <path class="st13" d="M245.11,844.7c-9.68,5.24-23.81.27-24.8-8.78-.5-4.6,5.57-7.32,8.97-9.07,6.74-3.46,13.6-2.75,18.32,1.58,4.53,4.16,5.32,12.03-2.5,16.27Z"/>
  <path class="st11" d="M1588.17,521.26c-6.58,2.57-17.99,4.41-24.67.86l-15.88-8.44c6.48.32,11.04.47,17.07-1.86,4.09-2.19,14.19-4.67,16.62-.98l6.87,10.42Z"/>
  <path class="st13" d="M286.82,909.97c6.7,6.52.98,13.38-6,15.47-6.28,1.89-16.96-2.79-15.09-10.07,1.75-6.79,15.62-10.73,21.1-5.41Z"/>
  <path class="st11" d="M1320.58,949.01l.58,7.24-11.6,17.76c-7.76-8.15-14.12-3.07-12.92-11.63,8.72,5.73,15.54-9.6,21.41-23.31-.69,3.61-.02,7.23,2.53,9.94Z"/>
  <path class="st13" d="M1576.2,563.24c-3.62,6.11-10.82,9.7-19.76,9.73-2.96-5.66-2.19-14.73,5.5-18.03,6.05-2.6,13.16,2.33,14.25,8.29Z"/>
  <path class="st5" d="M281.72,886.76c-5.02-1.02-8.47-4.1-14.05-7.21.47-4.74,4.4-13.52,10.54-15.14,5.1-1.34,7.19,4.03,7.26,6.34.1,2.92-.85,6.97-4.14,9.3-.59.86.72,3.41.38,6.7Z"/>
  <path class="st11" d="M1659.39,429.02c8.64,1.97,12.96-.43,16.56.06,1.39.19,4.14,2.94,2.14,4.57-8.36,6.86-18.6-.96-25.28,4.15-.87-.79-2.85-.99-3.91-1.34-1.48-.48-3.06-2.56-1.31-4.32,2.57-2.58,8.31-3.93,11.8-3.13Z"/>
  <path class="st12" d="M276.54,809.26c.93.1,1.77.5,2.31.91.13,3.48,1.09,9.06-3.78,11.76-4.14,2.29-16.62-2.23-15.88-6.1,1.34-6.52,12.19-7.12,17.35-6.57Z"/>
  <path class="st4" d="M1588.57,340.14c-3.14-1.41-6.29-4.39-6.4-6.68-.21-4.19,5.67-7.02,9.14-6.54,4.73.65,7.51,4.37,7.38,7.72-.15,4.01-4.26,8.15-10.13,5.5Z"/>
  <path class="st5" d="M1145.99,367.27c-1.75,2.27-2.45,4.76-2.21,7.24-6.17-1.23-11.67-4.68-19.11-1.65-1.04-1.65-.81-3.67.86-4.31l5.19-1.99c3.3-1.26,5.67-2.73,9.22-2.87,2.8-.11,4.39,1.23,6.05,3.57Z"/>
  <path class="st5" d="M1543.61,566.71c-4.29.87-8.12-1.23-8.2-3.92-.09-2.84,3.26-5.83,7.52-5.33,3.01.36,5.51,2.11,5.9,3.95.48,2.28-.93,4.43-5.21,5.3Z"/>
  <path class="st9" d="M1153.86,371.3c.73,2.09,1.8,5.29.02,7.74-1.38,1.91-6.49,2.19-9.49,1.72l-.62-6.25c-.24-2.48.45-4.96,2.21-7.24,1.35,1.92,5.3,3.35,7.87,4.02Z"/>
  <path class="st4" d="M265.13,1052.57c-2.45,2.38-2.07,6.64-2.56,9.17-.71,3.71-4.09,4.27-7.35,3.53-1.77-.4-3.6-1.49-3.27-4.07.45-3.51,10.56-6.9,8.15-10.38l5.03,1.76Z"/>
  <path class="st5" d="M1552.68,598.09c-3.91,1.46-8.41.46-9.97-1.37-2.18-2.57-.02-5.03,1.87-6.25,2.57-1.67,4.95-1.1,6.77-.04,3.09,1.8,4.71,6.4,1.33,7.67Z"/>
  <path class="st13" d="M297.26,582.87c-4.17.02-7.02-2.66-7.32-4.72-.33-2.22,3.91-3.69,6.83-4.04,2.8-.34,6.64,1.19,7.45,2.71,1.32,2.47-1.88,6.02-6.96,6.05Z"/>
  <path class="st5" d="M1595.66,614.38c-4.18.53-6.97-1.17-8.44-3.45-1.18-1.84,2.09-4.9,5.79-5.61,3.84-.73,7.25.44,8.54,3.05.97,1.97-1.3,5.42-5.89,6.01Z"/>
  <path class="st5" d="M1507.43,609.89c-2.8-.7-5.62-2.33-5.73-3.53-.13-1.5,2.15-3.31,4.23-4.11,2.47-.96,5.94-.44,7.54.34,1.43.69,2.24,2.62,1.62,4.72-.47,1.61-3.82,3.53-7.65,2.58Z"/>
  <ellipse class="st5" cx="907.34" cy="995.69" rx="5.83" ry="4.9"/>
  <path class="st13" d="M1492.1,608.26c2.16.09,4.59,3.67,4.96,5.21.59,2.48-3.52,4.4-5.73,4.29-2.89-.14-5.52-1.39-6.26-2.88-1.24-2.5,1.45-6.85,7.03-6.62Z"/>
  <path class="st4" d="M1548.17,506.4c-2.8,2.98-5.3,3.7-7.87,2.28-2.07-1.14-2.14-4.02-.2-6.17,1.8-1.99,3.96-2.46,6.23-2.19,3.06.36,4.87,2.84,1.83,6.07Z"/>
  <polygon class="st5" points="276.33 893.9 286.36 894.77 285.42 902.4 275.39 901.53 276.33 893.9"/>
  <path class="st9" d="M1161.48,382.51c.21,1.11-.5,1.82-1.31,2.11-1.33.49-2.63.06-3.2-.9-1.59-2.66,1.46-2.21,1.93-3.18,1.03.73,1.77,1.6,2.58,1.96Z"/>
  <ellipse class="st9" cx="965.87" cy="813.01" rx="1.93" ry="1.62"/>
  <path class="st3" d="M1659.39,429.02c-3.49-.79-9.23.55-11.8,3.13-1.75,1.75-.17,3.84,1.31,4.32,1.06.34,3.04.55,3.91,1.34,2.16,1.95,4.64,5.37,3.91,7.51-2.08,6.09-14.56,10.38-22.66,5.55-4.04-2.41-4.55-6.44-3.01-11.72l-44.98,9.49-27.14,2.38c-7.73.68-16.51-.88-22.68,4.63,8.62,1.07,15.75-.16,22.94-.9,5.09-.53,12.24,1.37,18.89-1.31,1.4.11,1.68,3.09.23,3.83-13.96,3.84-27.41,8.66-43.49,8.74l-10.27,8.03c-21.19.85-53.71,1.47-65.05,12.7l61.57-3.55,49.03.18c-.33.77-.58,1.76-.43,2.5l-54.44,6.95-10.07,25.05c3.62,3.35,13.38,2.35,14.53-2.57,6.31,2.35,2.89,6.92,3.79,8.51,5.11,9.04,4.53,17.15-3.52,23.32-7.83,6-17.19,6.63-27.36,1.16l-9.56,21.42c11.04,4.81,14.82,17.69,9.79,26.78-1.57,2.84-6.62,3.29-8.63,2.66-2.5-.77-3.3-3.76-5.53-7.95-7.49,9.42-10.74,19.64-14.65,31.73l72.56-.46c20.21-.13,39.34,2.38,58.1,1.49,2.53,6.1,8.61,9.55,13.77,14.4l31.97-6.31c4.21-.83,8.26-.61,11.25.67.9,4.21-4.51,8.67-9.3,10l-24.97,6.92c6.1,2.96,12.12,5.15,15.25,8.71,5.76,6.55,14.87,13.45,15.92,22.86,1.09,9.73-10.68,18.34-21.78,20.8l-67.28,14.91-52.11,5.2-22.53,1.69-64.99,4.66c.07.41-.13,2.07-.35,2.95l63.06.16h6.77s2.48-.02,2.48-.02l10.98.07,4.74.15,2.91,2.83-16.5,2.87c-11.1,1.93-23.34-.89-33.56,6.92l105.45,3.86,43.53-2.6,68.76-13.59c1.77-.35,3.53-.58,4.85-1.87,2,.23,4.42.03,6.41-.31v4.1s-69.82,14.61-69.82,14.61l-121.01,11.08-87.84,8.09c-4.54.42-8.84-.32-11.02,2.98-1.46,2.21-3.75,4.85-2.34,7.65,20.15-1.43,39.3-3.54,58.42-2.74l29.2,1.23c11.07.47,21.61-.74,31.34,1.5.99,5.39-15.27,10.68-24.43,11.52l-4.77.44c-6.07.08-13.06-1.22-18.06,1.87l-33.6,2.05-46.92,2.17c-3.81,1.22-6.54,7.22-6.98,10.88l56.02-3.56c18.39-1.17,36.75-2.83,56.4-1.97,2.49.11,2.95,2.55,2.2,3.84-10.02-1-19.37,2.59-29.15,3.55l-44.45,4.36-47.59,1.44c-3.2.1-2.49,4.71-3.34,5.98-9.69,13.56-17.79,34.93-24.78,51.2-2.63,6.12-5.71,9.65-3.09,15.17.59-.14,1.36-.05,1.71.07,5.02,1.6.07,5.86-2.2,2.23-.14-.23-.51-.62-.98-.93-4.62,2.28-5.61,6.86-7.54,11.36l-16.73,39.01c-5.88,13.71-12.69,29.04-21.41,23.31.44-3.17.05-7.93-3.05-11.94-16.62,9.86-33.72,3.18-33.95,15.06-.08,4.13-3.56,6.83-6.89,8.24-4.19,1.77-7.5,0-9.84-1.95-7.46-6.24,1.72-12.1-.93-15.79-1.93-2.69-14.78-5.13-14.72-10.86.1-9.17-4.96-12.62-14.49-15.43l-13.9-11.71c-2.38-2.01-4.54-5.73-4.63-8.31l-.67-19.14-21.6,16.39-17.01,8.5c9,2.92,16.79,3.16,23.75,7.49,5.51,3.43,5.59,8.61,2.62,12.75-2.17,1-4.12,5.03-7.81,4.3-5.65-1.11-8.07-6.27-18.53-13.98-9.88-7.28-19.64-1.19-29.89,1.57l-47.45,12.77c-22.77,6.13-46.19,5.58-68.81,5.12-5.35-2.48-10.4-5.39-15.73-9.48-7.85,5.85-12.9,11.76-20.92,14.54-5.33,1.85-11.05,3.18-14.12,9.01-3.95,7.49-15.29,11.14-23.64,6.17l-31.97-19.01-99.83,7.06c-9.97,7.1-21.83,11.7-33.39,16.79-8.21,3.61-12.49,4.07-21.97,1.39l-23.48-.14c-4.85-6.46-11.27-8-19.25-7.46-7.17.49-11.45,4.62-15.15,10.94-5.85,10-15.68,9.1-22.57,13.25l-17.3,3.7c-3.02.65-25.96-3.12-32.54-12.42-28.62,3.5-56.05,7.01-82.79,13.69l-22.68,3.72-30.75,6.13c-4.39.88-3.57,6.91-4.78,9.59-1.5,3.33-6.84,6.01-5.3,11.21,25.46-8.44,48.49-15.42,72.58-20.29,15.27-3.09,30.7-4.05,46.92,1.88-7.93,2.7-12.89,3.88-18.16,7.13-4.98,3.07-11.86,3.13-18.42,4.78l-57.21,14.4c-42.3,10.65-79.8,24.9-117.3,47.37,4.12-12.56,18.69-15.04,28.77-23.15l-15.35-5.55c-4.74-3.65-9.49-1.73-15.68.11-26.21,7.78-52.15,14.6-76.41,26.17-8.12,3.87-13.77,10.28-24.79,9.76,7.43-10.06,18.16-10.31,18.5-14.95,1.28-.21,3.25-1.49,4.51-2.08,19.56-9.19,40.77-15.79,63.53-20.38,6.89-1.39,13.32-3.08,19.39-7.87-8.6-4.03-15.9-5.43-24.04-6.98-16.67,9.36-34.15,17.07-52.86,21.14l-33.92,7.4c25.04-18.02,51.99-28.17,81.73-40.38-8.71-4.62-11.52-10.1-9.57-17.31l9.74-36.13c-10.37,10.14-19.23,19.63-26.83,30.9l-12.59,18.68c-2.37-9.23,8.71-16.11,6.53-34.75-.14-1.23,1.59-4.62,1.27-5.56-.4-1.18-3.85-.92-6.11.11,6.18-15.72,14.63-31.14,24.65-46.91l-30.81,26.02-9.3,1.42-17.62,11.29c5.41-19.06,11.03-36.6,23.19-52.01l24.13-30.57c7.12-9.02,18.42-14.63,21.33-26.76-19.01,11.44-25.64,33.51-39.74,28.38-2.39-.87-6.11-4.39-8.97-6.98,3.8-.03,7.59,0,7.71-3.52-6.36.63-18.88-.41-20.67-6.17-3.45-11.11,36.02-11.02,17.73-26.25,7.82-1.41,7.72-8.48,11.33-11.5,12.3-10.3,25.39-19.85,30.1-34.58-15.89,8.92-26.17,14.64-42.32,15.18-9.78.32-19.62.14-26.79-5.42-.54-.42-1.37-.82-2.31-.91l-8.93-7.97c-6.49-5.52-15.06-8.03-22.24-12.92-1.38,2.79-2.89,5.33-4.39,5.85-1.95.67-5.12-1.76-5.21-3.13-.12-1.73.85-4.02,4.33-5.65-8.35-3.96-10.21-9.26-7.52-16.58,8.77-23.86,17.82-46.56,30.19-69.35.93-1.71-5.6-5.01-6.34-4.42,4.56-2.25,6.25-2.25,7.55-2.74,2.22-.84,2.78-4.77.04-5.34-2.13.03-6.06,2.56-9.22,1.69-5.06-1.39-7.74-13.83-16.41-13.08-13,1.12-25.51,4.24-39.51,3.29,4.45-16.17,19.74-26.33,33.29-36.77,14.8-11.41,27.91-22.5,45.71-33.09-18.03-5.46-36.44,5.4-50.25.09,27.21-4.22,51.71-14.73,77.77-24.03,8.19-2.92,10.53-5.86,14.69-12.98l13.28-22.73c-17.21,4.03-29.3,1.18-41.75-5.92-8.2-4.68-14.56-8.36-20.11-15.73l-19.06-15.49c-8.07-6.56-7.5-14.77-.15-21.29l31.73-28.17c3.33-2.95,2.99-7.53,8.81-9.63,7.11-2.56,13.84-6.38,19-10.62-4.38-2.09-5.29-4.64-3.34-6.97,1.18-1.41,3.72-3.47,6.51-3.04,1.91.29,4.57,2.28,6.77,5.18,26.75-14.75,53.41-26.34,82.84-37.82,64.94-25.34,175.91-50.59,240.41-27.12,5.95,2.16,9.76,3.84,16.08-2.56,1.58,3.1.02,4.17-1.12,6.64,6.08,3.3,12.33,2.93,19.64,2.9,4.82,8.57,9.63,16.29,19.16,22.54,53.25-6.64,105.47-11.6,158.98-14.19,23.23-1.12,42.19,3.38,63.51,9.24l47.72,1.69,29.57-19.15c16.27-7.49,35.81-8.98,54.38-9.65l11.72,2.64,40.66-4.94c7.6-.92,18.94,6.5,20.68,12.29,1.1,3.65-.38,7.14.8,9.29,2.08,3.78,13.59,1.34,17.14,6.83.96,1.49.87,4.34-.25,7.18,6.99.35,9.33-4.95,13.23-7.4l11.35-7.12,21.56-10.73c25.68-12.77,53.64-18.52,83.33-14.32,16.97-8.03,36.06-6.71,52.06,2.12,6.62-8.24,24.54-10.36,28.8-2.66l70.68-9.74,6.01-6.08c1.83-1.85,5.7,2.81,7.86,3.71,7.59.29,19.68.41,25.92-2.46,8.62-3.96,11.97-1.66,20.33-1.99l101.19-3.97c27.78-1.09,54.22-.64,81.03,6.01l5.8,13.14c12.82,10.66,24.93,29,24.29,42.83-.41,8.77-9.84,15.44-19.85,18.53l-17.9,5.6ZM1372.67,548.81c1.63.66,2.35,2.22,2.39,4.52l-10.44,34.26c-3.61,11.85-8.12,23.78-4.8,35.49l19.22-2.14c2.58-.29,5.56,3.3,7.02,2.47,5.21-2.97,7.11-9.47,10.43-9.85,2.12-.24,5.14,1.88,9.15,4.2l27.54-80.4c14.77-43.1,37.27-82.86,58.63-123.55l85.37-8.3c15.02-1.46,29.66-3.9,40.66-12.75-17.47-1.53-33.47-.01-51.24-4.76,23.62-9.47,51.52-.74,74.14-13.82-2.16-1.27-4.78-2.83-5.18-3.71-.21-.47,3.8-1.32,7.47-4.14-3.85-3.25-11.47-4.34-19.06-4.24-102.49,1.34-203.48,8.27-304.46,24.95,3.21,6.72,9.94,5.83,15.16,8.2-5.73,1.19-13.86,5.6-11.55,9.26l16.03,8.18c-1.44,7.76-10.76,11.94-8.07,15.41.91,1.18,3.34,1.27,5.42,1.08l79.3-7.42c-16,29.65-27.93,58.07-41.14,87.34-10.46,23.19-19.85,45.25-27.52,69.2-2.77,8.65-5.23,18.6,3.09,25.38l22.42-54.85ZM332.37,592.26c-13.32,3.48-25.9,10.15-37.9,17.44,1.4,1.92,3.02,2.66,5.45,4.47l-38.51,26.79,15.82-1.97c-2.9,6.26-10.17,6.2-12.21,13.41l59.18-25.91-32.1,66c-11.82,24.3-23.29,47.4-30.49,73.76,4.46,3.31,12.19,7.52,19.09,6.77l18.03-10.99c1.59.3,2.28,4.52,3.71,5.09,1.52.61,5.1-.2,6.17-2.07,4.91-8.56,18.69-7.07,31.77-31.97,10.43-19.86,34.11-69.07,40.17-71.44,1.77-.69,3.73.68,3.96,2.2-12.35,22-18.82,45.73-26.25,69.49,3.39,2.48,7.94,2.01,8.96.52,1.68-2.45,2.32-4.63,4.37-8.24l2.61,11.31,32.61-64.43,8.39-31.28c.87-3.25-1.08-6.41-3.64-6.84-2.04-.34-6.06-.3-8.56,1.61-2.25.16-3.3-1.15-2.39-2.8l12.65-22.92c29.73,26.88,58.56,51.61,90.12,75.9,7.16,5.51,16.58,11.36,25.97,11.44,2.01-2.17,1.26-7,3.12-8.17,2.78-1.75,8.9-1.16,13.69-.59l-10.15-20.43c13.21,5.21,20.28,13.58,35.8,12.68l-18.75-19.33-.34-.22-2.51-2.23c-.54-.48-.7-2.07.96-2.28,1.18-.15,3.13,1.37,4,1.98l.94.65,25.04,16.07c4.82,3.09,10.86,4.07,15.42-.79-36.37-31.39-70.94-61.05-105.73-95.62,36.26-18.16,70.51-38,103.85-60.94,24.71-17,47.33-35,63.09-58.2,14.06-17.24,10.31-37.41-3.75-53.13-9.87-11.03-20.81-18.76-37.36-22.13-28.22-5.76-55.61-4.64-84.84-.4-74.77,10.87-143.71,35.86-205.79,72.16-11.9,6.96-23.26,12.41-32.53,22.36,6.37,2.18,10.62-1.32,17.41-1.67l-33.76,21.76c13.74,2.93,25.26-1.33,36.87-5.52-.47,5.04-7.23,8.27-8.83,11.86,1.4,4.78,9.49,4.11,14.02,2.19l87.53-37.07-64.45,112.94c-2.81,4.92-4.16,7.24-9.98,8.76ZM1206.26,394.9c-8.75-.67-16.03,8.61-22.96,11.84-5.63,2.63-8.67,6.02-13.13,9.38-8.94,6.74-17.48,14.05-25.25,21.87-3.84,3.86-8.9,7.28-10.56,12.45-9.27,6.49-15.25,15.96-20.82,24.72l-19.23,30.32-27.43,1.67,7.04-33.65,2.24-11.23c1.58-1.07,1.73-2.51,2.04-4.07l2.51-12.79c1.63-1.15,1.42-2.72,1.92-4.24l11.48-35.47c1.62-.97,2.07-2.54,2.09-4.15l.04-3.72c.02-1.83-.71-2.89-2.35-3.89-6.84-4.16-11.6,2.4-22.27,2.14l-7-.14c-3.84-.49-6.37-2.9-8.61-5.75-2.58-3.28-10.88-2.61-14.13-.15l-4,.16c-2.9.12-4.85.92-7.33,1.63-5.78,1.64-14.61,1.57-19.65,6.16l-22.52,20.5c-2.95,1.21-5.48,3.12-6.82,5.61-.28.52.08,1.58,0,2.12-5.79,2.84-11.5,7.46-11.19,13.43-5.09-.61-7.2,2.89-10.31,6.12l-19.07,19.85-13.43,14.92c-8.37,9.3-16.48,18.82-24.87,28.14l-10.98,12.19.06,1.32c-3.74.33-3.94,4-5.29,5.49l-7.56,8.3-50.72,8.77c-5.83,1.01-9.03,8.25-12.64,12.16,4.26,7.79,13.27,12.31,23.77,11.17l-1.05,7.03,13.74.45-19.15,27.82c-1.72.19-3.22-2.91-5.6-4.11-28-14.11-108.37-.72-150.35,3.57l20.84-42.73c29.6-2.2,57.13-3.81,85.11-13.5l-35.33-2.44,55.35-9.43c17.99-3.06,33.47-10.27,46.16-21.62l-34.58-2.55c5.5-2.75,11.28-2.23,15.46-7-35.9-.2-70.33,7.42-102.92,8.42,7.26-14.8,14.57-27.16,20.1-41.61l74.86-8.64c14.79-1.71,29.24-3.54,41.4-10.41l-96.3,1.23c-.73-.18-1.35-.9-1.37-1.55l109.83-11.82c10.96-1.18,17.92-5.24,25.57-10.76l25.55-6.84c-17.3,1.83-28.28-7.56-42.45-11.28-18.35-4.82-115.41,6.38-154.15,10.51-14.18,1.51-27.24,2.99-41.58,1.95-3.13,10.35-5.41,19.1-10.12,28.12-3.37,6.44-2.6,13.54-5.14,20.15l-27.5,71.35c-12.48,32.4-26.19,63.21-42.56,94.24-3.11,5.9-3.39,11.87.28,15.8,3.91,4.18,11.44,7.38,18.89,6.06,34.43-6.07,67.88-11.01,102.76-15.63l83.33-11.03,9.16-3.83c-.17.61-.21,1.45-.15,2.05l-2.62,7.11-2.42,5.82c-4.81,11.58,13.54-1.74,29.26-19.9,1.69,8.02-4.33,13.24-5.4,20.01,5.37,1.83,7.94.2,10.55.16,3.06-.04,9.35.76,12.48-1.61l37.45-46.56c2.5-2,4.49-4.18,6.37-6.57,5.27-6.67,9.51-14.58,17.28-19.2,2.9.53,5.68.26,7.64-1.37,1.96.26,4.44.3,6.38-.09l18.21-3.67,8.22-.34,40.62-5.53c-.11,2.35-.72,4.88-.12,7.27-2.2,2.25-1.75,5.11-1.81,7.85l-.28,12.84c-2.19,1.65-1.79,3.85-1.82,6.06l-.41,30.15c-.09,6.7,2.77,12.18,9.09,16.31l5.16-8.51c.63-1.04,1.83-1.74,2.87-1.78,1-.03,1.72,1.76,1.81,2.64l9.49,36.46c6.38-1.73,7.3-8.21,10.52-10.59,4.68-3.46,5.77-8.53,4.32-13.58,1.17-2.18,2.45-4.28,4.33-6.15l1.82,4.13c.96,2.17,1.04,4.26,4.38,5.74l.79-5.86.52-5.4,1.65-20.94.3-7.44,8.5-67.9c.98-1.83,5.21-3.09,6.32-4.04.71-.06,1.61-.15,2.3-.03,1.98.35,4.06-.14,4.93-1.77l11.02-2.62-.36,5.89c-1.29,1.22-1.72,2.73-1.79,4.31l-.32,7.09c-1.61,1.17-1.71,2.64-1.81,4.27-.8,12.65-2.04,25.5,2.03,37.66,2.98,8.91,8.64,16.12,16.78,21.92,3.94,2.8,7.23,5.86,12.02,8.38,6.67,3.51,13.89,8.14,23.41,8.84,16.48,1.22,32.74,1.53,48-2.72-13.84-3.25-25.53-2.24-35.4-8.56.26.03.66-.88.4-1.49l11.36.05,3.89.21c1.42,1.36,3.24,1.32,5.15,1.51,8.95.88,17.74,1.23,26.69.04,1.81-.24,3.65-.14,4.91-1.58,11.35-1.21,21.48-5.88,29.97-12.98-6.34-1.64-10.32-.45-14.42-.36l-4.89.18c-1.35-.35-3.57-.33-4.14-2.09l8.83-3.69,6.84-2.13,36.21-16.66,13.18-7.69,11.27-9.11c2.09-1.69,3.55-3.93,5.3-5.71,3.47-3.52,6.18-6.98,7.88-11.47l2.91-7.66c2.45-6.45,6.88-13.73,1.59-21.09-4.73,3.1-8.55,6.27-11.27,9.76l-16.05,20.65c-1.86,2.39-5.59,4.6-8.81,5.27-1.12-5.96,29.6-29.23,20.2-46.9l-31.3,27.81-14.03,11.32c-9.9,7.99-21.42,14.69-33.27,20.49-11.81,5.78-24.65,9.73-37.57,12.66l-11.97-.1c-4.37-2.05-10.37-3.33-10.44-10.09l-.17-16.65c-.11-11.06,2.71-22.65,8.83-32.57l14.65-23.75,19.3-24.38,18.64-17.19c11.67-10.76,30.42-21.15,45.64-24.66l5.43-.33c1.9.87,5.09,2.45,4.23,5.83l-2.89,11.34-5.88,17.48,15.61-.5c2.64-.08,7.15,3.89,10.93,2.76,6.01-1.78,11.21-5.74,15.49-9.12.98,1.8,2.34,3.89,4.6,4.14,9.24-9.19,16.96-20.43,17.98-31.72l.52-5.75c.53-5.84,1.5-11.93-2.19-17.25-4.69-6.77-10.79-12.21-17.77-16.62-6.59-4.17-12.97-7.26-23.06-5.4-11.2,2.06-30.97-11.42-71.78,11.84ZM1498.79,493.42c-17.32-1.21-31.14-.4-29.21,9.07l29.21-9.07ZM374.54,498.66c-8.8-2.13-13.36,1.63-18.84,3.89-8.8,3.63-17.91,5.19-23.92,12.23,16.83-2.44,31-7.86,42.76-16.12ZM1337.27,515.55c8.17-5.66,11.77-10.39,12.74-17.82-5.8,4.5-10.51,6.84-17.39,4.09.43,5.14.6,8.91,4.65,13.74ZM1228.62,505.11c-10.98,6.38-14.86,14.63-20.35,23.37,10.45-5.8,17.4-13.58,20.35-23.37ZM1457.32,566.48l1.62-13.18c7.85.87,11.83-2.07,12.86-7.58.69-3.68-5.43-10.05-10.82-8-9.77,3.7-9.02,12.61-8.38,20.63.23,2.94-3.04,6.37,4.72,8.13ZM551.6,594.99c15.3,1.29,28.84-11.25,39.09-21.83l-26.7,16.3c-3.02,1.84-11.22-1.16-12.39,5.53ZM936.44,615.41c-2.25.24-5.26,2.31-8.06,4,1.74,4.65-.02,7.9-3.29,12.75,11.95-.1,19.64-8.84,20.07-17.07l19.59-7-5.76-4.52c4.21-2.95,9.01-4.46,10.57-10.81-12.14,1.63-23.07,4.79-32.94,10.62.67,4.8.63,8.38-.16,12.04ZM1315.13,628.91l2.8-21.8c-10.55,10.4-22.68,16.72-35.91,24.57l33.11-2.77ZM1449.96,688.22l70.57-4.27c11.55-.7,22.44-1.18,33.51-7.45-9.65-2.09-19.55-7.09-29.06-6.35l-55.69,4.36-22.71.29c5.02-3.92,11.74-5.77,18.58-6.04l28.79-1.15c32.44-1.29,63.88,1.08,96.84-4.97-22.62-4.97-43.62-1.46-65.44-2.66l-40.45-2.23-.02-2.85,56.8-3.48c11.13-.68,22.26-3.35,28.12-11.55-11.83-2.76-20.46-2.36-31.32-2.27-109.82.92-218.21,8.49-326.39,23.1-7.93,1.07-14.28,2.81-20.59,6.67,3.06,4.64,7.67,3.18,12.94,4.89-5.89,2.38-13.24,1.77-17.89,6.85,4.16,6.82,15.01,6.41,21.59,10.64,3.3,3.09-6.8,11.69-13.07,9.29-1.78,1.54-1.54,4.08-.52,5.4,3-2,5.9-2.79,7.88-2.51,1.65.23,3.84,2.87,5.4,5.53l92.91-7.54-40.8,76.98c-16.25,30.66-31.56,60.31-42.21,92.73-1.23,3.76-2.11,7.95,2.3,10.25l37.77-65.5c-9.42,30.17-25.53,57.79-30.69,89.6l16.49,14.84,8.37-12.49c2.83-4.22,8.59-4.07,13.34-10.04,1.28,4.36.19,7.31,4.98,10.82,13.4-19.7,19.43-40.32,29.33-61.27,20.81-44.04,45.69-85.35,69.03-128.39l13.52-24.95,67.81-4.29ZM985.73,769.79c.72,2.13,2.18,2.71,3.08,3.96,2.33,3.23,3.42,7.08,7.44,10.08,9.96,7.42,21.44,13.8,34.95,15.68l46.43,6.46c12.19,1.7,23.79,4.12,34.38,10.6-12.69,18.99-33.82,29.96-57.98,34.66-19.66,3.82-38.75,7.48-60,2.99l17.27-6.69-27.51-.62c-7.41-.17-14.62,1.86-19.35,8.41l18.08,1.02c-5.55,4.93-11.91,2.05-18.41,3.32-7.04,1.38-11.87,12.8-8.11,18.26,9.42,13.69,27.62,19.44,45.67,19.72l41.78.64-32.98,8.53c24.66,2.56,50.78.69,73.76-9.52,36.33-16.15,75.44-39.02,91.7-70.08,5.23-9.99,2.27-19.1-7.26-26.19-50.15-37.31-98.88-30.18-114.71-43.47-7.71-6.47,36.68-39.37,80.12-49.02,18.66-4.15-4.07,17.9-7.23,37.24,9.4-1.21,18.84-.74,26.49-3.63,4.92-1.86,8.71-3.17,14.61-.73,8.64-10.49,11.72-23.05,17.93-34.04,8.25-14.6,2.18-27.93-12.24-36.67-14.9-9.03-29.41-12.85-47.52-7.94-33.26,9.03-62.96,22.88-91.37,40.09-20.33,12.32-37.94,26.48-48.64,45.98-3.58,6.53-2.63,14.3-.38,20.96ZM777.86,665.36c-17.26-1.57-35,1.34-48.56,12.26,17.86,3.25,36.12.75,48.56-12.26ZM966.17,910.32c3.35.3,6.02.39,8.4-1.4-8.77-14.21-21.26-25.1-34.78-36.32l-66.67-55.35c39.06-11.79,68.29-32.45,95.93-56.19,12.6-10.82,18.38-21.54,20.37-36.69,2.64-20.1-7.55-36.63-32.14-42.5-19.45-4.65-40.14-4.02-61.06-3.11-35.97,1.56-68.6,8.99-98.92,24.72-14.49,7.52-30.26,12.83-41.69,24.12,8.33,3.62,15.76,1.47,24.27,2.81l-23.72,7.91,11.27,2.59-11.68,13.35c10.14,1.42,17.03-.99,27.62-2.36l-46.12,101.01-20.64,58.21c3.51,4.88,5.54,8.49,11.71,12.64,1.21-3.83,6.62-8.56,10.13-6.57l7.92,12.92,10.1-10.26c5.32,5.28,11.41,4.77,18.09,1.73-1.15-.96-3.1-2.53-3.23-3.9-.13-1.35,2.38-3.24,4.14-4.09,6.25-7.78,7.2-16.63,10.26-25.45,6.45-18.6,14.74-35.64,25.27-55.04,25.3,24.69,47.47,48.67,77.57,67.5l46.45,29.07c3.16.97,8.53-3.77,10.23-5.59,8.81-9.45,18.22-3.12,22.44-6.45,1.64-1.29.56-3.21-1.55-3.74-.94-.24-1.77-.89-2.82-1.6l-2.6-1.75c.48-1.31,2.27-1.62,3.31-.52.22.2,1.12.22,2.16.32ZM444.67,689.56c-2.73,1.42-4.37,5.23-3.38,6.56,1.11,1.48,4.75,1.01,6.23,1.01,3.24,0,4.46-3.29,3.01-4.7-1.11-1.07-2.36-4.69-5.86-2.87ZM439.93,952.83c1.75.84,2.66,2.5,2.69,4.16.05,3.04-2.21,7.5,3.11,10.67,18.76-33.76,32.68-67.09,48.67-101.88l68.79-11.69c10.99-1.87,22.17-2.35,31.97-9.5l-45.39-2.36,39.54-7.7,22.96-6.6c-.36-1.68-.85-3.88-.54-5.07,6.93-4.27,14.42-7.26,20.24-13.68-23.65-4.63-45.63-3.25-68.56-.53l-44.58,5.28,19.66-53.99c35.5-7.89,69.73-14.76,105.74-18.83,10.08-1.14,19.67-2.59,27.26-9.95-18.19-3.27-33.92.37-52.03.79-3.78,1-4.98-2.18-1.17-3.07,23.8-3.52,46.58-5.63,69.02-10.29l-19.89,40.31c-26.59,53.88-50.56,107.73-63.71,165.28-3.86,16.87,20.25,8.38,31.68,24.67l19.02-24.95c3.75,4.06,2.69,8.07,3.44,12,.93,4.87.39,10.95,3.77,15.94,1.59,2.35,9.41,2.18,11.61.87.12-8.03-9.29-11.21-13.25-17.09,3.01-1.91,6.08-5.38,7.11-9.64,11.92-49.43,30.04-96.54,53.96-142.83l26.62-51.51c3.5-6.78-1.66-12.8-7.07-16.84-5.22-3.89-12.83,1.19-18.66,1.38-5.71-2.87-10.24-8.6-18.42-4.09-1.88,1.03-5.46,2.48-7.68,2.42.64-2.13,1.31-6.52-.97-6.75l-10.51-1.06c8.23-6.37,22.35-5.58,22.77-14.13-21.32-1.09-41.14.84-62.73,3.47-61.74,7.53-121.82,16.07-182.52,27.41-15.27,2.85-29.18,6.53-39.9,15.16,2.5,1.96,4.22,3.82,3.54,4.78-.82,1.15-3.56,2.88-5.75,4.58l14.36,5.44c-7.16,2.89-13.95,4.01-17.88,10.84l24.34.91-30.72,7.13c10.42,17.2,29.06,3.6,57.16,2.84l-25.03,55.85c-24.69,4.41-47.53,11.01-65.41,24.49,6.14,2.25,10.45.38,17.42.73l-13.06,8.29c5.86-.49,9.06-2.38,15.41.22l-13.5,4.14c6.98,12.19,20.82,8.83,38.22,7.32-13.28,30-26.02,57.02-36.85,85.97l-12.14,44.86,24.28,7.71c8.52-5.25,9.82-12.6,16.38-19.19,1.76,7.69-3.22,14.4,3.65,21.43,9.76-18.85,15.02-37,20.14-55.98l3.46-8.14ZM1215.16,769.99c15.52-.93,25.96-2.56,20.23-7.63,2.18-6.1,6.71-12.5,1.74-20.2-15.22,14.3-31.47,24.15-52.61,31.14,11.9,2.25,20.87-1.66,30.63-3.31ZM1368.37,797.02c-6.88-2.58-15.78-3.08-22.1,1.15-3.59,2.4-3.69,6.68-.93,8.37,6.33,3.88,10.74-7.71,23.02-9.52ZM725.64,806.77c-3.68,1.41-2.55,4.06-1.43,6.58.83,1.86,2.68,2.68,5.58.59,1.51-1.08,3.58-2.9,2.61-5.4-.54-1.38-3.09-3.18-6.75-1.78ZM967.81,813.01c0-.9-.87-1.62-1.93-1.62s-1.93.73-1.93,1.62.87,1.62,1.93,1.62,1.93-.73,1.93-1.62ZM962.43,814.68c-33.39,9.58-26.75,22.77-19.99,16.24,6.3-6.09,14.81-8.57,19.99-16.24ZM1217.76,815.73c-5.19-.96-6.57-1.13-10.91-.38,3.65,6.29,5.06,12.03,4.97,18.47l5.94-18.09ZM1323.85,855.2c-1.74-2.29-7.24-3.88-10.09-2.68-3.85,1.62-3.77,11.08,1.13,12.55,5.34,1.6,12.22-5.57,8.96-9.87ZM1160.18,883.24c5.93-5.91,13.62-10.07,17.23-17.63-10.48,1.33-18.64,6.92-25.46,12.33,3.04,2.3,5.23,4.32,8.22,5.3ZM1121.28,906.81c13.54-5.97,24.71-12.31,37.04-20.83-26.22-.88-36.36,4.72-55.91,19.92,4.99.11,13.78,2.84,18.87.91ZM478.6,962.96l30-60.86c6.55,1.89,8.23-1.83,9.11-4.39,1.24-3.63.01-7.43-2.48-9.61-2.42-2.11-7.92-.43-13.09.57l-20.48,53.53c-2.6,6.79-7.62,13.88-3.07,20.77ZM833.21,927.65l-16.49,1.84c-5.59.62-7.92,6.47-6.96,10.39l23.35-.59c1.28-.03,1.76-2.39,1.06-2.86,8.82,1.07,17.51.1,26.33-.62,5.68-.47,11.61.86,18.16-2.59l-16.04-7.23c-9.93.54-19.83-1.23-29.4,1.65ZM587.39,964.11l-20.93,3.26-4.14.22-67.35,10.8c-5.06.81-9.34,3.08-7.64,9.14,25.48-5.7,49.5-10.58,74.17-14.2l6.27-1.67c6-1.6,11.73-2.22,17.71-3.36,5.13-.98,10.5-.62,15.36-4.47-5.15-1.84-9.01-.4-13.45.29Z"/>
  <path class="st3" d="M1266.53,552.2c.38,2.04-.67,3.12-2,4.38l-2.31-2.23c1.29-1.09,2.28-1.82,4.31-2.15Z"/>
  <path class="st3" d="M695.8,714.48c1.04,1.28.21,2.16-.83,2.18l-5.42.09c1.46-1.93,3.71-2.28,6.25-2.27Z"/>
  <path class="st3" d="M687.27,718.57c.39-.78.07-1.79,2.27-1.82-.71.79-1.7,1.16-2.27,1.82Z"/>
  <path class="st13" d="M885.02,981.72c10.21-.69,21.75-1.37,31.54.85-1.62,10.42-17.56,1.85-45.32,5.42l-183.01,23.52-91.05,12.77,6.53-13.63c17.08-4.46,33.74-7.79,50.52-9.68,62.48-7.04,125.39-10.62,188.11-16.02l18.16-1.57,24.54-1.66Z"/>
  <path class="st2" d="M649.51,992.22c-.67,1.95-1.53,3.87-1.74,5.25-.42,2.91,3.96,3.12,6.44,3.49-16.78,1.89-33.44,5.22-50.52,9.68l-6.53,13.63c-2.1.29-4.2-.49-4.98-2.8-1.39-4.13-7.02-2.93-9.09-4.04-4.32-2.32-6.13-5.49-11.08-4.57,5.27-3.25,10.23-4.42,18.16-7.13-16.22-5.94-31.65-4.97-46.92-1.88l-13.95-4.51c2.32-1.84,3.91-3.36,4.88-5.85,26.74-6.68,54.16-10.19,82.79-13.69,6.58,9.29,29.52,13.06,32.54,12.42Z"/>
  <path class="st1" d="M392.5,1050.71c-4.03,3.44-14.16,2.52-17.67,5.26-5.49,4.28-10.43,1.8-14.36,3.31l-41.81,16.04c-30.56,11.73-56.66,28.05-85.58,43.77l36.35-32.18c7.46-6.6,14.23-13.48,24.69-15.11-.35,4.65-11.07,4.9-18.5,14.95,11.01.52,16.67-5.89,24.79-9.76,24.26-11.56,50.2-18.39,76.41-26.17,6.19-1.84,10.94-3.76,15.68-.11Z"/>
  <path class="st11" d="M1653.89,633.22c-.74-.1-1.59-.24-2.21-.51-2.98-1.28-7.04-1.5-11.25-.67l-31.97,6.31c-5.15-4.85-11.24-8.3-13.77-14.4l58.75-2.77,26.8-2.42c-9.94,6.19-16.31,13.26-26.35,14.45Z"/>
  <path class="st1" d="M298.63,1069.71l11.14-12.67c-2.47-.87-3.73-.76-5.13-1.42,18.71-4.08,36.18-11.78,52.86-21.14,8.14,1.55,15.45,2.96,24.04,6.98-6.07,4.8-12.49,6.48-19.39,7.87-22.75,4.6-43.97,11.2-63.53,20.38Z"/>
  <path class="st13" d="M1683.72,685.34c-6.66,3.57-22.48,4.06-27.5-.9-2.14-9.26,12.16-17.2,21.62-18.07,6.7-.62,10.51,3.34,12.37,7.19,1.81,3.73.1,8.24-6.5,11.78Z"/>
  <path class="st1" d="M1171.96,906.93l22.27,2.75c.09,2.59,2.25,6.31,4.63,8.31-1.83,9.23-8.51,13.51-17.54,17.67,2.97-4.14,2.89-9.32-2.62-12.75-6.96-4.33-14.75-4.57-23.75-7.49l17.01-8.5Z"/>
  <path class="st11" d="M1467.04,809.19c-14.74,5.8-30.86,9.49-47.26,9.29-6.85-.09-12.22.7-18.46,2.74-8.83,2.88-19.7.34-29.66-.24.85-1.28.15-5.89,3.34-5.98l47.59-1.44,44.45-4.36Z"/>
  <path class="st11" d="M1521.13,775.23c-1.56-.29-3.55-.13-4.32.94-.38.52-.62,1.57-.5,2.24-9.73-2.24-20.27-1.03-31.34-1.5l-29.2-1.23c9.17-4.91,19.8-6.07,31.42-5.81l26.01.57c5.18.11,5.97,2.62,7.93,4.8Z"/>
  <path class="st7" d="M1521.13,775.23c2.85,3.16,8.09,1.09,14.53,5.39-8.28.7-11.93,2.46-17.86,5.45l-20.46,10.12c-1.57-.16-3.81-.26-4.66.11-2.24.98-5.6-2.19-2.65-3.37l4.11-1.64c.54-.22-1.16-1.71-2.25-1.36,9.15-.84,25.42-6.14,24.43-11.52-.12-.67.12-1.72.5-2.24.78-1.07,2.76-1.22,4.32-.94Z"/>
  <path class="st11" d="M1154.97,925.99c-13.06,10.87-20.62,4.56-22.76,7.17-.88,1.08-.09,4.29-4.88,4.77-.7-3.99.07-7.55-2.25-10.36,10.25-2.76,20.01-8.85,29.89-1.57Z"/>
  <path class="st7" d="M1496.7,798.24c2.19,1.12,3.96,3.01,4.07,4.58.17,2.42-2.12,3.07-4.59,2.82.75-1.28.28-3.73-2.2-3.84-19.65-.86-38.01.8-56.4,1.97l24.78-5.71,34.34.18Z"/>
  <path class="st11" d="M1642.37,642.72c1.32,3.21,4.36,4.58,7.33,5.87l-13.06,5.08c-2.52.98-3.6,2.69-3.99,4.68-3.13-3.56-9.15-5.75-15.25-8.71l24.97-6.92Z"/>
  <path class="st5" d="M1658.57,722.62c1.8,4.68-4.62,7.17-7.6,8.06-4.16,1.25-10.24.76-11.84-3.49-1.41-3.73,3.29-6.45,5.89-7.56,3.64-1.55,11.73-1.75,13.55,2.98Z"/>
  <path class="st11" d="M1507.57,725.79c4.28-.19,12.56.92,12.89,6.46.3,4.95-7.11,1.86-10,2.36l-2.91-2.83c-.6-.53-.78-1.27-1.6-1.64-1.56-.72-3.15.15-3.14,1.49l-10.98-.07c-.11-1.84-2.44-1.83-2.48.04h-6.77c.37-1.77,2.62-4.81,5.05-4.92l19.94-.89Z"/>
  <path class="st0" d="M1008.83,945.46c-11.38-.23-24.09.13-31.76,7.68-1.27-1.57-2.92-2.2-4.89-2.62,8.02-2.78,13.07-8.69,20.92-14.54,5.33,4.09,10.38,7,15.73,9.48Z"/>
  <path class="st7" d="M1649.7,648.59c-2.97-1.29-6.01-2.66-7.33-5.87,4.79-1.33,10.2-5.79,9.3-10,.63.27,1.48.41,2.21.51-.48,1.49.44,4.4,2.02,5.02s5.66.86,6.85,2.75c-2.63,4.24-9.12,6.06-13.06,7.6Z"/>
  <path class="st7" d="M1419.77,818.48c1.19,2.28,6.14,2.03,8.21,2.4,2.56,3.03-2.58,5.63-3.51,7.57-.06-1.44.37-3.82-.37-4.91-1.11-1.62-14.39-2.55-22.09.98l-.7-3.3c6.24-2.04,11.61-2.82,18.46-2.74Z"/>
  <path class="st2" d="M972.18,950.52c1.97.42,3.62,1.05,4.89,2.62-2.69,2.65-7.85,4.17-9.91,8.19-1.6,3.12-2.28,7.09-4.51,8.62-7.17,4.9-19.33-2.54-33.47.86,1.77,3.88,4.41,5.02,6.1,6.93l.71.8c2.14,1.75-.64,2.02-.88,2-.8-.92-1.67-.86-2.32-.93-5.83,1.77-10.3,4.3-16.23,2.95-9.78-2.22-21.33-1.54-31.54-.85-3-6.02-15.2.97-34-1-3.71-.39-6.82,1.22-8.86,1.89-17.69.01-32.05-7.76-50.84-7.08-20.48,6.28-39.84,7.74-61.21,8.47-21.68.74-42.5,4.8-63.31,4.53,6.89-4.15,16.72-3.25,22.57-13.25,3.7-6.33,7.98-10.46,15.15-10.94,7.98-.54,14.4,1,19.25,7.46l23.48.14c9.48,2.68,13.76,2.22,21.97-1.39,11.56-5.08,23.42-9.69,33.39-16.79l99.83-7.06,31.97,19.01c8.35,4.96,19.69,1.32,23.64-6.17,3.07-5.83,8.79-7.16,14.12-9.01ZM851.53,975.55c10.82-2.62,21.49.46,34.29-2.27,6.37-1.36,12.4-1.76,20.98-6.43-9.79-8.92-31.83-8.87-33.02-.45l-18.13,1.49c-3.34-5.52-9.22-7.83-16.82-8.03-5.41-.15-15.81,4.77-15.5,9.75,6.34,8.55,19.39,8.08,28.2,5.94Z"/>
  <path class="st8" d="M659.93,935.59l-2.13.28c-.75-3.92.31-7.94-3.44-12l-19.02,24.95c-11.43-16.29-35.54-7.8-31.68-24.67,13.15-57.55,37.13-111.41,63.71-165.28l19.89-40.31c.58-.67,1.56-1.03,2.27-1.82l5.42-.09c1.04-.02,1.88-.9.83-2.18,2.23.06,5.81-1.38,7.68-2.42,8.17-4.51,12.71,1.22,18.42,4.09,5.83-.19,13.44-5.28,18.66-1.38,5.41,4.04,10.57,10.07,7.07,16.84l-26.62,51.51c-23.92,46.29-42.04,93.4-53.96,142.83-1.03,4.26-4.1,7.73-7.11,9.64ZM676.96,779.7c6.18-17.98,15.57-34.55,16.73-54.22l-20.86,50.37c-.6,1.45-.03,3.4.89,4.1.53.4,1.7,1.02,3.24-.25Z"/>
  <path class="st8" d="M695.8,714.48c-2.54-.01-4.79.33-6.25,2.27-2.2.04-1.88,1.04-2.27,1.82-22.44,4.67-45.22,6.77-69.02,10.29-3.8.89-2.61,4.07,1.17,3.07,18.11-.42,33.84-4.07,52.03-.79-7.59,7.36-17.18,8.81-27.26,9.95-36.01,4.07-70.24,10.94-105.74,18.83l-19.66,53.99,44.58-5.28c22.93-2.71,44.91-4.09,68.56.53-5.81,6.42-13.3,9.41-20.24,13.68-.31,1.19.19,3.39.54,5.07l-22.96,6.6-39.54,7.7,45.39,2.36c-9.8,7.15-20.98,7.64-31.97,9.5l-68.79,11.69c-15.98,34.79-29.91,68.13-48.67,101.88-5.32-3.17-3.06-7.63-3.11-10.67l9.95-26.27c-8.47,6.82-9.66,15.12-12.63,22.12l-3.46,8.14c-5.12,18.97-10.37,37.13-20.14,55.98-6.88-7.03-1.89-13.74-3.65-21.43-6.56,6.59-7.86,13.94-16.38,19.19l-24.28-7.71,12.14-44.86c10.84-28.96,23.58-55.98,36.85-85.97-17.4,1.5-31.24,4.87-38.22-7.32l13.5-4.14c-6.35-2.61-9.56-.71-15.41-.22l13.06-8.29c-6.97-.35-11.28,1.52-17.42-.73,17.87-13.49,40.72-20.08,65.41-24.49l25.03-55.85c-28.1.76-46.74,14.36-57.16-2.84l30.72-7.13-24.34-.91c3.94-6.83,10.72-7.95,17.88-10.84l-14.36-5.44c2.19-1.71,4.93-3.43,5.75-4.58.68-.96-1.04-2.82-3.54-4.78,10.72-8.64,24.64-12.31,39.9-15.16,60.7-11.33,120.78-19.87,182.52-27.41,21.58-2.63,41.41-4.56,62.73-3.47-.42,8.55-14.53,7.76-22.77,14.13l10.51,1.06c2.28.23,1.61,4.62.97,6.75Z"/>
  <path class="st1" d="M842.16,982.61l.16,2.34c-62.72,5.4-125.63,8.99-188.11,16.02-2.48-.37-6.86-.59-6.44-3.49.2-1.38,1.07-3.3,1.74-5.25l17.3-3.7c20.81.28,41.63-3.79,63.31-4.53,21.37-.73,40.73-2.19,61.21-8.47,18.78-.68,33.14,7.09,50.84,7.08Z"/>
  <path class="st0" d="M478.6,962.96c-4.56-6.88.47-13.98,3.07-20.77l20.48-53.53c5.17-1,10.67-2.68,13.09-.57,2.49,2.17,3.72,5.98,2.48,9.61-.88,2.57-2.56,6.28-9.11,4.39l-30,60.86Z"/>
  <path class="st2" d="M534.18,993.5c-.96,2.5-2.56,4.01-4.88,5.85l13.95,4.51c-24.08,4.87-47.12,11.85-72.58,20.29-1.54-5.2,3.8-7.88,5.3-11.21,3.29,2.82,8.52.54,11.47-1.58,10.58-7.63,25.35-6.64,24.05-14.13l22.68-3.72Z"/>
  <path class="st0" d="M1121.28,906.81c-5.09,1.93-13.88-.8-18.87-.91,19.56-15.2,29.69-20.8,55.91-19.92-12.33,8.52-23.5,14.86-37.04,20.83Z"/>
  <path class="st0" d="M1235.4,762.37l-15.12,4.22c-2.54.7-4.07,1.56-5.11,3.41-9.76,1.65-18.73,5.56-30.63,3.31,21.14-6.99,37.39-16.85,52.61-31.14,4.96,7.7.44,14.1-1.74,20.2Z"/>
  <path class="st1" d="M562.32,967.59l-.82,5.74c-24.67,3.62-48.69,8.51-74.17,14.2-1.7-6.06,2.58-8.33,7.64-9.14l67.35-10.8Z"/>
  <path class="st1" d="M1484.86,723.81l2.77,2.87c-2.43.11-4.68,3.15-5.05,4.9l-63.06-.16c.23-.88.43-2.53.35-2.95l64.99-4.66Z"/>
  <path class="st1" d="M833.21,927.65c.24,1.01.53,2.05.34,2.67-.6,2.06-.63,4.27.61,6.12.71.47.22,2.82-1.06,2.86l-23.35.59c-.96-3.92,1.37-9.77,6.96-10.39l16.49-1.84Z"/>
  <polygon class="st1" points="1194.23 909.68 1171.96 906.93 1193.56 890.54 1194.23 909.68"/>
  <path class="st11" d="M511.5,997.22c1.3,7.49-13.47,6.5-24.05,14.13l-6.69-8,30.75-6.13Z"/>
  <path class="st1" d="M1160.18,883.24c-2.99-.98-5.18-2.99-8.22-5.3,6.81-5.41,14.98-11,25.46-12.33-3.61,7.56-11.31,11.72-17.23,17.63Z"/>
  <path class="st1" d="M657.8,935.87l2.13-.28c3.96,5.88,13.37,9.06,13.25,17.09-2.2,1.32-10.02,1.48-11.61-.87-3.38-4.99-2.84-11.07-3.77-15.94Z"/>
  <path class="st9" d="M962.43,814.68c-5.17,7.67-13.69,10.15-19.99,16.24-6.76,6.54-13.4-6.66,19.99-16.24Z"/>
  <path class="st11" d="M860.5,935.82l-7.1-7.09c2.69-.76,7.1.06,9.21-2.73l16.04,7.23c-6.55,3.45-12.47,2.12-18.16,2.59Z"/>
  <g>
    <path class="st8" d="M988.81,773.75l14.56-1.57c4.24-.48,8.02-8.36,4.59-11.95-3.39,4.5-4.31,9.7-10.02,11.87-.85-2.77-.23-4.36-3.45-7.36-2.8,3.1-4.99,5.14-8.76,5.05-2.26-6.65-3.21-14.43.38-20.96,10.7-19.5,28.31-33.66,48.64-45.98,28.41-17.21,58.11-31.06,91.37-40.09,18.11-4.91,32.62-1.09,47.52,7.94,14.43,8.74,20.49,22.06,12.24,36.67-6.21,10.99-9.29,23.55-17.93,34.04-5.9-2.44-9.69-1.13-14.61.73-7.65,2.89-17.09,2.42-26.49,3.63,3.16-19.34,25.89-41.38,7.23-37.24-43.44,9.65-87.83,42.55-80.12,49.02,15.83,13.29,64.56,6.16,114.71,43.47,9.53,7.09,12.49,16.19,7.26,26.19-16.26,31.06-55.37,53.94-91.7,70.08-22.98,10.21-49.1,12.08-73.76,9.52l32.98-8.53-41.78-.64c-18.06-.28-36.26-6.03-45.67-19.72-3.75-5.46,1.07-16.88,8.11-18.26,6.5-1.27,12.86,1.61,18.41-3.32l-18.08-1.02c4.73-6.55,11.94-8.58,19.35-8.41l27.51.62-17.27,6.69c21.25,4.48,40.34.83,60-2.99,24.16-4.7,45.3-15.67,57.98-34.66-10.59-6.48-22.19-8.9-34.38-10.6l-46.43-6.46c-13.51-1.88-24.99-8.27-34.95-15.68-4.03-3-5.12-6.85-7.44-10.08Z"/>
    <path class="st14" d="M988.81,773.75c-.9-1.25-2.36-1.83-3.08-3.96,3.77.09,5.96-1.95,8.76-5.05,3.21,3,2.6,4.59,3.45,7.36,5.71-2.17,6.63-7.37,10.02-11.87,3.43,3.59-.35,11.47-4.59,11.95l-14.56,1.57Z"/>
  </g>
  <path class="st7" d="M853.4,928.73l7.1,7.09c-8.83.73-17.51,1.69-26.33.62-1.24-1.85-1.21-4.05-.61-6.12,6.71,3.04,13.24.27,19.85-1.59Z"/>
  <path class="st4" d="M442.62,956.98c-.03-1.66-.94-3.31-2.69-4.16,2.97-7,4.16-15.3,12.63-22.12l-9.95,26.27Z"/>
  <path class="st0" d="M1217.76,815.73l-5.94,18.09c.09-6.44-1.32-12.17-4.97-18.47,4.34-.75,5.73-.58,10.91.38Z"/>
  <path class="st1" d="M862.61,926c-2.11,2.79-6.52,1.97-9.21,2.73-6.61,1.87-13.14,4.63-19.85,1.59.18-.63-.1-1.67-.34-2.67,9.57-2.88,19.47-1.11,29.4-1.65Z"/>
  <path class="st7" d="M1235.4,762.37c5.72,5.07-4.71,6.7-20.23,7.63,1.04-1.85,2.58-2.71,5.11-3.41l15.12-4.22Z"/>
  <path class="st1" d="M587.39,964.11l-1.91,4.18c-5.98,1.14-11.71,1.76-17.71,3.36l-1.31-4.28,20.93-3.26Z"/>
  <path class="st7" d="M487.45,1011.35c-2.95,2.13-8.18,4.4-11.47,1.58,1.2-2.67.39-8.71,4.78-9.59l6.69,8Z"/>
  <path class="st9" d="M725.64,806.77c3.67-1.4,6.22.4,6.75,1.78.98,2.5-1.1,4.31-2.61,5.4-2.9,2.09-4.75,1.27-5.58-.59-1.12-2.52-2.25-5.18,1.43-6.58Z"/>
  <path class="st0" d="M585.48,968.29l1.91-4.18c4.45-.69,8.3-2.13,13.45-.29-4.85,3.85-10.23,3.49-15.36,4.47Z"/>
  <polygon class="st0" points="566.46 967.37 567.77 971.65 561.5 973.32 562.32 967.59 566.46 967.37"/>
  <path class="st7" d="M1487.12,790.37c-4.44,3.74-12.68,1.55-18.06,1.87,4.99-3.1,11.99-1.79,18.06-1.87Z"/>
  <path class="st1" d="M1507.56,731.78l-4.74-.15c0-1.35,1.58-2.21,3.14-1.49.81.37,1,1.12,1.6,1.64Z"/>
  <path class="st1" d="M1491.83,731.56l-2.48.04c.04-1.86,2.36-1.88,2.48-.04Z"/>
  <path class="st3" d="M855.65,967.9l-4.12,7.66c-8.81,2.14-21.86,2.61-28.2-5.94-.3-4.98,10.09-9.89,15.5-9.75,7.6.21,13.48,2.51,16.82,8.03Z"/>
  <path class="st13" d="M885.82,973.28c-3.32-2.93-7.57-7.25-12.04-6.88,1.2-8.42,23.23-8.48,33.02.45-8.59,4.68-14.61,5.07-20.98,6.43Z"/>
  <path class="st1" d="M873.78,966.4c4.48-.37,8.72,3.95,12.04,6.88-12.8,2.73-23.47-.35-34.29,2.27l4.12-7.66,18.13-1.49Z"/>
  <path class="st7" d="M885.02,981.72l-24.54,1.66-18.16,1.57-.16-2.34c2.04-.66,5.15-2.28,8.86-1.89,18.8,1.97,31-5.02,34,1Z"/>
  <path class="st3" d="M921.28,750.54c-28.39,16.42-57.64,30.06-91.44,39.83l30.55-63.04c24.46-9.87,52.81-7.97,78.16,1.63-3.64,9.61-10.17,14.38-17.28,21.59Z"/>
  <g>
    <path class="st8" d="M963.29,912.28c1.06.71,1.88,1.37,2.82,1.6,2.11.53,3.19,2.44,1.55,3.74-4.23,3.33-13.64-2.99-22.44,6.45-1.7,1.82-7.07,6.57-10.23,5.59l-46.45-29.07c-30.1-18.84-52.27-42.81-77.57-67.5-10.53,19.4-18.82,36.44-25.27,55.04-3.06,8.82-4.01,17.67-10.26,25.45-1.76.85-4.27,2.74-4.14,4.09.13,1.37,2.08,2.94,3.23,3.9-6.68,3.04-12.77,3.55-18.09-1.73l-10.1,10.26-7.92-12.92c-3.51-1.99-8.92,2.73-10.13,6.57-6.16-4.15-8.2-7.76-11.71-12.64l20.64-58.21,46.12-101.01c-10.6,1.37-17.48,3.78-27.62,2.36l11.68-13.35-11.27-2.59,23.72-7.91c-8.51-1.34-15.94.81-24.27-2.81,11.44-11.29,27.2-16.6,41.69-24.12,30.32-15.73,62.96-23.16,98.92-24.72,20.92-.91,41.62-1.53,61.06,3.11,24.58,5.88,34.77,22.4,32.14,42.5-1.99,15.15-7.77,25.87-20.37,36.69-27.64,23.74-56.87,44.41-95.93,56.19l66.67,55.35c13.52,11.23,26.01,22.11,34.78,36.32-2.38,1.8-5.04,1.7-8.4,1.4l-2.87,1.95ZM921.28,750.54c7.11-7.2,13.64-11.98,17.28-21.59-25.36-9.59-53.71-11.5-78.16-1.63l-30.55,63.04c33.8-9.77,63.05-23.41,91.44-39.83ZM925.91,779.42c14.25-19.02,35.41-36.35,24.63-35.85-11.68,14-27.99,23.19-37.72,41.11,6.49,1.51,10.59-1.94,13.08-5.26ZM788.68,751.37l-8.06,25.66c15.78-17.16,10.67-33.96,8.06-25.66ZM916,907.02c-8.36-7.93-16.33-16.15-28.46-21.05,6.75,9.39,14.39,18.08,28.46,21.05ZM964.01,910.01c-1.04-1.1-2.84-.8-3.31.52l3.31-.52Z"/>
    <path class="st5" d="M925.91,779.42c-2.49,3.32-6.59,6.77-13.08,5.26,9.72-17.92,26.04-27.11,37.72-41.11,10.78-.5-10.38,16.83-24.63,35.85Z"/>
    <path class="st4" d="M916,907.02c-14.07-2.97-21.71-11.66-28.46-21.05,12.12,4.9,20.09,13.12,28.46,21.05Z"/>
    <path class="st4" d="M788.68,751.37c2.61-8.3,7.72,8.51-8.06,25.66l8.06-25.66Z"/>
  </g>
  <g>
    <polygon class="st10" points="1507.39 722.12 1507.57 725.79 1487.63 726.68 1484.86 723.81 1507.39 722.12"/>
    <path class="st8" d="M1469.29,674.51c1.31.21,3.9-.4,4.87,2.41l-18.66,2.78c-.15,1.05,2.95,5.38,1,6.14l-6.54,2.38-67.81,4.29-13.52,24.95c-23.34,43.04-48.22,84.35-69.03,128.39-9.9,20.95-15.93,41.57-29.33,61.27-4.78-3.51-3.7-6.46-4.98-10.82-4.75,5.97-10.51,5.82-13.34,10.04l-8.37,12.49-16.49-14.84c5.17-31.81,21.27-59.43,30.69-89.6l-37.77,65.5c-4.4-2.3-3.53-6.49-2.3-10.25,10.64-32.42,25.96-62.08,42.21-92.73l40.8-76.98-92.91,7.54c-1.56-2.67-3.75-5.3-5.4-5.53-1.98-.28-4.88.51-7.88,2.51-1.02-1.32-1.26-3.86.52-5.4,6.27,2.41,16.37-6.2,13.07-9.29-6.58-4.23-17.43-3.82-21.59-10.64,4.64-5.08,12-4.47,17.89-6.85-5.27-1.71-9.88-.25-12.94-4.89,6.32-3.87,12.66-5.6,20.59-6.67,108.19-14.62,216.57-22.19,326.39-23.1,10.86-.09,19.49-.49,31.32,2.27-5.86,8.19-16.99,10.87-28.12,11.55l-56.8,3.48.02,2.85,40.45,2.23c21.82,1.2,42.81-2.31,65.44,2.66-32.96,6.05-64.4,3.68-96.84,4.97l-28.79,1.15c-6.84.27-13.57,2.12-18.58,6.04l22.71-.29ZM1260.18,812.45c3.07-1.84,2.65-4.05,1.28-5.13l-3.47,2.93c-1.39,1.17.47,3.24,2.19,2.2Z"/>
    <path class="st2" d="M1449.96,688.22l6.54-2.38c1.95-.76-1.15-5.09-1-6.14l18.66-2.78c-.97-2.81-3.56-2.2-4.87-2.41l55.69-4.36c9.51-.74,19.41,4.26,29.06,6.35-11.07,6.27-21.96,6.75-33.51,7.45l-70.57,4.27Z"/>
    <path class="st0" d="M1368.37,797.02c-12.29,1.82-16.69,13.4-23.02,9.52-2.76-1.69-2.66-5.98.93-8.37,6.32-4.22,15.22-3.73,22.1-1.15Z"/>
    <path class="st9" d="M1323.85,855.2c3.26,4.29-3.61,11.47-8.96,9.87-4.9-1.47-4.99-10.93-1.13-12.55,2.85-1.2,8.35.4,10.09,2.68Z"/>
    <path class="st3" d="M1260.18,812.45c-1.72,1.04-3.58-1.03-2.19-2.2l3.47-2.93c1.37,1.08,1.79,3.29-1.28,5.13Z"/>
  </g>
  <path class="st4" d="M676.96,779.7c-1.54,1.27-2.71.65-3.24.25-.93-.7-1.49-2.65-.89-4.1l20.86-50.37c-1.16,19.67-10.55,36.24-16.73,54.22Z"/>
  <g>
    <path class="st1" d="M1524.56,474.03c-2.34,1.83-2.75,6.38-3.48,9.15l-61.57,3.55c11.34-11.23,43.87-11.85,65.05-12.7Z"/>
    <path class="st4" d="M1158.9,380.55c-.47.96-3.52.51-1.93,3.18.58.97,1.87,1.39,3.2.9.81-.3,1.52-1.01,1.31-2.11,2.96,1.34,4.83,3.62,6.78,6.53l-11.35,7.12c-7.66-1.07-9.87-5.42-10.96-11.51-.13-.74-4.24-2.15-3.79-2.79.4-.56,1.96-1,2.24-1.1,2.99.47,8.1.19,9.49-1.72,1.77-2.45.71-5.65-.02-7.74,3.99,1.05,6.37,6.54,5.04,9.25Z"/>
    <path class="st1" d="M1578.32,457.25c1.45-.74,1.17-3.71-.23-3.83-6.66,2.69-13.8.79-18.89,1.31l-.27-3.72,27.14-2.38c.23,2.46-.36,4.85-1.63,7.04-1.27,2.19-4.53,1.14-6.12,1.57Z"/>
    <path class="st8" d="M832.89,603.36l-10.49,15.23c-11.42.36-22.44,1.38-33.13,4.9,8.84,1.66,14.5,1.51,21.91,4.51l-2.74,3.8-83.33,11.03c-34.88,4.62-68.33,9.56-102.76,15.63-7.44,1.31-14.97-1.88-18.89-6.06-3.67-3.92-3.39-9.89-.28-15.8,16.37-31.03,30.07-61.84,42.56-94.24l27.5-71.35c2.55-6.61,1.77-13.71,5.14-20.15,4.72-9.02,6.99-17.76,10.12-28.12,14.34,1.04,27.4-.44,41.58-1.95,38.74-4.13,135.8-15.34,154.15-10.51,14.17,3.73,25.15,13.11,42.45,11.28l-25.55,6.84c-7.65,5.53-14.61,9.58-25.57,10.76l-109.83,11.82c.02.65.64,1.37,1.37,1.55l96.3-1.23c-12.16,6.87-26.6,8.7-41.4,10.41l-74.86,8.64c-5.53,14.46-12.84,26.82-20.1,41.61,32.59-1,67.02-8.62,102.92-8.42-4.17,4.77-9.95,4.25-15.46,7l34.58,2.55c-12.68,11.35-28.17,18.55-46.16,21.62l-55.35,9.43,35.33,2.44c-27.98,9.69-55.51,11.3-85.11,13.5l-20.84,42.73c41.98-4.28,122.35-17.67,150.35-3.57,2.38,1.2,3.88,4.31,5.6,4.11ZM646.83,570.78c1.3-2.8,3.21-5.72-1.42-7.83l-16.33,44.74c11.72-10.9,11.71-23.91,17.75-36.91ZM660.08,573.04l-16.15,24.32c-1.5,2.26.45,4.01,1.98,4.24,5.43.82,9.54-14.81,14.16-28.56Z"/>
    <path class="st1" d="M384.51,663.83c5.54-9.88,9.17-20.75,18.5-27.87,2.5-1.9,6.52-1.95,8.56-1.61,2.56.42,4.51,3.59,3.64,6.84l-8.39,31.28-32.61,64.43-2.61-11.31c-2.06,3.62-2.69,5.79-4.37,8.24-1.02,1.49-5.57,1.96-8.96-.52,7.43-23.76,13.91-47.49,26.25-69.49Z"/>
    <path class="st1" d="M945.15,615.09c-2.97,1.06-5.76.82-8.71.33.8-3.66.84-7.24.16-12.04,9.87-5.83,20.8-8.99,32.94-10.62-1.56,6.35-6.36,7.86-10.57,10.81l5.76,4.52-19.59,7Z"/>
    <path class="st0" d="M777.86,665.36c-12.44,13.01-30.71,15.51-48.56,12.26,13.57-10.93,31.3-13.83,48.56-12.26Z"/>
    <path class="st10" d="M1315.13,628.91l-33.11,2.77c13.23-7.84,25.36-14.16,35.91-24.57l-2.8,21.8Z"/>
    <path class="st9" d="M1457.32,566.48c-7.76-1.76-4.49-5.19-4.72-8.13-.64-8.02-1.39-16.93,8.38-20.63,5.39-2.04,11.51,4.32,10.82,8-1.03,5.5-5.02,8.45-12.86,7.58l-1.62,13.18Z"/>
    <path class="st0" d="M374.54,498.66c-11.75,8.26-25.93,13.68-42.76,16.12,6.01-7.04,15.12-8.6,23.92-12.23,5.48-2.26,10.04-6.02,18.84-3.89Z"/>
    <path class="st0" d="M945.15,615.09c-.43,8.23-8.12,16.97-20.07,17.07,3.27-4.85,5.02-8.1,3.29-12.75,2.81-1.69,5.81-3.75,8.06-4,2.96.5,5.74.74,8.71-.33Z"/>
    <path class="st4" d="M822.4,618.59c-2.1,3.05-4.18,6.16-4.8,9.38l-9.16,3.83,2.74-3.8c-7.41-3-13.08-2.85-21.91-4.51,10.7-3.52,21.71-4.54,33.13-4.9Z"/>
    <path class="st9" d="M1337.27,515.55c-4.05-4.82-4.22-8.6-4.65-13.74,6.88,2.76,11.59.42,17.39-4.09-.96,7.43-4.56,12.16-12.74,17.82Z"/>
    <path class="st9" d="M1498.79,493.42l-29.21,9.07c-1.94-9.47,11.89-10.28,29.21-9.07Z"/>
    <path class="st9" d="M1228.62,505.11c-2.94,9.8-9.89,17.57-20.35,23.37,5.48-8.75,9.37-16.99,20.35-23.37Z"/>
    <path class="st9" d="M551.6,594.99c1.17-6.7,9.37-3.69,12.39-5.53l26.7-16.3c-10.24,10.58-23.79,23.12-39.09,21.83Z"/>
    <path class="st9" d="M1558.93,451.01l.27,3.72c-7.19.75-14.33,1.97-22.94.9,6.17-5.5,14.95-3.95,22.68-4.63Z"/>
    <g>
      <path class="st8" d="M1375.06,553.33c2.69-8.82,8.27-16.66,8.21-25.57-7.56,6.35-7.9,14.44-10.6,21.05l-22.42,54.85c-8.32-6.77-5.86-16.73-3.09-25.38,7.67-23.94,17.06-46.01,27.52-69.2,13.21-29.26,25.14-57.69,41.14-87.34l-79.3,7.42c-2.08.19-4.51.1-5.42-1.08-2.69-3.47,6.63-7.64,8.07-15.41l-16.03-8.18c-2.32-3.66,5.81-8.07,11.55-9.26-5.22-2.37-11.95-1.48-15.16-8.2,100.98-16.68,201.97-23.61,304.46-24.95,7.59-.1,15.21.99,19.06,4.24-3.67,2.82-7.69,3.67-7.47,4.14.4.88,3.02,2.44,5.18,3.71-22.62,13.08-50.52,4.34-74.14,13.82,17.77,4.74,33.77,3.23,51.24,4.76-11,8.85-25.64,11.29-40.66,12.75l-85.37,8.3c-21.36,40.69-43.86,80.45-58.63,123.55l-27.54,80.4c-4-2.32-7.03-4.44-9.15-4.2-3.33.37-5.23,6.88-10.43,9.85-1.47.84-4.44-2.75-7.02-2.47l-19.22,2.14c-3.32-11.71,1.19-23.63,4.8-35.49l10.44-34.26Z"/>
      <path class="st4" d="M1375.06,553.33c-.05-2.3-.77-3.86-2.39-4.52,2.7-6.61,3.04-14.7,10.6-21.05.06,8.91-5.52,16.75-8.21,25.57Z"/>
    </g>
    <path class="st10" d="M444.67,689.56c3.49-1.82,4.75,1.79,5.86,2.87,1.45,1.41.23,4.7-3.01,4.7-1.48,0-5.12.47-6.23-1.01-.99-1.33.65-5.13,3.38-6.56Z"/>
    <g>
      <path class="st6" d="M1301.1,388.46c6.98,4.42,13.07,9.85,17.77,16.62l-2.72,11.66c-.4,2.04.27,4.65,1.4,5.47.71.52,2.85.36,3.51.12l-.52,5.75c-5.37-.2-15.05,12.05-13.12,20.11l-9.46,7.47c-4.28,3.38-9.48,7.34-15.49,9.12-3.79,1.12-8.3-2.85-10.93-2.76-1.44-8.07-4.9-17.31-9.73-16.98l2.89-11.34c.86-3.38-2.33-4.96-4.23-5.83-.83-.39-1.58-2.22-2.89-1.35l-2.54,1.68c-15.22,3.5-33.97,13.9-45.64,24.66l-18.64,17.19c-3.96-.9-8.18-.54-9.47,2.05l-3.57,7.17c-5.7,4.82-10.56,8.74-6.26,15.17l-14.65,23.75c-2.05,1.09-6.64,2.28-8.08,4.82-6.96,12.23-8.77,30.79-.74,27.75l.17,16.65c.07,6.76,6.07,8.04,10.44,10.09,5.07,2.38,7.23,1.17,11.97.1,12.92-2.93,25.76-6.88,37.57-12.66,11.92,2.02,22.09-.56,27.96-10.16,1.91-3.12,7.25-5.67,5.31-10.33l14.03-11.32c4.52.96,8.1,1.76,12.94,4.62l-9.14,12.05c-14.74,10.42-11.87,16.38-15.82,20.03-1.22,1.12.06,3.07,2.25,2.27,1.59-.58,2.56-1.61,3.6-2.65.82-.59,2.84-.98,3.73-1.83,13.61,1.63,23.63-9.37,22.35-20.68l16.05-20.65c3.53-.32,7.11,1.7,6.66,5.97-.26,2.45.52,4.61,3.02,5.35l-2.91,7.66c-.9-.75-2.55-1.78-3.72-1.65-4.88,4.5-5.31,8.58-4.16,13.12-1.75,1.78-3.21,4.02-5.3,5.71-3.71-1.88-8.16-1.19-10.34,1.44-1.82,2.19-1.8,5.15-.93,7.67l-13.18,7.69c-7.19-3.44-11.11-1.14-17.54,2.27-7.26,3.85-17.86,6.67-18.68,14.39l-6.84,2.13c-.78-2.52-5.14-2.93-7.74-1.86-1.92.78-1.55,4.13-1.09,5.55.57,1.76,2.79,1.74,4.14,2.09.91.23,1.31,1.82,3.37,1.37,1.09-.24,1.67-.55,1.52-1.56,4.1-.08,8.08-1.28,14.42.36-8.48,7.09-18.62,11.77-29.97,12.98-1.82.19-3.82-.16-4.91,1.58-8.94,1.19-17.74.84-26.69-.04-1.09-1.48-3.23-1.41-5.15-1.51l-3.89-.21c-2.42-3.02-8.91-3.04-11.36-.05.26.6-.13,1.51-.4,1.49-4.57,2.87-7.42,6.45-12.03,6.45-14.73,0-19.69-12.1-23.98-4.02-4.79-2.52-8.09-5.58-12.02-8.38,5.49-1.17,1.54-6.39-3.59-15.04.04-1.47.35-3.45-.3-4.75,3.07-1.11,3.9-3.96,3.08-6.91-.5-1.81-2.66-3.04-5.52-2.81-.34-1.66,1.69-4.56-4.33-5.95l-.43,11.67c-1.76,1.14-3.51,1.79-5.69,1.88-4.06-12.15-2.82-25-2.03-37.66,1.91-.88,1.74-2.63,1.81-4.27l.32-7.09c2.1-.72,1.69-2.68,1.79-4.31l.36-5.89-11.02,2.62c-1.82.43-3.78.21-4.93,1.77-.69-.12-1.59-.03-2.3.03-.57-2.47-3.04-3.71-5.27-3.81-3.1-.14-4.29,2.38-5.86,3.38-7.12,4.54-4.13,10.12-4.48,15.31-.39,5.76-1.57,9.62-.68,15.43,2.82,18.42-8.89,37.79,1.47,41.62l-.3,7.44c-11.75,1.16-1.7,7.51-1.65,20.94l-.52,5.4-5.17.12-1.82-4.13c-1.17-2.64-3.38-.63-3.84.51-.7,1.75-.84,4.44-.49,5.64,1.45,5.05.36,10.11-4.32,13.58-18.06-3.35-4.59-20.28-20.01-25.87-.09-.88-.81-2.67-1.81-2.64-1.04.03-2.24.74-2.87,1.78l-5.16,8.51c-6.31-4.13-9.18-9.6-9.09-16.31l.41-30.15c2.67-1.39,1.77-3.89,1.82-6.06l.28-12.84c3.12-1.69,2.47-5.18,1.81-7.85-.59-2.39.02-4.92.12-7.27l.11-2.41c2.64-.1,4.64-4.22,2.73-5.59l-19.86,1.12c-1.83-.81-4.65-.69-5.18,1.18l-8.18.49c-1.17.07-2.26.84-3.01,1.32-.64.41-2.24,1.17-2.19,1.97.21,3.25-1.15,6.41-5.04,7.44l-8.22.34c-1.62-4.4-15.04-3.31-17.24-.61-.84,1.03-.97,3.04-.97,4.27-1.94.39-4.42.35-6.38.09-2.87-.38-5.2-.08-7.64,1.37-7.78,4.61-12.01,12.53-17.28,19.2-1.35-.21-4.29-.6-5.61.12-2.02,1.09-1.73,4.49-.76,6.45l-37.45,46.56c-4.7-.68-9.93-1.22-12.48,1.61-2.62.04-5.19,1.67-10.55-.16,1.07-6.77,7.09-11.99,5.4-20.01-15.72,18.16-34.07,31.48-29.26,19.9,3.29-.51,3.52-3.57,2.42-5.82l2.62-7.11c2.47.57,3.06-2.23.15-2.05.63-3.22,2.7-6.33,4.8-9.38l10.49-15.23,19.15-27.82-13.74-.45,1.05-7.03c-10.5,1.15-19.51-3.37-23.77-11.17,3.6-3.91,6.81-11.15,12.64-12.16l50.72-8.77,7.56-8.3c1.88.96,4.46.51,4.97-.78.65-1.65.38-3.32.32-4.71l-.06-1.32c3.24-.87,7.13-1.81,9.39-3.38,2.51-1.74,2.89-6.05,1.59-8.8,8.39-9.31,16.5-18.84,24.87-28.14,9.72.59,14.52-7.58,13.43-14.92l19.07-19.85c3.11-3.24,5.22-6.73,10.31-6.12,3.18,1.36,4.72,4.1,7.29,6.93,1.44,1.59,5.42-1.03,5.5-2.43.06-.99-2.57-2.74-3.95-3.66l2.35-14.26c.09-.54-.27-1.6,0-2.12,3.68-.7,4.61-3.59,6.82-5.61l22.52-20.5c5.04-4.58,13.86-4.52,19.65-6.16,2.69.75,6.08.61,7.33-1.63l4-.16,14.13.15c2.24,2.85,4.77,5.25,8.61,5.75.72.75,2.02,1.82,3.4,1.82s2.74-1.1,3.6-1.68c10.67.26,15.43-6.29,22.27-2.14-.19,1.65.59,3.2,2.35,3.89l-.04,3.72c-2.36.77-1.63,2.73-2.09,4.15l-11.48,35.47c-2.15.72-1.61,2.67-1.92,4.24l-2.51,12.79c-2.11.64-1.73,2.51-2.04,4.07l-2.24,11.23-8.67.76c.41,11.21-2.04,21.63-5.14,32.66l6.77.24,27.43-1.67c2.77-.17,5.87-.41,9.88-1.23,3.42-14.41,16.29-23.53,9.35-29.09,5.58-8.76,11.55-18.22,20.82-24.72,7.57.34,12.05-6.55,10.56-12.45,7.77-7.82,16.31-15.13,25.25-21.87,7.35,1.55,11.94-3.53,13.13-9.38,6.93-3.24,14.21-12.51,22.96-11.84,16.37,1.25,32.5-11.27,47.96-7.46,11.07,2.73,19.83,3.01,31.27.74l15.61.28ZM1011.11,461.95l-18.63,17.14c-11.72-.98-20.1,9.55-19.16,19.15l-21.89,25.61c-1.14-.15-1.53,1.18-1.05,1.63.94.88,2.43.95,3.13.69.93-.34,1.4-.89,1.31-1.78l8.9-.41c-.18.71-.37,2.3.12,3.01.49.71,2.32,1.27,4.19,1.08l20.33-2.13c7.88-.82,15.45-3.1,15.59-9.34l.13-5.44c2.96-1.19,1.55-4.02,1.95-6.05l2.91-14.75c5.27.72,6.23-2.26,7.36-5.97,1.11-3.62,1.12-6.68-3.6-9.08l.53-7c3.13-.81,5.48-2.29,6.23-6.65.27-1.58-2.72-3.67-5.12-3.36-1.64.21-2.2,2.71-3.22,3.66ZM1168.36,463.87c0-1.16-1.12-2.1-2.5-2.1s-2.5.94-2.5,2.1,1.12,2.1,2.5,2.1,2.5-.94,2.5-2.1ZM932.25,515.78c-2.05,2.77-8.42,5.03-3.33,10.79,2.55-4.32,4.79-7.51,7.2-10.83,8.69-11.97,20.88-21.3,26.87-35.9-13.71,10.28-21.6,23.58-30.75,35.94ZM1143.26,504.72c-.41,2.88,2.61,3.02,3.49,2.58,1.22-.6,1.68-1.74,1.15-2.84-.42-.88-2.96-2.23-4.64.26ZM1085.63,516.88c-.4-1.48-3.46-1.09-4.79-.56-2.4.94-3.21,4.11-.82,4.23,1.93.1,4.01-1.49,5.62-3.67ZM1021.23,525.77c-.62,1.32-.18,2.67.93,2.81,1.79.22,2.51-.16,3.07-.86.73-.91,1.03-4.06.23-3.37-1.72,1.47-2.99,1.46-4.22,1.41ZM1031.46,532.31c-1.8,2.01,1.15,3.78,2.83,3.42.88-.19,2.38.52,3.46-1.15.92-1.43-.36-2.57-1.26-2.77-1.17-.25-4.33-.28-5.02.49Z"/>
      <path class="st8" d="M1252.98,567.61l11.55-11.02c1.32-1.26,2.38-2.35,2-4.38,3.21-.67,6.95-2.88,8.81-5.27,1.28,11.31-8.75,22.31-22.35,20.68Z"/>
      <path class="st8" d="M1266.53,552.2c-2.02.34-3.02,1.06-4.31,2.15l-10.07,8.56c-2.57,2.19-3.91,4.07-2.9,6.53-1.04,1.04-2.01,2.07-3.6,2.65-2.18.79-3.46-1.15-2.25-2.27,3.95-3.64,1.08-9.6,15.82-20.03l9.14-12.05c-4.84-2.86-8.42-3.66-12.94-4.62l31.3-27.81c9.4,17.67-21.32,40.94-20.2,46.9Z"/>
      <path class="st8" d="M1301.1,388.46l-15.61-.28c-11.43,2.27-20.2,1.99-31.27-.74-15.46-3.81-31.59,8.71-47.96,7.46,40.82-23.25,60.58-9.78,71.78-11.84,10.09-1.86,16.47,1.23,23.06,5.4Z"/>
      <path class="st8" d="M1149.71,618.21c9.87,6.32,21.56,5.31,35.4,8.56-15.26,4.25-31.52,3.95-48,2.72-9.52-.71-16.73-5.33-23.41-8.84,4.29-8.08,9.25,4.02,23.98,4.02,4.6,0,7.46-3.59,12.03-6.45Z"/>
      <path class="st8" d="M1241.4,544.43c1.94,4.66-3.4,7.21-5.31,10.33-5.88,9.61-16.04,12.18-27.96,10.16,11.85-5.8,23.37-12.5,33.27-20.49Z"/>
      <path class="st8" d="M1320.54,428.09c-1.02,11.28-8.74,22.52-17.98,31.72-2.26-.25-3.62-2.33-4.6-4.14l9.46-7.47c-1.93-8.05,7.75-20.3,13.12-20.11Z"/>
      <path class="st8" d="M1094.32,505.49l19.23-30.32c6.94,5.56-5.93,14.68-9.35,29.09-4,.82-7.11,1.07-9.88,1.23Z"/>
      <path class="st8" d="M1260.52,579.24l-36.21,16.66c.81-7.72,11.42-10.54,18.68-14.39,6.43-3.41,10.35-5.71,17.54-2.27Z"/>
      <path class="st8" d="M1147.98,550.75c-8.02,3.04-6.21-15.52.74-27.75,1.44-2.54,6.03-3.73,8.08-4.82-6.12,9.92-8.94,21.51-8.83,32.57Z"/>
      <path class="st8" d="M1271.53,462.02l-15.61.5,5.88-17.48c4.83-.33,8.28,8.91,9.73,16.98Z"/>
      <path class="st8" d="M1098.1,597.22c5.13,8.65,9.08,13.86,3.59,15.04-8.14-5.8-13.8-13-16.78-21.92,2.18-.09,3.93-.73,5.69-1.88-.15,4.14,2.21,9.27,7.5,8.76Z"/>
      <path class="st8" d="M1301.06,537.6c-2.5-.74-3.28-2.9-3.02-5.35.45-4.27-3.13-6.29-6.66-5.97,2.72-3.49,6.54-6.66,11.27-9.76,5.29,7.35.86,14.63-1.59,21.09Z"/>
      <path class="st8" d="M1190.76,470.05l-19.3,24.38c-4.3-6.43.56-10.35,6.26-15.17l3.57-7.17c1.29-2.59,5.51-2.95,9.47-2.05Z"/>
      <path class="st8" d="M1134.37,450.44c1.65-5.17,6.72-8.59,10.56-12.45,1.49,5.9-2.99,12.79-10.56,12.45Z"/>
      <path class="st8" d="M1321.06,422.34c-.65.24-2.79.4-3.51-.12-1.13-.82-1.8-3.43-1.4-5.47l2.72-11.66c3.69,5.32,2.72,11.41,2.19,17.25Z"/>
      <path class="st8" d="M1183.3,406.74c-1.18,5.85-5.78,10.93-13.13,9.38,4.45-3.36,7.5-6.75,13.13-9.38Z"/>
      <path class="st8" d="M1284.97,562.44l-11.27,9.11c-.87-2.52-.89-5.48.93-7.67,2.18-2.63,6.64-3.31,10.34-1.44Z"/>
      <path class="st8" d="M1298.15,545.26c-1.7,4.48-4.41,7.94-7.88,11.47-1.15-4.55-.73-8.62,4.16-13.12,1.17-.13,2.82.9,3.72,1.65Z"/>
      <path class="st8" d="M1217.46,598.03l-8.83,3.69c-.46-1.42-.83-4.76,1.09-5.55,2.61-1.07,6.97-.66,7.74,1.86Z"/>
      <path class="st8" d="M1170.56,577.59c-4.73,1.07-6.9,2.28-11.97-.1l11.97.1Z"/>
      <path class="st8" d="M1161.47,616.77l-11.36-.05c2.45-2.98,8.94-2.96,11.36.05Z"/>
      <path class="st8" d="M1202.11,616.96c-1.26,1.43-3.1,1.33-4.91,1.58,1.09-1.73,3.09-1.38,4.91-1.58Z"/>
      <path class="st8" d="M1082.88,552.69c.1-1.64.2-3.11,1.81-4.27-.07,1.64.1,3.4-1.81,4.27Z"/>
      <path class="st8" d="M1170.51,618.49c-1.91-.19-3.73-.15-5.15-1.51,1.92.1,4.06.03,5.15,1.51Z"/>
      <path class="st8" d="M1085.01,541.33c.07-1.58.51-3.1,1.79-4.31-.1,1.63.3,3.6-1.79,4.31Z"/>
      <path class="st8" d="M1260.47,427.87l-5.43.33,2.54-1.68c1.31-.87,2.05.96,2.89,1.35Z"/>
      <path class="st8" d="M1217.66,603.62c.15,1.01-.42,1.32-1.52,1.56-2.06.45-2.46-1.14-3.37-1.37l4.89-.18Z"/>
      <path class="st4" d="M1095.36,582.75c.31,3.38.88,6.63,2.43,9.72.66,1.31.34,3.29.3,4.75-5.29.52-7.65-4.62-7.5-8.76l.43-11.67c6.02,1.39,3.98,4.3,4.33,5.95Z"/>
      <path class="st4" d="M1264.53,556.58l-11.55,11.02c-.89.85-2.91,1.24-3.73,1.83-1-2.46.33-4.34,2.9-6.53l10.07-8.56,2.31,2.23Z"/>
      <path class="st8" d="M1097.79,592.47c-1.55-3.09-2.13-6.34-2.43-9.72,2.85-.24,5.02,1,5.52,2.81.81,2.95-.01,5.8-3.08,6.91Z"/>
      <path class="st8" d="M1143.26,504.72c1.68-2.49,4.22-1.14,4.64-.26.53,1.11.07,2.24-1.15,2.84-.88.44-3.9.3-3.49-2.58Z"/>
      <ellipse class="st8" cx="1165.86" cy="463.87" rx="2.5" ry="2.1"/>
    </g>
    <g>
      <path class="st8" d="M1068.92,535.54c-1.11.95-5.35,2.2-6.32,4.04l-8.5,67.9c-10.36-3.83,1.35-23.21-1.47-41.62-.89-5.81.3-9.67.68-15.43.35-5.19-2.64-10.76,4.48-15.31,1.57-1,2.76-3.52,5.86-3.38,2.22.1,4.69,1.34,5.27,3.81Z"/>
      <path class="st8" d="M1035.98,656.99c-3.22,2.38-4.14,8.86-10.52,10.59l-9.49-36.46c15.41,5.59,1.94,22.52,20.01,25.87Z"/>
      <path class="st8" d="M1073.94,473.5l-7.04,33.65-6.77-.24c3.09-11.03,5.54-21.45,5.14-32.66l8.67-.76Z"/>
      <path class="st8" d="M970.4,439.64c-.3-5.97,5.4-10.59,11.19-13.43l-2.35,14.26c1.38.92,4,2.68,3.95,3.66-.08,1.4-4.06,4.02-5.5,2.43-2.57-2.83-4.12-5.57-7.29-6.93Z"/>
      <path class="st8" d="M1001.59,555.88l-.11,2.41-40.62,5.53c3.89-1.04,5.24-4.2,5.04-7.44l35.69-.5Z"/>
      <path class="st8" d="M927.58,480.53l13.43-14.92c1.08,7.34-3.71,15.51-13.43,14.92Z"/>
      <path class="st8" d="M952.65,564.17l-18.21,3.67c0-1.23.14-3.24.97-4.27,2.19-2.7,15.62-3.8,17.24.61Z"/>
      <path class="st8" d="M1053.79,614.92l-1.65,20.94c-.06-13.44-10.11-19.78,1.65-20.94Z"/>
      <path class="st8" d="M891.73,520.86l10.98-12.19c1.3,2.76.92,7.06-1.59,8.8-2.26,1.57-6.15,2.52-9.39,3.38Z"/>
      <path class="st8" d="M903.14,588.49c-1.88,2.38-3.88,4.56-6.37,6.57-.96-1.96-1.25-5.35.76-6.45,1.33-.72,4.26-.33,5.61-.12Z"/>
      <path class="st8" d="M1056.04,390.18l-14.13-.15c3.25-2.46,11.55-3.13,14.13.15Z"/>
      <path class="st8" d="M886.5,527.66c1.36-1.49,1.55-5.16,5.29-5.49.06,1.39.32,3.06-.32,4.71-.51,1.3-3.09,1.75-4.97.78Z"/>
      <path class="st8" d="M1051.63,641.27l-.79,5.86c-3.34-1.48-3.42-3.57-4.38-5.74l5.17-.12Z"/>
      <path class="st8" d="M859.32,641.61c-3.14,2.37-9.42,1.57-12.48,1.61,2.56-2.84,7.79-2.29,12.48-1.61Z"/>
      <path class="st8" d="M999.55,573.41c.06-2.74-.39-5.59,1.81-7.85.66,2.66,1.31,6.16-1.81,7.85Z"/>
      <path class="st8" d="M1044.63,637.26c-1.89,1.88-3.16,3.97-4.33,6.15-.34-1.2-.21-3.89.49-5.64.46-1.14,2.67-3.16,3.84-.51Z"/>
      <path class="st8" d="M1071.65,396.07c-.85.58-2.2,1.68-3.6,1.68s-2.68-1.07-3.4-1.82l7,.14Z"/>
      <path class="st8" d="M997.45,592.32c.03-2.21-.37-4.41,1.82-6.06-.05,2.17.86,4.67-1.82,6.06Z"/>
      <path class="st8" d="M1037.91,390.2c-1.25,2.23-4.63,2.38-7.33,1.63,2.48-.7,4.43-1.51,7.33-1.63Z"/>
      <path class="st8" d="M812.41,642.95l2.42-5.82c1.11,2.25.88,5.31-2.42,5.82Z"/>
      <path class="st8" d="M928.06,567.92c-1.96,1.63-4.75,1.9-7.64,1.37,2.44-1.45,4.77-1.75,7.64-1.37Z"/>
      <path class="st8" d="M1080.73,445.41c.31-1.58-.23-3.53,1.92-4.24-.49,1.52-.29,3.09-1.92,4.24Z"/>
      <path class="st8" d="M1076.18,462.27c.31-1.56-.07-3.43,2.04-4.07-.31,1.56-.46,3-2.04,4.07Z"/>
      <path class="st8" d="M1096.26,397.82c-1.76-.69-2.54-2.24-2.35-3.89,1.64,1,2.37,2.06,2.35,3.89Z"/>
      <path class="st8" d="M1076.15,533.74c-.86,1.63-2.94,2.12-4.93,1.77,1.14-1.56,3.11-1.34,4.93-1.77Z"/>
      <path class="st8" d="M1094.13,405.7c.46-1.42-.26-3.39,2.09-4.15-.02,1.61-.48,3.19-2.09,4.15Z"/>
      <path class="st8" d="M981.6,424.08c1.34-2.49,3.87-4.39,6.82-5.61-2.21,2.01-3.14,4.9-6.82,5.61Z"/>
      <path class="st8" d="M817.44,630.02c-.06-.61-.03-1.45.15-2.05,2.91-.18,2.32,2.63-.15,2.05Z"/>
      <path class="st12" d="M1013.22,468.3l-.53,7-3.77,15.04-2.91,14.75c-1.97,1.65-1.9,3.85-1.95,6.05l-.13,5.44c-3.1,1.86-6.97,2.8-11.6,3.43l-28.63,3.95-8.9.41c-.93.04-2.03-.09-3.39-.53l21.89-25.61,19.16-19.15,18.63-17.14c2.5,1.24,2.29,4.11,2.12,6.35Z"/>
      <path class="st8" d="M963.71,523.97l28.63-3.95c4.63-.64,8.49-1.58,11.6-3.43-.15,6.24-7.71,8.52-15.59,9.34l-20.33,2.13c-1.87.2-3.7-.37-4.19-1.08-.49-.71-.3-2.29-.12-3.01Z"/>
      <path class="st4" d="M936.12,515.74l-3.87.04c9.15-12.36,17.04-25.66,30.75-35.94-6,14.6-18.19,23.93-26.87,35.9Z"/>
      <path class="st4" d="M1001.59,555.88l-35.69.5c-.05-.8,1.56-1.55,2.19-1.97l3.01-1.32,8.18-.49,5.18-1.18,19.86-1.12c1.91,1.37-.09,5.48-2.73,5.59Z"/>
      <path class="st8" d="M992.47,479.09l-19.16,19.15c-.93-9.6,7.44-20.13,19.16-19.15Z"/>
      <path class="st8" d="M1008.93,490.34l3.77-15.04c4.71,2.39,4.7,5.45,3.6,9.08-1.13,3.71-2.09,6.69-7.36,5.97Z"/>
      <path class="st8" d="M936.12,515.74c-2.41,3.32-4.65,6.51-7.2,10.83-5.09-5.76,1.28-8.02,3.33-10.79l3.87-.04Z"/>
      <path class="st8" d="M1013.22,468.3c.17-2.24.38-5.11-2.12-6.35,1.03-.95,1.59-3.45,3.22-3.66,2.41-.3,5.4,1.78,5.12,3.36-.75,4.36-3.1,5.83-6.23,6.65Z"/>
      <path class="st8" d="M1021.23,525.77c1.23.05,2.5.05,4.22-1.41.8-.69.51,2.46-.23,3.37-.56.69-1.28,1.08-3.07.86-1.11-.14-1.55-1.5-.93-2.81Z"/>
      <path class="st8" d="M1085.63,516.88c-1.61,2.18-3.68,3.77-5.62,3.67-2.38-.12-1.57-3.29.82-4.23,1.34-.53,4.4-.92,4.79.56Z"/>
      <path class="st8" d="M1031.46,532.31c.69-.77,3.86-.74,5.02-.49.9.19,2.18,1.34,1.26,2.77-1.08,1.67-2.58.96-3.46,1.15-1.68.36-4.63-1.41-2.83-3.42Z"/>
      <path class="st8" d="M1004.07,511.15c.05-2.2-.02-4.41,1.95-6.05-.4,2.03,1.01,4.86-1.95,6.05Z"/>
      <path class="st8" d="M954.82,524.38c.09.9-.38,1.44-1.31,1.78-.7.26-2.2.19-3.13-.69-.48-.45-.09-1.78,1.05-1.63,1.36.45,2.46.57,3.39.53Z"/>
      <path class="st8" d="M984.47,551.41l-5.18,1.18c.53-1.87,3.35-1.99,5.18-1.18Z"/>
      <path class="st8" d="M968.09,554.41c.74-.48,1.84-1.25,3.01-1.32l-3.01,1.32Z"/>
    </g>
    <path class="st4" d="M646.83,570.78c-6.04,13-6.03,26.01-17.75,36.91l16.33-44.74c4.63,2.11,2.72,5.03,1.42,7.83Z"/>
    <path class="st4" d="M660.08,573.04c-4.62,13.76-8.74,29.39-14.16,28.56-1.53-.23-3.48-1.98-1.98-4.24l16.15-24.32Z"/>
    <g>
      <path class="st8" d="M403.01,635.97c-9.33,7.12-12.96,17.99-18.5,27.87-.23-1.52-2.19-2.89-3.96-2.2-6.05,2.37-29.73,51.58-40.17,71.44-13.08,24.9-26.86,23.41-31.77,31.97-1.07,1.87-4.65,2.68-6.17,2.07-1.43-.57-2.12-4.8-3.71-5.09l-18.03,10.99c-6.9.75-14.63-3.46-19.09-6.77,7.2-26.36,18.67-49.46,30.49-73.76l32.1-66-59.18,25.91c2.04-7.21,9.31-7.15,12.21-13.41l-15.82,1.97,38.51-26.79c3.78-2.63,33.69-5.78,32.45-21.9,5.82-1.52,7.17-3.84,9.98-8.76l64.45-112.94-87.53,37.07c-4.53,1.92-12.62,2.59-14.02-2.19,1.59-3.59,8.35-6.82,8.83-11.86-11.62,4.19-23.13,8.45-36.87,5.52l33.76-21.76c-6.79.35-11.04,3.85-17.41,1.67,9.26-9.95,20.62-15.4,32.53-22.36,62.09-36.3,131.02-61.29,205.79-72.16,29.23-4.25,56.62-5.36,84.84.4,16.55,3.38,27.5,11.1,37.36,22.13,14.05,15.72,17.8,35.89,3.75,53.13-15.75,23.21-38.38,41.2-63.09,58.2-33.34,22.94-67.6,42.78-103.85,60.94,34.79,34.58,69.36,64.24,105.73,95.62-4.56,4.86-10.61,3.88-15.42.79l-25.04-16.07-3.06,2.1,18.75,19.33c-15.53.89-22.59-7.47-35.8-12.68l10.15,20.43c-4.8-.57-10.91-1.16-13.69.59-1.87,1.17-1.12,6.01-3.12,8.17-9.39-.09-18.81-5.93-25.97-11.44-31.56-24.29-60.39-49.01-90.12-75.9l-12.65,22.92c-.91,1.65.14,2.96,2.39,2.8ZM564.73,477.11c13.48-11.21,30.33-21.97,32.73-38.01-12.75-20.96-68.43-8.24-100.74.58.65,2.63,2.53,6.02,1,8.47-19.8,31.79-40.49,62.53-55.17,96.39,45.5-20.43,83.82-41.54,122.18-67.43ZM574.23,510.97c20.05-8.29,33.43-23.22,38.01-40.91.29-1.13-5.9-1.3-5.33.56,2.24,7.32-24.55,24.08-32.68,40.35ZM391.07,529.64c3.68-1.49.64-4.43-1.61-2.84-4.59,3.25-6.75,7.68-7.96,11.9,6.55.11,8.74-3.84,9.56-9.06ZM305.66,689.25c8.52-12.65,15.48-25.26,16.99-39.07-8.76,12.53-15.66,24.8-16.99,39.07ZM555.2,659c-.88-.61-2.83-2.12-4-1.98-1.66.21-1.5,1.8-.96,2.28l2.51,2.23,2.46-2.53Z"/>
      <path class="st11" d="M332.37,592.26c1.23,16.12-28.68,19.27-32.45,21.9-2.43-1.81-4.06-2.54-5.45-4.47,12-7.29,24.58-13.96,37.9-17.44Z"/>
      <path class="st3" d="M564.73,477.11c-38.36,25.88-76.68,47-122.18,67.43,14.67-33.85,35.36-64.6,55.17-96.39,1.53-2.45-.36-5.84-1-8.47,32.32-8.81,88-21.53,100.74-.58-2.4,16.04-19.25,26.79-32.73,38.01ZM539.18,459.24c-7.97,5.08-18.63,8.71-23.79,14.76-6.32,7.4-11.58,12.73-20.18,20.45,17.41-6.79,43.71-21.84,43.96-35.21Z"/>
      <path class="st5" d="M574.23,510.97c8.14-16.27,34.92-33.03,32.68-40.35-.57-1.86,5.62-1.69,5.33-.56-4.59,17.69-17.97,32.62-38.01,40.91Z"/>
      <path class="st4" d="M305.66,689.25c1.33-14.27,8.24-26.54,16.99-39.07-1.51,13.82-8.48,26.42-16.99,39.07Z"/>
      <path class="st4" d="M391.07,529.64c-.82,5.22-3.02,9.16-9.56,9.06,1.2-4.22,3.36-8.65,7.96-11.9,2.25-1.59,5.29,1.36,1.61,2.84Z"/>
      <path class="st0" d="M539.18,459.24c-.25,13.36-26.55,28.42-43.96,35.21,8.59-7.71,13.86-13.04,20.18-20.45,5.16-6.05,15.81-9.68,23.79-14.76Z"/>
    </g>
  </g>
</svg>