<?xml version="1.0" encoding="UTF-8"?>
<svg id="Camada_1" xmlns="http://www.w3.org/2000/svg" version="1.1" viewBox="0 0 1900.8 864">
  <!-- Generator: Adobe Illustrator 30.3.0, SVG Export Plug-In . SVG Version: 2.1.3 Build 182)  -->
  <path d="M1025.13,536.46c-37.39-45.67-42.91-112.34-12.1-163.03,7.9-13,20.8-23.92,32.27-33.14,14.65-11.78,31.89-16.77,49.99-20.96l25.72,75.05c5.13-26.87,2.45-50.44.42-77.16,65.52-3.07,119.32,44.72,129.3,108.55,5.19,33.2.7,64.86-17.11,92.96-27.73,43.75-75.05,65.26-126.08,59.52-32.75-3.68-59.91-14.32-82.4-41.79h-.01ZM1058.65,482.14c11.88,32.37,47.63,51.99,80.85,43.3,20.44-5.35,34.9-20.95,46.7-37.7,21.41-30.4,10.2-96.94-29.49-112.12-8.46,29.36-17.38,54.27-29.69,80.91l-8.26,1.86c-1.77.4-5.84-3.47-6.42-5.14l-17.46-50.03-9.08-24.87-11.02,10.02c-23.47,21.34-26.56,65.39-16.14,93.78h.01Z"/>
  <path d="M340.2,574.41l-56.86-89.69-36.28-.92c-3.76,30.7-2.96,56.8-1.67,88.71l-54.41.09-2.4-247.83,106.91-.72c32.66-.22,62.16,10.84,82.26,35.91,26.81,44.32,7.76,91.18-35.4,116.47l59.26,95.69-61.42,2.28h0ZM332.81,417.47c9.05-22.21-7.4-47.05-30.48-47.33l-55.21-.67.41,69.69,56.14-.99c11.86-.21,24.29-8.81,29.14-20.7Z"/>
  <path d="M731.13,558.06c-18.82,17.63-43.97,23.13-70.17,20.02-29.19-3.46-50.59-22.13-55.49-49.54-5.07-28.37,8.94-53.89,35.99-65.99,26.91-12.03,56.12-12.83,85.76-4.35,3.44-14.32-5.83-25.93-20.94-29.27-23.89-5.27-48.27,1.48-71.09,11.04l-16.85-36.92c34.85-20.21,76.46-27.37,115.69-16.24,26.17,7.42,46.89,24.72,47.92,53.68l1.89,53.24-1.13,79.62-47.74,1.26-3.85-16.57v.02ZM720.47,523.64c6.39-6.41,8.72-18.61,5.13-26.78-20.17-6.77-45.89-8.42-62.87,5.98-9.54,8.09-1.14,24.73,8.56,29.1,16.84,7.6,35.04,5.87,49.18-8.3Z"/>
  <path d="M551.29,517.36l27.87,26.8c-38.82,36.5-99.44,45.83-141,12.89-13.72-10.87-25.26-26.78-31.09-43.45-14.38-41.14-1.29-95.27,38.78-118.7,34.5-20.17,81.93-18.11,114.33,7.24,21.66,16.95,32.29,59.67,26.57,89.74l-127.34,2.66c-.05,20.6,15.48,36.5,36.66,39.89,19.51,2.89,35.74-2.88,55.21-17.07h0ZM534.33,458.29c-.32-18.86-13.37-28.9-28.56-31.72-22.07-4.3-43.47,9.1-46.94,32.31l75.5-.59Z"/>
  <path d="M1601.04,529.77l19.98-10.35,26.37,26.2c-40.17,37.73-102.19,44.56-142.03,11.69-30.44-25.12-39.94-63.06-32.51-100.27,6.37-31.86,25.17-57.25,56.73-68.33,29.53-10.37,63.36-7.59,90.74,8.55,29.62,17.46,39.84,60.53,34.36,95.82l-127.43,2.63c.69,15.16,7.82,26.11,20,33.48,15.83,9.58,36.34,9.63,53.79.59h0ZM1601.87,459.54c.63-14.6-6.99-24.85-19.22-29.32-12.2-4.46-24.85-4.83-36.47,1.92-9.44,5.48-17.68,15.08-19.29,28.04l74.98-.64Z"/>
  <path d="M1398.01,571.42l-3.92-113.64c-.29-8.3-4.98-19.1-11.79-23.45-12.86-8.22-31.7-7.64-42.37,4.06-7.36,8.07-12.32,22.7-12.49,33.85l-1.53,100.91-52.48.62-1.85-190.14,49.89,1.01,4.17,17.23,16.7-10.89c28.11-11.99,63.96-8.74,87.14,12.05,17.44,15.64,20.57,40.01,20.94,62.06l1.79,106-54.21.32h.01Z"/>
  <polygon points="992.62 571.2 934.27 573.59 893.78 516.77 852.1 573.63 794.12 572.48 858.97 477.05 796.37 386.48 856.87 383.92 895.64 436.99 932.95 384.41 990.39 385.43 927.4 476.71 992.62 571.2"/>
  <g>
    <path d="M1679.79,334.57c0,13.18-10.69,23.88-23.88,23.88s-23.88-10.69-23.88-23.88,10.69-23.88,23.88-23.88,23.88,10.69,23.88,23.88ZM1674.94,334.57c0-10.51-8.52-19.03-19.03-19.03s-19.03,8.52-19.03,19.03,8.52,19.03,19.03,19.03,19.03-8.52,19.03-19.03Z"/>
    <path d="M1664.13,338.72l3.86,7.8h-6.84l-3.31-6.69c-.39-.81-.93-1.45-1.56-2.04-.7-.44-1.46-.71-2.31-.71h-2.09v9.44h-6.45v-24.99l10.95.03c1.72,0,3.34.31,4.89.94,1.68.72,2.88,2.02,3.3,3.81.31,1.34.33,2.7.03,4.05-.52,2.37-2.32,3.78-4.55,4.48,2.07.6,3.06,2.09,4.09,3.89v-.02ZM1658.2,328.12c-.23-.85-.84-1.41-1.65-1.67-.54-.12-1.13-.23-1.7-.23h-2.95v6.42h3.05c.64-.01,1.28-.16,1.86-.35,1.56-.66,1.82-2.62,1.4-4.17h-.01Z"/>
  </g>
</svg>