<?xml version="1.0" encoding="UTF-8"?>
<svg id="Camada_1" xmlns="http://www.w3.org/2000/svg" version="1.1" viewBox="0 0 1900.8 1419.26">
  <!-- Generator: Adobe Illustrator 30.3.0, SVG Export Plug-In . SVG Version: 2.1.3 Build 182)  -->
  <defs>
    <style>
      .st0 {
        fill: #fff;
      }
    </style>
  </defs>
  <path class="st0" d="M741.13,644.06c-8.41-53.42,23.43-108.06,61.06-148.56-29.94,12.94-51.01,37.85-65.82,65.75-22.69,42.75-31.86,83.98-11.69,131.68-37.26-6.44-71.96-13.79-108.41-16.24l-25.59-1.72c-24.66-1.66-49.4-1.15-73.78.29l-45.35,2.68c-24.92,1.47-48.97,4.54-71.62,12.39,60.67-1.02,123.86-4.45,182.66,5.19l178.23,29.23c.54,2.65,1.16,7.88-.14,9.43-11.13,13.33-77.25,8.17-110.13.66,31.27,23.64,67.89,33.48,106.92,39.01,24.43,3.46,56.39-12.01,56.92-5.51.89,10.98-34.52,27.53-55.59,33.67-35.77,10.41-71.47,15.84-108.57,16.76l-64.4,1.59c-31.07.77-61.12,17.85-82.21,39.37-19.69,20.09-25.02,45.65-23.1,73.28,3.12,44.92,25.86,84.03,55.34,117.39l10.38,11.75c1.03,1.16,2.65,6.57,1.25,6.68l-7.81.61c-36.9-20.19-63.74-49.51-85.54-85.83-44.34-74.6-47.87-166.25-12.88-246.01-34.3-7.28-67.36-13.39-100.39-9.86l-54.23,5.8c-11.06,1.18-21.54.92-33.93-.18,8.54-15.62,19.31-21.66,32.74-28.97,75.76-41.23,160.2-58.73,245.95-61.72l59.73-2.08-45.23-3.27c-15.38-1.11-29.23,3.76-46.72,1.02,50.56-62.77,120.72-102.53,196.69-127.63l56.27-18.6c-43.26,2.55-79.48,19.14-118.36,37.03.91-5.14,2.55-8.36,4.88-13.33,15.15-32.34,17.64-70.99,4.82-105.34-9.37-25.12-22.67-47.86-37.19-70.41l-13.56-16.19-4.67-7.45c-1.25-2,5.65-5.25,8.75-6.12,69.57,13.07,132.63,47.37,184.52,95.62,10.49,8.74,19.17,17.34,27.77,27.57l19.17,22.78c49.57-10.13,99.94-20.12,151.37-22.94l32.86-1.8c24.83-1.36,49.23-.04,73.77.62l71.52,1.92,25.73,1.64c110.62,7.05,218.39,34.21,319.47,78.31,9.31,4.06,16.68,12.93,18.54,19.56,7.56,27.04-44.19,74.78-71.61,98.83-27.5,24.12-57.03,43.51-89.05,61.55-6.04,3.4-13.65,5.21-18.65,5.11,2.89-19.16,10.09-33.65,25.14-44.19,31.83-22.31,62.76-44.56,88.08-74.73,4-4.76,11.14-15.13,8.5-20.66-5.22-10.9-16.21-17-25.75-21.98-32.53-16.94-66.36-17.01-101.47-20.28-41.85-3.91-81.14,1.61-118.89,21.28-17.67,9.2-37.49,12.9-57.17,13.69l-37.77,1.53-42.53,1.9-37.55,2.28c-39.17,2.38-73.81,11.62-106.83,32.29-27.8,17.4-45.63,44.14-47.45,77.97-4.32,1.77-10.04-1.88-11.44-6.71-11.63-40.11-3.17-80.85,19.25-116.23,18.73-29.55,46.64-48.7,76.13-67.12-24.79,8.13-46.48,23.04-65.83,39.97-38.66,33.81-58.62,93.14-50.95,142.98,1.99,12.93,13.5,23.31,12.91,33.8-.89,15.66-38.71-28.3-38.7-58.14l.02-39.99c.01-32.1,20.3-56.23,37.11-84.54-34.29,24.69-50.83,66.2-54.48,107.54-2.64,29.87,7.84,56.63,20.42,84.8-30.6-2.52-47.35-43.28-51.01-72.75-3.49-28.13,4.84-52.17,14.42-80.16-39.14,50.13-39.87,101.88-3,158.72-32.1-7.21-47.67-36.97-52.28-66.29ZM770.45,444.06c-17.26-22.1-35.09-41.45-59.66-54.36l39.37,54.96c3.56,4.96,14.8,5.74,20.29-.59ZM1194.17,484.06c-8.72,2.37-10.46,10.27-7.95,17.99,1.83,5.63,10.58,8.31,17.74,6.13,5.98-1.81,8.53-10.18,5.89-17.38-1.73-4.73-9.57-8.41-15.69-6.75ZM675.9,548.49c-28.46,12.37-51.56,28.11-73.59,47.58,36.48-2.66,53.3-22.87,73.59-47.58ZM535.78,777.45l-22.64-11.43c-22.53,20.16-37.7,43.9-46.74,72.22-9.19,28.81-15.78,59.44-7.3,88.05,9.12-63.47,24.5-113.08,76.68-148.84Z"/>
  <path class="st0" d="M709.81,972.04l-30.85-29.58c-15.49-14.85-38.3-24.88-60.2-24.71-40.01.31-65.9,33.1-69.76,71.39-3.29,32.72,18.07,66.69,10.63,66.61-9.9-.09-28-26.26-35.3-41.12-19.57-39.82-19.07-83.87,18.33-110.46,39.63-28.17,85.89-43.04,134.65-45.61l50.28-2.64,64.11-1.81,37.7-2.43,31.94-2.77c57.66-5,113.08-14.05,169.44-33.29l-82.63-1.94c-30.77-.72-59.99-9.92-84.97-28.04,9.97-5.97,19.16-2.72,29.2-1.71l24.98,2.49c26.62,2.66,52.62,1.16,79.1-.34,43.65-2.46,84.81-10.48,126.36-24.37,10.54-3.52,21.85-1.49,30.12,4.2,9.61,6.61,11.34,15.78,10.19,30.9,2.77-1.28,8.01-4.23,10.19-6.54,10.46-11.07-14.46-38.91-36.26-55.29-50.45-37.91-109.27-59.02-173.2-71.1,10.63-10.88,24.15-15.44,38.43-20.26,60.02-20.24,138.51-43.52,199.57-38.68,39.2,3.1,76.73,13.03,107.32,38.61,12.38,10.35,22.14,24.26,24.06,41.11,3.11,27.2-49.79,53.71-79.89,66.97-12.9,5.69-19.54,12.85-25.44,25.45-8.99,19.2-27.96,32.48-47.07,40.19l-30.54,12.32-102.17,25.04,14.27,85.52,2.45,22.74,1.18,56.93c.15,7.02,1.77,14.84.58,21.65-2.65,15.13-3.57,30.82-8.22,44.92l-19.89,60.37c-.92,2.78-6.87,7.67-9.73,7.18-2.86-.49-6.38-5.43-7.6-8.9l-24.72-70.5c-11.94-34.06-41.02-69.97-67.13-96.55-28.66-29.18-60.89-53.92-100.39-67.51l8.89-15.46-48.46.77-27.4,1.97c-13.01.93-21.73,6.2-27.72,18.33-16.36,33.12-10.62,69.18-24.45,55.92ZM1152.03,647.68l12.84-16.44-21.97,3,9.13,13.44ZM1208.54,634.75l-21.22-.89,6.55,15.9,14.67-15.01ZM1281.69,672.31c-.56,11.03-3.41,20.86-7.47,32.19,5.28-1.21,17.82-6.94,18.86-12.5,4.69-24.97-39.43-48.97-70.47-53.78l6.17,21.02,21.49-9.65c9.27,7.68,10.08,17.38,4.55,30.1l26.88-7.38ZM1065.21,668.2l9.89.02c1.55,0,.06-7.12-1.45-6.74l-9.39,2.33c-.13-.51.48,2.28.94,4.4ZM1105.52,683.73c.16-9.86-2.46-15.32-4.73-13.67l-9.72,7.08,14.45,6.59ZM1139.1,701.03l1.71-20.56-21.93,9.91,20.22,10.65ZM1169.93,722.03l2.92-21.15-20.32,9.92,17.4,11.23ZM1191.93,741.93l7.02-14.88-15.97,5.82c-.3,2.75,6.47,9.9,8.94,9.06ZM1210.44,755.65c-3.78-.84-11.88-2.02-11.36-.29l2.74,9.16,8.62-8.87ZM1028.68,1085.84c5.84-59.89-6.26-112.79-23.16-167.82-17.06,3.84-33.31,10.26-48.8,18.61,16.06,21.84,28.78,41.66,40,64.65l31.97,84.56Z"/>
  <path class="st0" d="M1332.15,541.28c-46.51-13.28-41.74,28.11-71.26,32.8l7.32-33.68c2.84-13.09,20.53-17.27,31.26-17.03,12.19.27,27.37,2.67,32.68,17.92Z"/>
  <g>
    <path class="st0" d="M1522.31,429.52c0,10.53-8.54,19.08-19.08,19.08s-19.08-8.54-19.08-19.08,8.54-19.08,19.08-19.08,19.08,8.54,19.08,19.08ZM1518.43,429.52c0-8.4-6.8-15.2-15.2-15.2s-15.2,6.8-15.2,15.2,6.8,15.2,15.2,15.2,15.2-6.8,15.2-15.2Z"/>
    <path class="st0" d="M1509.8,432.84l3.08,6.23h-5.47l-2.64-5.35c-.31-.64-.74-1.16-1.25-1.63-.56-.35-1.17-.56-1.84-.56h-1.67v7.55h-5.15v-19.96l8.75.02c1.38,0,2.67.25,3.91.75,1.34.57,2.3,1.61,2.63,3.04.25,1.07.27,2.16.02,3.24-.42,1.89-1.85,3.02-3.63,3.58,1.65.48,2.45,1.67,3.27,3.11v-.02ZM1505.07,424.36c-.19-.68-.67-1.13-1.32-1.34-.43-.1-.9-.19-1.36-.19h-2.36v5.13h2.44c.51,0,1.02-.13,1.49-.28,1.25-.52,1.46-2.09,1.12-3.33h0Z"/>
  </g>
</svg>